<?xml version="1.0" encoding="UTF-8" standalone="no"?>
<svg width="1204px" height="811px" viewBox="0 0 1204 811" version="1.1" xmlns="http://www.w3.org/2000/svg" xmlns:xlink="http://www.w3.org/1999/xlink">
    <!-- Generator: sketchtool 41.1 (35376) - http://www.bohemiancoding.com/sketch -->
    <title>C7E2343F-9ADA-4E3E-9106-25956DBAD13A</title>
    <desc>Created with sketchtool.</desc>
    <defs></defs>
    <g id="Symbols" stroke="none" stroke-width="1" fill="none" fill-rule="evenodd" opacity="0.06">
        <g id="d---404-page" transform="translate(1.000000, -56.000000)">
            <g id="icons-bg">
                <g transform="translate(1.000000, 58.000000)">
                    <g>
                        <g id="wine" transform="translate(453.000000, 109.000000)" stroke="#732282">
                            <g>
                                <path d="M64.8250314,0.346456896 L64.8250314,14.887018 C64.8250314,32.5592034 50.4734911,46.8787087 32.7631668,46.8787087 C15.0569335,46.8787087 0.701302098,32.5592034 0.701302098,14.887018 L0.701302098,0.346456896 L64.8250314,0.346456896 Z" id="Stroke-1" stroke-width="4" stroke-linecap="round" stroke-linejoin="round"></path>
                                <path d="M33,48.7724203 L33,78.9915707" id="Stroke-3" stroke-width="4"></path>
                                <path d="M23.718178,77.4720166 L40.3116351,77.4720166 C45.6300508,77.4720166 49.9461498,81.774418 49.9461498,87.0838515 L49.9461498,87.5955548 L14.0877545,87.5955548 L14.0877545,87.0838515 C14.0877545,81.774418 18.3956712,77.4720166 23.718178,77.4720166 Z" id="Stroke-5" stroke-width="4" stroke-linecap="round" stroke-linejoin="round"></path>
                                <path d="M32.7631668,35.244213 C21.516763,35.244213 12.3609058,26.115426 12.3609058,14.8866087 L12.3609058,11.9801339" id="Stroke-7" stroke-width="4" stroke-linecap="round" stroke-linejoin="round"></path>
                            </g>
                        </g>
                        <g id="wine" transform="translate(8.000000, 384.000000)" stroke="#732282">
                            <g>
                                <path d="M64.8250314,0.346456896 L64.8250314,14.887018 C64.8250314,32.5592034 50.4734911,46.8787087 32.7631668,46.8787087 C15.0569335,46.8787087 0.701302098,32.5592034 0.701302098,14.887018 L0.701302098,0.346456896 L64.8250314,0.346456896 Z" id="Stroke-1" stroke-width="4" stroke-linecap="round" stroke-linejoin="round"></path>
                                <path d="M33,48.7724203 L33,78.9915707" id="Stroke-3" stroke-width="4"></path>
                                <path d="M23.718178,77.4720166 L40.3116351,77.4720166 C45.6300508,77.4720166 49.9461498,81.774418 49.9461498,87.0838515 L49.9461498,87.5955548 L14.0877545,87.5955548 L14.0877545,87.0838515 C14.0877545,81.774418 18.3956712,77.4720166 23.718178,77.4720166 Z" id="Stroke-5" stroke-width="4" stroke-linecap="round" stroke-linejoin="round"></path>
                                <path d="M32.7631668,35.244213 C21.516763,35.244213 12.3609058,26.115426 12.3609058,14.8866087 L12.3609058,11.9801339" id="Stroke-7" stroke-width="4" stroke-linecap="round" stroke-linejoin="round"></path>
                            </g>
                        </g>
                        <g id="wine" transform="translate(1124.000000, 158.000000)" stroke="#732282">
                            <g>
                                <path d="M64.8250314,0.346456896 L64.8250314,14.887018 C64.8250314,32.5592034 50.4734911,46.8787087 32.7631668,46.8787087 C15.0569335,46.8787087 0.701302098,32.5592034 0.701302098,14.887018 L0.701302098,0.346456896 L64.8250314,0.346456896 Z" id="Stroke-1" stroke-width="4" stroke-linecap="round" stroke-linejoin="round"></path>
                                <path d="M33,48.7724203 L33,78.9915707" id="Stroke-3" stroke-width="4"></path>
                                <path d="M23.718178,77.4720166 L40.3116351,77.4720166 C45.6300508,77.4720166 49.9461498,81.774418 49.9461498,87.0838515 L49.9461498,87.5955548 L14.0877545,87.5955548 L14.0877545,87.0838515 C14.0877545,81.774418 18.3956712,77.4720166 23.718178,77.4720166 Z" id="Stroke-5" stroke-width="4" stroke-linecap="round" stroke-linejoin="round"></path>
                                <path d="M32.7631668,35.244213 C21.516763,35.244213 12.3609058,26.115426 12.3609058,14.8866087 L12.3609058,11.9801339" id="Stroke-7" stroke-width="4" stroke-linecap="round" stroke-linejoin="round"></path>
                            </g>
                        </g>
                        <g id="pizza" transform="translate(179.000000, 255.000000)" stroke-linecap="round" stroke-linejoin="round">
                            <g>
                                <path d="M70.6171043,30.9225813 C75.3423122,40.3583903 76.6882805,51.8287316 73.2394924,62.6768417 L0.279010798,66.0786453 L46.9215167,9.70122184 C57.6319878,13.4673582 65.9532629,21.4540234 70.6171043,30.9225813" id="Stroke-9" stroke="#875990" stroke-width="4"></path>
                                <path d="M46.9219258,9.70081247 C57.6323969,13.4669488 65.953672,21.453614 70.6175135,30.922172" id="Stroke-11" stroke="#732282" stroke-width="4"></path>
                                <path d="M70.6171043,30.9225813 C75.3423122,40.3583903 76.6882805,51.8287316 73.2394924,62.6768417" id="Stroke-13" stroke="#732282" stroke-width="4"></path>
                                <path d="M42.0437113,31.500192 C43.3201311,27.8445836 47.3048518,25.9205792 50.9500121,27.2018843 C54.5951724,28.4831893 56.5138932,32.486756 55.2415645,36.1382708 C53.9651447,39.7938792 49.9763329,41.7219773 46.3352637,40.4406722 C42.6901034,39.1593671 40.7672915,35.1558004 42.0437113,31.500192 Z" id="Stroke-15" stroke="#732282" stroke-width="4"></path>
                                <path d="M24.2728388,49.0520248 C25.2997021,46.1087074 28.5071159,44.5613166 31.4404268,45.5929104 C34.3737376,46.6245043 35.9201692,49.8461883 34.8933059,52.7854121 C33.8664426,55.7287295 30.6590288,57.2761203 27.7257179,56.2445264 C24.7924071,55.2129326 23.2459755,51.9953422 24.2728388,49.0520248 Z" id="Stroke-17" stroke="#732282" stroke-width="4"></path>
                                <path d="M49.2231634,61.9125616 C48.7322327,58.0686464 51.4446248,54.5604085 55.2738841,54.0691734 C59.1031434,53.5820318 62.6010245,56.3042934 63.0878641,60.144115" id="Stroke-19" stroke="#732282" stroke-width="4"></path>
                                <path d="M81.0448812,25.6634994 C81.0735188,25.7208102 81.1021564,25.778121 81.130794,25.8354318 C86.7192216,37.0806236 88.2451978,50.0615131 85.4918949,62.0967748 L0.278601689,66.0798733" id="Stroke-21" stroke="#732282" stroke-width="4"></path>
                                <path d="M81.0886558,25.7515124 L81.0027429,25.5795801 C75.4143153,14.3343882 66.0007195,5.29156743 54.762498,0.252313271 L0.281465451,66.0901074" id="Stroke-23" stroke="#732282" stroke-width="4"></path>
                            </g>
                        </g>
                        <g id="pizza" transform="translate(384.000000, 602.000000)" stroke-linecap="round" stroke-linejoin="round">
                            <g>
                                <path d="M70.6171043,30.9225813 C75.3423122,40.3583903 76.6882805,51.8287316 73.2394924,62.6768417 L0.279010798,66.0786453 L46.9215167,9.70122184 C57.6319878,13.4673582 65.9532629,21.4540234 70.6171043,30.9225813" id="Stroke-9" stroke="#875990" stroke-width="4"></path>
                                <path d="M46.9219258,9.70081247 C57.6323969,13.4669488 65.953672,21.453614 70.6175135,30.922172" id="Stroke-11" stroke="#732282" stroke-width="4"></path>
                                <path d="M70.6171043,30.9225813 C75.3423122,40.3583903 76.6882805,51.8287316 73.2394924,62.6768417" id="Stroke-13" stroke="#732282" stroke-width="4"></path>
                                <path d="M42.0437113,31.500192 C43.3201311,27.8445836 47.3048518,25.9205792 50.9500121,27.2018843 C54.5951724,28.4831893 56.5138932,32.486756 55.2415645,36.1382708 C53.9651447,39.7938792 49.9763329,41.7219773 46.3352637,40.4406722 C42.6901034,39.1593671 40.7672915,35.1558004 42.0437113,31.500192 Z" id="Stroke-15" stroke="#732282" stroke-width="4"></path>
                                <path d="M24.2728388,49.0520248 C25.2997021,46.1087074 28.5071159,44.5613166 31.4404268,45.5929104 C34.3737376,46.6245043 35.9201692,49.8461883 34.8933059,52.7854121 C33.8664426,55.7287295 30.6590288,57.2761203 27.7257179,56.2445264 C24.7924071,55.2129326 23.2459755,51.9953422 24.2728388,49.0520248 Z" id="Stroke-17" stroke="#732282" stroke-width="4"></path>
                                <path d="M49.2231634,61.9125616 C48.7322327,58.0686464 51.4446248,54.5604085 55.2738841,54.0691734 C59.1031434,53.5820318 62.6010245,56.3042934 63.0878641,60.144115" id="Stroke-19" stroke="#732282" stroke-width="4"></path>
                                <path d="M81.0448812,25.6634994 C81.0735188,25.7208102 81.1021564,25.778121 81.130794,25.8354318 C86.7192216,37.0806236 88.2451978,50.0615131 85.4918949,62.0967748 L0.278601689,66.0798733" id="Stroke-21" stroke="#732282" stroke-width="4"></path>
                                <path d="M81.0886558,25.7515124 L81.0027429,25.5795801 C75.4143153,14.3343882 66.0007195,5.29156743 54.762498,0.252313271 L0.281465451,66.0901074" id="Stroke-23" stroke="#732282" stroke-width="4"></path>
                            </g>
                        </g>
                        <g id="pizza" transform="translate(1113.000000, 622.000000)" stroke-linecap="round" stroke-linejoin="round">
                            <g>
                                <path d="M70.6171043,30.9225813 C75.3423122,40.3583903 76.6882805,51.8287316 73.2394924,62.6768417 L0.279010798,66.0786453 L46.9215167,9.70122184 C57.6319878,13.4673582 65.9532629,21.4540234 70.6171043,30.9225813" id="Stroke-9" stroke="#875990" stroke-width="4"></path>
                                <path d="M46.9219258,9.70081247 C57.6323969,13.4669488 65.953672,21.453614 70.6175135,30.922172" id="Stroke-11" stroke="#732282" stroke-width="4"></path>
                                <path d="M70.6171043,30.9225813 C75.3423122,40.3583903 76.6882805,51.8287316 73.2394924,62.6768417" id="Stroke-13" stroke="#732282" stroke-width="4"></path>
                                <path d="M42.0437113,31.500192 C43.3201311,27.8445836 47.3048518,25.9205792 50.9500121,27.2018843 C54.5951724,28.4831893 56.5138932,32.486756 55.2415645,36.1382708 C53.9651447,39.7938792 49.9763329,41.7219773 46.3352637,40.4406722 C42.6901034,39.1593671 40.7672915,35.1558004 42.0437113,31.500192 Z" id="Stroke-15" stroke="#732282" stroke-width="4"></path>
                                <path d="M24.2728388,49.0520248 C25.2997021,46.1087074 28.5071159,44.5613166 31.4404268,45.5929104 C34.3737376,46.6245043 35.9201692,49.8461883 34.8933059,52.7854121 C33.8664426,55.7287295 30.6590288,57.2761203 27.7257179,56.2445264 C24.7924071,55.2129326 23.2459755,51.9953422 24.2728388,49.0520248 Z" id="Stroke-17" stroke="#732282" stroke-width="4"></path>
                                <path d="M49.2231634,61.9125616 C48.7322327,58.0686464 51.4446248,54.5604085 55.2738841,54.0691734 C59.1031434,53.5820318 62.6010245,56.3042934 63.0878641,60.144115" id="Stroke-19" stroke="#732282" stroke-width="4"></path>
                                <path d="M81.0448812,25.6634994 C81.0735188,25.7208102 81.1021564,25.778121 81.130794,25.8354318 C86.7192216,37.0806236 88.2451978,50.0615131 85.4918949,62.0967748 L0.278601689,66.0798733" id="Stroke-21" stroke="#732282" stroke-width="4"></path>
                                <path d="M81.0886558,25.7515124 L81.0027429,25.5795801 C75.4143153,14.3343882 66.0007195,5.29156743 54.762498,0.252313271 L0.281465451,66.0901074" id="Stroke-23" stroke="#732282" stroke-width="4"></path>
                            </g>
                        </g>
                        <g id="meat" transform="translate(576.000000, 501.000000)" fill="#732282">
                            <path d="M34.1204138,14.5849609 C34.4571379,15.8302155 35.5448966,22.1977831 23.8061034,25.3823433 C11.9881724,28.5901937 5.8992069,25.255023 4.28851724,24.1370887 L3.70662069,21.9897231 C7.61386207,23.9135018 14.9954138,24.3203057 23.8448966,21.9198523 C29.1424828,20.4820645 32.5997241,17.6266739 33.9171379,13.8396714 L34.1204138,14.5849609 Z M4.82851724,15.5740223 L12.418,21.58913 C7.00093103,21.5875773 3.59334483,20.182396 2.84231034,18.7989523 L2.72127586,18.3486731 C2.70110345,18.2772496 2.67317241,18.2120367 2.64213793,18.1499293 C2.43731034,16.9233069 3.12782759,16.3860773 4.82851724,15.5740223 L4.82851724,15.5740223 Z M7.79386207,13.836566 C8.48437931,13.1704634 9.02593103,12.2683526 9.65437931,11.2233945 C9.69627586,11.1550763 9.73817241,11.0836527 9.78006897,11.0137818 L21.6616207,20.4292731 C19.393,20.9633973 17.2919655,21.2910142 15.3786897,21.455599 C15.3290345,21.3903861 15.2731724,21.3282787 15.2064483,21.2754873 L6.77127586,14.5911717 C7.14058621,14.3675848 7.49282759,14.1269184 7.79386207,13.836566 L7.79386207,13.836566 Z M22.9231724,11.4221384 C21.8354138,11.7171488 20.7414483,11.3289772 20.5381724,10.5759242 C20.3333448,9.82287121 21.0812759,8.93473449 22.1705862,8.63972404 C23.2583448,8.34316091 24.3507586,8.73133255 24.5555862,9.48593822 C24.7604138,10.2389912 24.0124828,11.1255752 22.9231724,11.4221384 L22.9231724,11.4221384 Z M24.0357586,19.8019878 C24.0093793,19.7771448 23.9861034,19.7491964 23.955069,19.7259061 L10.8492069,9.338433 C11.6157586,8.22515673 12.5824828,7.06685255 13.9340345,6.00792031 L18.5969655,9.70176166 C18.5007586,10.1582515 18.5054138,10.6302682 18.6311034,11.0929688 C19.1074828,12.8568208 21.1464483,13.8474348 23.235069,13.3785234 L28.5745517,17.6080417 C27.043,18.7042384 25.3516207,19.3920785 24.0357586,19.8019878 L24.0357586,19.8019878 Z M22.0588621,2.66343345 L32.4383448,10.8895669 C32.4631724,10.9097518 32.4911034,10.9221733 32.5174828,10.9377002 C32.3421379,13.217044 31.3831724,14.9638164 30.1014483,16.2960215 L25.2073103,12.4174105 C26.2702414,11.5277211 26.800931,10.2172536 26.4626552,8.9688936 C25.9707586,7.14914494 23.8107586,6.14455673 21.6523103,6.72991957 C20.8143793,6.95816449 20.0990345,7.39291673 19.5636897,7.94722584 L15.658,4.84806345 C16.8404138,4.1710921 18.2478276,3.57175509 19.9593793,3.10594912 C20.3519655,3.00036643 21.1076552,2.81404404 22.0588621,2.66343345 L22.0588621,2.66343345 Z M32.0845517,6.90847852 C32.2164483,7.39912748 32.3142069,7.87114419 32.3886897,8.32918673 L24.945069,2.42897778 C27.8731724,2.44139927 31.1131724,3.32643061 32.0845517,6.90847852 L32.0845517,6.90847852 Z M2.82368966,25.5158743 C4.04644828,26.4552497 10.8243793,30.9533827 24.3228276,27.2921478 C37.8786897,23.6138333 36.4511034,15.6314717 36.0274828,14.0679163 L34.2973103,7.68326912 C34.288,7.64911001 34.2740345,7.61960897 34.2616207,7.58700255 C34.1855862,7.19262016 34.1002414,6.79357972 33.9916207,6.38988121 C32.2878276,0.107711358 25.090931,-0.333251627 19.4426552,1.19769733 C12.1883448,3.1665039 9.64506897,7.40223285 7.96144828,10.2048321 C7.40437931,11.1286806 6.92644828,11.9267615 6.42213793,12.4127524 C5.95041379,12.8676896 5.18386207,13.2248075 4.37075862,13.6021103 C2.48541379,14.4793782 -0.0966551724,15.6796049 0.811103448,19.0240918 L2.82368966,25.5158743 Z"></path>
                        </g>
                        <g id="meat" transform="translate(168.000000, 32.000000)" fill="#732282">
                            <path d="M34.1204138,14.5849609 C34.4571379,15.8302155 35.5448966,22.1977831 23.8061034,25.3823433 C11.9881724,28.5901937 5.8992069,25.255023 4.28851724,24.1370887 L3.70662069,21.9897231 C7.61386207,23.9135018 14.9954138,24.3203057 23.8448966,21.9198523 C29.1424828,20.4820645 32.5997241,17.6266739 33.9171379,13.8396714 L34.1204138,14.5849609 Z M4.82851724,15.5740223 L12.418,21.58913 C7.00093103,21.5875773 3.59334483,20.182396 2.84231034,18.7989523 L2.72127586,18.3486731 C2.70110345,18.2772496 2.67317241,18.2120367 2.64213793,18.1499293 C2.43731034,16.9233069 3.12782759,16.3860773 4.82851724,15.5740223 L4.82851724,15.5740223 Z M7.79386207,13.836566 C8.48437931,13.1704634 9.02593103,12.2683526 9.65437931,11.2233945 C9.69627586,11.1550763 9.73817241,11.0836527 9.78006897,11.0137818 L21.6616207,20.4292731 C19.393,20.9633973 17.2919655,21.2910142 15.3786897,21.455599 C15.3290345,21.3903861 15.2731724,21.3282787 15.2064483,21.2754873 L6.77127586,14.5911717 C7.14058621,14.3675848 7.49282759,14.1269184 7.79386207,13.836566 L7.79386207,13.836566 Z M22.9231724,11.4221384 C21.8354138,11.7171488 20.7414483,11.3289772 20.5381724,10.5759242 C20.3333448,9.82287121 21.0812759,8.93473449 22.1705862,8.63972404 C23.2583448,8.34316091 24.3507586,8.73133255 24.5555862,9.48593822 C24.7604138,10.2389912 24.0124828,11.1255752 22.9231724,11.4221384 L22.9231724,11.4221384 Z M24.0357586,19.8019878 C24.0093793,19.7771448 23.9861034,19.7491964 23.955069,19.7259061 L10.8492069,9.338433 C11.6157586,8.22515673 12.5824828,7.06685255 13.9340345,6.00792031 L18.5969655,9.70176166 C18.5007586,10.1582515 18.5054138,10.6302682 18.6311034,11.0929688 C19.1074828,12.8568208 21.1464483,13.8474348 23.235069,13.3785234 L28.5745517,17.6080417 C27.043,18.7042384 25.3516207,19.3920785 24.0357586,19.8019878 L24.0357586,19.8019878 Z M22.0588621,2.66343345 L32.4383448,10.8895669 C32.4631724,10.9097518 32.4911034,10.9221733 32.5174828,10.9377002 C32.3421379,13.217044 31.3831724,14.9638164 30.1014483,16.2960215 L25.2073103,12.4174105 C26.2702414,11.5277211 26.800931,10.2172536 26.4626552,8.9688936 C25.9707586,7.14914494 23.8107586,6.14455673 21.6523103,6.72991957 C20.8143793,6.95816449 20.0990345,7.39291673 19.5636897,7.94722584 L15.658,4.84806345 C16.8404138,4.1710921 18.2478276,3.57175509 19.9593793,3.10594912 C20.3519655,3.00036643 21.1076552,2.81404404 22.0588621,2.66343345 L22.0588621,2.66343345 Z M32.0845517,6.90847852 C32.2164483,7.39912748 32.3142069,7.87114419 32.3886897,8.32918673 L24.945069,2.42897778 C27.8731724,2.44139927 31.1131724,3.32643061 32.0845517,6.90847852 L32.0845517,6.90847852 Z M2.82368966,25.5158743 C4.04644828,26.4552497 10.8243793,30.9533827 24.3228276,27.2921478 C37.8786897,23.6138333 36.4511034,15.6314717 36.0274828,14.0679163 L34.2973103,7.68326912 C34.288,7.64911001 34.2740345,7.61960897 34.2616207,7.58700255 C34.1855862,7.19262016 34.1002414,6.79357972 33.9916207,6.38988121 C32.2878276,0.107711358 25.090931,-0.333251627 19.4426552,1.19769733 C12.1883448,3.1665039 9.64506897,7.40223285 7.96144828,10.2048321 C7.40437931,11.1286806 6.92644828,11.9267615 6.42213793,12.4127524 C5.95041379,12.8676896 5.18386207,13.2248075 4.37075862,13.6021103 C2.48541379,14.4793782 -0.0966551724,15.6796049 0.811103448,19.0240918 L2.82368966,25.5158743 Z"></path>
                        </g>
                        <g id="meat" transform="translate(979.000000, 32.000000)" fill="#732282">
                            <path d="M34.1204138,14.5849609 C34.4571379,15.8302155 35.5448966,22.1977831 23.8061034,25.3823433 C11.9881724,28.5901937 5.8992069,25.255023 4.28851724,24.1370887 L3.70662069,21.9897231 C7.61386207,23.9135018 14.9954138,24.3203057 23.8448966,21.9198523 C29.1424828,20.4820645 32.5997241,17.6266739 33.9171379,13.8396714 L34.1204138,14.5849609 Z M4.82851724,15.5740223 L12.418,21.58913 C7.00093103,21.5875773 3.59334483,20.182396 2.84231034,18.7989523 L2.72127586,18.3486731 C2.70110345,18.2772496 2.67317241,18.2120367 2.64213793,18.1499293 C2.43731034,16.9233069 3.12782759,16.3860773 4.82851724,15.5740223 L4.82851724,15.5740223 Z M7.79386207,13.836566 C8.48437931,13.1704634 9.02593103,12.2683526 9.65437931,11.2233945 C9.69627586,11.1550763 9.73817241,11.0836527 9.78006897,11.0137818 L21.6616207,20.4292731 C19.393,20.9633973 17.2919655,21.2910142 15.3786897,21.455599 C15.3290345,21.3903861 15.2731724,21.3282787 15.2064483,21.2754873 L6.77127586,14.5911717 C7.14058621,14.3675848 7.49282759,14.1269184 7.79386207,13.836566 L7.79386207,13.836566 Z M22.9231724,11.4221384 C21.8354138,11.7171488 20.7414483,11.3289772 20.5381724,10.5759242 C20.3333448,9.82287121 21.0812759,8.93473449 22.1705862,8.63972404 C23.2583448,8.34316091 24.3507586,8.73133255 24.5555862,9.48593822 C24.7604138,10.2389912 24.0124828,11.1255752 22.9231724,11.4221384 L22.9231724,11.4221384 Z M24.0357586,19.8019878 C24.0093793,19.7771448 23.9861034,19.7491964 23.955069,19.7259061 L10.8492069,9.338433 C11.6157586,8.22515673 12.5824828,7.06685255 13.9340345,6.00792031 L18.5969655,9.70176166 C18.5007586,10.1582515 18.5054138,10.6302682 18.6311034,11.0929688 C19.1074828,12.8568208 21.1464483,13.8474348 23.235069,13.3785234 L28.5745517,17.6080417 C27.043,18.7042384 25.3516207,19.3920785 24.0357586,19.8019878 L24.0357586,19.8019878 Z M22.0588621,2.66343345 L32.4383448,10.8895669 C32.4631724,10.9097518 32.4911034,10.9221733 32.5174828,10.9377002 C32.3421379,13.217044 31.3831724,14.9638164 30.1014483,16.2960215 L25.2073103,12.4174105 C26.2702414,11.5277211 26.800931,10.2172536 26.4626552,8.9688936 C25.9707586,7.14914494 23.8107586,6.14455673 21.6523103,6.72991957 C20.8143793,6.95816449 20.0990345,7.39291673 19.5636897,7.94722584 L15.658,4.84806345 C16.8404138,4.1710921 18.2478276,3.57175509 19.9593793,3.10594912 C20.3519655,3.00036643 21.1076552,2.81404404 22.0588621,2.66343345 L22.0588621,2.66343345 Z M32.0845517,6.90847852 C32.2164483,7.39912748 32.3142069,7.87114419 32.3886897,8.32918673 L24.945069,2.42897778 C27.8731724,2.44139927 31.1131724,3.32643061 32.0845517,6.90847852 L32.0845517,6.90847852 Z M2.82368966,25.5158743 C4.04644828,26.4552497 10.8243793,30.9533827 24.3228276,27.2921478 C37.8786897,23.6138333 36.4511034,15.6314717 36.0274828,14.0679163 L34.2973103,7.68326912 C34.288,7.64911001 34.2740345,7.61960897 34.2616207,7.58700255 C34.1855862,7.19262016 34.1002414,6.79357972 33.9916207,6.38988121 C32.2878276,0.107711358 25.090931,-0.333251627 19.4426552,1.19769733 C12.1883448,3.1665039 9.64506897,7.40223285 7.96144828,10.2048321 C7.40437931,11.1286806 6.92644828,11.9267615 6.42213793,12.4127524 C5.95041379,12.8676896 5.18386207,13.2248075 4.37075862,13.6021103 C2.48541379,14.4793782 -0.0966551724,15.6796049 0.811103448,19.0240918 L2.82368966,25.5158743 Z"></path>
                        </g>
                        <g id="icecream" transform="translate(0.000000, 108.000000)" stroke="#732282" stroke-linejoin="round">
                            <g>
                                <polyline id="Stroke-30" stroke-width="4" stroke-linecap="round" points="33.8977621 51.6090895 87.1637412 63.5256361 89.589757 59.5670993 55.0977854 17.9635737"></polyline>
                                <path d="M52.1796116,23.9852982 C56.5979878,16.7887029 54.3642532,7.38154937 47.2007563,2.96862006 C40.4872792,-1.16184902 31.8223527,0.557474087 27.1257825,6.70200738 C26.1602855,5.61719638 25.0229627,4.64291328 23.7219964,3.84465612 C16.5544084,-0.568273186 7.16535912,1.68731499 2.75107407,8.88391028 C-1.66321099,16.0723183 0.56643253,25.4835655 7.7340205,29.8924012 C9.05135116,30.7070329 10.4464125,31.2883278 11.8701115,31.6608478 C8.73633731,38.5708893 11.1296244,46.8973255 17.7408242,50.9663902 C24.9084122,55.3752258 34.2974615,53.1196377 38.7117466,45.927136 C41.5427802,41.3095254 49.3526691,28.5988152 52.1796116,23.9852982 Z" id="Stroke-32" stroke-width="4"></path>
                                <path d="M61.7204403,27.9868181 L46.3461278,53.0357183" id="Stroke-34" stroke-width="4" stroke-linecap="round"></path>
                                <path d="M68.8397535,35.4106097 L55.858728,56.5664711" id="Stroke-36" stroke-width="4" stroke-linecap="round"></path>
                                <path d="M75.1801232,43.0419481 L65.9056244,58.1515233" id="Stroke-38" stroke-width="4" stroke-linecap="round"></path>
                                <path d="M81.9881045,50.9856302 L75.9087462,60.8922062" id="Stroke-40" stroke-width="4" stroke-linecap="round"></path>
                                <path d="M42.3794079,41.4311061 L81.8665991,50.2569647" id="Stroke-42" stroke-width="4" stroke-linecap="round"></path>
                                <path d="M49.3150311,30.1216443 L68.8704366,34.4936373" id="Stroke-44" stroke-width="4" stroke-linecap="round"></path>
                            </g>
                        </g>
                        <g id="icecream" transform="translate(650.000000, 0.000000)" stroke="#732282" stroke-linejoin="round">
                            <g>
                                <polyline id="Stroke-30" stroke-width="4" stroke-linecap="round" points="33.8977621 51.6090895 87.1637412 63.5256361 89.589757 59.5670993 55.0977854 17.9635737"></polyline>
                                <path d="M52.1796116,23.9852982 C56.5979878,16.7887029 54.3642532,7.38154937 47.2007563,2.96862006 C40.4872792,-1.16184902 31.8223527,0.557474087 27.1257825,6.70200738 C26.1602855,5.61719638 25.0229627,4.64291328 23.7219964,3.84465612 C16.5544084,-0.568273186 7.16535912,1.68731499 2.75107407,8.88391028 C-1.66321099,16.0723183 0.56643253,25.4835655 7.7340205,29.8924012 C9.05135116,30.7070329 10.4464125,31.2883278 11.8701115,31.6608478 C8.73633731,38.5708893 11.1296244,46.8973255 17.7408242,50.9663902 C24.9084122,55.3752258 34.2974615,53.1196377 38.7117466,45.927136 C41.5427802,41.3095254 49.3526691,28.5988152 52.1796116,23.9852982 Z" id="Stroke-32" stroke-width="4"></path>
                                <path d="M61.7204403,27.9868181 L46.3461278,53.0357183" id="Stroke-34" stroke-width="4" stroke-linecap="round"></path>
                                <path d="M68.8397535,35.4106097 L55.858728,56.5664711" id="Stroke-36" stroke-width="4" stroke-linecap="round"></path>
                                <path d="M75.1801232,43.0419481 L65.9056244,58.1515233" id="Stroke-38" stroke-width="4" stroke-linecap="round"></path>
                                <path d="M81.9881045,50.9856302 L75.9087462,60.8922062" id="Stroke-40" stroke-width="4" stroke-linecap="round"></path>
                                <path d="M42.3794079,41.4311061 L81.8665991,50.2569647" id="Stroke-42" stroke-width="4" stroke-linecap="round"></path>
                                <path d="M49.3150311,30.1216443 L68.8704366,34.4936373" id="Stroke-44" stroke-width="4" stroke-linecap="round"></path>
                            </g>
                        </g>
                        <g id="icecream" transform="translate(979.000000, 352.000000)" stroke="#732282" stroke-linejoin="round">
                            <g>
                                <polyline id="Stroke-30" stroke-width="4" stroke-linecap="round" points="33.8977621 51.6090895 87.1637412 63.5256361 89.589757 59.5670993 55.0977854 17.9635737"></polyline>
                                <path d="M52.1796116,23.9852982 C56.5979878,16.7887029 54.3642532,7.38154937 47.2007563,2.96862006 C40.4872792,-1.16184902 31.8223527,0.557474087 27.1257825,6.70200738 C26.1602855,5.61719638 25.0229627,4.64291328 23.7219964,3.84465612 C16.5544084,-0.568273186 7.16535912,1.68731499 2.75107407,8.88391028 C-1.66321099,16.0723183 0.56643253,25.4835655 7.7340205,29.8924012 C9.05135116,30.7070329 10.4464125,31.2883278 11.8701115,31.6608478 C8.73633731,38.5708893 11.1296244,46.8973255 17.7408242,50.9663902 C24.9084122,55.3752258 34.2974615,53.1196377 38.7117466,45.927136 C41.5427802,41.3095254 49.3526691,28.5988152 52.1796116,23.9852982 Z" id="Stroke-32" stroke-width="4"></path>
                                <path d="M61.7204403,27.9868181 L46.3461278,53.0357183" id="Stroke-34" stroke-width="4" stroke-linecap="round"></path>
                                <path d="M68.8397535,35.4106097 L55.858728,56.5664711" id="Stroke-36" stroke-width="4" stroke-linecap="round"></path>
                                <path d="M75.1801232,43.0419481 L65.9056244,58.1515233" id="Stroke-38" stroke-width="4" stroke-linecap="round"></path>
                                <path d="M81.9881045,50.9856302 L75.9087462,60.8922062" id="Stroke-40" stroke-width="4" stroke-linecap="round"></path>
                                <path d="M42.3794079,41.4311061 L81.8665991,50.2569647" id="Stroke-42" stroke-width="4" stroke-linecap="round"></path>
                                <path d="M49.3150311,30.1216443 L68.8704366,34.4936373" id="Stroke-44" stroke-width="4" stroke-linecap="round"></path>
                            </g>
                        </g>
                        <g id="fish" transform="translate(165.000000, 509.000000)" fill="#875990">
                            <g>
                                <path d="M34.1299828,18.6813193 C33.5837759,18.1456424 33.4270517,17.0960263 33.4053276,16.2668917 L33.4053276,16.1519929 C33.678431,16.1519929 33.982569,16.1721778 34.2773966,16.2141003 C34.927569,16.2979454 35.5668793,16.498242 35.9346379,16.864676 C36.4994655,17.4314066 36.6468793,18.5446829 36.6577414,19.4048712 C35.7980862,19.3940024 34.6855,19.2371811 34.1299828,18.6813193 M34.1299828,11.4287203 C34.6855,10.860437 35.7980862,10.7144845 36.6577414,10.7036157 C36.6468793,11.5544879 36.4994655,12.6770803 35.9346379,13.2329421 C35.5560172,13.6211137 34.9167069,13.8105415 34.2773966,13.8943866 C33.9717069,13.9363091 33.678431,13.9580467 33.4053276,13.9580467 L33.4053276,13.8415952 C33.4270517,13.0015918 33.5837759,11.9628445 34.1299828,11.4287203 M16.8515345,23.5831508 C10.7051552,23.5831508 4.75584483,17.1596864 2.94187931,14.996794 C4.75584483,12.8339017 10.7051552,6.41043733 16.8515345,6.41043733 C22.9994655,6.41043733 28.9472241,12.8339017 30.7627414,14.996794 C28.9472241,17.1596864 22.9994655,23.5831508 16.8515345,23.5831508 M19.3172241,2.90447106 L19.3172241,4.36399643 C18.5103276,4.1947536 17.6801552,4.10003972 16.8515345,4.10003972 C16.4527414,4.10003972 16.0648103,4.12177733 15.667569,4.16369987 C16.6637759,3.63889181 18.0789483,3.12495255 19.3172241,2.90447106 M37.3606724,15.0495854 C37.4336034,14.9859252 37.5080862,14.9238178 37.5717069,14.8601576 C39.3422241,13.0963057 38.9449828,9.81082091 38.8922241,9.44438688 C38.8177414,8.93976375 38.4205,8.52985449 37.9068793,8.45687822 C37.5391207,8.41495569 34.2665345,8.01591524 32.4929138,9.79063599 C31.8427414,10.4412117 31.4858448,11.2905312 31.2980862,12.1196658 C29.2622241,9.9272724 25.7491207,6.66197255 21.6246379,5.05649464 L21.6246379,1.63437345 C21.6246379,0.993113896 21.1110172,0.479174642 20.4701552,0.479174642 C18.7818793,0.479174642 12.3530862,1.89677748 12.0892931,5.05649464 C5.72256897,7.52216091 0.78187931,13.9673629 0.5305,14.3042958 C0.224810345,14.7126524 0.224810345,15.2809357 0.5305,15.6892923 C0.843948276,16.1100703 8.35584483,25.8919957 16.8515345,25.8919957 C22.9265345,25.8919957 28.4848103,20.8954503 31.2763621,17.8941072 C31.4641207,18.7542955 31.822569,19.6470903 32.4929138,20.3178509 C33.678431,21.4947873 35.5249828,21.7152688 36.7322241,21.7152688 C37.3389483,21.7152688 37.7905,21.6624775 37.9068793,21.6407399 C38.4205,21.5677636 38.8177414,21.1687231 38.8922241,20.6547839 C38.9449828,20.2867972 39.3422241,17.0121812 37.5717069,15.2374605 C37.5080862,15.175353 37.4336034,15.100824 37.3606724,15.0495854" id="Fill-46"></path>
                                <path d="M8.72189655,14.9952414 C8.72189655,15.7638212 8.1012069,16.3864485 7.33155172,16.3864485 C6.56344828,16.3864485 5.94275862,15.7638212 5.94275862,14.9952414 C5.94275862,14.2266615 6.56344828,13.6040342 7.33155172,13.6040342 C8.1012069,13.6040342 8.72189655,14.2266615 8.72189655,14.9952414" id="Fill-48"></path>
                                <path d="M12.3679828,19.7700631 C11.7317759,19.7700631 11.2150517,19.2530185 11.2150517,18.616417 C11.2150517,17.9813682 11.7317759,17.4643235 12.3679828,17.4643235 C13.7272931,17.4643235 14.8336724,16.357258 14.8336724,14.9955519 C14.8336724,13.6338458 13.7272931,12.5267803 12.3679828,12.5267803 C11.7317759,12.5267803 11.2150517,12.0097356 11.2150517,11.3746868 C11.2150517,10.7380853 11.7317759,10.2210407 12.3679828,10.2210407 C14.9981552,10.2210407 17.1379828,12.3621955 17.1379828,14.9955519 C17.1379828,17.6289083 14.9981552,19.7700631 12.3679828,19.7700631" id="Fill-50"></path>
                            </g>
                        </g>
                        <g id="fish" transform="translate(843.000000, 564.000000)" fill="#875990">
                            <g>
                                <path d="M34.1299828,18.6813193 C33.5837759,18.1456424 33.4270517,17.0960263 33.4053276,16.2668917 L33.4053276,16.1519929 C33.678431,16.1519929 33.982569,16.1721778 34.2773966,16.2141003 C34.927569,16.2979454 35.5668793,16.498242 35.9346379,16.864676 C36.4994655,17.4314066 36.6468793,18.5446829 36.6577414,19.4048712 C35.7980862,19.3940024 34.6855,19.2371811 34.1299828,18.6813193 M34.1299828,11.4287203 C34.6855,10.860437 35.7980862,10.7144845 36.6577414,10.7036157 C36.6468793,11.5544879 36.4994655,12.6770803 35.9346379,13.2329421 C35.5560172,13.6211137 34.9167069,13.8105415 34.2773966,13.8943866 C33.9717069,13.9363091 33.678431,13.9580467 33.4053276,13.9580467 L33.4053276,13.8415952 C33.4270517,13.0015918 33.5837759,11.9628445 34.1299828,11.4287203 M16.8515345,23.5831508 C10.7051552,23.5831508 4.75584483,17.1596864 2.94187931,14.996794 C4.75584483,12.8339017 10.7051552,6.41043733 16.8515345,6.41043733 C22.9994655,6.41043733 28.9472241,12.8339017 30.7627414,14.996794 C28.9472241,17.1596864 22.9994655,23.5831508 16.8515345,23.5831508 M19.3172241,2.90447106 L19.3172241,4.36399643 C18.5103276,4.1947536 17.6801552,4.10003972 16.8515345,4.10003972 C16.4527414,4.10003972 16.0648103,4.12177733 15.667569,4.16369987 C16.6637759,3.63889181 18.0789483,3.12495255 19.3172241,2.90447106 M37.3606724,15.0495854 C37.4336034,14.9859252 37.5080862,14.9238178 37.5717069,14.8601576 C39.3422241,13.0963057 38.9449828,9.81082091 38.8922241,9.44438688 C38.8177414,8.93976375 38.4205,8.52985449 37.9068793,8.45687822 C37.5391207,8.41495569 34.2665345,8.01591524 32.4929138,9.79063599 C31.8427414,10.4412117 31.4858448,11.2905312 31.2980862,12.1196658 C29.2622241,9.9272724 25.7491207,6.66197255 21.6246379,5.05649464 L21.6246379,1.63437345 C21.6246379,0.993113896 21.1110172,0.479174642 20.4701552,0.479174642 C18.7818793,0.479174642 12.3530862,1.89677748 12.0892931,5.05649464 C5.72256897,7.52216091 0.78187931,13.9673629 0.5305,14.3042958 C0.224810345,14.7126524 0.224810345,15.2809357 0.5305,15.6892923 C0.843948276,16.1100703 8.35584483,25.8919957 16.8515345,25.8919957 C22.9265345,25.8919957 28.4848103,20.8954503 31.2763621,17.8941072 C31.4641207,18.7542955 31.822569,19.6470903 32.4929138,20.3178509 C33.678431,21.4947873 35.5249828,21.7152688 36.7322241,21.7152688 C37.3389483,21.7152688 37.7905,21.6624775 37.9068793,21.6407399 C38.4205,21.5677636 38.8177414,21.1687231 38.8922241,20.6547839 C38.9449828,20.2867972 39.3422241,17.0121812 37.5717069,15.2374605 C37.5080862,15.175353 37.4336034,15.100824 37.3606724,15.0495854" id="Fill-46"></path>
                                <path d="M8.72189655,14.9952414 C8.72189655,15.7638212 8.1012069,16.3864485 7.33155172,16.3864485 C6.56344828,16.3864485 5.94275862,15.7638212 5.94275862,14.9952414 C5.94275862,14.2266615 6.56344828,13.6040342 7.33155172,13.6040342 C8.1012069,13.6040342 8.72189655,14.2266615 8.72189655,14.9952414" id="Fill-48"></path>
                                <path d="M12.3679828,19.7700631 C11.7317759,19.7700631 11.2150517,19.2530185 11.2150517,18.616417 C11.2150517,17.9813682 11.7317759,17.4643235 12.3679828,17.4643235 C13.7272931,17.4643235 14.8336724,16.357258 14.8336724,14.9955519 C14.8336724,13.6338458 13.7272931,12.5267803 12.3679828,12.5267803 C11.7317759,12.5267803 11.2150517,12.0097356 11.2150517,11.3746868 C11.2150517,10.7380853 11.7317759,10.2210407 12.3679828,10.2210407 C14.9981552,10.2210407 17.1379828,12.3621955 17.1379828,14.9955519 C17.1379828,17.6289083 14.9981552,19.7700631 12.3679828,19.7700631" id="Fill-50"></path>
                            </g>
                        </g>
                        <g id="comb" transform="translate(785.000000, 158.000000)" fill="#732282">
                            <path d="M10.2441724,33.3279055 L6.50762069,33.3279055 C4.08693103,33.3279055 2.124,31.3528881 2.124,28.9306971 L2.124,6.67448785 C2.124,4.24298069 4.08693103,2.27727949 6.50762069,2.27727949 L10.2441724,2.27727949 C11.0417586,2.27727949 11.816069,2.50086636 12.4848621,2.89369606 L6.67675862,2.89369606 C6.09331034,2.89369606 5.61693103,3.37192352 5.61693103,3.95573367 L5.61693103,31.6385825 C5.61693103,32.2332614 6.09331034,32.7021728 6.67675862,32.7021728 L12.4848621,32.7021728 C11.816069,33.1043186 11.0417586,33.3279055 10.2441724,33.3279055 M14.9691724,30.5780976 L7.73968966,30.5780976 L7.73968966,29.6309587 L14.4167586,29.6309587 C15.0002069,29.6309587 15.4781379,29.154284 15.4781379,28.5689211 C15.4781379,27.985111 15.0002069,27.5068835 14.4167586,27.5068835 L7.73968966,27.5068835 L7.73968966,26.5504286 L14.4167586,26.5504286 C15.0002069,26.5504286 15.4781379,26.0830699 15.4781379,25.488391 C15.4781379,24.9030281 15.0002069,24.4263534 14.4167586,24.4263534 L7.73968966,24.4263534 L7.73968966,23.4807673 L14.4167586,23.4807673 C15.0002069,23.4807673 15.4781379,23.0025398 15.4781379,22.4187296 C15.4781379,21.8240507 15.0002069,21.3551393 14.4167586,21.3551393 L7.73968966,21.3551393 L7.73968966,20.4002371 L14.4167586,20.4002371 C15.0002069,20.4002371 15.4781379,19.9220096 15.4781379,19.3381995 C15.4781379,18.7528367 15.0002069,18.2761619 14.4167586,18.2761619 L7.73968966,18.2761619 L7.73968966,17.3290231 L14.4167586,17.3290231 C15.0002069,17.3290231 15.4781379,16.8523483 15.4781379,16.2669855 C15.4781379,15.6723065 15.0002069,15.2049479 14.4167586,15.2049479 L7.73968966,15.2049479 L7.73968966,14.2484929 L14.4167586,14.2484929 C15.0002069,14.2484929 15.4781379,13.7718181 15.4781379,13.1864553 C15.4781379,12.6026452 15.0002069,12.1244177 14.4167586,12.1244177 L7.73968966,12.1244177 L7.73968966,11.1788316 L14.4167586,11.1788316 C15.0002069,11.1788316 15.4781379,10.7006041 15.4781379,10.116794 C15.4781379,9.52211501 15.0002069,9.05475636 14.4167586,9.05475636 L7.73968966,9.05475636 L7.73968966,8.09830143 L14.4167586,8.09830143 C15.0002069,8.09830143 15.4781379,7.62007397 15.4781379,7.03626382 C15.4781379,6.45245367 15.0002069,5.97422621 14.4167586,5.97422621 L7.73968966,5.97422621 L7.73968966,5.01777128 L14.9691724,5.01777128 C15.3508966,5.01777128 15.7015862,4.81592203 15.8924483,4.48675248 C16.0848621,4.15758293 16.0848621,3.75388442 15.8924483,3.42471487 C14.7255517,1.40622233 12.5593448,0.153204269 10.2441724,0.153204269 L6.50762069,0.153204269 C2.91848276,0.153204269 -0.000310344827,3.0738077 -0.000310344827,6.67448785 L-0.000310344827,28.9306971 C-0.000310344827,32.5313773 2.91848276,35.4519807 6.50762069,35.4519807 L10.2441724,35.4519807 C12.5593448,35.4519807 14.7255517,34.1989626 15.8924483,32.1696013 C16.0848621,31.8404317 16.0848621,31.4367332 15.8924483,31.1075637 C15.7015862,30.7783941 15.3508966,30.5780976 14.9691724,30.5780976"></path>
                        </g>
                        <g id="comb" transform="translate(18.000000, 607.000000)" fill="#732282">
                            <path d="M10.2441724,33.3279055 L6.50762069,33.3279055 C4.08693103,33.3279055 2.124,31.3528881 2.124,28.9306971 L2.124,6.67448785 C2.124,4.24298069 4.08693103,2.27727949 6.50762069,2.27727949 L10.2441724,2.27727949 C11.0417586,2.27727949 11.816069,2.50086636 12.4848621,2.89369606 L6.67675862,2.89369606 C6.09331034,2.89369606 5.61693103,3.37192352 5.61693103,3.95573367 L5.61693103,31.6385825 C5.61693103,32.2332614 6.09331034,32.7021728 6.67675862,32.7021728 L12.4848621,32.7021728 C11.816069,33.1043186 11.0417586,33.3279055 10.2441724,33.3279055 M14.9691724,30.5780976 L7.73968966,30.5780976 L7.73968966,29.6309587 L14.4167586,29.6309587 C15.0002069,29.6309587 15.4781379,29.154284 15.4781379,28.5689211 C15.4781379,27.985111 15.0002069,27.5068835 14.4167586,27.5068835 L7.73968966,27.5068835 L7.73968966,26.5504286 L14.4167586,26.5504286 C15.0002069,26.5504286 15.4781379,26.0830699 15.4781379,25.488391 C15.4781379,24.9030281 15.0002069,24.4263534 14.4167586,24.4263534 L7.73968966,24.4263534 L7.73968966,23.4807673 L14.4167586,23.4807673 C15.0002069,23.4807673 15.4781379,23.0025398 15.4781379,22.4187296 C15.4781379,21.8240507 15.0002069,21.3551393 14.4167586,21.3551393 L7.73968966,21.3551393 L7.73968966,20.4002371 L14.4167586,20.4002371 C15.0002069,20.4002371 15.4781379,19.9220096 15.4781379,19.3381995 C15.4781379,18.7528367 15.0002069,18.2761619 14.4167586,18.2761619 L7.73968966,18.2761619 L7.73968966,17.3290231 L14.4167586,17.3290231 C15.0002069,17.3290231 15.4781379,16.8523483 15.4781379,16.2669855 C15.4781379,15.6723065 15.0002069,15.2049479 14.4167586,15.2049479 L7.73968966,15.2049479 L7.73968966,14.2484929 L14.4167586,14.2484929 C15.0002069,14.2484929 15.4781379,13.7718181 15.4781379,13.1864553 C15.4781379,12.6026452 15.0002069,12.1244177 14.4167586,12.1244177 L7.73968966,12.1244177 L7.73968966,11.1788316 L14.4167586,11.1788316 C15.0002069,11.1788316 15.4781379,10.7006041 15.4781379,10.116794 C15.4781379,9.52211501 15.0002069,9.05475636 14.4167586,9.05475636 L7.73968966,9.05475636 L7.73968966,8.09830143 L14.4167586,8.09830143 C15.0002069,8.09830143 15.4781379,7.62007397 15.4781379,7.03626382 C15.4781379,6.45245367 15.0002069,5.97422621 14.4167586,5.97422621 L7.73968966,5.97422621 L7.73968966,5.01777128 L14.9691724,5.01777128 C15.3508966,5.01777128 15.7015862,4.81592203 15.8924483,4.48675248 C16.0848621,4.15758293 16.0848621,3.75388442 15.8924483,3.42471487 C14.7255517,1.40622233 12.5593448,0.153204269 10.2441724,0.153204269 L6.50762069,0.153204269 C2.91848276,0.153204269 -0.000310344827,3.0738077 -0.000310344827,6.67448785 L-0.000310344827,28.9306971 C-0.000310344827,32.5313773 2.91848276,35.4519807 6.50762069,35.4519807 L10.2441724,35.4519807 C12.5593448,35.4519807 14.7255517,34.1989626 15.8924483,32.1696013 C16.0848621,31.8404317 16.0848621,31.4367332 15.8924483,31.1075637 C15.7015862,30.7783941 15.3508966,30.5780976 14.9691724,30.5780976"></path>
                        </g>
                        <g id="comb" transform="translate(740.000000, 715.000000)" fill="#732282">
                            <path d="M10.2441724,33.3279055 L6.50762069,33.3279055 C4.08693103,33.3279055 2.124,31.3528881 2.124,28.9306971 L2.124,6.67448785 C2.124,4.24298069 4.08693103,2.27727949 6.50762069,2.27727949 L10.2441724,2.27727949 C11.0417586,2.27727949 11.816069,2.50086636 12.4848621,2.89369606 L6.67675862,2.89369606 C6.09331034,2.89369606 5.61693103,3.37192352 5.61693103,3.95573367 L5.61693103,31.6385825 C5.61693103,32.2332614 6.09331034,32.7021728 6.67675862,32.7021728 L12.4848621,32.7021728 C11.816069,33.1043186 11.0417586,33.3279055 10.2441724,33.3279055 M14.9691724,30.5780976 L7.73968966,30.5780976 L7.73968966,29.6309587 L14.4167586,29.6309587 C15.0002069,29.6309587 15.4781379,29.154284 15.4781379,28.5689211 C15.4781379,27.985111 15.0002069,27.5068835 14.4167586,27.5068835 L7.73968966,27.5068835 L7.73968966,26.5504286 L14.4167586,26.5504286 C15.0002069,26.5504286 15.4781379,26.0830699 15.4781379,25.488391 C15.4781379,24.9030281 15.0002069,24.4263534 14.4167586,24.4263534 L7.73968966,24.4263534 L7.73968966,23.4807673 L14.4167586,23.4807673 C15.0002069,23.4807673 15.4781379,23.0025398 15.4781379,22.4187296 C15.4781379,21.8240507 15.0002069,21.3551393 14.4167586,21.3551393 L7.73968966,21.3551393 L7.73968966,20.4002371 L14.4167586,20.4002371 C15.0002069,20.4002371 15.4781379,19.9220096 15.4781379,19.3381995 C15.4781379,18.7528367 15.0002069,18.2761619 14.4167586,18.2761619 L7.73968966,18.2761619 L7.73968966,17.3290231 L14.4167586,17.3290231 C15.0002069,17.3290231 15.4781379,16.8523483 15.4781379,16.2669855 C15.4781379,15.6723065 15.0002069,15.2049479 14.4167586,15.2049479 L7.73968966,15.2049479 L7.73968966,14.2484929 L14.4167586,14.2484929 C15.0002069,14.2484929 15.4781379,13.7718181 15.4781379,13.1864553 C15.4781379,12.6026452 15.0002069,12.1244177 14.4167586,12.1244177 L7.73968966,12.1244177 L7.73968966,11.1788316 L14.4167586,11.1788316 C15.0002069,11.1788316 15.4781379,10.7006041 15.4781379,10.116794 C15.4781379,9.52211501 15.0002069,9.05475636 14.4167586,9.05475636 L7.73968966,9.05475636 L7.73968966,8.09830143 L14.4167586,8.09830143 C15.0002069,8.09830143 15.4781379,7.62007397 15.4781379,7.03626382 C15.4781379,6.45245367 15.0002069,5.97422621 14.4167586,5.97422621 L7.73968966,5.97422621 L7.73968966,5.01777128 L14.9691724,5.01777128 C15.3508966,5.01777128 15.7015862,4.81592203 15.8924483,4.48675248 C16.0848621,4.15758293 16.0848621,3.75388442 15.8924483,3.42471487 C14.7255517,1.40622233 12.5593448,0.153204269 10.2441724,0.153204269 L6.50762069,0.153204269 C2.91848276,0.153204269 -0.000310344827,3.0738077 -0.000310344827,6.67448785 L-0.000310344827,28.9306971 C-0.000310344827,32.5313773 2.91848276,35.4519807 6.50762069,35.4519807 L10.2441724,35.4519807 C12.5593448,35.4519807 14.7255517,34.1989626 15.8924483,32.1696013 C16.0848621,31.8404317 16.0848621,31.4367332 15.8924483,31.1075637 C15.7015862,30.7783941 15.3508966,30.5780976 14.9691724,30.5780976"></path>
                        </g>
                    </g>
                </g>
            </g>
        </g>
    </g>
</svg>