<svg version="1.0" id="Layer_1" xmlns="http://www.w3.org/2000/svg" aria-labelledby="account-logo-fkw" xmlns:xlink="http://www.w3.org/1999/xlink" x="0px" y="0px"
	 viewBox="0 0 24 24" enable-background="new 0 0 24 24" xml:space="preserve">
	 <title id="account-logo-fkw">User account</title>
<g>
	<path d="M12.1,22.6c1.8,0,3.7,0,5.5,0c0.9,0,1.3-0.4,1-1.3c-0.6-2.2-1.8-4-3.8-5.3c-0.2-0.2-1-0.8-0.5-1.2c0.4-0.4,1.2,0,1.4,0.2
		c0.9,0.8,1.8,1.6,2.6,2.5c1.1,1.4,1.6,3,2,4.7c0.3,1.2-0.1,1.7-1.3,1.7c-2.2,0-11.1,0-13.3,0c-0.2,0-0.4,0-0.6,0
		c-0.9-0.1-1.2-0.4-1.2-1.3c0-0.3,0.1-0.6,0.1-0.8c0.7-2.7,2-5.1,4.3-6.9c0.5-0.5,1.2-0.4,1.4-0.1c0.3,0.4,0,0.7-0.3,1
		c-0.2,0.2-0.3,0.3-0.5,0.4c-1.8,1.2-2.8,3-3.3,5c-0.2,0.9,0.1,1.2,1,1.2C8.4,22.6,10.3,22.6,12.1,22.6
		C12.1,22.6,12.1,22.6,12.1,22.6z"/>
	<path d="M12.3,0c2.8,0,5.8,4.2,6.3,6.7c0,0.2,0.1,1.1-0.4,1.2c-0.6,0.1-0.9-1.1-1-1.5c-0.4-1.2-0.7-2-1.4-2.9
		c-1-1.3-1.6-2.3-3.5-2.3C9.6,1.2,8.5,2.7,8,3.6c-0.2,0.3-0.4,0.7-0.2,1c0.2,0.3,0.8,0,1.1-0.1C9.8,4.1,10.6,3,11,2.7
		c0.2-0.2,0.5-0.3,0.8,0c0.3,0.2,0.3,0.8,0,1.1c-1.1,1-2.2,2-3.8,2.2C7.1,6.2,6.9,6.4,6.8,7.3c-0.1,0.7-0.4,1-0.8,0.9
		C5.4,8.2,5.3,7.6,5.5,6.9c0.3-1.1,0.6-2,1-3.1C7.2,2.1,9.4,0,12.3,0z"/>
	<path d="M12,13.4c-1.3,0-2.4-0.5-3.3-1.4C8,11.2,7.5,10.4,7.2,9.3c-0.1-0.6,0-1,0.4-1.2c0.5-0.2,0.9,0.6,1,0.8
		c0.2,0.8,0.5,1.4,0.9,1.9c0.9,1.1,2.1,1.3,3.3,1c1.2-0.3,2-1.2,2.3-2.5c0.1-0.3,0.4-1.4,1-1.4c0.7,0.1,0.6,1,0.5,1.1
		C16.3,10.9,14.2,13.4,12,13.4z"/>
</g>
</svg>
