<?xml version="1.0" encoding="UTF-8" standalone="no"?>
<svg
   xmlns:dc="http://purl.org/dc/elements/1.1/"
   xmlns:cc="http://creativecommons.org/ns#"
   xmlns:rdf="http://www.w3.org/1999/02/22-rdf-syntax-ns#"
   xmlns:svg="http://www.w3.org/2000/svg"
   xmlns="http://www.w3.org/2000/svg"
   height="31.7"
   width="24.5"
   aria-labelledby="checkout-bag-fkw"
   xml:space="preserve"
   enable-background="new 0 0 45 31.7"
   viewBox="0 0 24.5 31.7"
   y="0px"
   x="0px"
   id="Layer_1"
   version="1.1"><title id="checkout-bag-fkw">checkout bag</title><metadata
     id="metadata8"><rdf:RDF><cc:Work
         rdf:about=""><dc:format>image/svg+xml</dc:format><dc:type
           rdf:resource="http://purl.org/dc/dcmitype/StillImage" /><dc:title></dc:title></cc:Work></rdf:RDF></metadata><defs
     id="defs6" /><path
     d="m 23.2,9.5999992 c -0.8,0 -3.3,1.5999998 -3.3,1.5999998 L 17.6,9.9999992 c -0.3,-0.2 -0.6,-0.1 -0.9,0 L 14.6,11.199999 12.3,9.9999992 c -0.3,-0.2 -0.7,-0.2 -0.9,0 L 9.3,11.199999 6.8,9.9999992 c -0.3,-0.2 -0.6,-0.2 -0.9,0 L 3.7,11.199999 2.1,9.5999992 c -0.6,0 -2.1,0.3 -2.1,1.1999998 l 0,19.8 c 0,0.5 0.5,1.1 1.1,1.1 l 22.1,0 c 0.5,0 1.1,-0.5 1.1,-1.1 l 0,-20 c -0.1,-0.5 -0.5,-0.9999998 -1.1,-0.9999998 z m -1.1,19.9999998 -20,0 0,-16.9 1.1,0.4 c 0.3,0.2 0.7,0.2 0.9,0 l 2.2,-1.1 2.2,1.2 c 0.3,0.2 0.7,0.2 0.9,0 l 2.1,-1.2 2.2,1.2 c 0.3,0.2 0.7,0.2 0.9,0 l 2.1,-1.2 2.3,1.2 c 0.3,0.2 0.6,0.1 0.9,0 l 2,-0.4 0,16.8 z M 6.4,8.1999992 c 0.5,0.1 1.1,-0.3 1.2,-0.9 0,0 0.5,-5.2 4.1,-5.2 3.5,0 4.3,5.2 4.3,5.2 0.1,0.5 0.5,0.8 1.1,0.8 l 0.1,0 c 0.5,-0.1 0.9,-0.6 0.8,-1.2 l 0,0 C 18,6.5999992 16.9,-7.6293945e-7 11.6,-7.6293945e-7 7.4,0.09999924 5.8,4.5999992 5.5,7.0999992 c 0,0.6 0.4,1.1 0.9,1.1 z"
     id="bag" /></svg>
