<?xml version="1.0" encoding="utf-8"?>
<!-- Generator: Adobe Illustrator 20.1.0, SVG Export Plug-In . SVG Version: 6.00 Build 0)  -->
<!DOCTYPE svg PUBLIC "-//W3C//DTD SVG 1.1//EN" "http://www.w3.org/Graphics/SVG/1.1/DTD/svg11.dtd">
<svg version="1.1" id="Layer_1" aria-labelledby="xs-navigation-browse-fkw" xmlns="http://www.w3.org/2000/svg" xmlns:xlink="http://www.w3.org/1999/xlink" x="0px" y="0px"
	 viewBox="0 0 29.1 20.2"  xml:space="preserve">
	 <title id="xs-navigation-browse-fkw">Navigation Browse</title>
	<g transform="translate(0.000000, 0.178900)">
		<path d="M2.6,6.5L0.1,4C0,3.8,0,3.5,0.1,3.4c0.2-0.2,0.5-0.2,0.7,0l1.8,1.8L6.7,1
			c0.2-0.2,0.5-0.2,0.7,0c0.2,0.2,0.2,0.5,0,0.7L2.6,6.5z"/>
	</g>
	<g transform="translate(0.000000, 8.178900)">
		<path d="M2.6,6L0.1,3.5C0,3.4,0,3,0.1,2.9c0.2-0.2,0.5-0.2,0.7,0l1.8,1.8l4.1-4.2
			c0.2-0.2,0.5-0.2,0.7,0c0.2,0.2,0.2,0.5,0,0.7L2.6,6z"/>
	</g>
	<g transform="translate(0.000000, 15.178900)">
		<path d="M2.6,6L0.1,3.6C0,3.4,0,3.1,0.1,2.9c0.2-0.2,0.5-0.2,0.7,0l1.8,1.8l4.1-4.2
			c0.2-0.2,0.5-0.2,0.7,0c0.2,0.2,0.2,0.5,0,0.7L2.6,6z"/>
	</g>
	<g transform="translate(9.000000, 2.178900)">
		<path d="M19.4,0.7H2c-0.5,0-1.3-0.2-1.3,0.9c0,1.1,0.9,1,1.3,1h17.4c0.5,0,0.7-0.1,0.7-1
			C20.1,0.7,19.8,0.7,19.4,0.7"/>
	</g>
	<g transform="translate(9.000000, 9.178900)">
		<path d="M19.4,0.9H2c-0.5,0-1.3-0.2-1.3,0.9c0,1.1,0.9,1,1.3,1h17.4c0.5,0,0.7-0.1,0.7-1
			C20.1,0.9,19.8,0.9,19.4,0.9"/>
	</g>
	<g transform="translate(9.000000, 17.178900)">
		<path d="M19.4,0.1H2C1.5,0.1,0.7-0.1,0.7,1c0,1.1,0.9,1,1.3,1h17.4c0.5,0,0.7-0.1,0.7-1
			C20.1,0.1,19.8,0.1,19.4,0.1"/>
	</g>
</svg>
