
<svg version="1.0" id="Layer_1" aria-labelledby="cs-chat-icon-fkw" xmlns="http://www.w3.org/2000/svg" xmlns:xlink="http://www.w3.org/1999/xlink" x="0px" y="0px"
   viewBox="0 0 20 18" enable-background="new 0 0 20 18" xml:space="preserve">
   <title id="cs-chat-icon-fkw">chat icon</title>

<g id="Help">
	<g id="chat-button" transform="translate(-456.000000, -2069.000000)">
		<g id="medium" transform="translate(384.000000, 2048.000000)">
			<path id="_xD83D__xDCAC_" d="M87.6,21H76.4C74,21,72,22.9,72,25.3v4.9c0,2.4,2,4.3,4.4,4.3h1v3.6c0,0.4,0.2,0.7,0.6,0.9
				c0.1,0,0.2,0.1,0.4,0.1c0.2,0,0.5-0.1,0.7-0.3l4.6-4.2h3.9c2.4,0,4.4-1.9,4.4-4.3v-4.9C92,22.9,90,21,87.6,21z M90.1,30.2
				c0,1.3-1.1,2.4-2.5,2.4h-4.7L79.3,36v-3.4h-2.9c-1.4,0-2.5-1.1-2.5-2.4v-4.9c0-1.3,1.1-2.4,2.5-2.4h11.2c1.4,0,2.5,1.1,2.5,2.4
				V30.2z"/>
		</g>
	</g>
</g>
</svg>
