<?xml version="1.0" encoding="utf-8"?>
<!-- Generator: Adobe Illustrator 12.0.0, SVG Export Plug-In . SVG Version: 6.00 Build 51448)  -->
<!DOCTYPE svg PUBLIC "-//W3C//DTD SVG 1.1//EN" "http://www.w3.org/Graphics/SVG/1.1/DTD/svg11.dtd" [
	<!ENTITY ns_svg "http://www.w3.org/2000/svg">
	<!ENTITY ns_xlink "http://www.w3.org/1999/xlink">
]>
<svg  version="1.1" id="Layer_1" aria-labelledby="payment-check-routing-fkw" xmlns="&ns_svg;" xmlns:xlink="&ns_xlink;" width="410" height="140" viewBox="0 0 410 140"
	 overflow="visible" enable-background="new 0 0 410 140" xml:space="preserve">
<g>
	<path id="path-3" fill="#FFFFFF" d="M32,100h122v25H32V100z"/>
</g>
<g>
	<rect id="path-1" x="5" y="5" fill="#FFFFFF" width="400" height="130"/>
</g>
<title id="payment-check-routing-fkw">Account check routing number</title>
<desc>Created with Sketch.</desc>
<g id="Symbols">
	<g id="check">
		<g>
			<rect id="Rectangle-2" fill="#E1E1E1" width="410" height="140"/>
			<g>
				<rect id="path-1_1_" x="5" y="5" fill="none" stroke="#979797" stroke-width="2" width="400" height="130"/>
			</g>
			<rect id="Rectangle-3" x="20" y="88" fill="#575860" width="172" height="1"/>
			<rect id="Rectangle-3-Copy" x="218" y="88" fill="#575860" width="172" height="1"/>
			<path id="MEMO" fill="#A6A8B1" d="M21.388,84h1.92v-8.641L26.78,84h0.688l3.408-8.641V84h2.128V72.561h-2.816l-2.944,7.808
				l-3.008-7.808h-2.848V84z M35.628,84h7.424v-1.68h-5.296v-3.344h4.032v-1.601h-4.032V74.24h5.024v-1.68h-7.152V84z M44.972,84
				h1.92v-8.641L50.364,84h0.688l3.408-8.641V84h2.128V72.561h-2.816l-2.944,7.808l-3.008-7.808h-2.848V84z M64.46,82.448
				c-2.08,0-3.6-1.616-3.6-4.112v-0.128c0-2.464,1.328-4.112,3.568-4.112c2.24,0,3.552,1.744,3.552,4.096v0.129
				C67.98,80.8,66.62,82.448,64.46,82.448L64.46,82.448z M64.428,84.16c3.472,0,5.76-2.512,5.76-5.855v-0.129
				c0-3.359-2.352-5.775-5.76-5.775c-3.392,0-5.792,2.479-5.792,5.824v0.127C58.636,81.648,60.924,84.16,64.428,84.16L64.428,84.16z
				"/>
			<g id="Group-2" transform="translate(21.000000, 106.000000)">
			</g>
			<path id="Combined-Shape" fill="#575860" d="M160,106.99c0-0.547,0.443-0.99,1.009-0.99h1.981c0.557,0,1.009,0.451,1.009,0.99
				v4.02c0,0.547-0.443,0.99-1.009,0.99h-1.981c-0.557,0-1.009-0.451-1.009-0.99V106.99z M156,109.996
				c0-0.551,0.443-0.996,0.999-0.996h1.002c0.552,0,0.999,0.455,0.999,0.996v8.008c0,0.551-0.443,0.996-0.999,0.996h-1.002
				c-0.552,0-0.999-0.455-0.999-0.996V109.996z M160,116c0-0.553,0.443-1,1.009-1h1.981c0.557,0,1.009,0.443,1.009,1v3
				c0,0.553-0.443,1-1.009,1h-1.981c-0.557,0-1.009-0.443-1.009-1V116z"/>
			<path id="Combined-Shape_1_" fill="#575860" d="M316,104.997c0-0.551,0.443-0.997,1-0.997h3c0.553,0,1,0.453,1,0.997v6.006
				c0,0.551-0.443,0.997-1,0.997h-3c-0.553,0-1-0.453-1-0.997V104.997z M313,106.494c0-0.273,0.232-0.494,0.5-0.494
				c0.276,0,0.5,0.226,0.5,0.494v12.012c0,0.273-0.232,0.494-0.5,0.494c-0.276,0-0.5-0.226-0.5-0.494V106.494z M311,106.494
				c0-0.273,0.232-0.494,0.5-0.494c0.276,0,0.5,0.226,0.5,0.494v12.012c0,0.273-0.232,0.494-0.5,0.494c-0.276,0-0.5-0.226-0.5-0.494
				V106.494z"/>
			<path id="_x30_123456012" fill="#575860" d="M41.76,117.087h1.681h1.676c0.201,0,0.383-0.034,0.548-0.103
				c0.168-0.067,0.317-0.175,0.446-0.322c0.05-0.057,0.095-0.119,0.134-0.188s0.073-0.137,0.102-0.204
				c0.025-0.071,0.046-0.144,0.062-0.215c0.017-0.071,0.024-0.142,0.024-0.21v-2.873v-2.868c0-0.097-0.011-0.19-0.032-0.279
				s-0.052-0.174-0.091-0.253c-0.036-0.074-0.078-0.146-0.126-0.215c-0.048-0.067-0.101-0.127-0.158-0.177
				c-0.064-0.058-0.135-0.107-0.212-0.15c-0.077-0.043-0.159-0.077-0.245-0.103c-0.086-0.024-0.176-0.045-0.271-0.059
				c-0.095-0.014-0.194-0.021-0.298-0.021h-1.547H41.91c-0.215,0-0.412,0.03-0.591,0.092c-0.089,0.028-0.173,0.067-0.25,0.117
				c-0.077,0.051-0.146,0.111-0.207,0.184c-0.043,0.05-0.085,0.107-0.126,0.174c-0.041,0.066-0.078,0.13-0.11,0.191
				c-0.029,0.061-0.053,0.117-0.073,0.169c-0.02,0.052-0.029,0.092-0.029,0.12v3.078v3.083c0,0.024,0.012,0.065,0.035,0.121
				c0.023,0.056,0.051,0.115,0.083,0.18s0.071,0.13,0.115,0.196c0.045,0.066,0.091,0.121,0.137,0.164
				c0.057,0.053,0.116,0.103,0.177,0.147c0.061,0.044,0.127,0.083,0.199,0.115c0.068,0.032,0.143,0.058,0.226,0.078
				C41.579,117.077,41.667,117.087,41.76,117.087L41.76,117.087z M41.652,118c-0.168,0-0.321-0.018-0.459-0.051
				c-0.138-0.034-0.264-0.078-0.379-0.132c-0.115-0.058-0.219-0.122-0.314-0.196c-0.095-0.073-0.185-0.149-0.271-0.229
				c-0.093-0.086-0.178-0.186-0.255-0.301c-0.077-0.114-0.142-0.23-0.196-0.349c-0.057-0.118-0.101-0.235-0.131-0.352
				c-0.031-0.116-0.046-0.218-0.046-0.304v-3.131v-3.132c0-0.064,0.014-0.148,0.04-0.253c0.027-0.104,0.065-0.213,0.116-0.327
				c0.05-0.118,0.115-0.238,0.193-0.36c0.079-0.121,0.168-0.234,0.269-0.338c0.086-0.082,0.182-0.161,0.288-0.236
				c0.105-0.075,0.219-0.14,0.341-0.193s0.256-0.097,0.403-0.129s0.304-0.049,0.473-0.049h1.697h1.692
				c0.175,0,0.337,0.014,0.486,0.038c0.148,0.024,0.285,0.062,0.411,0.107s0.244,0.104,0.354,0.175
				c0.111,0.069,0.213,0.147,0.306,0.233c0.1,0.093,0.192,0.198,0.276,0.314c0.084,0.116,0.157,0.231,0.218,0.347
				c0.057,0.117,0.104,0.234,0.14,0.352c0.036,0.116,0.054,0.225,0.054,0.324l0.005,3.035l0.011,3.035
				c0,0.143-0.013,0.281-0.041,0.416c-0.026,0.134-0.065,0.262-0.115,0.384c-0.1,0.239-0.25,0.464-0.451,0.671
				c-0.075,0.079-0.166,0.157-0.271,0.234c-0.105,0.076-0.219,0.145-0.341,0.201c-0.118,0.057-0.24,0.104-0.365,0.14
				S45.543,118,45.428,118h-1.891H41.652z M56.031,108.338v2.32v2.325c0,0.043,0.005,0.087,0.016,0.132s0.027,0.088,0.048,0.131
				c0.018,0.04,0.041,0.079,0.067,0.119c0.027,0.039,0.055,0.072,0.083,0.102s0.063,0.056,0.102,0.08
				c0.04,0.025,0.079,0.047,0.118,0.064c0.04,0.015,0.079,0.027,0.118,0.038s0.075,0.017,0.107,0.017h0.607h0.607
				c0.032,0,0.063,0,0.091,0.002s0.057,0.008,0.086,0.02c0.057,0.024,0.116,0.078,0.177,0.16c0.014,0.019,0.028,0.036,0.04,0.055
				c0.013,0.018,0.022,0.035,0.03,0.053c0.014,0.04,0.021,0.083,0.021,0.129v1.752v1.75c0,0.025-0.002,0.052-0.008,0.078
				c-0.005,0.027-0.015,0.051-0.029,0.072c-0.021,0.047-0.05,0.088-0.086,0.124c-0.043,0.043-0.089,0.077-0.14,0.103
				c-0.054,0.024-0.102,0.037-0.145,0.037h-1.767h-1.762c-0.014,0-0.032-0.003-0.054-0.008c-0.021-0.006-0.043-0.014-0.064-0.024
				c-0.018-0.011-0.04-0.023-0.064-0.038c-0.025-0.014-0.046-0.031-0.064-0.053c-0.018-0.015-0.034-0.035-0.048-0.06
				s-0.029-0.05-0.043-0.075c-0.011-0.021-0.02-0.045-0.027-0.07c-0.007-0.024-0.011-0.046-0.011-0.064v-1.767v-1.767
				c0-0.021,0.003-0.046,0.011-0.073c0.007-0.026,0.016-0.051,0.027-0.072c0.011-0.024,0.024-0.05,0.041-0.072
				c0.016-0.023,0.031-0.042,0.045-0.057c0.014-0.019,0.034-0.036,0.059-0.054s0.05-0.032,0.075-0.043
				c0.054-0.025,0.102-0.037,0.145-0.037h0.048h0.043h0.054h0.048c0.011,0,0.028-0.005,0.051-0.014
				c0.023-0.01,0.047-0.02,0.072-0.029c0.021-0.012,0.046-0.025,0.072-0.043c0.027-0.019,0.049-0.036,0.067-0.055
				c0.014-0.018,0.03-0.037,0.048-0.059s0.032-0.043,0.043-0.064c0.021-0.043,0.032-0.08,0.032-0.113v-1.762v-1.762
				c0-0.024-0.003-0.049-0.011-0.072s-0.018-0.045-0.032-0.066c-0.011-0.021-0.024-0.043-0.041-0.064
				c-0.016-0.021-0.033-0.04-0.051-0.055c-0.018-0.018-0.04-0.034-0.064-0.051c-0.025-0.016-0.05-0.029-0.075-0.04
				s-0.048-0.02-0.07-0.026c-0.021-0.008-0.038-0.012-0.048-0.012h-0.091h-0.097c-0.018,0-0.04-0.003-0.064-0.01
				c-0.025-0.008-0.05-0.017-0.075-0.027c-0.021-0.011-0.045-0.024-0.07-0.04c-0.025-0.017-0.046-0.033-0.064-0.052
				c-0.018-0.018-0.035-0.039-0.051-0.064c-0.017-0.024-0.03-0.048-0.041-0.069c-0.011-0.024-0.02-0.05-0.027-0.075
				s-0.011-0.049-0.011-0.07v-0.311v-0.313c0-0.035,0.003-0.066,0.011-0.094c0.007-0.026,0.016-0.051,0.027-0.072
				s0.025-0.043,0.043-0.064s0.036-0.041,0.054-0.059c0.032-0.033,0.07-0.062,0.113-0.086c0.021-0.012,0.046-0.02,0.072-0.027
				c0.027-0.008,0.055-0.011,0.083-0.011h0.295h0.295h0.295h0.29c0.021,0,0.046,0.003,0.072,0.011
				c0.027,0.008,0.051,0.016,0.073,0.027c0.025,0.01,0.05,0.023,0.075,0.037s0.046,0.03,0.064,0.049
				c0.021,0.021,0.04,0.043,0.054,0.066s0.027,0.046,0.038,0.067C56.018,108.242,56.031,108.291,56.031,108.338L56.031,108.338z
				 M65.457,107.795h1.735h1.735c0.054,0,0.104,0.011,0.15,0.032c0.05,0.024,0.095,0.058,0.134,0.097
				c0.046,0.047,0.081,0.089,0.102,0.126c0.021,0.038,0.034,0.069,0.038,0.095c0.003,0.024,0.004,0.045,0.002,0.059
				c-0.001,0.014-0.002,0.023-0.002,0.027v2.33v2.332c0,0.014-0.004,0.033-0.013,0.059c-0.009,0.025-0.019,0.049-0.03,0.07
				c-0.025,0.05-0.057,0.093-0.097,0.129c-0.018,0.018-0.038,0.035-0.059,0.053c-0.021,0.019-0.043,0.033-0.064,0.043
				c-0.021,0.015-0.045,0.025-0.07,0.033c-0.025,0.007-0.052,0.01-0.081,0.01h-1.139h-1.144c-0.086,0-0.17,0.019-0.252,0.055
				c-0.083,0.035-0.156,0.088-0.22,0.155c-0.032,0.032-0.062,0.066-0.088,0.103c-0.027,0.035-0.051,0.074-0.073,0.117
				c-0.018,0.04-0.032,0.08-0.043,0.121s-0.016,0.082-0.016,0.121v1.154v1.15c0,0.035,0.004,0.074,0.014,0.115
				c0.009,0.041,0.021,0.081,0.035,0.121c0.018,0.035,0.039,0.072,0.062,0.112c0.023,0.04,0.047,0.073,0.072,0.103
				c0.057,0.067,0.131,0.121,0.22,0.16c0.043,0.019,0.084,0.033,0.124,0.046s0.075,0.019,0.107,0.019h1.171h1.171
				c0.054,0,0.105,0.014,0.156,0.041c0.05,0.026,0.093,0.06,0.129,0.1c0.04,0.043,0.072,0.091,0.097,0.145s0.038,0.109,0.038,0.166
				c0,0.058-0.01,0.115-0.029,0.172c-0.02,0.058-0.048,0.107-0.083,0.15s-0.08,0.079-0.131,0.107
				c-0.052,0.029-0.11,0.043-0.175,0.043h-1.729h-1.735c-0.046,0-0.097-0.014-0.15-0.043c-0.025-0.01-0.05-0.024-0.075-0.043
				c-0.025-0.018-0.048-0.035-0.07-0.053c-0.018-0.021-0.036-0.045-0.054-0.07s-0.032-0.051-0.043-0.075
				c-0.025-0.054-0.038-0.103-0.038-0.146l-0.005-2.314v-2.314c0-0.025,0.003-0.053,0.011-0.084c0.007-0.03,0.018-0.059,0.032-0.083
				c0.011-0.028,0.026-0.055,0.046-0.078c0.02-0.022,0.038-0.044,0.056-0.062c0.021-0.021,0.045-0.041,0.07-0.059
				c0.025-0.019,0.05-0.031,0.075-0.038c0.054-0.024,0.099-0.038,0.134-0.038h1.144h1.149c0.043,0,0.085-0.006,0.126-0.019
				c0.042-0.013,0.083-0.027,0.126-0.046c0.086-0.039,0.159-0.094,0.22-0.166c0.029-0.029,0.054-0.062,0.075-0.1
				c0.021-0.037,0.04-0.074,0.054-0.109c0.018-0.04,0.031-0.081,0.04-0.124c0.009-0.043,0.014-0.086,0.014-0.129v-1.134v-1.127
				c0-0.04-0.004-0.08-0.014-0.121c-0.009-0.041-0.021-0.084-0.035-0.127c-0.032-0.078-0.083-0.155-0.15-0.23
				c-0.021-0.025-0.049-0.051-0.083-0.078c-0.034-0.026-0.07-0.049-0.11-0.066c-0.036-0.021-0.075-0.04-0.118-0.055
				c-0.043-0.014-0.084-0.021-0.124-0.021h-1.166h-1.16c-0.032,0-0.075-0.012-0.129-0.037c-0.025-0.011-0.05-0.025-0.075-0.043
				s-0.048-0.037-0.07-0.059c-0.021-0.019-0.04-0.041-0.057-0.067c-0.016-0.027-0.031-0.054-0.045-0.078
				c-0.025-0.058-0.038-0.112-0.038-0.167c0-0.057,0.013-0.117,0.038-0.182c0.029-0.062,0.064-0.113,0.107-0.156
				c0.04-0.043,0.084-0.075,0.134-0.097C65.375,107.806,65.421,107.795,65.457,107.795L65.457,107.795z M75.297,107.789h1.751h1.751
				c0.021,0,0.045,0.003,0.07,0.009c0.025,0.005,0.05,0.013,0.075,0.024c0.05,0.021,0.097,0.051,0.14,0.091
				c0.021,0.019,0.041,0.038,0.059,0.06s0.032,0.043,0.043,0.064c0.025,0.046,0.038,0.093,0.038,0.139l-0.005,2.074v2.072
				c0,0.033,0.003,0.068,0.011,0.107c0.007,0.04,0.016,0.076,0.027,0.107c0.025,0.076,0.061,0.146,0.107,0.21
				c0.021,0.028,0.046,0.057,0.075,0.083c0.029,0.027,0.057,0.048,0.086,0.063c0.032,0.018,0.065,0.033,0.099,0.045
				c0.034,0.013,0.071,0.02,0.11,0.02h0.161l0.161,0.005c0.014,0,0.031,0.003,0.051,0.011c0.02,0.008,0.037,0.016,0.051,0.027
				c0.036,0.021,0.066,0.05,0.091,0.086c0.025,0.031,0.045,0.071,0.059,0.117c0.007,0.021,0.013,0.043,0.019,0.064
				c0.005,0.021,0.008,0.041,0.008,0.06v2.058v2.057c0,0.021-0.003,0.043-0.008,0.064c-0.006,0.021-0.012,0.043-0.019,0.064
				c-0.021,0.047-0.045,0.086-0.07,0.118c-0.025,0.028-0.052,0.054-0.081,0.075s-0.057,0.039-0.086,0.054
				c-0.029,0.019-0.056,0.031-0.081,0.04c-0.025,0.01-0.046,0.014-0.064,0.014h-2.304h-2.304c-0.04,0-0.083-0.009-0.129-0.027
				c-0.046-0.018-0.091-0.045-0.134-0.08c-0.04-0.035-0.075-0.083-0.107-0.143c-0.032-0.059-0.048-0.129-0.048-0.212
				c0-0.093,0.016-0.17,0.048-0.231c0.032-0.061,0.072-0.107,0.118-0.139c0.043-0.033,0.088-0.055,0.134-0.067
				s0.084-0.019,0.113-0.019h1.171l1.176-0.006c0.014,0,0.041-0.006,0.081-0.016c0.04-0.012,0.081-0.025,0.124-0.043
				c0.046-0.019,0.092-0.041,0.137-0.067c0.045-0.027,0.08-0.057,0.105-0.089c0.032-0.029,0.06-0.062,0.083-0.1
				c0.023-0.037,0.043-0.076,0.062-0.115c0.018-0.035,0.031-0.073,0.04-0.113c0.009-0.039,0.014-0.076,0.014-0.112v-1.155v-1.154
				c0-0.043-0.005-0.086-0.016-0.129s-0.025-0.084-0.043-0.123c-0.036-0.09-0.086-0.167-0.15-0.231
				c-0.057-0.064-0.125-0.114-0.204-0.15c-0.079-0.04-0.165-0.06-0.258-0.06h-1.155h-1.155c-0.079,0-0.147-0.019-0.204-0.056
				c-0.057-0.038-0.102-0.081-0.134-0.132s-0.056-0.102-0.07-0.153s-0.021-0.094-0.021-0.126c0.003-0.061,0.018-0.12,0.043-0.178
				c0.025-0.057,0.056-0.105,0.091-0.145c0.04-0.039,0.085-0.072,0.137-0.097c0.052-0.024,0.105-0.038,0.159-0.038h1.149h1.155
				c0.05,0,0.097-0.005,0.14-0.016s0.084-0.025,0.124-0.043c0.079-0.032,0.15-0.08,0.215-0.145c0.032-0.033,0.061-0.069,0.086-0.11
				c0.025-0.042,0.045-0.081,0.059-0.121c0.018-0.043,0.031-0.089,0.04-0.137c0.009-0.049,0.014-0.097,0.014-0.143l0.005-1.112
				l0.011-1.117c0-0.05-0.004-0.096-0.013-0.139c-0.009-0.043-0.021-0.083-0.035-0.119c-0.014-0.035-0.033-0.07-0.057-0.104
				c-0.023-0.034-0.049-0.067-0.078-0.099c-0.04-0.043-0.083-0.081-0.129-0.113s-0.091-0.059-0.134-0.08
				c-0.046-0.019-0.092-0.031-0.137-0.041c-0.045-0.009-0.085-0.014-0.121-0.014h-1.155h-1.155c-0.04,0-0.083-0.008-0.129-0.026
				s-0.089-0.045-0.129-0.081c-0.043-0.035-0.079-0.083-0.107-0.142c-0.029-0.06-0.043-0.13-0.043-0.212
				c0-0.083,0.014-0.153,0.043-0.213c0.029-0.059,0.064-0.106,0.107-0.143c0.04-0.039,0.083-0.066,0.129-0.083
				C75.225,107.798,75.265,107.789,75.297,107.789L75.297,107.789z M86.356,107.789c0.043,0,0.089,0.014,0.14,0.038
				c0.021,0.011,0.045,0.024,0.07,0.04c0.025,0.017,0.048,0.035,0.07,0.057c0.018,0.018,0.036,0.039,0.054,0.064
				s0.034,0.049,0.048,0.07c0.014,0.024,0.025,0.051,0.032,0.077c0.007,0.027,0.011,0.054,0.011,0.078v2.884v2.885
				c0,0.039,0.004,0.082,0.014,0.126c0.009,0.045,0.022,0.089,0.04,0.132c0.036,0.09,0.089,0.17,0.161,0.242
				c0.029,0.031,0.062,0.061,0.1,0.086c0.037,0.024,0.076,0.045,0.115,0.059c0.079,0.035,0.156,0.054,0.231,0.054h0.623h0.628
				c0.032,0,0.069-0.005,0.11-0.014c0.041-0.009,0.081-0.019,0.121-0.029c0.04-0.015,0.079-0.033,0.118-0.057
				c0.04-0.022,0.073-0.048,0.102-0.072c0.032-0.032,0.06-0.067,0.083-0.104c0.023-0.038,0.042-0.074,0.057-0.11
				c0.032-0.083,0.048-0.159,0.048-0.231v-0.091v-0.086c0-0.024,0.002-0.05,0.008-0.072c0.005-0.023,0.013-0.046,0.024-0.067
				c0.007-0.021,0.019-0.043,0.035-0.064c0.017-0.021,0.033-0.039,0.051-0.054c0.014-0.019,0.034-0.032,0.059-0.043
				s0.048-0.02,0.07-0.026c0.025-0.008,0.049-0.014,0.073-0.017c0.023-0.003,0.043-0.005,0.062-0.005h0.628h0.634
				c0.036,0,0.075,0.01,0.118,0.031c0.046,0.025,0.089,0.058,0.129,0.098c0.021,0.018,0.041,0.038,0.059,0.062
				c0.018,0.022,0.03,0.046,0.038,0.067c0.029,0.05,0.043,0.096,0.043,0.139l-0.005,1.757v1.751c0,0.043-0.011,0.09-0.032,0.14
				c-0.021,0.046-0.05,0.089-0.086,0.129c-0.018,0.021-0.04,0.042-0.064,0.062s-0.048,0.037-0.07,0.051
				c-0.025,0.015-0.051,0.025-0.078,0.033c-0.027,0.007-0.053,0.01-0.078,0.01h-0.591h-0.591c-0.05,0-0.104-0.012-0.161-0.037
				c-0.025-0.011-0.05-0.025-0.075-0.043s-0.048-0.035-0.07-0.054c-0.04-0.04-0.072-0.086-0.097-0.14
				c-0.025-0.051-0.038-0.094-0.038-0.129v-0.607v-0.606c0-0.036-0.006-0.073-0.019-0.112c-0.013-0.04-0.026-0.079-0.041-0.119
				c-0.018-0.043-0.041-0.082-0.067-0.117c-0.027-0.036-0.055-0.07-0.083-0.103c-0.032-0.028-0.066-0.056-0.102-0.081
				c-0.036-0.024-0.073-0.045-0.113-0.059c-0.075-0.032-0.15-0.049-0.226-0.049l-1.751-0.005h-1.751
				c-0.046,0-0.099-0.013-0.156-0.038c-0.029-0.014-0.057-0.031-0.083-0.051c-0.027-0.02-0.053-0.043-0.078-0.072
				c-0.014-0.014-0.028-0.031-0.04-0.051c-0.013-0.02-0.024-0.039-0.035-0.057c-0.021-0.047-0.036-0.094-0.043-0.14v-3.438v-3.433
				c0-0.039,0.003-0.076,0.011-0.112s0.014-0.069,0.021-0.103c0.021-0.064,0.054-0.117,0.097-0.16
				c0.025-0.021,0.052-0.043,0.081-0.064s0.056-0.038,0.081-0.049c0.025-0.014,0.049-0.025,0.072-0.035
				c0.023-0.009,0.042-0.014,0.057-0.014h0.602H86.356z M101.905,107.795c0.05,0,0.102,0.008,0.156,0.024
				c0.054,0.016,0.1,0.044,0.14,0.083c0.043,0.035,0.078,0.083,0.105,0.143c0.026,0.059,0.04,0.128,0.04,0.207
				c0.003,0.082-0.011,0.152-0.043,0.212c-0.032,0.059-0.07,0.106-0.113,0.142c-0.043,0.036-0.09,0.064-0.142,0.084
				c-0.052,0.02-0.094,0.029-0.126,0.029h-1.708l-1.703-0.006c-0.036,0-0.075,0.006-0.118,0.017s-0.084,0.024-0.124,0.043
				s-0.078,0.04-0.116,0.064c-0.037,0.024-0.072,0.054-0.104,0.086c-0.075,0.064-0.132,0.14-0.172,0.226
				c-0.018,0.039-0.033,0.08-0.046,0.123c-0.012,0.043-0.019,0.084-0.019,0.124l0.005,1.139v1.139c0,0.067,0.016,0.142,0.048,0.22
				c0.032,0.079,0.077,0.15,0.134,0.215c0.032,0.036,0.067,0.07,0.105,0.103c0.037,0.032,0.076,0.06,0.115,0.081
				c0.043,0.024,0.088,0.045,0.134,0.059s0.095,0.021,0.145,0.021h1.713h1.719c0.046,0,0.095,0.013,0.145,0.037
				c0.025,0.012,0.05,0.026,0.075,0.046c0.025,0.021,0.046,0.038,0.064,0.057c0.021,0.021,0.04,0.044,0.057,0.067
				c0.016,0.023,0.027,0.045,0.035,0.066c0.014,0.025,0.024,0.051,0.03,0.076c0.005,0.024,0.008,0.05,0.008,0.074v2.32v2.326
				c0,0.029-0.003,0.057-0.011,0.086s-0.016,0.052-0.027,0.07c-0.011,0.024-0.023,0.047-0.038,0.066s-0.029,0.039-0.043,0.057
				c-0.043,0.051-0.093,0.09-0.15,0.118c-0.054,0.024-0.105,0.038-0.156,0.038h-2.31h-2.31c-0.046,0-0.095-0.014-0.145-0.041
				c-0.05-0.026-0.097-0.06-0.14-0.1c-0.04-0.043-0.072-0.091-0.1-0.145c-0.026-0.054-0.04-0.109-0.04-0.166
				c0-0.068-0.001-0.132-0.003-0.191c-0.001-0.059,0.008-0.107,0.03-0.147c0.021-0.043,0.063-0.077,0.126-0.103
				c0.063-0.024,0.158-0.037,0.287-0.037h1.719h1.713c0.04,0,0.081-0.006,0.124-0.016c0.043-0.012,0.084-0.025,0.124-0.043
				c0.04-0.021,0.079-0.045,0.118-0.07s0.075-0.054,0.107-0.086c0.061-0.054,0.109-0.12,0.145-0.199
				c0.018-0.035,0.032-0.074,0.043-0.117s0.016-0.086,0.016-0.129v-1.177v-1.171c0-0.032-0.005-0.068-0.016-0.107
				s-0.027-0.078-0.048-0.118c-0.018-0.04-0.042-0.079-0.073-0.118c-0.03-0.039-0.062-0.075-0.094-0.107
				c-0.032-0.029-0.066-0.056-0.102-0.08c-0.036-0.025-0.072-0.047-0.107-0.064c-0.075-0.033-0.145-0.049-0.209-0.049h-1.729h-1.729
				c-0.021,0-0.046-0.004-0.072-0.014c-0.027-0.009-0.053-0.019-0.078-0.029c-0.054-0.025-0.104-0.059-0.15-0.102
				c-0.018-0.019-0.036-0.04-0.054-0.064c-0.018-0.025-0.032-0.049-0.043-0.07c-0.025-0.054-0.038-0.104-0.038-0.15v-2.326v-2.32
				c0.003-0.024,0.01-0.05,0.019-0.074c0.009-0.025,0.019-0.051,0.029-0.076c0.021-0.046,0.054-0.091,0.097-0.134
				c0.014-0.015,0.033-0.029,0.057-0.046c0.023-0.016,0.045-0.031,0.067-0.045c0.054-0.025,0.109-0.043,0.167-0.055h2.293
				L101.905,107.795z M110.628,107.789c0.025,0,0.054,0.005,0.086,0.014c0.032,0.01,0.061,0.021,0.086,0.035
				c0.032,0.014,0.061,0.032,0.086,0.054s0.048,0.045,0.07,0.069c0.018,0.021,0.035,0.045,0.051,0.067
				c0.016,0.023,0.029,0.046,0.04,0.067c0.021,0.051,0.032,0.099,0.032,0.145v0.871v0.869c0,0.062-0.014,0.117-0.04,0.17
				c-0.027,0.052-0.062,0.098-0.105,0.137c-0.043,0.035-0.092,0.064-0.148,0.086c-0.055,0.021-0.112,0.032-0.169,0.032
				c-0.064,0-0.125-0.005-0.18-0.017c-0.056-0.01-0.105-0.029-0.148-0.059s-0.078-0.072-0.105-0.129
				c-0.026-0.057-0.04-0.131-0.04-0.221v-0.284l-0.005-0.279c0-0.036-0.005-0.075-0.016-0.118s-0.023-0.084-0.038-0.123
				c-0.018-0.043-0.041-0.086-0.067-0.129c-0.027-0.043-0.057-0.081-0.089-0.113c-0.068-0.064-0.142-0.116-0.22-0.156
				c-0.089-0.039-0.174-0.059-0.252-0.059h-0.548h-0.553c-0.086,0-0.17,0.018-0.252,0.054c-0.043,0.019-0.083,0.04-0.121,0.064
				c-0.037,0.024-0.072,0.054-0.104,0.086s-0.063,0.069-0.091,0.11s-0.052,0.081-0.07,0.121c-0.021,0.043-0.038,0.086-0.048,0.131
				s-0.016,0.087-0.016,0.127l0.005,1.724v1.719c0,0.036,0.004,0.072,0.013,0.11c0.009,0.037,0.021,0.076,0.035,0.115
				c0.032,0.078,0.077,0.15,0.134,0.215c0.064,0.072,0.14,0.127,0.226,0.166c0.043,0.021,0.088,0.039,0.134,0.052
				s0.095,0.019,0.145,0.019h2.288h2.288c0.046,0,0.096,0.014,0.148,0.04c0.052,0.027,0.097,0.06,0.137,0.1s0.072,0.083,0.1,0.132
				c0.026,0.048,0.04,0.096,0.04,0.143v1.74v1.745c0,0.021-0.004,0.046-0.014,0.072c-0.009,0.027-0.017,0.054-0.024,0.078
				c-0.011,0.024-0.025,0.05-0.043,0.075s-0.036,0.049-0.054,0.07c-0.021,0.021-0.044,0.041-0.067,0.059
				c-0.023,0.018-0.048,0.032-0.073,0.043c-0.021,0.014-0.045,0.025-0.073,0.032c-0.026,0.007-0.053,0.011-0.078,0.011h-2.874
				h-2.884c-0.021,0-0.046-0.004-0.075-0.014c-0.029-0.009-0.056-0.021-0.081-0.035c-0.025-0.01-0.051-0.025-0.078-0.045
				c-0.026-0.02-0.051-0.041-0.072-0.063c-0.036-0.039-0.064-0.082-0.086-0.129c-0.011-0.024-0.019-0.049-0.024-0.072
				c-0.005-0.023-0.008-0.047-0.008-0.072v-4.604l-0.005-4.607c0-0.025,0.004-0.053,0.013-0.081c0.009-0.028,0.019-0.054,0.03-0.075
				c0.025-0.051,0.057-0.097,0.097-0.14c0.043-0.043,0.091-0.077,0.145-0.103c0.054-0.024,0.102-0.037,0.145-0.037l1.735-0.006
				H110.628z M108.334,116.953h1.697h1.697c0.093,0,0.181-0.02,0.263-0.06s0.152-0.091,0.209-0.155
				c0.061-0.064,0.11-0.143,0.148-0.231c0.037-0.089,0.056-0.185,0.056-0.284v-0.521v-0.521c0-0.1-0.019-0.195-0.056-0.284
				c-0.038-0.089-0.087-0.167-0.148-0.231c-0.057-0.064-0.127-0.115-0.209-0.152c-0.083-0.038-0.17-0.057-0.263-0.057h-1.697h-1.697
				c-0.093,0-0.181,0.019-0.263,0.057c-0.083,0.037-0.154,0.088-0.215,0.152c-0.057,0.064-0.104,0.143-0.14,0.231
				s-0.054,0.185-0.054,0.284v0.521v0.521c0,0.1,0.018,0.195,0.054,0.284s0.083,0.167,0.14,0.231
				c0.061,0.064,0.132,0.115,0.215,0.155S108.241,116.953,108.334,116.953L108.334,116.953z M118.76,117.087h1.681h1.676
				c0.201,0,0.383-0.034,0.548-0.103c0.168-0.067,0.317-0.175,0.446-0.322c0.05-0.057,0.095-0.119,0.134-0.188
				s0.073-0.137,0.102-0.204c0.025-0.071,0.046-0.144,0.062-0.215c0.017-0.071,0.024-0.142,0.024-0.21v-2.873v-2.868
				c0-0.097-0.011-0.19-0.032-0.279s-0.052-0.174-0.091-0.253c-0.036-0.074-0.078-0.146-0.126-0.215
				c-0.048-0.067-0.101-0.127-0.158-0.177c-0.064-0.058-0.135-0.107-0.212-0.15c-0.077-0.043-0.159-0.077-0.245-0.103
				c-0.086-0.024-0.176-0.045-0.271-0.059c-0.095-0.014-0.194-0.021-0.298-0.021h-1.547h-1.542c-0.215,0-0.412,0.03-0.591,0.092
				c-0.089,0.028-0.173,0.067-0.25,0.117c-0.077,0.051-0.146,0.111-0.207,0.184c-0.043,0.05-0.085,0.107-0.126,0.174
				c-0.041,0.066-0.078,0.13-0.11,0.191c-0.029,0.061-0.053,0.117-0.073,0.169c-0.02,0.052-0.029,0.092-0.029,0.12v3.078v3.083
				c0,0.024,0.012,0.065,0.035,0.121c0.023,0.056,0.051,0.115,0.083,0.18s0.071,0.13,0.115,0.196
				c0.045,0.066,0.091,0.121,0.137,0.164c0.057,0.053,0.116,0.103,0.177,0.147c0.061,0.044,0.127,0.083,0.199,0.115
				c0.068,0.032,0.143,0.058,0.226,0.078C118.579,117.077,118.667,117.087,118.76,117.087L118.76,117.087z M118.652,118
				c-0.168,0-0.321-0.018-0.459-0.051c-0.138-0.034-0.264-0.078-0.379-0.132c-0.115-0.058-0.219-0.122-0.314-0.196
				c-0.095-0.073-0.185-0.149-0.271-0.229c-0.093-0.086-0.178-0.186-0.255-0.301c-0.077-0.114-0.142-0.23-0.196-0.349
				c-0.057-0.118-0.101-0.235-0.131-0.352c-0.031-0.116-0.046-0.218-0.046-0.304v-3.131v-3.132c0-0.064,0.014-0.148,0.04-0.253
				c0.027-0.104,0.065-0.213,0.116-0.327c0.05-0.118,0.115-0.238,0.193-0.36c0.079-0.121,0.168-0.234,0.269-0.338
				c0.086-0.082,0.182-0.161,0.288-0.236c0.105-0.075,0.219-0.14,0.341-0.193s0.256-0.097,0.403-0.129s0.304-0.049,0.473-0.049
				h1.697h1.692c0.175,0,0.337,0.014,0.486,0.038c0.148,0.024,0.285,0.062,0.411,0.107s0.244,0.104,0.354,0.175
				c0.111,0.069,0.213,0.147,0.306,0.233c0.1,0.093,0.192,0.198,0.276,0.314c0.084,0.116,0.157,0.231,0.218,0.347
				c0.057,0.117,0.104,0.234,0.14,0.352c0.036,0.116,0.054,0.225,0.054,0.324l0.005,3.035l0.011,3.035
				c0,0.143-0.013,0.281-0.041,0.416c-0.026,0.134-0.065,0.262-0.115,0.384c-0.1,0.239-0.25,0.464-0.451,0.671
				c-0.075,0.079-0.166,0.157-0.271,0.234c-0.105,0.076-0.219,0.145-0.341,0.201c-0.118,0.057-0.24,0.104-0.365,0.14
				s-0.245,0.054-0.36,0.054h-1.891H118.652z M133.031,108.338v2.32v2.325c0,0.043,0.005,0.087,0.016,0.132s0.027,0.088,0.048,0.131
				c0.018,0.04,0.041,0.079,0.067,0.119c0.027,0.039,0.055,0.072,0.083,0.102s0.063,0.056,0.102,0.08
				c0.04,0.025,0.079,0.047,0.118,0.064c0.04,0.015,0.079,0.027,0.118,0.038s0.075,0.017,0.107,0.017h0.607h0.607
				c0.032,0,0.063,0,0.091,0.002s0.057,0.008,0.086,0.02c0.057,0.024,0.116,0.078,0.177,0.16c0.014,0.019,0.028,0.036,0.04,0.055
				c0.013,0.018,0.022,0.035,0.03,0.053c0.014,0.04,0.021,0.083,0.021,0.129v1.752v1.75c0,0.025-0.002,0.052-0.008,0.078
				c-0.005,0.027-0.015,0.051-0.029,0.072c-0.021,0.047-0.05,0.088-0.086,0.124c-0.043,0.043-0.089,0.077-0.14,0.103
				c-0.054,0.024-0.102,0.037-0.145,0.037h-1.767h-1.762c-0.014,0-0.032-0.003-0.054-0.008c-0.021-0.006-0.043-0.014-0.064-0.024
				c-0.018-0.011-0.04-0.023-0.064-0.038c-0.025-0.014-0.046-0.031-0.064-0.053c-0.018-0.015-0.034-0.035-0.048-0.06
				s-0.029-0.05-0.043-0.075c-0.011-0.021-0.02-0.045-0.027-0.07c-0.007-0.024-0.011-0.046-0.011-0.064v-1.767v-1.767
				c0-0.021,0.003-0.046,0.011-0.073c0.007-0.026,0.016-0.051,0.027-0.072c0.011-0.024,0.024-0.05,0.041-0.072
				c0.016-0.023,0.031-0.042,0.045-0.057c0.014-0.019,0.034-0.036,0.059-0.054s0.05-0.032,0.075-0.043
				c0.054-0.025,0.102-0.037,0.145-0.037h0.048h0.043h0.054h0.048c0.011,0,0.028-0.005,0.051-0.014
				c0.023-0.01,0.047-0.02,0.072-0.029c0.021-0.012,0.046-0.025,0.072-0.043c0.027-0.019,0.049-0.036,0.067-0.055
				c0.014-0.018,0.03-0.037,0.048-0.059s0.032-0.043,0.043-0.064c0.021-0.043,0.032-0.08,0.032-0.113v-1.762v-1.762
				c0-0.024-0.003-0.049-0.011-0.072s-0.018-0.045-0.032-0.066c-0.011-0.021-0.024-0.043-0.041-0.064
				c-0.016-0.021-0.033-0.04-0.051-0.055c-0.018-0.018-0.04-0.034-0.064-0.051c-0.025-0.016-0.05-0.029-0.075-0.04
				s-0.048-0.02-0.07-0.026c-0.021-0.008-0.038-0.012-0.048-0.012h-0.091h-0.097c-0.018,0-0.04-0.003-0.064-0.01
				c-0.025-0.008-0.05-0.017-0.075-0.027c-0.021-0.011-0.045-0.024-0.07-0.04c-0.025-0.017-0.046-0.033-0.064-0.052
				c-0.018-0.018-0.035-0.039-0.051-0.064c-0.017-0.024-0.03-0.048-0.041-0.069c-0.011-0.024-0.02-0.05-0.027-0.075
				s-0.011-0.049-0.011-0.07v-0.311v-0.313c0-0.035,0.003-0.066,0.011-0.094c0.007-0.026,0.016-0.051,0.027-0.072
				s0.025-0.043,0.043-0.064s0.036-0.041,0.054-0.059c0.032-0.033,0.07-0.062,0.113-0.086c0.021-0.012,0.046-0.02,0.072-0.027
				c0.027-0.008,0.055-0.011,0.083-0.011h0.295h0.295h0.295h0.29c0.021,0,0.046,0.003,0.072,0.011
				c0.027,0.008,0.051,0.016,0.073,0.027c0.025,0.01,0.05,0.023,0.075,0.037s0.046,0.03,0.064,0.049
				c0.021,0.021,0.04,0.043,0.054,0.066s0.027,0.046,0.038,0.067C133.018,108.242,133.031,108.291,133.031,108.338L133.031,108.338z
				 M142.457,107.795h1.735h1.735c0.054,0,0.104,0.011,0.15,0.032c0.05,0.024,0.095,0.058,0.134,0.097
				c0.046,0.047,0.081,0.089,0.102,0.126c0.021,0.038,0.034,0.069,0.038,0.095c0.003,0.024,0.004,0.045,0.002,0.059
				c-0.001,0.014-0.002,0.023-0.002,0.027v2.33v2.332c0,0.014-0.004,0.033-0.013,0.059c-0.009,0.025-0.019,0.049-0.03,0.07
				c-0.025,0.05-0.057,0.093-0.097,0.129c-0.018,0.018-0.038,0.035-0.059,0.053c-0.021,0.019-0.043,0.033-0.064,0.043
				c-0.021,0.015-0.045,0.025-0.07,0.033c-0.025,0.007-0.052,0.01-0.081,0.01h-1.139h-1.144c-0.086,0-0.17,0.019-0.252,0.055
				c-0.083,0.035-0.156,0.088-0.22,0.155c-0.032,0.032-0.062,0.066-0.088,0.103c-0.027,0.035-0.051,0.074-0.073,0.117
				c-0.018,0.04-0.032,0.08-0.043,0.121s-0.016,0.082-0.016,0.121v1.154v1.15c0,0.035,0.004,0.074,0.014,0.115
				c0.009,0.041,0.021,0.081,0.035,0.121c0.018,0.035,0.039,0.072,0.062,0.112c0.023,0.04,0.047,0.073,0.072,0.103
				c0.057,0.067,0.131,0.121,0.22,0.16c0.043,0.019,0.084,0.033,0.124,0.046s0.075,0.019,0.107,0.019h1.171h1.171
				c0.054,0,0.105,0.014,0.156,0.041c0.05,0.026,0.093,0.06,0.129,0.1c0.04,0.043,0.072,0.091,0.097,0.145s0.038,0.109,0.038,0.166
				c0,0.058-0.01,0.115-0.029,0.172c-0.02,0.058-0.048,0.107-0.083,0.15s-0.08,0.079-0.131,0.107
				c-0.052,0.029-0.11,0.043-0.175,0.043h-1.729h-1.735c-0.046,0-0.097-0.014-0.15-0.043c-0.025-0.01-0.05-0.024-0.075-0.043
				c-0.025-0.018-0.048-0.035-0.07-0.053c-0.018-0.021-0.036-0.045-0.054-0.07s-0.032-0.051-0.043-0.075
				c-0.025-0.054-0.038-0.103-0.038-0.146l-0.005-2.314v-2.314c0-0.025,0.003-0.053,0.011-0.084c0.007-0.03,0.018-0.059,0.032-0.083
				c0.011-0.028,0.026-0.055,0.046-0.078c0.02-0.022,0.038-0.044,0.056-0.062c0.021-0.021,0.045-0.041,0.07-0.059
				c0.025-0.019,0.05-0.031,0.075-0.038c0.054-0.024,0.099-0.038,0.134-0.038h1.144h1.149c0.043,0,0.085-0.006,0.126-0.019
				c0.042-0.013,0.083-0.027,0.126-0.046c0.086-0.039,0.159-0.094,0.22-0.166c0.029-0.029,0.054-0.062,0.075-0.1
				c0.021-0.037,0.04-0.074,0.054-0.109c0.018-0.04,0.031-0.081,0.04-0.124c0.009-0.043,0.014-0.086,0.014-0.129v-1.134v-1.127
				c0-0.04-0.004-0.08-0.014-0.121c-0.009-0.041-0.021-0.084-0.035-0.127c-0.032-0.078-0.083-0.155-0.15-0.23
				c-0.021-0.025-0.049-0.051-0.083-0.078c-0.034-0.026-0.07-0.049-0.11-0.066c-0.036-0.021-0.075-0.04-0.118-0.055
				c-0.043-0.014-0.084-0.021-0.124-0.021h-1.166h-1.16c-0.032,0-0.075-0.012-0.129-0.037c-0.025-0.011-0.05-0.025-0.075-0.043
				s-0.048-0.037-0.07-0.059c-0.021-0.019-0.04-0.041-0.057-0.067c-0.016-0.027-0.031-0.054-0.045-0.078
				c-0.025-0.058-0.038-0.112-0.038-0.167c0-0.057,0.013-0.117,0.038-0.182c0.029-0.062,0.064-0.113,0.107-0.156
				c0.04-0.043,0.084-0.075,0.134-0.097C142.375,107.806,142.421,107.795,142.457,107.795L142.457,107.795z"/>
			<path id="_x30_123456012-copy" fill="#575860" d="M196.76,117.087h1.681h1.676c0.201,0,0.383-0.034,0.548-0.103
				c0.168-0.067,0.317-0.175,0.446-0.322c0.05-0.057,0.095-0.119,0.134-0.188s0.073-0.137,0.102-0.204
				c0.025-0.071,0.046-0.144,0.062-0.215c0.017-0.071,0.024-0.142,0.024-0.21v-2.873v-2.868c0-0.097-0.011-0.19-0.032-0.279
				s-0.052-0.174-0.091-0.253c-0.036-0.074-0.078-0.146-0.126-0.215c-0.048-0.067-0.101-0.127-0.158-0.177
				c-0.064-0.058-0.135-0.107-0.212-0.15c-0.077-0.043-0.159-0.077-0.245-0.103c-0.086-0.024-0.176-0.045-0.271-0.059
				c-0.095-0.014-0.194-0.021-0.298-0.021h-1.547h-1.542c-0.215,0-0.412,0.03-0.591,0.092c-0.089,0.028-0.173,0.067-0.25,0.117
				c-0.077,0.051-0.146,0.111-0.207,0.184c-0.043,0.05-0.085,0.107-0.126,0.174c-0.041,0.066-0.078,0.13-0.11,0.191
				c-0.029,0.061-0.053,0.117-0.073,0.169c-0.02,0.052-0.029,0.092-0.029,0.12v3.078v3.083c0,0.024,0.012,0.065,0.035,0.121
				c0.023,0.056,0.051,0.115,0.083,0.18s0.071,0.13,0.115,0.196c0.045,0.066,0.091,0.121,0.137,0.164
				c0.057,0.053,0.116,0.103,0.177,0.147c0.061,0.044,0.127,0.083,0.199,0.115c0.068,0.032,0.143,0.058,0.226,0.078
				C196.579,117.077,196.667,117.087,196.76,117.087L196.76,117.087z M196.652,118c-0.168,0-0.321-0.018-0.459-0.051
				c-0.138-0.034-0.264-0.078-0.379-0.132c-0.115-0.058-0.219-0.122-0.314-0.196c-0.095-0.073-0.185-0.149-0.271-0.229
				c-0.093-0.086-0.178-0.186-0.255-0.301c-0.077-0.114-0.142-0.23-0.196-0.349c-0.057-0.118-0.101-0.235-0.131-0.352
				c-0.031-0.116-0.046-0.218-0.046-0.304v-3.131v-3.132c0-0.064,0.014-0.148,0.04-0.253c0.027-0.104,0.065-0.213,0.116-0.327
				c0.05-0.118,0.115-0.238,0.193-0.36c0.079-0.121,0.168-0.234,0.269-0.338c0.086-0.082,0.182-0.161,0.288-0.236
				c0.105-0.075,0.219-0.14,0.341-0.193s0.256-0.097,0.403-0.129s0.304-0.049,0.473-0.049h1.697h1.692
				c0.175,0,0.337,0.014,0.486,0.038c0.148,0.024,0.285,0.062,0.411,0.107s0.244,0.104,0.354,0.175
				c0.111,0.069,0.213,0.147,0.306,0.233c0.1,0.093,0.192,0.198,0.276,0.314c0.084,0.116,0.157,0.231,0.218,0.347
				c0.057,0.117,0.104,0.234,0.14,0.352c0.036,0.116,0.054,0.225,0.054,0.324l0.005,3.035l0.011,3.035
				c0,0.143-0.013,0.281-0.041,0.416c-0.026,0.134-0.065,0.262-0.115,0.384c-0.1,0.239-0.25,0.464-0.451,0.671
				c-0.075,0.079-0.166,0.157-0.271,0.234c-0.105,0.076-0.219,0.145-0.341,0.201c-0.118,0.057-0.24,0.104-0.365,0.14
				s-0.245,0.054-0.36,0.054h-1.891H196.652z M211.031,108.338v2.32v2.325c0,0.043,0.005,0.087,0.016,0.132s0.027,0.088,0.049,0.131
				c0.018,0.04,0.04,0.079,0.066,0.119c0.027,0.039,0.055,0.072,0.084,0.102c0.028,0.029,0.063,0.056,0.102,0.08
				c0.039,0.025,0.078,0.047,0.118,0.064c0.04,0.015,0.079,0.027,0.118,0.038s0.075,0.017,0.107,0.017h0.607h0.606
				c0.032,0,0.063,0,0.091,0.002c0.029,0.002,0.058,0.008,0.086,0.02c0.058,0.024,0.117,0.078,0.178,0.16
				c0.014,0.019,0.027,0.036,0.04,0.055c0.013,0.018,0.022,0.035,0.03,0.053c0.014,0.04,0.021,0.083,0.021,0.129v1.752v1.75
				c0,0.025-0.003,0.052-0.009,0.078c-0.005,0.027-0.015,0.051-0.029,0.072c-0.021,0.047-0.05,0.088-0.086,0.124
				c-0.043,0.043-0.089,0.077-0.14,0.103c-0.054,0.024-0.102,0.037-0.145,0.037h-1.768h-1.762c-0.014,0-0.032-0.003-0.054-0.008
				c-0.021-0.006-0.043-0.014-0.064-0.024c-0.019-0.011-0.04-0.023-0.064-0.038c-0.024-0.014-0.046-0.031-0.064-0.053
				c-0.019-0.015-0.034-0.035-0.048-0.06c-0.015-0.024-0.029-0.05-0.043-0.075c-0.012-0.021-0.02-0.045-0.027-0.07
				c-0.008-0.024-0.011-0.046-0.011-0.064v-1.767v-1.767c0-0.021,0.003-0.046,0.011-0.073c0.008-0.026,0.016-0.051,0.027-0.072
				c0.01-0.024,0.023-0.05,0.04-0.072c0.016-0.023,0.031-0.042,0.046-0.057c0.014-0.019,0.033-0.036,0.059-0.054
				s0.051-0.032,0.075-0.043c0.054-0.025,0.103-0.037,0.146-0.037h0.048h0.043h0.054h0.049c0.01,0,0.027-0.005,0.051-0.014
				c0.023-0.01,0.047-0.02,0.072-0.029c0.021-0.012,0.046-0.025,0.072-0.043c0.027-0.019,0.049-0.036,0.067-0.055
				c0.015-0.018,0.03-0.037,0.048-0.059c0.019-0.021,0.033-0.043,0.043-0.064c0.021-0.043,0.033-0.08,0.033-0.113v-1.762v-1.762
				c0-0.024-0.004-0.049-0.012-0.072c-0.007-0.023-0.018-0.045-0.031-0.066c-0.012-0.021-0.024-0.043-0.041-0.064
				c-0.016-0.021-0.033-0.04-0.051-0.055c-0.018-0.018-0.039-0.034-0.064-0.051c-0.025-0.016-0.051-0.029-0.075-0.04
				s-0.048-0.02-0.069-0.026c-0.021-0.008-0.038-0.012-0.049-0.012h-0.092h-0.096c-0.019,0-0.04-0.003-0.064-0.01
				c-0.025-0.008-0.051-0.017-0.076-0.027c-0.021-0.011-0.045-0.024-0.069-0.04c-0.024-0.017-0.046-0.033-0.064-0.052
				c-0.019-0.018-0.035-0.039-0.051-0.064c-0.017-0.024-0.03-0.048-0.04-0.069c-0.012-0.024-0.02-0.05-0.027-0.075
				s-0.011-0.049-0.011-0.07v-0.311v-0.313c0-0.035,0.003-0.066,0.011-0.094c0.008-0.026,0.016-0.051,0.027-0.072
				c0.01-0.021,0.024-0.043,0.043-0.064c0.018-0.021,0.035-0.041,0.053-0.059c0.033-0.033,0.07-0.062,0.113-0.086
				c0.021-0.012,0.046-0.02,0.072-0.027c0.027-0.008,0.055-0.011,0.084-0.011h0.295h0.295h0.296h0.29
				c0.021,0,0.046,0.003,0.072,0.011c0.027,0.008,0.051,0.016,0.072,0.027c0.025,0.01,0.051,0.023,0.076,0.037
				c0.024,0.014,0.046,0.03,0.064,0.049c0.021,0.021,0.039,0.043,0.053,0.066c0.015,0.023,0.027,0.046,0.038,0.067
				C211.018,108.242,211.031,108.291,211.031,108.338L211.031,108.338z M220.457,107.795h1.734h1.735
				c0.054,0,0.104,0.011,0.15,0.032c0.05,0.024,0.095,0.058,0.134,0.097c0.047,0.047,0.081,0.089,0.103,0.126
				c0.021,0.038,0.034,0.069,0.038,0.095c0.003,0.024,0.004,0.045,0.002,0.059s-0.002,0.023-0.002,0.027v2.33v2.332
				c0,0.014-0.005,0.033-0.014,0.059c-0.01,0.025-0.02,0.049-0.029,0.07c-0.025,0.05-0.058,0.093-0.098,0.129
				c-0.018,0.018-0.037,0.035-0.059,0.053c-0.021,0.019-0.043,0.033-0.064,0.043c-0.021,0.015-0.045,0.025-0.07,0.033
				c-0.024,0.007-0.051,0.01-0.08,0.01h-1.139h-1.145c-0.086,0-0.17,0.019-0.252,0.055c-0.082,0.035-0.156,0.088-0.221,0.155
				c-0.031,0.032-0.062,0.066-0.088,0.103c-0.027,0.035-0.051,0.074-0.072,0.117c-0.019,0.04-0.033,0.08-0.043,0.121
				c-0.012,0.041-0.017,0.082-0.017,0.121v1.154v1.15c0,0.035,0.005,0.074,0.014,0.115s0.021,0.081,0.034,0.121
				c0.019,0.035,0.039,0.072,0.063,0.112s0.047,0.073,0.072,0.103c0.057,0.067,0.131,0.121,0.221,0.16
				c0.043,0.019,0.084,0.033,0.123,0.046s0.075,0.019,0.107,0.019h1.171h1.171c0.054,0,0.105,0.014,0.156,0.041
				c0.05,0.026,0.093,0.06,0.129,0.1c0.039,0.043,0.071,0.091,0.096,0.145c0.025,0.054,0.038,0.109,0.038,0.166
				c0,0.058-0.01,0.115-0.029,0.172c-0.021,0.058-0.048,0.107-0.083,0.15c-0.036,0.043-0.08,0.079-0.132,0.107
				c-0.052,0.029-0.11,0.043-0.175,0.043h-1.729h-1.735c-0.046,0-0.096-0.014-0.15-0.043c-0.024-0.01-0.05-0.024-0.074-0.043
				c-0.025-0.018-0.049-0.035-0.07-0.053c-0.018-0.021-0.035-0.045-0.054-0.07s-0.032-0.051-0.043-0.075
				c-0.024-0.054-0.038-0.103-0.038-0.146l-0.005-2.314v-2.314c0-0.025,0.003-0.053,0.011-0.084c0.008-0.03,0.018-0.059,0.032-0.083
				c0.011-0.028,0.026-0.055,0.046-0.078c0.02-0.022,0.038-0.044,0.057-0.062c0.021-0.021,0.045-0.041,0.069-0.059
				c0.024-0.019,0.05-0.031,0.075-0.038c0.054-0.024,0.099-0.038,0.135-0.038h1.144h1.149c0.043,0,0.085-0.006,0.126-0.019
				c0.042-0.013,0.083-0.027,0.126-0.046c0.086-0.039,0.16-0.094,0.221-0.166c0.029-0.029,0.054-0.062,0.075-0.1
				c0.021-0.037,0.04-0.074,0.054-0.109c0.018-0.04,0.031-0.081,0.04-0.124s0.014-0.086,0.014-0.129v-1.134v-1.127
				c0-0.04-0.005-0.08-0.014-0.121s-0.021-0.084-0.034-0.127c-0.033-0.078-0.083-0.155-0.15-0.23
				c-0.021-0.025-0.05-0.051-0.084-0.078c-0.033-0.026-0.07-0.049-0.109-0.066c-0.036-0.021-0.076-0.04-0.119-0.055
				c-0.043-0.014-0.084-0.021-0.123-0.021h-1.166h-1.16c-0.031,0-0.074-0.012-0.129-0.037c-0.024-0.011-0.05-0.025-0.074-0.043
				c-0.025-0.018-0.049-0.037-0.07-0.059c-0.021-0.019-0.04-0.041-0.057-0.067c-0.016-0.027-0.031-0.054-0.045-0.078
				c-0.025-0.058-0.038-0.112-0.038-0.167c0-0.057,0.013-0.117,0.038-0.182c0.028-0.062,0.064-0.113,0.107-0.156
				c0.039-0.043,0.084-0.075,0.134-0.097C220.375,107.806,220.422,107.795,220.457,107.795L220.457,107.795z M230.297,107.789h1.751
				h1.751c0.021,0,0.045,0.003,0.07,0.009c0.024,0.005,0.05,0.013,0.074,0.024c0.051,0.021,0.098,0.051,0.141,0.091
				c0.021,0.019,0.041,0.038,0.059,0.06s0.032,0.043,0.043,0.064c0.025,0.046,0.037,0.093,0.037,0.139l-0.005,2.074v2.072
				c0,0.033,0.003,0.068,0.011,0.107c0.008,0.04,0.016,0.076,0.027,0.107c0.024,0.076,0.061,0.146,0.107,0.21
				c0.021,0.028,0.046,0.057,0.074,0.083c0.029,0.027,0.058,0.048,0.086,0.063c0.033,0.018,0.066,0.033,0.1,0.045
				c0.034,0.013,0.07,0.02,0.11,0.02h0.161l0.161,0.005c0.015,0,0.031,0.003,0.051,0.011c0.021,0.008,0.037,0.016,0.052,0.027
				c0.035,0.021,0.066,0.05,0.091,0.086c0.024,0.031,0.045,0.071,0.06,0.117c0.007,0.021,0.013,0.043,0.019,0.064
				c0.005,0.021,0.008,0.041,0.008,0.06v2.058v2.057c0,0.021-0.003,0.043-0.008,0.064c-0.006,0.021-0.012,0.043-0.019,0.064
				c-0.021,0.047-0.045,0.086-0.07,0.118c-0.025,0.028-0.052,0.054-0.08,0.075c-0.029,0.021-0.058,0.039-0.086,0.054
				c-0.029,0.019-0.057,0.031-0.081,0.04c-0.024,0.01-0.046,0.014-0.064,0.014h-2.304h-2.305c-0.039,0-0.082-0.009-0.129-0.027
				c-0.047-0.018-0.092-0.045-0.135-0.08c-0.039-0.035-0.074-0.083-0.107-0.143c-0.031-0.059-0.048-0.129-0.048-0.212
				c0-0.093,0.017-0.17,0.048-0.231c0.033-0.061,0.072-0.107,0.119-0.139c0.043-0.033,0.088-0.055,0.134-0.067
				s0.084-0.019,0.112-0.019h1.172l1.176-0.006c0.014,0,0.041-0.006,0.08-0.016c0.04-0.012,0.081-0.025,0.124-0.043
				c0.046-0.019,0.093-0.041,0.137-0.067c0.045-0.027,0.08-0.057,0.104-0.089c0.033-0.029,0.061-0.062,0.084-0.1
				c0.023-0.037,0.043-0.076,0.062-0.115c0.019-0.035,0.031-0.073,0.04-0.113c0.01-0.039,0.014-0.076,0.014-0.112v-1.155v-1.154
				c0-0.043-0.006-0.086-0.016-0.129c-0.012-0.043-0.025-0.084-0.043-0.123c-0.036-0.09-0.086-0.167-0.15-0.231
				c-0.058-0.064-0.126-0.114-0.205-0.15c-0.078-0.04-0.164-0.06-0.258-0.06h-1.154h-1.154c-0.079,0-0.147-0.019-0.205-0.056
				c-0.057-0.038-0.102-0.081-0.134-0.132s-0.056-0.102-0.069-0.153c-0.015-0.052-0.021-0.094-0.021-0.126
				c0.003-0.061,0.018-0.12,0.043-0.178c0.024-0.057,0.055-0.105,0.091-0.145c0.04-0.039,0.085-0.072,0.137-0.097
				s0.104-0.038,0.159-0.038h1.148h1.155c0.05,0,0.097-0.005,0.14-0.016s0.084-0.025,0.123-0.043c0.079-0.032,0.15-0.08,0.215-0.145
				c0.033-0.033,0.062-0.069,0.086-0.11c0.025-0.042,0.045-0.081,0.06-0.121c0.019-0.043,0.031-0.089,0.04-0.137
				c0.01-0.049,0.014-0.097,0.014-0.143l0.006-1.112l0.01-1.117c0-0.05-0.004-0.096-0.013-0.139s-0.021-0.083-0.035-0.119
				c-0.015-0.035-0.033-0.07-0.057-0.104c-0.022-0.034-0.049-0.067-0.077-0.099c-0.04-0.043-0.083-0.081-0.129-0.113
				c-0.047-0.032-0.092-0.059-0.135-0.08c-0.047-0.019-0.092-0.031-0.137-0.041c-0.045-0.009-0.086-0.014-0.121-0.014h-1.154h-1.155
				c-0.04,0-0.083-0.008-0.129-0.026s-0.089-0.045-0.129-0.081c-0.043-0.035-0.079-0.083-0.107-0.142
				c-0.028-0.06-0.043-0.13-0.043-0.212c0-0.083,0.015-0.153,0.043-0.213c0.028-0.059,0.064-0.106,0.107-0.143
				c0.04-0.039,0.083-0.066,0.129-0.083C230.225,107.798,230.265,107.789,230.297,107.789L230.297,107.789z M241.355,107.789
				c0.043,0,0.09,0.014,0.141,0.038c0.021,0.011,0.045,0.024,0.069,0.04c0.024,0.017,0.048,0.035,0.069,0.057
				c0.019,0.018,0.036,0.039,0.055,0.064c0.018,0.025,0.033,0.049,0.048,0.07c0.015,0.024,0.024,0.051,0.032,0.077
				c0.008,0.027,0.011,0.054,0.011,0.078v2.884v2.885c0,0.039,0.005,0.082,0.014,0.126c0.009,0.045,0.022,0.089,0.04,0.132
				c0.035,0.09,0.09,0.17,0.161,0.242c0.028,0.031,0.062,0.061,0.1,0.086c0.037,0.024,0.075,0.045,0.115,0.059
				c0.079,0.035,0.155,0.054,0.231,0.054h0.623h0.628c0.032,0,0.069-0.005,0.11-0.014s0.081-0.019,0.121-0.029
				c0.039-0.015,0.078-0.033,0.117-0.057c0.04-0.022,0.074-0.048,0.103-0.072c0.032-0.032,0.06-0.067,0.083-0.104
				c0.023-0.038,0.043-0.074,0.057-0.11c0.032-0.083,0.049-0.159,0.049-0.231v-0.091v-0.086c0-0.024,0.002-0.05,0.008-0.072
				c0.005-0.023,0.014-0.046,0.023-0.067c0.008-0.021,0.02-0.043,0.035-0.064c0.017-0.021,0.033-0.039,0.051-0.054
				c0.015-0.019,0.035-0.032,0.06-0.043s0.048-0.02,0.069-0.026c0.025-0.008,0.05-0.014,0.073-0.017
				c0.022-0.003,0.044-0.005,0.062-0.005h0.629h0.633c0.036,0,0.076,0.01,0.119,0.031c0.046,0.025,0.089,0.058,0.129,0.098
				c0.021,0.018,0.041,0.038,0.059,0.062c0.018,0.022,0.03,0.046,0.037,0.067c0.029,0.05,0.043,0.096,0.043,0.139l-0.005,1.757
				v1.751c0,0.043-0.011,0.09-0.032,0.14c-0.021,0.046-0.051,0.089-0.086,0.129c-0.018,0.021-0.039,0.042-0.064,0.062
				s-0.049,0.037-0.07,0.051c-0.024,0.015-0.051,0.025-0.077,0.033c-0.027,0.007-0.054,0.01-0.078,0.01h-0.591h-0.591
				c-0.05,0-0.104-0.012-0.161-0.037c-0.025-0.011-0.051-0.025-0.075-0.043s-0.048-0.035-0.069-0.054
				c-0.04-0.04-0.072-0.086-0.098-0.14c-0.024-0.051-0.037-0.094-0.037-0.129v-0.607v-0.606c0-0.036-0.006-0.073-0.019-0.112
				c-0.013-0.04-0.026-0.079-0.04-0.119c-0.019-0.043-0.041-0.082-0.067-0.117c-0.027-0.036-0.055-0.07-0.083-0.103
				c-0.033-0.028-0.066-0.056-0.103-0.081c-0.036-0.024-0.073-0.045-0.112-0.059c-0.076-0.032-0.15-0.049-0.227-0.049l-1.75-0.005
				h-1.752c-0.046,0-0.098-0.013-0.155-0.038c-0.028-0.014-0.057-0.031-0.083-0.051c-0.027-0.02-0.053-0.043-0.078-0.072
				c-0.014-0.014-0.027-0.031-0.04-0.051s-0.024-0.039-0.035-0.057c-0.021-0.047-0.036-0.094-0.043-0.14v-3.438v-3.433
				c0-0.039,0.003-0.076,0.011-0.112s0.014-0.069,0.021-0.103c0.021-0.064,0.054-0.117,0.097-0.16
				c0.024-0.021,0.052-0.043,0.081-0.064c0.028-0.021,0.055-0.038,0.08-0.049c0.025-0.014,0.049-0.025,0.072-0.035
				c0.023-0.009,0.043-0.014,0.057-0.014h0.602H241.355z M256.905,107.795c0.05,0,0.103,0.008,0.155,0.024
				c0.055,0.016,0.101,0.044,0.141,0.083c0.043,0.035,0.077,0.083,0.104,0.143c0.026,0.059,0.04,0.128,0.04,0.207
				c0.004,0.082-0.011,0.152-0.043,0.212c-0.032,0.059-0.07,0.106-0.113,0.142c-0.043,0.036-0.09,0.064-0.142,0.084
				s-0.095,0.029-0.126,0.029h-1.709l-1.702-0.006c-0.036,0-0.075,0.006-0.118,0.017s-0.084,0.024-0.123,0.043
				c-0.04,0.019-0.078,0.04-0.116,0.064c-0.037,0.024-0.072,0.054-0.104,0.086c-0.075,0.064-0.133,0.14-0.172,0.226
				c-0.018,0.039-0.033,0.08-0.046,0.123s-0.019,0.084-0.019,0.124l0.006,1.139v1.139c0,0.067,0.016,0.142,0.048,0.22
				c0.032,0.079,0.077,0.15,0.134,0.215c0.033,0.036,0.067,0.07,0.105,0.103c0.037,0.032,0.076,0.06,0.115,0.081
				c0.043,0.024,0.088,0.045,0.135,0.059c0.046,0.014,0.094,0.021,0.145,0.021h1.713h1.719c0.047,0,0.096,0.013,0.146,0.037
				c0.024,0.012,0.05,0.026,0.075,0.046c0.025,0.021,0.047,0.038,0.064,0.057c0.021,0.021,0.04,0.044,0.057,0.067
				c0.016,0.023,0.027,0.045,0.035,0.066c0.014,0.025,0.023,0.051,0.029,0.076c0.005,0.024,0.008,0.05,0.008,0.074v2.32v2.326
				c0,0.029-0.004,0.057-0.011,0.086s-0.017,0.052-0.026,0.07c-0.012,0.024-0.023,0.047-0.038,0.066s-0.028,0.039-0.043,0.057
				c-0.043,0.051-0.093,0.09-0.15,0.118c-0.054,0.024-0.105,0.038-0.155,0.038h-2.311h-2.309c-0.047,0-0.096-0.014-0.146-0.041
				c-0.05-0.026-0.097-0.06-0.14-0.1c-0.039-0.043-0.072-0.091-0.1-0.145c-0.026-0.054-0.04-0.109-0.04-0.166
				c0-0.068-0.001-0.132-0.003-0.191c-0.002-0.059,0.008-0.107,0.029-0.147c0.021-0.043,0.064-0.077,0.127-0.103
				c0.063-0.024,0.158-0.037,0.287-0.037h1.719h1.713c0.04,0,0.081-0.006,0.124-0.016c0.043-0.012,0.084-0.025,0.124-0.043
				c0.039-0.021,0.078-0.045,0.117-0.07c0.04-0.025,0.076-0.054,0.107-0.086c0.062-0.054,0.109-0.12,0.146-0.199
				c0.019-0.035,0.032-0.074,0.043-0.117s0.017-0.086,0.017-0.129v-1.177v-1.171c0-0.032-0.006-0.068-0.017-0.107
				s-0.026-0.078-0.048-0.118c-0.019-0.04-0.043-0.079-0.073-0.118s-0.062-0.075-0.094-0.107c-0.032-0.029-0.066-0.056-0.103-0.08
				c-0.035-0.025-0.071-0.047-0.107-0.064c-0.074-0.033-0.145-0.049-0.209-0.049h-1.729h-1.729c-0.021,0-0.046-0.004-0.072-0.014
				c-0.027-0.009-0.053-0.019-0.078-0.029c-0.054-0.025-0.104-0.059-0.15-0.102c-0.018-0.019-0.035-0.04-0.054-0.064
				c-0.019-0.025-0.032-0.049-0.043-0.07c-0.024-0.054-0.038-0.104-0.038-0.15v-2.326v-2.32c0.004-0.024,0.01-0.05,0.02-0.074
				c0.009-0.025,0.019-0.051,0.029-0.076c0.021-0.046,0.054-0.091,0.097-0.134c0.015-0.015,0.033-0.029,0.057-0.046
				c0.022-0.016,0.046-0.031,0.067-0.045c0.053-0.025,0.109-0.043,0.166-0.055h2.293L256.905,107.795z M265.628,107.789
				c0.024,0,0.054,0.005,0.086,0.014c0.032,0.01,0.062,0.021,0.086,0.035c0.032,0.014,0.062,0.032,0.086,0.054
				s0.048,0.045,0.069,0.069c0.019,0.021,0.035,0.045,0.052,0.067c0.016,0.023,0.029,0.046,0.04,0.067
				c0.021,0.051,0.032,0.099,0.032,0.145v0.871v0.869c0,0.062-0.014,0.117-0.04,0.17c-0.027,0.052-0.063,0.098-0.105,0.137
				c-0.043,0.035-0.092,0.064-0.147,0.086s-0.112,0.032-0.169,0.032c-0.064,0-0.125-0.005-0.18-0.017
				c-0.056-0.01-0.105-0.029-0.148-0.059s-0.077-0.072-0.104-0.129c-0.026-0.057-0.04-0.131-0.04-0.221v-0.284l-0.006-0.279
				c0-0.036-0.005-0.075-0.016-0.118s-0.023-0.084-0.037-0.123c-0.019-0.043-0.041-0.086-0.067-0.129
				c-0.027-0.043-0.057-0.081-0.089-0.113c-0.068-0.064-0.142-0.116-0.221-0.156c-0.089-0.039-0.174-0.059-0.252-0.059h-0.548
				h-0.554c-0.086,0-0.17,0.018-0.252,0.054c-0.043,0.019-0.083,0.04-0.121,0.064c-0.037,0.024-0.072,0.054-0.104,0.086
				s-0.063,0.069-0.091,0.11c-0.029,0.041-0.053,0.081-0.07,0.121c-0.021,0.043-0.037,0.086-0.049,0.131
				c-0.01,0.045-0.016,0.087-0.016,0.127l0.006,1.724v1.719c0,0.036,0.004,0.072,0.013,0.11c0.009,0.037,0.021,0.076,0.035,0.115
				c0.032,0.078,0.077,0.15,0.134,0.215c0.064,0.072,0.141,0.127,0.227,0.166c0.043,0.021,0.088,0.039,0.134,0.052
				s0.095,0.019,0.146,0.019h2.287h2.289c0.046,0,0.096,0.014,0.147,0.04c0.052,0.027,0.097,0.06,0.137,0.1s0.072,0.083,0.1,0.132
				c0.026,0.048,0.04,0.096,0.04,0.143v1.74v1.745c0,0.021-0.004,0.046-0.014,0.072c-0.009,0.027-0.017,0.054-0.023,0.078
				c-0.012,0.024-0.025,0.05-0.043,0.075c-0.019,0.025-0.036,0.049-0.055,0.07c-0.021,0.021-0.043,0.041-0.066,0.059
				s-0.048,0.032-0.072,0.043c-0.021,0.014-0.046,0.025-0.073,0.032c-0.026,0.007-0.053,0.011-0.077,0.011h-2.874h-2.884
				c-0.021,0-0.047-0.004-0.076-0.014c-0.028-0.009-0.055-0.021-0.08-0.035c-0.025-0.01-0.051-0.025-0.078-0.045
				c-0.026-0.02-0.051-0.041-0.072-0.063c-0.035-0.039-0.064-0.082-0.086-0.129c-0.011-0.024-0.019-0.049-0.024-0.072
				c-0.005-0.023-0.008-0.047-0.008-0.072v-4.604l-0.005-4.607c0-0.025,0.004-0.053,0.013-0.081s0.019-0.054,0.03-0.075
				c0.024-0.051,0.057-0.097,0.096-0.14c0.043-0.043,0.092-0.077,0.146-0.103c0.054-0.024,0.103-0.037,0.146-0.037l1.734-0.006
				H265.628z M263.334,116.953h1.697h1.697c0.094,0,0.182-0.02,0.264-0.06s0.152-0.091,0.209-0.155
				c0.062-0.064,0.11-0.143,0.148-0.231c0.037-0.089,0.057-0.185,0.057-0.284v-0.521v-0.521c0-0.1-0.02-0.195-0.057-0.284
				c-0.038-0.089-0.087-0.167-0.148-0.231c-0.057-0.064-0.127-0.115-0.209-0.152c-0.082-0.038-0.17-0.057-0.264-0.057h-1.697h-1.697
				c-0.093,0-0.18,0.019-0.263,0.057c-0.083,0.037-0.153,0.088-0.215,0.152c-0.058,0.064-0.104,0.143-0.14,0.231
				s-0.054,0.185-0.054,0.284v0.521v0.521c0,0.1,0.019,0.195,0.054,0.284s0.082,0.167,0.14,0.231
				c0.062,0.064,0.132,0.115,0.215,0.155S263.241,116.953,263.334,116.953L263.334,116.953z M273.76,117.087h1.682h1.676
				c0.2,0,0.383-0.034,0.547-0.103c0.169-0.067,0.317-0.175,0.446-0.322c0.05-0.057,0.095-0.119,0.134-0.188
				c0.04-0.068,0.074-0.137,0.103-0.204c0.024-0.071,0.046-0.144,0.062-0.215c0.017-0.071,0.024-0.142,0.024-0.21v-2.873v-2.868
				c0-0.097-0.011-0.19-0.032-0.279s-0.052-0.174-0.092-0.253c-0.035-0.074-0.077-0.146-0.126-0.215
				c-0.048-0.067-0.101-0.127-0.158-0.177c-0.064-0.058-0.136-0.107-0.212-0.15c-0.077-0.043-0.158-0.077-0.244-0.103
				c-0.086-0.024-0.177-0.045-0.271-0.059c-0.096-0.014-0.194-0.021-0.299-0.021h-1.547h-1.541c-0.215,0-0.412,0.03-0.591,0.092
				c-0.089,0.028-0.173,0.067-0.25,0.117c-0.077,0.051-0.146,0.111-0.206,0.184c-0.043,0.05-0.086,0.107-0.127,0.174
				s-0.078,0.13-0.109,0.191c-0.029,0.061-0.053,0.117-0.073,0.169c-0.02,0.052-0.029,0.092-0.029,0.12v3.078v3.083
				c0,0.024,0.012,0.065,0.035,0.121c0.022,0.056,0.051,0.115,0.083,0.18s0.07,0.13,0.115,0.196s0.091,0.121,0.137,0.164
				c0.058,0.053,0.117,0.103,0.178,0.147c0.061,0.044,0.127,0.083,0.199,0.115c0.067,0.032,0.143,0.058,0.225,0.078
				C273.579,117.077,273.666,117.087,273.76,117.087L273.76,117.087z M273.652,118c-0.168,0-0.321-0.018-0.459-0.051
				c-0.139-0.034-0.264-0.078-0.379-0.132c-0.115-0.058-0.219-0.122-0.314-0.196c-0.095-0.073-0.186-0.149-0.271-0.229
				c-0.093-0.086-0.178-0.186-0.255-0.301c-0.077-0.114-0.142-0.23-0.196-0.349c-0.057-0.118-0.101-0.235-0.131-0.352
				c-0.031-0.116-0.046-0.218-0.046-0.304v-3.131v-3.132c0-0.064,0.014-0.148,0.04-0.253c0.027-0.104,0.065-0.213,0.115-0.327
				c0.051-0.118,0.115-0.238,0.193-0.36c0.079-0.121,0.169-0.234,0.27-0.338c0.086-0.082,0.182-0.161,0.287-0.236
				s0.219-0.14,0.341-0.193s0.256-0.097,0.403-0.129c0.146-0.032,0.304-0.049,0.473-0.049h1.697h1.691
				c0.176,0,0.338,0.014,0.486,0.038s0.285,0.062,0.41,0.107c0.126,0.046,0.244,0.104,0.355,0.175
				c0.11,0.069,0.213,0.147,0.306,0.233c0.101,0.093,0.192,0.198,0.276,0.314s0.156,0.231,0.218,0.347
				c0.058,0.117,0.104,0.234,0.14,0.352c0.035,0.116,0.054,0.225,0.054,0.324l0.005,3.035l0.012,3.035
				c0,0.143-0.014,0.281-0.041,0.416c-0.026,0.134-0.064,0.262-0.115,0.384c-0.1,0.239-0.25,0.464-0.451,0.671
				c-0.075,0.079-0.166,0.157-0.271,0.234c-0.105,0.076-0.219,0.145-0.341,0.201c-0.118,0.057-0.239,0.104-0.365,0.14
				s-0.245,0.054-0.36,0.054h-1.891H273.652z M288.031,108.338v2.32v2.325c0,0.043,0.005,0.087,0.016,0.132s0.027,0.088,0.049,0.131
				c0.018,0.04,0.04,0.079,0.066,0.119c0.027,0.039,0.055,0.072,0.084,0.102c0.028,0.029,0.063,0.056,0.102,0.08
				c0.039,0.025,0.078,0.047,0.118,0.064c0.04,0.015,0.079,0.027,0.118,0.038s0.075,0.017,0.107,0.017h0.607h0.606
				c0.032,0,0.063,0,0.091,0.002c0.029,0.002,0.058,0.008,0.086,0.02c0.058,0.024,0.117,0.078,0.178,0.16
				c0.014,0.019,0.027,0.036,0.04,0.055c0.013,0.018,0.022,0.035,0.03,0.053c0.014,0.04,0.021,0.083,0.021,0.129v1.752v1.75
				c0,0.025-0.003,0.052-0.009,0.078c-0.005,0.027-0.015,0.051-0.029,0.072c-0.021,0.047-0.05,0.088-0.086,0.124
				c-0.043,0.043-0.089,0.077-0.14,0.103c-0.054,0.024-0.102,0.037-0.145,0.037h-1.768h-1.762c-0.014,0-0.032-0.003-0.054-0.008
				c-0.021-0.006-0.043-0.014-0.064-0.024c-0.019-0.011-0.04-0.023-0.064-0.038c-0.024-0.014-0.046-0.031-0.064-0.053
				c-0.019-0.015-0.034-0.035-0.048-0.06c-0.015-0.024-0.029-0.05-0.043-0.075c-0.012-0.021-0.02-0.045-0.027-0.07
				c-0.008-0.024-0.011-0.046-0.011-0.064v-1.767v-1.767c0-0.021,0.003-0.046,0.011-0.073c0.008-0.026,0.016-0.051,0.027-0.072
				c0.01-0.024,0.023-0.05,0.04-0.072c0.016-0.023,0.031-0.042,0.046-0.057c0.014-0.019,0.033-0.036,0.059-0.054
				s0.051-0.032,0.075-0.043c0.054-0.025,0.103-0.037,0.146-0.037h0.048h0.043h0.054h0.049c0.01,0,0.027-0.005,0.051-0.014
				c0.023-0.01,0.047-0.02,0.072-0.029c0.021-0.012,0.046-0.025,0.072-0.043c0.027-0.019,0.049-0.036,0.067-0.055
				c0.015-0.018,0.03-0.037,0.048-0.059c0.019-0.021,0.033-0.043,0.043-0.064c0.021-0.043,0.033-0.08,0.033-0.113v-1.762v-1.762
				c0-0.024-0.004-0.049-0.012-0.072c-0.007-0.023-0.018-0.045-0.031-0.066c-0.012-0.021-0.024-0.043-0.041-0.064
				c-0.016-0.021-0.033-0.04-0.051-0.055c-0.018-0.018-0.039-0.034-0.064-0.051c-0.025-0.016-0.051-0.029-0.075-0.04
				s-0.048-0.02-0.069-0.026c-0.021-0.008-0.038-0.012-0.049-0.012h-0.092h-0.096c-0.019,0-0.04-0.003-0.064-0.01
				c-0.025-0.008-0.051-0.017-0.076-0.027c-0.021-0.011-0.045-0.024-0.069-0.04c-0.024-0.017-0.046-0.033-0.064-0.052
				c-0.019-0.018-0.035-0.039-0.051-0.064c-0.017-0.024-0.03-0.048-0.04-0.069c-0.012-0.024-0.02-0.05-0.027-0.075
				s-0.011-0.049-0.011-0.07v-0.311v-0.313c0-0.035,0.003-0.066,0.011-0.094c0.008-0.026,0.016-0.051,0.027-0.072
				c0.01-0.021,0.024-0.043,0.043-0.064c0.018-0.021,0.035-0.041,0.053-0.059c0.033-0.033,0.07-0.062,0.113-0.086
				c0.021-0.012,0.046-0.02,0.072-0.027c0.027-0.008,0.055-0.011,0.084-0.011h0.295h0.295h0.296h0.29
				c0.021,0,0.046,0.003,0.072,0.011c0.027,0.008,0.051,0.016,0.072,0.027c0.025,0.01,0.051,0.023,0.076,0.037
				c0.024,0.014,0.046,0.03,0.064,0.049c0.021,0.021,0.039,0.043,0.053,0.066c0.015,0.023,0.027,0.046,0.038,0.067
				C288.018,108.242,288.031,108.291,288.031,108.338L288.031,108.338z M297.457,107.795h1.734h1.735
				c0.054,0,0.104,0.011,0.15,0.032c0.05,0.024,0.095,0.058,0.134,0.097c0.047,0.047,0.081,0.089,0.103,0.126
				c0.021,0.038,0.034,0.069,0.038,0.095c0.003,0.024,0.004,0.045,0.002,0.059s-0.002,0.023-0.002,0.027v2.33v2.332
				c0,0.014-0.005,0.033-0.014,0.059c-0.01,0.025-0.02,0.049-0.029,0.07c-0.025,0.05-0.058,0.093-0.098,0.129
				c-0.018,0.018-0.037,0.035-0.059,0.053c-0.021,0.019-0.043,0.033-0.064,0.043c-0.021,0.015-0.045,0.025-0.07,0.033
				c-0.024,0.007-0.051,0.01-0.08,0.01h-1.139h-1.145c-0.086,0-0.17,0.019-0.252,0.055c-0.082,0.035-0.156,0.088-0.221,0.155
				c-0.031,0.032-0.062,0.066-0.088,0.103c-0.027,0.035-0.051,0.074-0.072,0.117c-0.019,0.04-0.033,0.08-0.043,0.121
				c-0.012,0.041-0.017,0.082-0.017,0.121v1.154v1.15c0,0.035,0.005,0.074,0.014,0.115s0.021,0.081,0.034,0.121
				c0.019,0.035,0.039,0.072,0.063,0.112s0.047,0.073,0.072,0.103c0.057,0.067,0.131,0.121,0.221,0.16
				c0.043,0.019,0.084,0.033,0.123,0.046s0.075,0.019,0.107,0.019h1.171h1.171c0.054,0,0.105,0.014,0.156,0.041
				c0.05,0.026,0.093,0.06,0.129,0.1c0.039,0.043,0.071,0.091,0.096,0.145c0.025,0.054,0.038,0.109,0.038,0.166
				c0,0.058-0.01,0.115-0.029,0.172c-0.021,0.058-0.048,0.107-0.083,0.15c-0.036,0.043-0.08,0.079-0.132,0.107
				c-0.052,0.029-0.11,0.043-0.175,0.043h-1.729h-1.735c-0.046,0-0.096-0.014-0.15-0.043c-0.024-0.01-0.05-0.024-0.074-0.043
				c-0.025-0.018-0.049-0.035-0.07-0.053c-0.018-0.021-0.035-0.045-0.054-0.07s-0.032-0.051-0.043-0.075
				c-0.024-0.054-0.038-0.103-0.038-0.146l-0.005-2.314v-2.314c0-0.025,0.003-0.053,0.011-0.084c0.008-0.03,0.018-0.059,0.032-0.083
				c0.011-0.028,0.026-0.055,0.046-0.078c0.02-0.022,0.038-0.044,0.057-0.062c0.021-0.021,0.045-0.041,0.069-0.059
				c0.024-0.019,0.05-0.031,0.075-0.038c0.054-0.024,0.099-0.038,0.135-0.038h1.144h1.149c0.043,0,0.085-0.006,0.126-0.019
				c0.042-0.013,0.083-0.027,0.126-0.046c0.086-0.039,0.16-0.094,0.221-0.166c0.029-0.029,0.054-0.062,0.075-0.1
				c0.021-0.037,0.04-0.074,0.054-0.109c0.018-0.04,0.031-0.081,0.04-0.124s0.014-0.086,0.014-0.129v-1.134v-1.127
				c0-0.04-0.005-0.08-0.014-0.121s-0.021-0.084-0.034-0.127c-0.033-0.078-0.083-0.155-0.15-0.23
				c-0.021-0.025-0.05-0.051-0.084-0.078c-0.033-0.026-0.07-0.049-0.109-0.066c-0.036-0.021-0.076-0.04-0.119-0.055
				c-0.043-0.014-0.084-0.021-0.123-0.021h-1.166h-1.16c-0.031,0-0.074-0.012-0.129-0.037c-0.024-0.011-0.05-0.025-0.074-0.043
				c-0.025-0.018-0.049-0.037-0.07-0.059c-0.021-0.019-0.04-0.041-0.057-0.067c-0.016-0.027-0.031-0.054-0.045-0.078
				c-0.025-0.058-0.038-0.112-0.038-0.167c0-0.057,0.013-0.117,0.038-0.182c0.028-0.062,0.064-0.113,0.107-0.156
				c0.039-0.043,0.084-0.075,0.134-0.097C297.375,107.806,297.422,107.795,297.457,107.795L297.457,107.795z"/>
			<path id="Combined-Shape_2_" fill="#575860" d="M26,106.99c0-0.547,0.443-0.99,1.009-0.99h1.981c0.557,0,1.009,0.451,1.009,0.99
				v4.02c0,0.547-0.443,0.99-1.009,0.99h-1.981c-0.557,0-1.009-0.451-1.009-0.99V106.99z M26,116c0-0.553,0.443-1,1.009-1h1.981
				c0.557,0,1.009,0.443,1.009,1v3c0,0.553-0.443,1-1.009,1h-1.981c-0.557,0-1.009-0.443-1.009-1V116z M21,108.996
				c0-0.551,0.443-0.996,1.009-0.996h1.981c0.557,0,1.009,0.455,1.009,0.996v8.008c0,0.551-0.443,0.996-1.009,0.996h-1.981
				c-0.557,0-1.009-0.455-1.009-0.996V108.996z"/>
			<path id="_x30_123" fill="#575860" d="M349.76,117.087h1.682h1.676c0.2,0,0.383-0.034,0.547-0.103
				c0.169-0.067,0.317-0.175,0.446-0.322c0.05-0.057,0.095-0.119,0.134-0.188c0.04-0.068,0.074-0.137,0.103-0.204
				c0.025-0.071,0.046-0.144,0.062-0.215c0.017-0.071,0.024-0.142,0.024-0.21v-2.873v-2.868c0-0.097-0.011-0.19-0.032-0.279
				s-0.052-0.174-0.092-0.253c-0.035-0.074-0.077-0.146-0.126-0.215c-0.048-0.067-0.101-0.127-0.158-0.177
				c-0.064-0.058-0.135-0.107-0.212-0.15s-0.158-0.077-0.244-0.103c-0.086-0.024-0.177-0.045-0.271-0.059s-0.194-0.021-0.299-0.021
				h-1.547h-1.541c-0.215,0-0.412,0.03-0.591,0.092c-0.09,0.028-0.173,0.067-0.25,0.117c-0.077,0.051-0.146,0.111-0.206,0.184
				c-0.043,0.05-0.086,0.107-0.127,0.174s-0.078,0.13-0.109,0.191c-0.029,0.061-0.054,0.117-0.073,0.169s-0.029,0.092-0.029,0.12
				v3.078v3.083c0,0.024,0.012,0.065,0.035,0.121s0.051,0.115,0.083,0.18s0.07,0.13,0.115,0.196s0.091,0.121,0.137,0.164
				c0.058,0.053,0.117,0.103,0.178,0.147c0.061,0.044,0.127,0.083,0.199,0.115c0.067,0.032,0.143,0.058,0.225,0.078
				C349.579,117.077,349.667,117.087,349.76,117.087L349.76,117.087z M349.652,118c-0.168,0-0.321-0.018-0.459-0.051
				c-0.138-0.034-0.265-0.078-0.379-0.132c-0.114-0.058-0.22-0.122-0.314-0.196c-0.095-0.073-0.186-0.149-0.271-0.229
				c-0.093-0.086-0.178-0.186-0.255-0.301c-0.077-0.114-0.142-0.23-0.196-0.349c-0.057-0.118-0.101-0.235-0.131-0.352
				s-0.046-0.218-0.046-0.304v-3.131v-3.132c0-0.064,0.014-0.148,0.04-0.253c0.027-0.104,0.065-0.213,0.115-0.327
				c0.051-0.118,0.115-0.238,0.193-0.36c0.079-0.121,0.169-0.234,0.27-0.338c0.086-0.082,0.182-0.161,0.287-0.236
				s0.219-0.14,0.341-0.193s0.256-0.097,0.403-0.129c0.146-0.032,0.304-0.049,0.473-0.049h1.697h1.691
				c0.176,0,0.338,0.014,0.486,0.038s0.285,0.062,0.41,0.107c0.126,0.046,0.244,0.104,0.355,0.175
				c0.11,0.069,0.213,0.147,0.306,0.233c0.101,0.093,0.192,0.198,0.276,0.314s0.157,0.231,0.218,0.347
				c0.058,0.117,0.104,0.234,0.14,0.352c0.036,0.116,0.054,0.225,0.054,0.324l0.005,3.035l0.012,3.035
				c0,0.143-0.014,0.281-0.041,0.416c-0.026,0.134-0.065,0.262-0.115,0.384c-0.101,0.239-0.251,0.464-0.451,0.671
				c-0.075,0.079-0.166,0.157-0.271,0.234c-0.105,0.076-0.219,0.145-0.341,0.201c-0.118,0.057-0.24,0.104-0.365,0.14
				s-0.245,0.054-0.36,0.054h-1.891H349.652z M364.031,108.338v2.32v2.325c0,0.043,0.005,0.087,0.016,0.132s0.027,0.088,0.049,0.131
				c0.018,0.04,0.04,0.079,0.066,0.119c0.027,0.039,0.055,0.072,0.084,0.102c0.028,0.029,0.063,0.056,0.102,0.08
				c0.039,0.025,0.079,0.047,0.118,0.064c0.039,0.015,0.079,0.027,0.118,0.038s0.075,0.017,0.107,0.017h0.607h0.606
				c0.032,0,0.063,0,0.091,0.002c0.029,0.002,0.058,0.008,0.086,0.02c0.058,0.024,0.117,0.078,0.178,0.16
				c0.015,0.019,0.027,0.036,0.04,0.055c0.013,0.018,0.022,0.035,0.03,0.053c0.014,0.04,0.021,0.083,0.021,0.129v1.752v1.75
				c0,0.025-0.003,0.052-0.009,0.078c-0.005,0.027-0.015,0.051-0.029,0.072c-0.021,0.047-0.05,0.088-0.086,0.124
				c-0.043,0.043-0.09,0.077-0.14,0.103c-0.054,0.024-0.102,0.037-0.145,0.037h-1.768h-1.762c-0.015,0-0.032-0.003-0.054-0.008
				c-0.021-0.006-0.043-0.014-0.064-0.024c-0.018-0.011-0.039-0.023-0.064-0.038c-0.025-0.014-0.047-0.031-0.064-0.053
				c-0.018-0.015-0.034-0.035-0.048-0.06c-0.015-0.024-0.029-0.05-0.043-0.075c-0.012-0.021-0.021-0.045-0.027-0.07
				c-0.007-0.024-0.011-0.046-0.011-0.064v-1.767v-1.767c0-0.021,0.004-0.046,0.011-0.073c0.007-0.026,0.016-0.051,0.027-0.072
				c0.01-0.024,0.023-0.05,0.04-0.072c0.016-0.023,0.031-0.042,0.046-0.057c0.014-0.019,0.033-0.036,0.059-0.054
				s0.05-0.032,0.075-0.043c0.054-0.025,0.103-0.037,0.146-0.037h0.048h0.043h0.054h0.049c0.01,0,0.027-0.005,0.051-0.014
				c0.023-0.01,0.047-0.02,0.072-0.029c0.021-0.012,0.046-0.025,0.072-0.043c0.027-0.019,0.05-0.036,0.067-0.055
				c0.015-0.018,0.03-0.037,0.048-0.059c0.019-0.021,0.033-0.043,0.043-0.064c0.021-0.043,0.033-0.08,0.033-0.113v-1.762v-1.762
				c0-0.024-0.004-0.049-0.012-0.072c-0.007-0.023-0.018-0.045-0.031-0.066c-0.012-0.021-0.024-0.043-0.041-0.064
				c-0.016-0.021-0.033-0.04-0.051-0.055c-0.018-0.018-0.039-0.034-0.064-0.051c-0.025-0.016-0.05-0.029-0.075-0.04
				s-0.048-0.02-0.069-0.026c-0.021-0.008-0.038-0.012-0.049-0.012h-0.092h-0.096c-0.019,0-0.04-0.003-0.064-0.01
				c-0.025-0.008-0.051-0.017-0.076-0.027c-0.021-0.011-0.044-0.024-0.069-0.04c-0.025-0.017-0.047-0.033-0.064-0.052
				c-0.018-0.018-0.035-0.039-0.051-0.064c-0.017-0.024-0.03-0.048-0.04-0.069c-0.012-0.024-0.021-0.05-0.027-0.075
				s-0.011-0.049-0.011-0.07v-0.311v-0.313c0-0.035,0.004-0.066,0.011-0.094c0.007-0.026,0.016-0.051,0.027-0.072
				c0.01-0.021,0.024-0.043,0.043-0.064c0.018-0.021,0.035-0.041,0.053-0.059c0.033-0.033,0.07-0.062,0.113-0.086
				c0.021-0.012,0.046-0.02,0.072-0.027c0.027-0.008,0.055-0.011,0.084-0.011h0.295h0.295h0.296h0.29
				c0.021,0,0.046,0.003,0.072,0.011c0.027,0.008,0.051,0.016,0.072,0.027c0.025,0.01,0.051,0.023,0.076,0.037
				c0.024,0.014,0.046,0.03,0.064,0.049c0.021,0.021,0.039,0.043,0.053,0.066c0.015,0.023,0.027,0.046,0.038,0.067
				C364.019,108.242,364.031,108.291,364.031,108.338L364.031,108.338z M373.457,107.795h1.734h1.735
				c0.054,0,0.104,0.011,0.15,0.032c0.05,0.024,0.095,0.058,0.134,0.097c0.047,0.047,0.081,0.089,0.103,0.126
				c0.021,0.038,0.034,0.069,0.038,0.095c0.003,0.024,0.004,0.045,0.002,0.059s-0.002,0.023-0.002,0.027v2.33v2.332
				c0,0.014-0.005,0.033-0.014,0.059s-0.02,0.049-0.029,0.07c-0.025,0.05-0.058,0.093-0.098,0.129
				c-0.018,0.018-0.037,0.035-0.059,0.053c-0.021,0.019-0.043,0.033-0.064,0.043c-0.021,0.015-0.045,0.025-0.07,0.033
				c-0.024,0.007-0.052,0.01-0.08,0.01h-1.139h-1.145c-0.086,0-0.17,0.019-0.252,0.055c-0.082,0.035-0.156,0.088-0.221,0.155
				c-0.031,0.032-0.062,0.066-0.088,0.103c-0.027,0.035-0.051,0.074-0.072,0.117c-0.019,0.04-0.033,0.08-0.043,0.121
				c-0.012,0.041-0.017,0.082-0.017,0.121v1.154v1.15c0,0.035,0.005,0.074,0.014,0.115s0.021,0.081,0.034,0.121
				c0.019,0.035,0.039,0.072,0.063,0.112s0.047,0.073,0.072,0.103c0.058,0.067,0.131,0.121,0.221,0.16
				c0.043,0.019,0.084,0.033,0.123,0.046s0.075,0.019,0.107,0.019h1.171h1.171c0.054,0,0.105,0.014,0.156,0.041
				c0.05,0.026,0.093,0.06,0.129,0.1c0.039,0.043,0.071,0.091,0.096,0.145c0.025,0.054,0.038,0.109,0.038,0.166
				c0,0.058-0.01,0.115-0.029,0.172c-0.02,0.058-0.048,0.107-0.083,0.15c-0.036,0.043-0.08,0.079-0.132,0.107
				c-0.052,0.029-0.11,0.043-0.175,0.043h-1.729h-1.735c-0.046,0-0.096-0.014-0.15-0.043c-0.024-0.01-0.05-0.024-0.074-0.043
				c-0.025-0.018-0.049-0.035-0.07-0.053c-0.018-0.021-0.036-0.045-0.054-0.07s-0.032-0.051-0.043-0.075
				c-0.025-0.054-0.038-0.103-0.038-0.146l-0.005-2.314v-2.314c0-0.025,0.004-0.053,0.011-0.084c0.007-0.03,0.018-0.059,0.032-0.083
				c0.011-0.028,0.026-0.055,0.046-0.078c0.02-0.022,0.038-0.044,0.057-0.062c0.021-0.021,0.044-0.041,0.069-0.059
				c0.025-0.019,0.05-0.031,0.075-0.038c0.054-0.024,0.099-0.038,0.135-0.038h1.144h1.149c0.043,0,0.085-0.006,0.126-0.019
				s0.083-0.027,0.126-0.046c0.086-0.039,0.16-0.094,0.221-0.166c0.028-0.029,0.054-0.062,0.075-0.1
				c0.021-0.037,0.039-0.074,0.054-0.109c0.018-0.04,0.031-0.081,0.04-0.124s0.014-0.086,0.014-0.129v-1.134v-1.127
				c0-0.04-0.005-0.08-0.014-0.121s-0.021-0.084-0.034-0.127c-0.033-0.078-0.083-0.155-0.15-0.23
				c-0.021-0.025-0.05-0.051-0.084-0.078c-0.034-0.026-0.07-0.049-0.109-0.066c-0.036-0.021-0.076-0.04-0.119-0.055
				c-0.043-0.014-0.084-0.021-0.123-0.021h-1.166h-1.16c-0.031,0-0.074-0.012-0.129-0.037c-0.024-0.011-0.05-0.025-0.074-0.043
				c-0.025-0.018-0.049-0.037-0.07-0.059c-0.021-0.019-0.04-0.041-0.057-0.067c-0.016-0.027-0.031-0.054-0.045-0.078
				c-0.025-0.058-0.038-0.112-0.038-0.167c0-0.057,0.013-0.117,0.038-0.182c0.028-0.062,0.064-0.113,0.107-0.156
				c0.039-0.043,0.084-0.075,0.134-0.097C373.375,107.806,373.421,107.795,373.457,107.795L373.457,107.795z M383.297,107.789h1.751
				h1.751c0.021,0,0.045,0.003,0.07,0.009c0.024,0.005,0.05,0.013,0.074,0.024c0.051,0.021,0.098,0.051,0.141,0.091
				c0.021,0.019,0.041,0.038,0.059,0.06s0.032,0.043,0.043,0.064c0.025,0.046,0.037,0.093,0.037,0.139l-0.005,2.074v2.072
				c0,0.033,0.004,0.068,0.011,0.107c0.007,0.04,0.016,0.076,0.027,0.107c0.024,0.076,0.061,0.146,0.107,0.21
				c0.021,0.028,0.046,0.057,0.074,0.083c0.029,0.027,0.058,0.048,0.086,0.063c0.033,0.018,0.065,0.033,0.1,0.045
				c0.034,0.013,0.071,0.02,0.11,0.02h0.161l0.161,0.005c0.015,0,0.031,0.003,0.051,0.011s0.037,0.016,0.052,0.027
				c0.035,0.021,0.065,0.05,0.091,0.086c0.025,0.031,0.045,0.071,0.06,0.117c0.007,0.021,0.013,0.043,0.019,0.064
				c0.005,0.021,0.008,0.041,0.008,0.06v2.058v2.057c0,0.021-0.003,0.043-0.008,0.064c-0.006,0.021-0.012,0.043-0.019,0.064
				c-0.021,0.047-0.045,0.086-0.07,0.118c-0.025,0.028-0.052,0.054-0.08,0.075c-0.029,0.021-0.058,0.039-0.086,0.054
				c-0.029,0.019-0.056,0.031-0.081,0.04c-0.025,0.01-0.047,0.014-0.064,0.014h-2.304h-2.305c-0.039,0-0.082-0.009-0.129-0.027
				c-0.047-0.018-0.092-0.045-0.135-0.08c-0.039-0.035-0.074-0.083-0.107-0.143c-0.031-0.059-0.048-0.129-0.048-0.212
				c0-0.093,0.017-0.17,0.048-0.231c0.033-0.061,0.072-0.107,0.119-0.139c0.043-0.033,0.087-0.055,0.134-0.067
				s0.084-0.019,0.112-0.019h1.172l1.176-0.006c0.015,0,0.041-0.006,0.08-0.016c0.04-0.012,0.081-0.025,0.124-0.043
				c0.047-0.019,0.092-0.041,0.137-0.067c0.045-0.027,0.08-0.057,0.104-0.089c0.033-0.029,0.061-0.062,0.084-0.1
				c0.023-0.037,0.044-0.076,0.062-0.115c0.018-0.035,0.031-0.073,0.04-0.113c0.009-0.039,0.014-0.076,0.014-0.112v-1.155v-1.154
				c0-0.043-0.006-0.086-0.016-0.129c-0.012-0.043-0.025-0.084-0.043-0.123c-0.036-0.09-0.086-0.167-0.15-0.231
				c-0.058-0.064-0.126-0.114-0.205-0.15c-0.078-0.04-0.164-0.06-0.258-0.06h-1.154h-1.154c-0.079,0-0.147-0.019-0.205-0.056
				c-0.057-0.038-0.102-0.081-0.134-0.132s-0.056-0.102-0.069-0.153c-0.015-0.052-0.021-0.094-0.021-0.126
				c0.003-0.061,0.018-0.12,0.043-0.178c0.024-0.057,0.055-0.105,0.091-0.145c0.039-0.039,0.085-0.072,0.137-0.097
				s0.104-0.038,0.159-0.038h1.148h1.155c0.05,0,0.097-0.005,0.14-0.016s0.084-0.025,0.123-0.043c0.079-0.032,0.15-0.08,0.215-0.145
				c0.033-0.033,0.062-0.069,0.086-0.11c0.025-0.042,0.045-0.081,0.06-0.121c0.018-0.043,0.031-0.089,0.04-0.137
				c0.009-0.049,0.014-0.097,0.014-0.143l0.006-1.112l0.01-1.117c0-0.05-0.004-0.096-0.013-0.139s-0.021-0.083-0.035-0.119
				c-0.015-0.035-0.033-0.07-0.057-0.104s-0.049-0.067-0.077-0.099c-0.04-0.043-0.083-0.081-0.129-0.113
				c-0.047-0.032-0.092-0.059-0.135-0.08c-0.047-0.019-0.092-0.031-0.137-0.041c-0.045-0.009-0.085-0.014-0.121-0.014h-1.154h-1.155
				c-0.039,0-0.082-0.008-0.129-0.026s-0.09-0.045-0.129-0.081c-0.043-0.035-0.079-0.083-0.107-0.142
				c-0.028-0.06-0.043-0.13-0.043-0.212c0-0.083,0.015-0.153,0.043-0.213c0.028-0.059,0.064-0.106,0.107-0.143
				c0.039-0.039,0.082-0.066,0.129-0.083C383.226,107.798,383.265,107.789,383.297,107.789L383.297,107.789z"/>
		</g>
		<g>
			<path id="path-3_1_" fill="#FBF4FC" stroke="#732282" stroke-width="2" d="M32,100h122v25H32V100z"/>
		</g>
		<path id="_x30_123456012_1_" fill="#4F175A" d="M42.159,117.297h1.681h1.676c0.201,0,0.383-0.033,0.548-0.102
			c0.168-0.068,0.317-0.176,0.446-0.322c0.05-0.057,0.095-0.12,0.134-0.188c0.04-0.068,0.073-0.137,0.102-0.205
			c0.025-0.071,0.046-0.143,0.062-0.215c0.017-0.071,0.024-0.141,0.024-0.209v-2.873v-2.869c0-0.096-0.011-0.189-0.032-0.279
			c-0.021-0.089-0.052-0.174-0.091-0.252c-0.036-0.075-0.078-0.146-0.126-0.215c-0.048-0.068-0.101-0.127-0.158-0.178
			c-0.064-0.057-0.135-0.107-0.212-0.15c-0.077-0.043-0.159-0.076-0.245-0.102s-0.176-0.045-0.271-0.059
			c-0.095-0.015-0.194-0.021-0.298-0.021h-1.547H42.31c-0.215,0-0.412,0.029-0.591,0.091c-0.089,0.028-0.173,0.067-0.25,0.118
			c-0.077,0.051-0.146,0.111-0.207,0.183c-0.043,0.05-0.085,0.108-0.126,0.175c-0.041,0.066-0.078,0.129-0.11,0.19
			c-0.029,0.062-0.053,0.117-0.073,0.169c-0.02,0.053-0.029,0.092-0.029,0.121v3.078v3.082c0,0.025,0.012,0.066,0.035,0.121
			c0.023,0.056,0.051,0.115,0.083,0.18s0.071,0.131,0.115,0.196c0.045,0.066,0.091,0.121,0.137,0.164
			c0.057,0.054,0.116,0.103,0.177,0.147s0.127,0.084,0.199,0.115c0.068,0.033,0.143,0.059,0.226,0.078
			S42.066,117.297,42.159,117.297L42.159,117.297z M42.052,118.211c-0.168,0-0.321-0.018-0.459-0.052
			c-0.138-0.034-0.264-0.077-0.379-0.132c-0.115-0.057-0.219-0.122-0.314-0.195c-0.095-0.074-0.185-0.15-0.271-0.229
			c-0.093-0.086-0.178-0.186-0.255-0.301c-0.077-0.115-0.142-0.23-0.196-0.35c-0.057-0.117-0.101-0.234-0.131-0.352
			c-0.031-0.116-0.046-0.217-0.046-0.303v-3.132v-3.132c0-0.064,0.014-0.148,0.04-0.252c0.027-0.104,0.065-0.213,0.116-0.328
			c0.05-0.117,0.115-0.238,0.193-0.359s0.168-0.234,0.269-0.338c0.086-0.083,0.182-0.162,0.288-0.236
			c0.105-0.076,0.219-0.141,0.341-0.193c0.122-0.055,0.256-0.098,0.403-0.129c0.147-0.033,0.304-0.049,0.473-0.049h1.697h1.692
			c0.175,0,0.337,0.013,0.486,0.037c0.148,0.025,0.285,0.062,0.411,0.107c0.125,0.047,0.244,0.105,0.354,0.175
			c0.111,0.07,0.213,0.147,0.306,0.233c0.1,0.094,0.192,0.198,0.276,0.314c0.084,0.117,0.157,0.232,0.218,0.347
			c0.057,0.118,0.104,0.235,0.14,0.352s0.054,0.226,0.054,0.325l0.005,3.035l0.011,3.034c0,0.144-0.013,0.282-0.041,0.416
			c-0.026,0.135-0.065,0.263-0.115,0.384c-0.1,0.24-0.25,0.465-0.451,0.672c-0.075,0.078-0.166,0.156-0.271,0.233
			c-0.105,0.077-0.219,0.145-0.341,0.202c-0.118,0.057-0.24,0.104-0.365,0.139c-0.125,0.036-0.245,0.055-0.36,0.055h-1.891H42.052z
			 M56.43,108.548v2.32v2.325c0,0.043,0.005,0.088,0.016,0.132c0.011,0.045,0.027,0.089,0.048,0.132
			c0.018,0.039,0.041,0.078,0.067,0.118c0.027,0.04,0.055,0.073,0.083,0.103c0.029,0.028,0.063,0.055,0.102,0.08
			s0.079,0.047,0.118,0.064c0.04,0.014,0.079,0.027,0.118,0.037c0.04,0.012,0.075,0.017,0.107,0.017h0.607h0.607
			c0.032,0,0.063,0.001,0.091,0.003s0.057,0.008,0.086,0.019c0.057,0.024,0.116,0.079,0.177,0.161
			c0.014,0.018,0.028,0.035,0.04,0.054c0.013,0.019,0.022,0.036,0.03,0.054c0.014,0.039,0.021,0.082,0.021,0.129v1.751v1.751
			c0,0.025-0.002,0.051-0.008,0.078c-0.005,0.026-0.015,0.051-0.029,0.072c-0.021,0.047-0.05,0.088-0.086,0.123
			c-0.043,0.043-0.089,0.078-0.14,0.103c-0.054,0.024-0.102,0.038-0.145,0.038h-1.767h-1.762c-0.014,0-0.032-0.003-0.054-0.009
			c-0.021-0.005-0.043-0.013-0.064-0.024c-0.018-0.01-0.04-0.023-0.064-0.037s-0.046-0.032-0.064-0.054
			c-0.018-0.015-0.034-0.034-0.048-0.06c-0.014-0.024-0.029-0.05-0.043-0.074c-0.011-0.021-0.02-0.045-0.027-0.07
			s-0.011-0.047-0.011-0.064v-1.768v-1.767c0-0.021,0.003-0.046,0.011-0.072c0.007-0.027,0.016-0.052,0.027-0.073
			c0.011-0.024,0.024-0.049,0.041-0.072c0.016-0.023,0.031-0.042,0.045-0.057c0.014-0.018,0.034-0.035,0.059-0.053
			c0.025-0.019,0.05-0.033,0.075-0.043c0.054-0.025,0.102-0.038,0.145-0.038h0.048h0.043h0.054h0.048
			c0.011,0,0.028-0.005,0.051-0.014c0.023-0.009,0.047-0.019,0.072-0.029c0.021-0.011,0.046-0.024,0.072-0.043
			c0.027-0.019,0.049-0.036,0.067-0.054c0.014-0.018,0.03-0.037,0.048-0.059s0.032-0.043,0.043-0.064
			c0.021-0.043,0.032-0.081,0.032-0.113v-1.762v-1.762c0-0.025-0.003-0.049-0.011-0.072s-0.018-0.046-0.032-0.067
			c-0.011-0.021-0.024-0.043-0.041-0.064c-0.016-0.021-0.033-0.04-0.051-0.054c-0.018-0.018-0.04-0.035-0.064-0.051
			c-0.025-0.017-0.05-0.029-0.075-0.041c-0.025-0.01-0.048-0.02-0.07-0.026s-0.038-0.011-0.048-0.011h-0.091H54.84
			c-0.018,0-0.04-0.004-0.064-0.011s-0.05-0.017-0.075-0.026c-0.021-0.012-0.045-0.024-0.07-0.041
			c-0.025-0.016-0.046-0.033-0.064-0.051s-0.035-0.039-0.051-0.064c-0.017-0.025-0.03-0.049-0.041-0.07
			c-0.011-0.024-0.02-0.05-0.027-0.074c-0.007-0.025-0.011-0.049-0.011-0.07v-0.312v-0.312c0-0.035,0.003-0.067,0.011-0.094
			c0.007-0.027,0.016-0.051,0.027-0.072s0.025-0.043,0.043-0.064s0.036-0.041,0.054-0.06c0.032-0.032,0.07-0.062,0.113-0.086
			c0.021-0.011,0.046-0.02,0.072-0.026c0.027-0.008,0.055-0.012,0.083-0.012h0.295h0.295h0.295h0.29
			c0.021,0,0.046,0.004,0.072,0.012c0.027,0.007,0.051,0.016,0.073,0.026c0.025,0.011,0.05,0.023,0.075,0.038
			c0.025,0.014,0.046,0.029,0.064,0.048c0.021,0.021,0.04,0.044,0.054,0.067s0.027,0.045,0.038,0.066
			C56.417,108.453,56.43,108.502,56.43,108.548L56.43,108.548z M65.856,108.006h1.735h1.735c0.054,0,0.104,0.01,0.15,0.031
			c0.05,0.025,0.095,0.058,0.134,0.098c0.046,0.046,0.081,0.088,0.102,0.126c0.021,0.037,0.034,0.069,0.038,0.094
			s0.004,0.045,0.002,0.06c-0.001,0.014-0.002,0.023-0.002,0.026v2.331v2.331c0,0.015-0.004,0.034-0.013,0.06
			c-0.009,0.024-0.019,0.048-0.03,0.069c-0.025,0.05-0.057,0.093-0.097,0.129c-0.018,0.019-0.038,0.036-0.059,0.054
			s-0.043,0.032-0.064,0.043c-0.021,0.014-0.045,0.025-0.07,0.032s-0.052,0.011-0.081,0.011h-1.139h-1.144
			c-0.086,0-0.17,0.018-0.252,0.054s-0.156,0.088-0.22,0.155c-0.032,0.033-0.062,0.066-0.088,0.103
			c-0.027,0.036-0.051,0.075-0.073,0.118c-0.018,0.039-0.032,0.08-0.043,0.121s-0.016,0.081-0.016,0.121v1.154v1.149
			c0,0.036,0.004,0.074,0.014,0.115c0.009,0.042,0.021,0.081,0.035,0.121c0.018,0.036,0.039,0.073,0.062,0.112
			c0.023,0.04,0.047,0.074,0.072,0.103c0.057,0.067,0.131,0.122,0.22,0.161c0.043,0.018,0.084,0.033,0.124,0.046
			s0.075,0.019,0.107,0.019h1.171h1.171c0.054,0,0.105,0.014,0.156,0.04c0.05,0.027,0.093,0.06,0.129,0.1
			c0.04,0.043,0.072,0.091,0.097,0.146c0.025,0.053,0.038,0.109,0.038,0.166s-0.01,0.115-0.029,0.172
			c-0.02,0.057-0.048,0.107-0.083,0.15s-0.08,0.078-0.131,0.107c-0.052,0.029-0.11,0.043-0.175,0.043h-1.729h-1.735
			c-0.046,0-0.097-0.014-0.15-0.043c-0.025-0.011-0.05-0.025-0.075-0.043s-0.048-0.035-0.07-0.054
			c-0.018-0.021-0.036-0.045-0.054-0.069c-0.018-0.025-0.032-0.051-0.043-0.076c-0.025-0.053-0.038-0.102-0.038-0.145l-0.005-2.314
			v-2.315c0-0.024,0.003-0.053,0.011-0.083c0.007-0.031,0.018-0.059,0.032-0.084c0.011-0.028,0.026-0.055,0.046-0.077
			c0.02-0.023,0.038-0.044,0.056-0.062c0.021-0.021,0.045-0.041,0.07-0.06s0.05-0.03,0.075-0.038
			c0.054-0.024,0.099-0.037,0.134-0.037h1.144h1.149c0.043,0,0.085-0.006,0.126-0.019c0.042-0.013,0.083-0.028,0.126-0.046
			c0.086-0.039,0.159-0.095,0.22-0.166c0.029-0.029,0.054-0.063,0.075-0.1c0.021-0.038,0.04-0.074,0.054-0.11
			c0.018-0.04,0.031-0.081,0.04-0.124c0.009-0.043,0.014-0.086,0.014-0.129v-1.133v-1.128c0-0.04-0.004-0.079-0.014-0.121
			c-0.009-0.041-0.021-0.083-0.035-0.126c-0.032-0.078-0.083-0.156-0.15-0.23c-0.021-0.025-0.049-0.052-0.083-0.078
			c-0.034-0.027-0.07-0.049-0.11-0.067c-0.036-0.021-0.075-0.04-0.118-0.054s-0.084-0.021-0.124-0.021h-1.166h-1.16
			c-0.032,0-0.075-0.013-0.129-0.037c-0.025-0.012-0.05-0.025-0.075-0.043c-0.025-0.019-0.048-0.038-0.07-0.06
			c-0.021-0.019-0.04-0.04-0.057-0.067c-0.016-0.026-0.031-0.053-0.045-0.078c-0.025-0.057-0.038-0.112-0.038-0.166
			c0-0.057,0.013-0.118,0.038-0.183c0.029-0.062,0.064-0.112,0.107-0.155c0.04-0.043,0.084-0.076,0.134-0.098
			C65.774,108.016,65.821,108.006,65.856,108.006L65.856,108.006z M75.696,108h1.751h1.751c0.021,0,0.045,0.003,0.07,0.008
			c0.025,0.006,0.05,0.014,0.075,0.024c0.05,0.021,0.097,0.052,0.14,0.091c0.021,0.019,0.041,0.038,0.059,0.06
			s0.032,0.043,0.043,0.064c0.025,0.046,0.038,0.093,0.038,0.14l-0.005,2.073v2.073c0,0.032,0.003,0.068,0.011,0.107
			s0.016,0.075,0.027,0.107c0.025,0.075,0.061,0.145,0.107,0.209c0.021,0.029,0.046,0.057,0.075,0.084
			c0.029,0.026,0.057,0.047,0.086,0.062c0.032,0.019,0.065,0.033,0.099,0.046c0.034,0.012,0.071,0.019,0.11,0.019h0.161l0.161,0.005
			c0.014,0,0.031,0.004,0.051,0.012c0.02,0.007,0.037,0.016,0.051,0.026c0.036,0.021,0.066,0.05,0.091,0.086
			c0.025,0.032,0.045,0.071,0.059,0.118c0.007,0.021,0.013,0.043,0.019,0.064c0.005,0.021,0.008,0.041,0.008,0.059v2.058v2.058
			c0,0.021-0.003,0.043-0.008,0.064c-0.006,0.021-0.012,0.043-0.019,0.064c-0.021,0.046-0.045,0.086-0.07,0.117
			c-0.025,0.029-0.052,0.055-0.081,0.076s-0.057,0.039-0.086,0.053c-0.029,0.019-0.056,0.031-0.081,0.041
			c-0.025,0.009-0.046,0.014-0.064,0.014h-2.304h-2.304c-0.04,0-0.083-0.01-0.129-0.027s-0.091-0.045-0.134-0.08
			c-0.04-0.036-0.075-0.084-0.107-0.143c-0.032-0.06-0.048-0.13-0.048-0.213c0-0.093,0.016-0.17,0.048-0.23s0.072-0.107,0.118-0.14
			c0.043-0.032,0.088-0.055,0.134-0.067c0.046-0.012,0.084-0.019,0.113-0.019h1.171l1.176-0.005c0.014,0,0.041-0.006,0.081-0.017
			s0.081-0.024,0.124-0.043c0.046-0.019,0.092-0.04,0.137-0.067c0.045-0.026,0.08-0.057,0.105-0.088
			c0.032-0.029,0.06-0.063,0.083-0.1c0.023-0.038,0.043-0.076,0.062-0.115c0.018-0.036,0.031-0.074,0.04-0.113
			c0.009-0.039,0.014-0.077,0.014-0.113v-1.154v-1.154c0-0.043-0.005-0.086-0.016-0.129s-0.025-0.084-0.043-0.124
			c-0.036-0.089-0.086-0.167-0.15-0.231c-0.057-0.064-0.125-0.114-0.204-0.15c-0.079-0.039-0.165-0.059-0.258-0.059h-1.155h-1.155
			c-0.079,0-0.147-0.019-0.204-0.057c-0.057-0.037-0.102-0.081-0.134-0.131c-0.032-0.051-0.056-0.102-0.07-0.153
			s-0.021-0.095-0.021-0.126c0.003-0.062,0.018-0.121,0.043-0.178s0.056-0.105,0.091-0.145c0.04-0.04,0.085-0.072,0.137-0.098
			c0.052-0.024,0.105-0.037,0.159-0.037h1.149h1.155c0.05,0,0.097-0.006,0.14-0.016c0.043-0.012,0.084-0.025,0.124-0.043
			c0.079-0.033,0.15-0.081,0.215-0.146c0.032-0.032,0.061-0.069,0.086-0.11s0.045-0.081,0.059-0.121
			c0.018-0.043,0.031-0.088,0.04-0.137c0.009-0.048,0.014-0.096,0.014-0.143l0.005-1.111l0.011-1.117
			c0-0.051-0.004-0.097-0.013-0.14c-0.009-0.043-0.021-0.083-0.035-0.118s-0.033-0.07-0.057-0.104
			c-0.023-0.034-0.049-0.067-0.078-0.1c-0.04-0.043-0.083-0.081-0.129-0.112c-0.046-0.033-0.091-0.06-0.134-0.081
			c-0.046-0.019-0.092-0.031-0.137-0.04c-0.045-0.01-0.085-0.014-0.121-0.014h-1.155h-1.155c-0.04,0-0.083-0.009-0.129-0.027
			c-0.046-0.018-0.089-0.045-0.129-0.08c-0.043-0.035-0.079-0.083-0.107-0.143c-0.029-0.059-0.043-0.129-0.043-0.212
			s0.014-0.153,0.043-0.212c0.029-0.06,0.064-0.107,0.107-0.143c0.04-0.039,0.083-0.067,0.129-0.083
			C75.625,108.008,75.664,108,75.696,108L75.696,108z M86.755,108c0.043,0,0.089,0.013,0.14,0.037
			c0.021,0.012,0.045,0.024,0.07,0.041c0.025,0.016,0.048,0.035,0.07,0.057c0.018,0.018,0.036,0.039,0.054,0.064
			c0.018,0.024,0.034,0.048,0.048,0.069c0.014,0.024,0.025,0.051,0.032,0.078c0.007,0.026,0.011,0.053,0.011,0.077v2.885v2.885
			c0,0.039,0.004,0.081,0.014,0.126c0.009,0.044,0.022,0.089,0.04,0.132c0.036,0.089,0.089,0.17,0.161,0.241
			c0.029,0.032,0.062,0.062,0.1,0.086c0.037,0.024,0.076,0.045,0.115,0.06c0.079,0.035,0.156,0.053,0.231,0.053h0.623h0.628
			c0.032,0,0.069-0.004,0.11-0.013c0.041-0.009,0.081-0.019,0.121-0.03c0.04-0.014,0.079-0.033,0.118-0.056
			c0.04-0.023,0.073-0.048,0.102-0.073c0.032-0.031,0.06-0.066,0.083-0.104c0.023-0.037,0.042-0.074,0.057-0.11
			c0.032-0.082,0.048-0.158,0.048-0.23v-0.092v-0.086c0-0.024,0.002-0.049,0.008-0.072c0.005-0.023,0.013-0.045,0.024-0.066
			c0.007-0.021,0.019-0.043,0.035-0.064c0.017-0.021,0.033-0.04,0.051-0.055c0.014-0.018,0.034-0.031,0.059-0.043
			c0.025-0.01,0.048-0.02,0.07-0.026c0.025-0.007,0.049-0.013,0.073-0.017c0.023-0.003,0.043-0.005,0.062-0.005h0.628h0.634
			c0.036,0,0.075,0.011,0.118,0.032c0.046,0.025,0.089,0.057,0.129,0.097c0.021,0.019,0.041,0.038,0.059,0.062
			s0.03,0.046,0.038,0.067c0.029,0.05,0.043,0.097,0.043,0.14l-0.005,1.756v1.752c0,0.043-0.011,0.089-0.032,0.139
			c-0.021,0.047-0.05,0.09-0.086,0.129c-0.018,0.021-0.04,0.043-0.064,0.063s-0.048,0.037-0.07,0.051
			c-0.025,0.014-0.051,0.025-0.078,0.032c-0.027,0.007-0.053,0.011-0.078,0.011h-0.591h-0.591c-0.05,0-0.104-0.013-0.161-0.037
			c-0.025-0.012-0.05-0.025-0.075-0.043c-0.025-0.019-0.048-0.036-0.07-0.055c-0.04-0.039-0.072-0.086-0.097-0.139
			c-0.025-0.051-0.038-0.094-0.038-0.129v-0.607v-0.607c0-0.035-0.006-0.072-0.019-0.112c-0.013-0.04-0.026-0.079-0.041-0.118
			c-0.018-0.043-0.041-0.082-0.067-0.118c-0.027-0.036-0.055-0.069-0.083-0.103c-0.032-0.028-0.066-0.055-0.102-0.08
			s-0.073-0.045-0.113-0.059c-0.075-0.033-0.15-0.049-0.226-0.049l-1.751-0.006h-1.751c-0.046,0-0.099-0.012-0.156-0.037
			c-0.029-0.014-0.057-0.031-0.083-0.051c-0.027-0.02-0.053-0.044-0.078-0.072c-0.014-0.015-0.028-0.031-0.04-0.052
			c-0.013-0.02-0.024-0.038-0.035-0.056c-0.021-0.047-0.036-0.094-0.043-0.141v-3.438v-3.432c0-0.039,0.003-0.077,0.011-0.113
			c0.007-0.035,0.014-0.069,0.021-0.102c0.021-0.064,0.054-0.118,0.097-0.161c0.025-0.021,0.052-0.043,0.081-0.064
			s0.056-0.038,0.081-0.048c0.025-0.015,0.049-0.026,0.072-0.035c0.023-0.01,0.042-0.014,0.057-0.014h0.602H86.755z
			 M102.305,108.006c0.05,0,0.102,0.008,0.156,0.023c0.054,0.017,0.1,0.044,0.14,0.084c0.043,0.035,0.078,0.083,0.105,0.142
			c0.026,0.06,0.04,0.128,0.04,0.207c0.003,0.083-0.011,0.153-0.043,0.212c-0.032,0.06-0.07,0.107-0.113,0.143
			s-0.09,0.063-0.142,0.083c-0.052,0.021-0.094,0.03-0.126,0.03h-1.708l-1.703-0.006c-0.036,0-0.075,0.006-0.118,0.016
			c-0.043,0.012-0.084,0.025-0.124,0.043c-0.04,0.019-0.078,0.04-0.116,0.064c-0.037,0.025-0.072,0.055-0.104,0.086
			c-0.075,0.064-0.132,0.141-0.172,0.227c-0.018,0.039-0.033,0.08-0.046,0.123c-0.012,0.043-0.019,0.084-0.019,0.123l0.005,1.139
			v1.139c0,0.068,0.016,0.143,0.048,0.221s0.077,0.15,0.134,0.215c0.032,0.035,0.067,0.07,0.105,0.102
			c0.037,0.033,0.076,0.06,0.115,0.081c0.043,0.024,0.088,0.045,0.134,0.06c0.046,0.014,0.095,0.021,0.145,0.021h1.713h1.719
			c0.046,0,0.095,0.012,0.145,0.037c0.025,0.011,0.05,0.025,0.075,0.046c0.025,0.02,0.046,0.038,0.064,0.056
			c0.021,0.021,0.04,0.045,0.057,0.067c0.016,0.023,0.027,0.046,0.035,0.067c0.014,0.025,0.024,0.051,0.03,0.075
			c0.005,0.024,0.008,0.05,0.008,0.075v2.32v2.326c0,0.028-0.003,0.057-0.011,0.086c-0.007,0.028-0.016,0.051-0.027,0.069
			c-0.011,0.024-0.023,0.048-0.038,0.067s-0.029,0.038-0.043,0.057c-0.043,0.05-0.093,0.089-0.15,0.117
			c-0.054,0.025-0.105,0.038-0.156,0.038h-2.31h-2.31c-0.046,0-0.095-0.014-0.145-0.04c-0.05-0.027-0.097-0.061-0.14-0.1
			c-0.04-0.043-0.072-0.092-0.1-0.145c-0.026-0.055-0.04-0.109-0.04-0.167c0-0.067-0.001-0.132-0.003-0.19
			c-0.001-0.06,0.008-0.108,0.03-0.148c0.021-0.043,0.063-0.076,0.126-0.102c0.063-0.025,0.158-0.037,0.287-0.037h1.719h1.713
			c0.04,0,0.081-0.006,0.124-0.017s0.084-0.024,0.124-0.043c0.04-0.021,0.079-0.045,0.118-0.069c0.04-0.025,0.075-0.055,0.107-0.086
			c0.061-0.055,0.109-0.121,0.145-0.199c0.018-0.035,0.032-0.075,0.043-0.118s0.016-0.086,0.016-0.129v-1.177v-1.17
			c0-0.033-0.005-0.068-0.016-0.107c-0.011-0.04-0.027-0.079-0.048-0.119c-0.018-0.039-0.042-0.078-0.073-0.117
			c-0.03-0.04-0.062-0.076-0.094-0.107c-0.032-0.029-0.066-0.057-0.102-0.081s-0.072-0.046-0.107-0.064
			c-0.075-0.032-0.145-0.048-0.209-0.048h-1.729h-1.729c-0.021,0-0.046-0.005-0.072-0.014c-0.027-0.01-0.053-0.02-0.078-0.029
			c-0.054-0.025-0.104-0.06-0.15-0.103c-0.018-0.019-0.036-0.04-0.054-0.064s-0.032-0.048-0.043-0.069
			c-0.025-0.055-0.038-0.104-0.038-0.15v-2.326v-2.32c0.003-0.025,0.01-0.051,0.019-0.075c0.009-0.024,0.019-0.05,0.029-0.075
			c0.021-0.047,0.054-0.092,0.097-0.135c0.014-0.014,0.033-0.029,0.057-0.045c0.023-0.017,0.045-0.031,0.067-0.046
			c0.054-0.024,0.109-0.043,0.167-0.054h2.293L102.305,108.006z M111.027,108c0.025,0,0.054,0.004,0.086,0.014
			c0.032,0.009,0.061,0.021,0.086,0.035c0.032,0.014,0.061,0.031,0.086,0.053s0.048,0.045,0.07,0.07
			c0.018,0.021,0.035,0.044,0.051,0.067c0.016,0.022,0.029,0.046,0.04,0.067c0.021,0.05,0.032,0.098,0.032,0.145v0.87v0.87
			c0,0.061-0.014,0.117-0.04,0.169c-0.027,0.052-0.062,0.098-0.105,0.138c-0.043,0.035-0.092,0.064-0.148,0.086
			c-0.055,0.021-0.112,0.031-0.169,0.031c-0.064,0-0.125-0.005-0.18-0.016c-0.056-0.011-0.105-0.03-0.148-0.059
			c-0.043-0.029-0.078-0.072-0.105-0.129c-0.026-0.058-0.04-0.131-0.04-0.221v-0.285l-0.005-0.279c0-0.035-0.005-0.074-0.016-0.117
			s-0.023-0.084-0.038-0.124c-0.018-0.043-0.041-0.086-0.067-0.129c-0.027-0.043-0.057-0.081-0.089-0.112
			c-0.068-0.064-0.142-0.117-0.22-0.156c-0.089-0.039-0.174-0.059-0.252-0.059h-0.548h-0.553c-0.086,0-0.17,0.018-0.252,0.053
			c-0.043,0.019-0.083,0.04-0.121,0.064c-0.037,0.025-0.072,0.055-0.104,0.086c-0.032,0.033-0.063,0.069-0.091,0.11
			c-0.029,0.042-0.052,0.081-0.07,0.121c-0.021,0.043-0.038,0.087-0.048,0.132s-0.016,0.086-0.016,0.126l0.005,1.724v1.719
			c0,0.036,0.004,0.073,0.013,0.11c0.009,0.038,0.021,0.076,0.035,0.116c0.032,0.078,0.077,0.15,0.134,0.215
			c0.064,0.071,0.14,0.127,0.226,0.166c0.043,0.021,0.088,0.039,0.134,0.051c0.046,0.013,0.095,0.02,0.145,0.02h2.288h2.288
			c0.046,0,0.096,0.013,0.148,0.04c0.052,0.026,0.097,0.06,0.137,0.099c0.04,0.04,0.072,0.084,0.1,0.132
			c0.026,0.049,0.04,0.097,0.04,0.143v1.74v1.745c0,0.021-0.004,0.046-0.014,0.073c-0.009,0.026-0.017,0.053-0.024,0.077
			c-0.011,0.025-0.025,0.051-0.043,0.076c-0.018,0.024-0.036,0.048-0.054,0.069c-0.021,0.021-0.044,0.041-0.067,0.06
			c-0.023,0.018-0.048,0.031-0.073,0.043c-0.021,0.014-0.045,0.024-0.073,0.031c-0.026,0.008-0.053,0.012-0.078,0.012h-2.874h-2.884
			c-0.021,0-0.046-0.005-0.075-0.014c-0.029-0.01-0.056-0.021-0.081-0.035c-0.025-0.011-0.051-0.025-0.078-0.046
			c-0.026-0.02-0.051-0.04-0.072-0.062c-0.036-0.039-0.064-0.082-0.086-0.129c-0.011-0.025-0.019-0.049-0.024-0.072
			c-0.005-0.023-0.008-0.048-0.008-0.072v-4.604l-0.005-4.608c0-0.024,0.004-0.052,0.013-0.081c0.009-0.028,0.019-0.053,0.03-0.074
			c0.025-0.051,0.057-0.098,0.097-0.141c0.043-0.043,0.091-0.076,0.145-0.102s0.102-0.037,0.145-0.037l1.735-0.006H111.027z
			 M108.734,117.163h1.697h1.697c0.093,0,0.181-0.02,0.263-0.06c0.083-0.039,0.152-0.091,0.209-0.155
			c0.061-0.064,0.11-0.142,0.148-0.231c0.037-0.089,0.056-0.184,0.056-0.284v-0.521v-0.521c0-0.1-0.019-0.195-0.056-0.285
			c-0.038-0.089-0.087-0.166-0.148-0.23c-0.057-0.064-0.127-0.115-0.209-0.153c-0.083-0.037-0.17-0.056-0.263-0.056h-1.697h-1.697
			c-0.093,0-0.181,0.019-0.263,0.056c-0.083,0.038-0.154,0.089-0.215,0.153c-0.057,0.064-0.104,0.142-0.14,0.23
			c-0.036,0.09-0.054,0.186-0.054,0.285v0.521v0.521c0,0.101,0.018,0.195,0.054,0.284c0.036,0.09,0.083,0.167,0.14,0.231
			c0.061,0.064,0.132,0.116,0.215,0.155C108.553,117.144,108.641,117.163,108.734,117.163L108.734,117.163z M119.159,117.297h1.681
			h1.676c0.201,0,0.383-0.033,0.548-0.102c0.168-0.068,0.317-0.176,0.446-0.322c0.05-0.057,0.095-0.12,0.134-0.188
			c0.04-0.068,0.073-0.137,0.102-0.205c0.025-0.071,0.046-0.143,0.062-0.215c0.017-0.071,0.024-0.141,0.024-0.209v-2.873v-2.869
			c0-0.096-0.011-0.189-0.032-0.279c-0.021-0.089-0.052-0.174-0.091-0.252c-0.036-0.075-0.078-0.146-0.126-0.215
			c-0.048-0.068-0.101-0.127-0.158-0.178c-0.064-0.057-0.135-0.107-0.212-0.15c-0.077-0.043-0.159-0.076-0.245-0.102
			s-0.176-0.045-0.271-0.059c-0.095-0.015-0.194-0.021-0.298-0.021h-1.547h-1.542c-0.215,0-0.412,0.029-0.591,0.091
			c-0.089,0.028-0.173,0.067-0.25,0.118c-0.077,0.051-0.146,0.111-0.207,0.183c-0.043,0.05-0.085,0.108-0.126,0.175
			c-0.041,0.066-0.078,0.129-0.11,0.19c-0.029,0.062-0.053,0.117-0.073,0.169c-0.02,0.053-0.029,0.092-0.029,0.121v3.078v3.082
			c0,0.025,0.012,0.066,0.035,0.121c0.023,0.056,0.051,0.115,0.083,0.18s0.071,0.131,0.115,0.196
			c0.045,0.066,0.091,0.121,0.137,0.164c0.057,0.054,0.116,0.103,0.177,0.147s0.127,0.084,0.199,0.115
			c0.068,0.033,0.143,0.059,0.226,0.078S119.066,117.297,119.159,117.297L119.159,117.297z M119.052,118.211
			c-0.168,0-0.321-0.018-0.459-0.052c-0.138-0.034-0.264-0.077-0.379-0.132c-0.115-0.057-0.219-0.122-0.314-0.195
			c-0.095-0.074-0.185-0.15-0.271-0.229c-0.093-0.086-0.178-0.186-0.255-0.301c-0.077-0.115-0.142-0.23-0.196-0.35
			c-0.057-0.117-0.101-0.234-0.131-0.352c-0.031-0.116-0.046-0.217-0.046-0.303v-3.132v-3.132c0-0.064,0.014-0.148,0.04-0.252
			c0.027-0.104,0.065-0.213,0.116-0.328c0.05-0.117,0.115-0.238,0.193-0.359s0.168-0.234,0.269-0.338
			c0.086-0.083,0.182-0.162,0.288-0.236c0.105-0.076,0.219-0.141,0.341-0.193c0.122-0.055,0.256-0.098,0.403-0.129
			c0.147-0.033,0.304-0.049,0.473-0.049h1.697h1.692c0.175,0,0.337,0.013,0.486,0.037c0.148,0.025,0.285,0.062,0.411,0.107
			c0.125,0.047,0.244,0.105,0.354,0.175c0.111,0.07,0.213,0.147,0.306,0.233c0.1,0.094,0.192,0.198,0.276,0.314
			c0.084,0.117,0.157,0.232,0.218,0.347c0.057,0.118,0.104,0.235,0.14,0.352s0.054,0.226,0.054,0.325l0.005,3.035l0.011,3.034
			c0,0.144-0.013,0.282-0.041,0.416c-0.026,0.135-0.065,0.263-0.115,0.384c-0.1,0.24-0.25,0.465-0.451,0.672
			c-0.075,0.078-0.166,0.156-0.271,0.233c-0.105,0.077-0.219,0.145-0.341,0.202c-0.118,0.057-0.24,0.104-0.365,0.139
			c-0.125,0.036-0.245,0.055-0.36,0.055h-1.891H119.052z M133.43,108.548v2.32v2.325c0,0.043,0.005,0.088,0.016,0.132
			c0.011,0.045,0.027,0.089,0.048,0.132c0.018,0.039,0.041,0.078,0.067,0.118c0.027,0.04,0.055,0.073,0.083,0.103
			c0.029,0.028,0.063,0.055,0.102,0.08s0.079,0.047,0.118,0.064c0.04,0.014,0.079,0.027,0.118,0.037
			c0.04,0.012,0.075,0.017,0.107,0.017h0.607h0.607c0.032,0,0.063,0.001,0.091,0.003s0.057,0.008,0.086,0.019
			c0.057,0.024,0.116,0.079,0.177,0.161c0.014,0.018,0.028,0.035,0.04,0.054c0.013,0.019,0.022,0.036,0.03,0.054
			c0.014,0.039,0.021,0.082,0.021,0.129v1.751v1.751c0,0.025-0.002,0.051-0.008,0.078c-0.005,0.026-0.015,0.051-0.029,0.072
			c-0.021,0.047-0.05,0.088-0.086,0.123c-0.043,0.043-0.089,0.078-0.14,0.103c-0.054,0.024-0.102,0.038-0.145,0.038h-1.767h-1.762
			c-0.014,0-0.032-0.003-0.054-0.009c-0.021-0.005-0.043-0.013-0.064-0.024c-0.018-0.01-0.04-0.023-0.064-0.037
			s-0.046-0.032-0.064-0.054c-0.018-0.015-0.034-0.034-0.048-0.06c-0.014-0.024-0.029-0.05-0.043-0.074
			c-0.011-0.021-0.02-0.045-0.027-0.07s-0.011-0.047-0.011-0.064v-1.768v-1.767c0-0.021,0.003-0.046,0.011-0.072
			c0.007-0.027,0.016-0.052,0.027-0.073c0.011-0.024,0.024-0.049,0.041-0.072c0.016-0.023,0.031-0.042,0.045-0.057
			c0.014-0.018,0.034-0.035,0.059-0.053c0.025-0.019,0.05-0.033,0.075-0.043c0.054-0.025,0.102-0.038,0.145-0.038h0.048h0.043h0.054
			h0.048c0.011,0,0.028-0.005,0.051-0.014c0.023-0.009,0.047-0.019,0.072-0.029c0.021-0.011,0.046-0.024,0.072-0.043
			c0.027-0.019,0.049-0.036,0.067-0.054c0.014-0.018,0.03-0.037,0.048-0.059s0.032-0.043,0.043-0.064
			c0.021-0.043,0.032-0.081,0.032-0.113v-1.762v-1.762c0-0.025-0.003-0.049-0.011-0.072s-0.018-0.046-0.032-0.067
			c-0.011-0.021-0.024-0.043-0.041-0.064c-0.016-0.021-0.033-0.04-0.051-0.054c-0.018-0.018-0.04-0.035-0.064-0.051
			c-0.025-0.017-0.05-0.029-0.075-0.041c-0.025-0.01-0.048-0.02-0.07-0.026s-0.038-0.011-0.048-0.011h-0.091h-0.097
			c-0.018,0-0.04-0.004-0.064-0.011s-0.05-0.017-0.075-0.026c-0.021-0.012-0.045-0.024-0.07-0.041
			c-0.025-0.016-0.046-0.033-0.064-0.051s-0.035-0.039-0.051-0.064c-0.017-0.025-0.03-0.049-0.041-0.07
			c-0.011-0.024-0.02-0.05-0.027-0.074c-0.007-0.025-0.011-0.049-0.011-0.07v-0.312v-0.312c0-0.035,0.003-0.067,0.011-0.094
			c0.007-0.027,0.016-0.051,0.027-0.072s0.025-0.043,0.043-0.064s0.036-0.041,0.054-0.06c0.032-0.032,0.07-0.062,0.113-0.086
			c0.021-0.011,0.046-0.02,0.072-0.026c0.027-0.008,0.055-0.012,0.083-0.012h0.295h0.295h0.295h0.29
			c0.021,0,0.046,0.004,0.072,0.012c0.027,0.007,0.051,0.016,0.073,0.026c0.025,0.011,0.05,0.023,0.075,0.038
			c0.025,0.014,0.046,0.029,0.064,0.048c0.021,0.021,0.04,0.044,0.054,0.067s0.027,0.045,0.038,0.066
			C133.417,108.453,133.43,108.502,133.43,108.548L133.43,108.548z M142.856,108.006h1.735h1.735c0.054,0,0.104,0.01,0.15,0.031
			c0.05,0.025,0.095,0.058,0.134,0.098c0.046,0.046,0.081,0.088,0.102,0.126c0.021,0.037,0.034,0.069,0.038,0.094
			s0.004,0.045,0.002,0.06c-0.001,0.014-0.002,0.023-0.002,0.026v2.331v2.331c0,0.015-0.004,0.034-0.013,0.06
			c-0.009,0.024-0.019,0.048-0.03,0.069c-0.025,0.05-0.057,0.093-0.097,0.129c-0.018,0.019-0.038,0.036-0.059,0.054
			s-0.043,0.032-0.064,0.043c-0.021,0.014-0.045,0.025-0.07,0.032s-0.052,0.011-0.081,0.011h-1.139h-1.144
			c-0.086,0-0.17,0.018-0.252,0.054s-0.156,0.088-0.22,0.155c-0.032,0.033-0.062,0.066-0.088,0.103
			c-0.027,0.036-0.051,0.075-0.073,0.118c-0.018,0.039-0.032,0.08-0.043,0.121s-0.016,0.081-0.016,0.121v1.154v1.149
			c0,0.036,0.004,0.074,0.014,0.115c0.009,0.042,0.021,0.081,0.035,0.121c0.018,0.036,0.039,0.073,0.062,0.112
			c0.023,0.04,0.047,0.074,0.072,0.103c0.057,0.067,0.131,0.122,0.22,0.161c0.043,0.018,0.084,0.033,0.124,0.046
			s0.075,0.019,0.107,0.019h1.171h1.171c0.054,0,0.105,0.014,0.156,0.04c0.05,0.027,0.093,0.06,0.129,0.1
			c0.04,0.043,0.072,0.091,0.097,0.146c0.025,0.053,0.038,0.109,0.038,0.166s-0.01,0.115-0.029,0.172
			c-0.02,0.057-0.048,0.107-0.083,0.15s-0.08,0.078-0.131,0.107c-0.052,0.029-0.11,0.043-0.175,0.043h-1.729h-1.735
			c-0.046,0-0.097-0.014-0.15-0.043c-0.025-0.011-0.05-0.025-0.075-0.043s-0.048-0.035-0.07-0.054
			c-0.018-0.021-0.036-0.045-0.054-0.069c-0.018-0.025-0.032-0.051-0.043-0.076c-0.025-0.053-0.038-0.102-0.038-0.145l-0.005-2.314
			v-2.315c0-0.024,0.003-0.053,0.011-0.083c0.007-0.031,0.018-0.059,0.032-0.084c0.011-0.028,0.026-0.055,0.046-0.077
			c0.02-0.023,0.038-0.044,0.056-0.062c0.021-0.021,0.045-0.041,0.07-0.06s0.05-0.03,0.075-0.038
			c0.054-0.024,0.099-0.037,0.134-0.037h1.144h1.149c0.043,0,0.085-0.006,0.126-0.019c0.042-0.013,0.083-0.028,0.126-0.046
			c0.086-0.039,0.159-0.095,0.22-0.166c0.029-0.029,0.054-0.063,0.075-0.1c0.021-0.038,0.04-0.074,0.054-0.11
			c0.018-0.04,0.031-0.081,0.04-0.124c0.009-0.043,0.014-0.086,0.014-0.129v-1.133v-1.128c0-0.04-0.004-0.079-0.014-0.121
			c-0.009-0.041-0.021-0.083-0.035-0.126c-0.032-0.078-0.083-0.156-0.15-0.23c-0.021-0.025-0.049-0.052-0.083-0.078
			c-0.034-0.027-0.07-0.049-0.11-0.067c-0.036-0.021-0.075-0.04-0.118-0.054s-0.084-0.021-0.124-0.021h-1.166h-1.16
			c-0.032,0-0.075-0.013-0.129-0.037c-0.025-0.012-0.05-0.025-0.075-0.043c-0.025-0.019-0.048-0.038-0.07-0.06
			c-0.021-0.019-0.04-0.04-0.057-0.067c-0.016-0.026-0.031-0.053-0.045-0.078c-0.025-0.057-0.038-0.112-0.038-0.166
			c0-0.057,0.013-0.118,0.038-0.183c0.029-0.062,0.064-0.112,0.107-0.155c0.04-0.043,0.084-0.076,0.134-0.098
			C142.774,108.016,142.821,108.006,142.856,108.006L142.856,108.006z"/>
	</g>
</g>
</svg>
