<svg version="1.0" id="Layer_1" xmlns="http://www.w3.org/2000/svg" aria-labelledby="address-unchecked-fkw" xmlns:xlink="http://www.w3.org/1999/xlink" x="0px" y="0px"
	 viewBox="0 0 24 24" enable-background="new 0 0 24 24" xml:space="preserve">
	 <title id="address-unchecked-fkw">unselected or unchecked</title>
<g>
	<path d="M12,0C5.4,0,0,5.4,0,12c0,6.6,5.4,12,12,12s12-5.4,12-12C24,5.4,18.6,0,12,0z M12,22.5C6.2,22.5,1.5,17.8,1.5,12
		C1.5,6.2,6.2,1.5,12,1.5S22.5,6.2,22.5,12S17.8,22.5,12,22.5z M17.1,7.8l1,1l-7.5,7.5l-0.1-0.1l0,0l-4.4-4.4l1-1l3.5,3.5L17.1,7.8z
		"/>
</g>
</svg>
