<?xml version="1.0" encoding="UTF-8"?>
<svg width="41px" height="41px" viewBox="0 0 41 41" version="1.1" aria-labelledby="timer-watch-clock-fkw" xmlns="http://www.w3.org/2000/svg" xmlns:xlink="http://www.w3.org/1999/xlink">
    <!-- Generator: Sketch 44.1 (41455) - http://www.bohemiancoding.com/sketch -->
    <title id="timer-watch-clock-fkw">timer-clock</title>
    <desc>Created with Sketch.</desc>
    <defs></defs>
    <g id="Symbols" stroke="none" stroke-width="1" fill="none" fill-rule="evenodd">
        <g id="clock" fill="inherit">
            <path d="M2.45425616,11.4689836 C2.06711204,11.4689836 1.67996792,11.322926 1.38235279,11.0298943 C0.49134075,10.1526324 0.000611897132,8.92917147 7.77762987e-07,7.58501442 C-0.00091590129,5.83171295 0.808511703,4.02707745 2.22080856,2.63341973 C3.41096353,1.45945943 4.90331703,0.702282529 6.42225422,0.501224257 C8.06769312,0.283971321 9.61749184,0.756366593 10.675645,1.79801956 C11.2769865,2.39019423 11.2843199,3.35729063 10.6924508,3.95863209 C10.0999706,4.5602791 9.13287418,4.56730698 8.53214384,3.97543787 C7.63135389,3.08870366 5.72374478,3.47034771 4.36705979,4.80869913 C3.54510424,5.61934897 3.0549865,6.65641854 3.05559762,7.58348662 C3.05559762,7.95107492 3.13748762,8.46991526 3.52615954,8.85247599 C4.12750099,9.44465066 4.13483443,10.4117471 3.54296532,11.0130885 C3.24382239,11.3168148 2.84903927,11.4689836 2.45425616,11.4689836 M38.5457438,11.4689836 C38.1506552,11.4689836 37.7558721,11.3168148 37.4570347,11.0130885 C36.8651656,10.4117471 36.8728046,9.4443451 37.4738405,8.85247599 C37.8625124,8.46991526 37.9444024,7.95138048 37.9444024,7.58379218 C37.9450135,6.65702966 37.4548958,5.61965453 36.6326347,4.80900469 C35.2753385,3.46973659 33.368035,3.0883981 32.4684673,3.97543787 C31.8668203,4.56730698 30.9000294,4.55997354 30.3075492,3.95863209 C29.7156801,3.35759619 29.7230135,2.39019423 30.3240494,1.79832512 C31.3822026,0.756061034 32.9307791,0.283360202 34.5774402,0.501224257 C36.096683,0.702282529 37.5887309,1.45945943 38.7788859,2.63372529 C40.1914883,4.02738301 41.0009159,5.83232407 40.9999992,7.58562554 C40.9993881,8.92978259 40.5083537,10.152938 39.6176472,11.0298943 C39.3200321,11.322926 38.932888,11.4689836 38.5457438,11.4689836 M25.5799298,23.3962003 L20.0939112,23.3962003 C19.7186839,23.3962003 19.3752348,23.2608373 19.1090923,23.036251 C18.6076689,22.785692 18.2633031,22.2674628 18.2633031,21.6688714 L18.2633031,13.360398 C18.2633031,12.5167477 18.9474512,11.8325996 19.7911015,11.8325996 C20.6350574,11.8325996 21.3189,12.5167477 21.3189,13.360398 L21.3189,20.3406034 L25.5799298,20.3406034 C26.42358,20.3406034 27.1077282,21.024446 27.1077282,21.8684019 C27.1077282,22.7120522 26.42358,23.3962003 25.5799298,23.3962003 M20.5003056,5.9768538 C12.513281,5.9768538 6.01524872,12.4556358 6.01524872,20.4188267 C6.01524872,28.3823232 12.513281,34.8607996 20.5003056,34.8607996 C28.4870246,34.8607996 34.9847513,28.3823232 34.9847513,20.4188267 C34.9847513,12.4556358 28.4870246,5.9768538 20.5003056,5.9768538 M20.5003056,37.9163965 C10.8281193,37.9163965 2.95965188,30.0668738 2.95965188,20.4188267 C2.95965188,10.7704741 10.8281193,2.92125696 20.5003056,2.92125696 C30.1718807,2.92125696 38.0403481,10.7704741 38.0403481,20.4188267 C38.0403481,30.0668738 30.1718807,37.9163965 20.5003056,37.9163965 M35.7596506,40.8509917 C35.3734232,40.8509917 34.9878069,40.7058508 34.6901917,40.4143469 L32.0495449,37.8265619 C31.4472868,37.2356095 31.4375089,36.2685131 32.0278502,35.6656438 C32.6191082,35.0627746 33.585899,35.0539134 34.1884627,35.6439491 L36.8291095,38.2320396 C37.4316732,38.8229921 37.4414511,39.7900885 36.8508043,40.3926522 C36.5516613,40.6979063 36.155656,40.8509917 35.7596506,40.8509917 M5.2400438,40.8509917 C4.84373289,40.8509917 4.4480331,40.6979063 4.14889017,40.3923466 C3.5582433,39.7897829 3.56832677,38.8226865 4.17089047,38.2320396 L6.81245394,35.6439491 C7.41471208,35.0536078 8.38180848,35.0627746 8.97276091,35.6659494 C9.56340778,36.2688187 9.55332431,37.2359151 8.95076061,37.8265619 L6.30919714,40.4143469 C6.01219313,40.7058508 5.62596569,40.8509917 5.2400438,40.8509917" id="Page-1"></path>
        </g>
    </g>
</svg>
