<?xml version="1.0" encoding="UTF-8" standalone="no"?>
<svg width="30px" height="30px" viewBox="0 0 30 30" version="1.1" aria-labelledby="close-x-window-fkw" xmlns="http://www.w3.org/2000/svg" xmlns:xlink="http://www.w3.org/1999/xlink">
    <!-- Generator: sketchtool 3.8.3 (29802) - http://www.bohemiancoding.com/sketch -->
    <title id="close-x-window-fkw">close the window</title>
    <desc>Created with sketchtool.</desc>
    <defs>
        <polyline id="close-window-path-1" points="0 0 30 0 30 30 0 30"></polyline>
    </defs>
    <g id="search" stroke="none" stroke-width="1" fill-rule="evenodd">
        <g transform="translate(-1670.000000, -1563.000000)" id="Search-Focused">
            <g transform="translate(524.000000, 1523.000000)">
                <g id="nav" transform="translate(0.000000, 30.000000)">
                    <g id="Group">
                        <g id="-">
                            <g transform="translate(1146.000000, 10.000000)">
                                <mask id="mask-2">
                                    <use xlink:href="#close-window-path-1"></use>
                                </mask>
                                <g id="Clip-2"></g>
                                <path d="M12.1270624,13.111063 C11.8828493,13.111063 11.6384455,13.0178152 11.452233,12.8309374 L0.279104156,1.6308814 C-0.0933207531,1.25750798 -0.0929391702,0.652734768 0.27967653,0.279743514 C0.65229223,-0.0934388217 1.25614717,-0.0932477401 1.62876287,0.280316759 L12.8018917,11.4803728 C13.1743166,11.8537462 13.173935,12.4585194 12.8013193,12.8315107 C12.6151069,13.0180063 12.3710846,13.111063 12.1270624,13.111063 M1.22848241,29.7600015 C0.984460143,29.7600015 0.74043788,29.6669448 0.554225425,29.4804492 C0.181609725,29.1074579 0.181228142,28.5026847 0.553653051,28.1293113 L28.0964974,0.519933066 C28.4687316,0.146941812 29.0725865,0.146177486 29.4455838,0.519550903 C29.8181995,0.892542157 29.8185811,1.49731537 29.4461562,1.87068879 L1.90331176,29.4798759 C1.71690852,29.6665626 1.47269546,29.7600015 1.22848241,29.7600015 M29.0460665,30 C28.8016626,30 28.5574496,29.9065611 28.3712371,29.7198744 L17.1979175,18.5198184 C16.8254926,18.146445 16.8256834,17.5416717 17.1984899,17.1684894 C17.5711056,16.7953071 18.1749605,16.7956892 18.5475762,17.1690626 L29.7208958,28.3693098 C30.0933208,28.7426832 30.0929392,29.3474564 29.7203235,29.7204476 C29.5339202,29.9067522 29.2900888,30 29.0460665,30" id="Fill-1" fill-rule="evenodd"></path>
                            </g>
                        </g>
                    </g>
                </g>
            </g>
        </g>
    </g>
</svg>
