<?xml version="1.0" encoding="UTF-8" standalone="no"?>
<svg width="40px" height="40px" viewBox="0 0 40 40" version="1.1" aria-labelledby="address-selected-fkw" xmlns="http://www.w3.org/2000/svg" xmlns:xlink="http://www.w3.org/1999/xlink">
    <!-- Generator: sketchtool 3.8.3 (29802) - http://www.bohemiancoding.com/sketch -->
    <title id="address-selected-fkw">Checked or Active</title>
    <desc>Created with sketchtool.</desc>
    <defs></defs>
    <g id="Symbols" stroke="none" stroke-width="1">
        <g id="d---check-your-email-">
            <g id="Group-2">
                <path d="M30.1333333,14.392 L16.6746667,27.8773333 L9.864,21.0506667 C9.344,20.5306667 9.34666667,19.6853333 9.86666667,19.1653333 C10.3893333,18.6453333 11.232,18.648 11.752,19.168 L16.6746667,24.1013333 L28.2453333,12.5066667 C28.7653333,11.9866667 29.6106667,11.9866667 30.1306667,12.5066667 C30.6533333,13.0266667 30.6533333,13.8693333 30.1333333,14.392 M20,0 C8.97066667,0 0,8.97333333 0,20 C0,31.0293333 8.97066667,40 20,40 C31.0266667,40 40,31.0293333 40,20 C40,8.97333333 31.0266667,0 20,0" id="Page-1"></path>
            </g>
        </g>
    </g>
</svg>
