<?xml version="1.0" encoding="UTF-8" standalone="no"?>
<svg width="25px" height="25px" viewBox="0 0 20 20" version="1.1" aria-labelledby="checked-icon-fkw" xmlns="http://www.w3.org/2000/svg" xmlns:xlink="http://www.w3.org/1999/xlink">
    <!-- Generator: sketchtool 41.2 (35397) - http://www.bohemiancoding.com/sketch -->
    <title id="checked-icon-fkw">option checked</title>
    <desc>Created with sketchtool.</desc>
    <defs></defs>
    <g id="Symbols" stroke="none" stroke-width="1" fill="none" fill-rule="evenodd">
        <g id="m---Order-History" transform="translate(-333.000000, -993.000000)">
            <g id="check">
                <g transform="translate(333.000000, 993.000000)">
                    <g>
                        <g>
                            <path d="M20,10 C20,15.5229073 15.5229386,20 10.0000698,20 C4.47720111,20 0,15.5229073 0,10 C0,4.47709268 4.47720111,0 10.0000698,0 C15.5229386,0 20,4.47709268 20,10" id="Fill-1"></path>
                            <path d="M7.62508047,14.125 L4.18277102,10.5767949 C3.9341892,10.3206988 3.93987109,9.91099685 4.19555524,9.66188878 C4.45136855,9.41291005 4.86007579,9.41847457 5.10865761,9.67470005 L7.62508047,12.26853 L13.5164052,6.19598634 C13.7648578,5.93976086 14.1736942,5.93406696 14.4293784,6.18304568 C14.6850626,6.43215376 14.6908736,6.84185569 14.4422917,7.09795177 L7.62508047,14.125 L7.62508047,14.125 Z" id="Fill-6" stroke="#FFFFFF"></path>
                        </g>
                    </g>
                </g>
            </g>
        </g>
    </g>
</svg>
