<?xml version="1.0" encoding="UTF-8" standalone="no"?>
<svg width="25px" height="25px" viewBox="0 0 20 20" version="1.1" aria-labelledby="exclamation-fkw" xmlns="http://www.w3.org/2000/svg" xmlns:xlink="http://www.w3.org/1999/xlink">
    <!-- Generator: sketchtool 41.2 (35397) - http://www.bohemiancoding.com/sketch -->
    <title id="exclamation-fkw">exclamation</title>
    <desc>Created with sketchtool.</desc>
    <defs></defs>
    <g id="Symbols" stroke="none" stroke-width="1" fill="none" fill-rule="evenodd">
        <g id="d---Order-History-FINAL-" transform="translate(-1036.000000, -518.000000)">
            <g id="exclamation">
                <g transform="translate(1036.000000, 518.000000)">
                    <g>
                        <circle id="Oval-3" fill="#FFFFFF" cx="10" cy="10" r="7"></circle>
                        <path d="M11.5781935,8.13496774 C11.1514839,9.51780645 10.6034839,10.6781935 10.5805161,10.7268387 L9.99754839,11.9549677 L9.41458065,10.7268387 C9.0243871,9.9043871 7.13574194,5.7083871 8.29496774,3.87522581 C8.54322581,3.48270968 9.04,3.01470968 9.99754839,3.01470968 C10.9550968,3.01470968 11.451871,3.48258065 11.7,3.87522581 C12.2392258,4.72787097 12.1993548,6.12129032 11.5781935,8.13496774 M10,16.9299355 C9.11367742,16.9299355 8.39509677,16.2136774 8.39509677,15.3304516 C8.39509677,14.4470968 9.11367742,13.7308387 10,13.7308387 C10.8861935,13.7308387 11.6047742,14.4470968 11.6047742,15.3304516 C11.6047742,16.2136774 10.8861935,16.9299355 10,16.9299355 M10,0 C4.47703226,0 0,4.47716129 0,10 C0,15.5228387 4.47703226,20 10,20 C15.5228387,20 20,15.5228387 20,10 C20,4.47716129 15.5228387,0 10,0" id="Fill-1" fill="#EBB10D"></path>
                    </g>
                </g>
            </g>
        </g>
    </g>
</svg>
