<?xml version="1.0" encoding="UTF-8" standalone="no"?>
<svg width="25px" height="25px" viewBox="0 0 25 25" version="1.1" aria-labelledby="ds-submitted-fkw" xmlns="http://www.w3.org/2000/svg" xmlns:xlink="http://www.w3.org/1999/xlink">
    <title id="ds-submitted-fkw">submitted</title>
    <g id="Symbols">
        <g id="table-row---SHOP---d---v4" transform="translate(-910.000000, -11.000000)">
            <g id="processing/submitted">
                <g transform="translate(910.000000, 11.000000)">
                    <g>
                        <circle id="oval-1" cx="12.5" cy="12.5" r="12.5"></circle>
                        <path d="M9.75142139,12.635908 C9.76602074,12.3941726 9.68075931,12.1485114 9.49653256,11.9642846 L6.2773093,8.74506138 C5.93621019,8.40396227 5.37774864,8.40452262 5.03295441,8.74931684 C4.68575634,9.09651492 4.68625495,9.65122773 5.02869895,9.99367173 L7.6536784,12.6186512 L5.02869895,15.2436306 C4.68759984,15.5847298 4.68816018,16.1431913 5.03295441,16.4879855 C5.38015248,16.8351836 5.9348653,16.834685 6.2773093,16.492241 L9.49653256,13.2730177 C9.67119865,13.0983516 9.75627682,12.8666901 9.75142139,12.635908 Z" id="Combined-Shape"></path>
                        <path d="M15.355195,12.635908 C15.3697943,12.3941726 15.2845329,12.1485114 15.1003061,11.9642846 L11.8810829,8.74506138 C11.5399838,8.40396227 10.9815222,8.40452262 10.636728,8.74931684 C10.2895299,9.09651492 10.2900285,9.65122773 10.6324725,9.99367173 L13.257452,12.6186512 L10.6324725,15.2436306 C10.2913734,15.5847298 10.2919338,16.1431913 10.636728,16.4879855 C10.9839261,16.8351836 11.5386389,16.834685 11.8810829,16.492241 L15.1003061,13.2730177 C15.2749722,13.0983516 15.3600504,12.8666901 15.355195,12.635908 Z" id="Combined-Shape-Copy"></path>
                        <path d="M20.9589686,12.635908 C20.9735679,12.3941726 20.8883065,12.1485114 20.7040797,11.9642846 L17.4848565,8.74506138 C17.1437574,8.40396227 16.5852958,8.40452262 16.2405016,8.74931684 C15.8933035,9.09651492 15.8938021,9.65122773 16.2362461,9.99367173 L18.8612256,12.6186512 L16.2362461,15.2436306 C15.895147,15.5847298 15.8957074,16.1431913 16.2405016,16.4879855 C16.5876997,16.8351836 17.1424125,16.834685 17.4848565,16.492241 L20.7040797,13.2730177 C20.8787458,13.0983516 20.963824,12.8666901 20.9589686,12.635908 Z" id="Combined-Shape-Copy-2"></path>
                    </g>
                </g>
            </g>
        </g>
    </g>
</svg>
