<?xml version="1.0" encoding="UTF-8" standalone="no"?>
<svg width="58px" height="28px" viewBox="0 0 29 14" version="1.1" aria-labelledby="ds-vespa-fkw" xmlns="http://www.w3.org/2000/svg" xmlns:xlink="http://www.w3.org/1999/xlink">
    <!-- Generator: sketchtool 41.2 (35397) - http://www.bohemiancoding.com/sketch -->
    <title id="ds-vespa-fkw">vespa</title>
    <desc>Created with sketchtool.</desc>
    <defs></defs>
    <g id="Symbols" stroke="none" stroke-width="1" fill="none" fill-rule="evenodd">
        <g id="d---Order-History-FINAL-" transform="translate(-1002.000000, -667.000000)" fill="#732282">
            <g id="Order-History">
                <g>
                    <g id="vespa-2" transform="translate(1002.000000, 667.000000)">
                        <g>
                            <path d="M3.68583348,2.93360219 L0.304481896,2.93360219 C0.128202904,2.93360219 0,3.08482727 0,3.22230462 C0,3.3735297 0.144228267,3.51100704 0.304481896,3.51100704 L3.68583348,3.51100704 C3.86211247,3.51100704 3.99031537,3.35978196 3.99031537,3.22230462 C3.99031537,3.08482727 3.87813783,2.93360219 3.68583348,2.93360219" id="Fill-1"></path>
                            <path d="M4.93577974,2.06752242 L2.45184848,2.06752242 C2.27556949,2.06752242 2.14736658,2.2187475 2.14736658,2.35622484 C2.14736658,2.50744992 2.29159485,2.64492727 2.45184848,2.64492727 L4.93577974,2.64492727 C5.09603337,2.64492727 5.24026163,2.50744992 5.24026163,2.35622484 C5.24026163,2.2187475 5.11205873,2.06752242 4.93577974,2.06752242" id="Fill-3"></path>
                            <path d="M3.46149442,4.00596672 L1.53845087,4.00596672 C1.36217188,4.00596672 1.23396897,4.1571918 1.23396897,4.29466915 C1.23396897,4.43214649 1.36217188,4.58337157 1.53845087,4.58337157 L3.46149442,4.58337157 C3.63777342,4.58337157 3.76597632,4.43214649 3.76597632,4.29466915 C3.76597632,4.1571918 3.65379878,4.00596672 3.46149442,4.00596672" id="Fill-5"></path>
                            <path d="M9.37483733,10.6598564 C9.35881196,10.57737 9.23060906,10.4123972 8.95817789,10.4123972 C8.62164527,10.4123972 8.52549309,10.6461087 8.52549309,10.6736042 C8.52549309,10.7698383 8.50946773,10.8798202 8.49344236,10.9623066 C8.477417,11.0310453 8.46139164,11.0997839 8.44536628,11.1685226 L8.42934091,11.2235136 C8.41331555,11.251009 8.41331555,11.2922522 8.39729019,11.3197477 L8.38126482,11.3609909 C8.36523946,11.3884864 8.36523946,11.4159818 8.3492141,11.4297296 C8.12485902,11.979639 7.69217422,12.4333142 7.11526115,12.7357643 C7.08321042,12.7495121 7.03513434,12.7770076 7.00308361,12.7907553 L6.95500752,12.804503 C6.93898216,12.804503 6.93898216,12.804503 6.93898216,12.8182508 C6.1857901,13.1069532 5.30439514,13.1069532 4.55120308,12.804503 C3.91018856,12.5295483 3.39737695,12.0208822 3.1569965,11.4434773 C3.07686969,11.2097658 3.01276823,10.9760543 2.99674287,10.7285951 L2.99674287,10.6048655 L2.96469215,10.6048655 C2.91661606,10.5361268 2.80443852,10.4123972 2.58008344,10.4123972 C2.27560154,10.4123972 2.14739864,10.6186132 2.14739864,10.6461087 L2.14739864,10.6598564 L2.14739864,10.6736042 C2.163424,11.4434773 2.51598198,12.185855 3.14097114,12.7632598 L3.1569965,12.7770076 C3.17302186,12.7907553 3.18904723,12.804503 3.20507259,12.8182508 C3.25314868,12.859494 3.30122477,12.9007372 3.34930086,12.9419804 C3.39737695,12.9694758 3.42942767,13.010719 3.47750376,13.0382145 C3.49352912,13.0519622 3.49352912,13.0519622 3.50955449,13.06571 C3.52557985,13.0794577 3.54160521,13.0932054 3.57365594,13.1069532 L3.99031537,13.3406647 C4.21467046,13.4506465 4.4550509,13.5331329 4.71145671,13.6018716 C5.06401469,13.684358 5.41657268,13.739349 5.76913066,13.739349 C6.12168865,13.739349 6.45822127,13.6981058 6.79475389,13.6156194 C7.09923579,13.5331329 7.38769232,13.4368988 7.64409813,13.2994215 C8.28511265,12.9694758 8.76587353,12.4745574 9.05433007,11.8696571 C9.23060906,11.5259637 9.32676124,11.1547749 9.3427866,10.7973338 L9.37483733,10.6598564 Z" id="Fill-7"></path>
                            <path d="M28.6212341,10.1099471 L28.6052088,9.99996519 C28.4930312,9.60128089 28.3007269,9.23009206 28.0122703,8.8863987 C27.9802196,8.8451555 27.8682023,8.81766003 27.7880755,8.81766003 C27.643687,8.8039123 27.5156443,8.8451555 27.4355175,8.92764191 C27.2430529,9.09261472 27.291129,9.285083 27.3392051,9.34007394 C27.5795855,9.62877636 27.7398392,9.95872199 27.8039406,10.3161631 L27.8039406,10.3299108 C27.819966,10.426145 27.819966,10.5223791 27.8361516,10.5911178 L27.8361516,10.7423429 C27.819966,11.7596752 27.1150103,12.598287 26.0091,12.9282326 C25.4001362,13.1069532 24.7432565,13.1069532 24.1503181,12.9282326 C23.5732448,12.7495121 23.0924839,12.4058187 22.7559513,11.9383957 C22.611723,11.7321797 22.4835201,11.4984682 22.4033933,11.2647568 L22.3875282,11.2235136 C22.3713426,11.1547749 22.3553172,11.0860362 22.3394521,11.0035498 C22.3394521,10.9760543 22.3232665,10.9485589 22.2751904,10.9348111 C22.1791985,10.8935679 21.9546831,10.8798202 21.8104549,10.9348111 C21.6021252,11.0172975 21.5219983,11.2235136 21.538184,11.306 C21.7143027,12.0071344 22.1791985,12.6532779 22.8682891,13.1069532 L22.9162049,13.1344486 C23.2367122,13.3406647 23.5732448,13.5056375 23.9258028,13.6018716 C24.2943861,13.7118535 24.6789948,13.7668444 25.0796289,13.7668444 C25.4643979,13.7668444 25.8488463,13.7118535 26.2336153,13.6156194 C26.5541226,13.5331329 26.8584442,13.3956556 27.147061,13.2306828 C27.9802196,12.7495121 28.5092168,12.0071344 28.6374197,11.1547749 C28.6694705,10.9760543 28.6853356,10.838577 28.6853356,10.7010996 C28.6853356,10.4948836 28.6694705,10.3024154 28.6212341,10.1099471" id="Fill-9"></path>
                            <path d="M9.45493209,3.0160886 L9.45493209,3.70347532 L6.08960587,3.70347532 L6.08960587,3.23605235 C6.9870262,3.11232274 7.90047188,3.07107954 8.79789221,3.04358407 C9.00622193,3.04358407 9.23057701,3.02983634 9.45493209,3.0160886 L9.45493209,3.0160886 Z M14.3907439,4.50084392 C14.3747185,4.6108258 14.3426678,4.76205087 14.3266424,4.78954634 C14.262541,4.89952822 14.1183127,5.00951009 13.9580591,5.1332397 C13.8458815,5.21572611 13.7176786,5.32570799 13.5894757,5.43568986 C13.0125627,5.95810377 12.4196242,6.50801315 12.3555228,7.04417479 C12.3074467,7.45660683 12.5478271,8.18523675 12.9805119,8.58405853 C13.2689685,8.845128 13.5413996,8.90011894 13.733704,8.90011894 C14.1663888,8.90011894 15.4323925,8.87262347 16.5541679,8.85901322 C17.5156897,8.845128 18.4132702,8.83138027 18.6855412,8.83138027 C19.4549188,8.83138027 19.9675702,8.10288782 20.256187,7.48423977 C20.5766942,6.81046331 20.7688383,5.99934697 20.7848637,5.60066268 C20.8170747,4.76205087 20.5605086,2.19122453 19.118226,1.50383781 C18.8297694,1.36636047 18.493397,1.36636047 18.1406788,1.35261273 C17.9964505,1.35261273 17.8523825,1.35261273 17.7400447,1.338865 L19.166302,0.802703356 C19.2304035,0.885189762 19.3105303,0.967676169 19.3906571,1.06391031 L19.4387332,1.10515351 L20.1278238,0.788955621 C20.2400014,0.747712418 20.3682043,0.747712418 20.4643564,0.775207887 C20.6085847,0.802703356 20.7207622,0.885189762 20.7848637,0.995171638 C20.8972015,1.17389219 20.8649905,1.3801082 20.6887115,1.53133328 L20.1117985,1.97126078 L20.1438492,2.02625172 C20.8972015,3.15356595 22.3072732,5.61441041 22.5957297,6.10932885 L22.5798646,6.12307658 L23.0123891,6.74172463 L23.0764906,6.7279769 C23.7495558,6.52176088 24.374545,6.42552674 24.9514581,6.42552674 C26.0572081,6.42552674 26.9386031,6.81046331 27.5477271,7.5665887 L21.0252441,9.93119903 L21.1213963,9.58750566 C21.1213963,9.57375793 21.1375819,9.47766127 21.0733202,9.40892259 C21.0252441,9.35379418 20.929092,9.32629871 20.8170747,9.32629871 L11.6824575,9.32629871 L11.6183561,9.32629871 C11.9709141,8.73514613 12.0830916,8.11649808 11.9869394,7.42911136 C11.8266858,6.39803127 11.1215698,5.50442853 10.2401749,5.18823064 C8.8459683,4.70705994 7.08317837,5.02325783 6.08960587,5.28446478 L6.08960587,4.2946279 L14.43882,4.2946279 C14.4227946,4.36336658 14.4067692,4.41835751 14.3907439,4.50084392 L14.3907439,4.50084392 Z M10.2722256,3.70347532 L10.2722256,2.9748454 C12.1151423,2.91985446 13.6696025,2.91985446 14.4227946,2.93360219 L14.4548453,3.70347532 L10.2722256,3.70347532 Z M10.7209358,9.36754191 L10.7209358,9.36754191 L10.8010626,9.39503738 L10.7209358,9.36754191 Z M6.20178341,8.44658118 C6.20178341,8.22647995 6.00947906,8.11649808 5.86525079,8.11649808 L3.63772534,8.11649808 C3.70182679,8.0065162 3.78195361,7.89667181 3.87810578,7.78655245 L6.5543414,7.78655245 C6.79472184,7.78655245 6.90689938,7.62171712 6.90689938,7.47035456 C6.90689938,7.30538175 6.77869648,7.1266612 6.5543414,7.1266612 C5.86525079,7.1266612 4.90372901,7.11291346 4.50309494,7.11291346 C5.44859135,6.20556299 6.53831603,5.61441041 8.66968931,5.61441041 C9.79146471,5.64190588 10.5446568,5.95810377 10.9292655,6.52176088 C11.5863054,7.48423977 10.9933669,8.91386668 10.7209358,9.34018392 L2.85248255,9.34018392 C2.91658401,9.17507363 2.99671082,8.98260535 3.10888836,8.7626416 L5.84922543,8.7626416 C6.00947906,8.77638933 6.20178341,8.66640746 6.20178341,8.44658118 L6.20178341,8.44658118 Z M28.5411394,7.59408417 C27.7881076,6.3705358 26.5539944,5.72439229 24.9514581,5.72439229 C24.4706972,5.72439229 23.9420205,5.77938322 23.3969979,5.90311283 C23.2208791,5.60066268 22.0189769,3.49725931 21.1694724,2.16372907 C21.682284,1.80628797 21.8265123,1.17389219 21.5220304,0.678973746 C21.3457514,0.390271322 21.0412695,0.19780304 20.6887115,0.101568899 C20.3521789,0.0190824925 19.9835955,0.0465779614 19.6630883,0.184055306 C19.6470629,0.170307571 19.6310376,0.156559837 19.6310376,0.142812102 C19.51886,0.00533475804 19.2946652,-0.0359084453 19.118226,0.0328302269 L17.002878,0.81645109 C16.826599,0.885189762 16.7144215,1.05016258 16.7624976,1.21513539 C16.9227512,1.87502664 17.1951824,1.97126078 17.2914948,1.99875625 C17.5477404,2.08124266 17.8361969,2.08124266 18.1086281,2.09499039 C18.3009324,2.09499039 18.5735239,2.09499039 18.6855412,2.14998133 C19.5350456,2.56241336 19.9515448,4.41835751 19.9194941,5.58691494 C19.8874434,6.53550862 19.1983528,8.21273222 18.7337775,8.21273222 C18.4611861,8.21273222 17.5637657,8.22647995 16.602244,8.24036517 C15.5125193,8.25397542 14.2785663,8.26772316 13.8458815,8.26772316 C13.8138308,8.25397542 13.6856279,8.17162649 13.6215265,8.11649808 C13.3651207,7.88278659 13.1888417,7.37412042 13.2208924,7.1266612 C13.2529431,6.82421104 13.8138308,6.31554487 14.2144649,5.94435604 L14.262541,5.90311283 C14.615099,5.58691494 14.9356062,5.28446478 15.1118852,5.00951009 C15.1439359,4.95451916 15.3041896,4.6933122 15.3041896,4.18464603 C15.3041896,3.66223212 15.2721388,2.76862938 15.2721388,2.75488165 C15.2721388,2.56241336 15.0798345,2.41118829 14.8554794,2.41118829 C14.791378,2.41118829 8.15687769,2.30120641 5.73704789,2.74113391 C5.59281962,2.76862938 5.44859135,2.82362032 5.44859135,3.0160886 L5.44859135,5.60066268 C3.57362389,6.59049956 2.00313832,8.92775189 1.9230115,9.73873074 C1.9230115,9.77997395 1.9230115,9.8900933 1.98711296,9.95883197 C2.01916368,9.98618996 2.06723977,9.9999377 2.11531586,9.9999377 L20.0797477,9.9999377 L19.9356797,10.398622 C19.8874434,10.5360993 19.9194941,10.7698108 20.047697,10.866045 C20.1278238,10.9211734 20.223976,10.9622791 20.3363138,10.9622791 C20.3842296,10.9622791 20.4483311,10.9485314 20.5124325,10.9347836 L28.3328096,8.08900261 C28.4449872,8.04775941 28.525114,7.96541048 28.5731901,7.88278659 C28.6052408,7.80030019 28.6052408,7.69045579 28.5411394,7.59408417 L28.5411394,7.59408417 Z" id="Fill-11"></path>
                        </g>
                    </g>
                </g>
            </g>
        </g>
    </g>
</svg>
