<?xml version="1.0" encoding="utf-8"?>
<!-- Generator: Adobe Illustrator 20.0.0, SVG Export Plug-In . SVG Version: 6.00 Build 0)  -->
<svg version="1.0" id="Layer_1" xmlns="http://www.w3.org/2000/svg" aria-labelledby="fd-bottle-fkw" xmlns:xlink="http://www.w3.org/1999/xlink" x="0px" y="0px"
	 viewBox="0 0 102.8 24" enable-background="new 0 0 102.8 24" xml:space="preserve">
	 <title id="fd-bottle-fkw">fresh direct bottle</title>
<g>
	<path d="M60.6,0c4.6,0,8.5,1.5,12.4,3.9c2.7,1.7,6.2,2.6,9.5,3c5.3,0.5,10.7,0.2,16,0.2c2.8,0,4.2,1,4.3,4c0.1,4.3-0.5,5.6-3.9,5.8
		c-6,0.3-12,0.4-18,0.5c-3.3,0-6,1.3-8.8,3c-3,1.8-6.6,3.4-10,3.4C44.2,24,26.4,23.9,8.6,23.8c-1.6,0-3.2-0.2-4.7-0.6
		C1.4,22.6,0,21,0,18.3c0-3.9,0-7.7,0-11.6c0.1-4.4,1.7-6.4,6.1-6.4C15.8,0.1,52.1,0.1,60.6,0z M6.8,1.5c-3.9,0-5.4,1.4-5.5,4.9
		c-0.1,3.7,0,7.5,0,11.2c0,2.9,1.4,4.5,4.3,4.6c3.8,0.1,41.4,0.3,56.3,0.1c3,0,6.5-0.9,8.8-2.7c3.6-2.9,7.3-3.8,11.6-3.8
		c5.1,0,10.2-0.1,15.3-0.2c2.5,0,4-0.9,3.9-3.8c-0.1-2.8-1.2-3.7-3.9-3.6c-4.9,0.2-9.7,0-14.6-0.1c-4.4-0.1-8.4-1.2-12-3.9
		c-2-1.5-4.7-2.6-7.1-2.6C54,1.4,16,1.4,6.8,1.5z"/>
	<g id="cqRZ81.tif">
		<g>
			<path d="M15.4,5.3c0.3,0.1,0.5,0.3,0.4,0.6c0,0.1,0,0.2,0,0.3c-0.1,0.3-0.1,0.5-0.2,0.8c-0.2-0.1-0.5-0.2-0.7-0.2
				c-0.4-0.2-0.8,0-1.1,0.3c-0.4,0.4-0.5,1-0.5,1.6c0,0.2,0.1,0.3,0.3,0.2c0.1,0,0.2,0,0.4-0.1c0.6-0.1,1,0.2,0.8,0.8
				c0,0.1-0.2,0.2-0.4,0.3c-0.9,0.3-0.9,0.3-0.9,1.3c0.2,1.9,0.3,3.7,0.5,5.6c0,0.4-0.1,0.6-0.4,0.7c-1.1,0.3-0.9,0.4-1.2-0.7
				c-0.5-1.8-1-3.7-1.4-5.5c-0.1-0.4-0.2-0.6-0.7-0.5c-0.5,0.1-0.5,0.1-0.6-0.4c0-0.1,0-0.1,0-0.2c-0.1-0.7-0.1-0.7,0.6-0.8
				c0.3,0,0.3-0.2,0.3-0.4c0-0.5,0-1.1,0.1-1.6c0.2-1.2,0.9-2,2.2-2.3C14.1,4.7,15,5.1,15.4,5.3z"/>
			<path d="M5,11.3c1.1,0.9,2.6,1,3.9,1.4c0.5,0.1,1.1,0.3,1.5,0.6c0.4,0.2,0.7,0.6,0.9,1c0.4,0.9,0.1,1.4-0.8,1.6
				c-0.6,0.1-1.3,0.2-1.9,0.2c-1.9-0.1-3-1.2-3.4-3.1C5.1,12.8,5,11.7,5,11.3z"/>
			<path d="M41.8,8.4c0-0.5,0-0.9,0-1.4c0-0.3,0.1-0.4,0.4-0.3c0.5,0.1,1,0.2,1.5,0.3c0.3,0.1,0.3,0.3,0.3,0.5c0,0.7,0,1.3,0,2
				c-0.1,2.4-0.1,4.9-0.2,7.3c0,0.6,0,0.6-0.6,0.6c-0.3,0-0.6,0-0.9,0c-0.1,0-0.3,0-0.3-0.1c-0.2-0.7-0.4-0.2-0.6-0.1
				c-1,0.5-2.7,0.4-3.2-1.3c-0.4-1.3-0.3-2.6,0-3.9c0.4-1.5,1.7-2.3,3.2-1.9c0.5,0.1,0.5,0.1,0.5-0.4C41.8,9.3,41.8,8.8,41.8,8.4
				C41.8,8.4,41.8,8.4,41.8,8.4z M42,13.5c0-0.4-0.1-0.9-0.1-1.3c0-0.4-0.2-0.6-0.6-0.7c-0.4-0.1-0.6,0.1-0.8,0.4
				c-0.1,0.1-0.2,0.3-0.3,0.5c-0.3,1-0.3,2.1,0,3.1c0.1,0.2,0.4,0.5,0.6,0.5c0.2,0,0.6-0.2,0.8-0.4c0.2-0.2,0.2-0.5,0.3-0.7
				C41.9,14.4,41.9,13.9,42,13.5z"/>
			<path d="M37.3,16.7c0,0.3-0.1,0.5-0.5,0.6c-0.3,0-0.7,0.1-1,0.2c-0.4,0.1-0.5,0-0.5-0.4c0.1-1.1,0.2-2.2,0.3-3.2
				c0-0.7,0.1-1.3,0.1-2c0-0.3-0.1-0.6-0.5-0.8c-0.4-0.1-0.7,0-0.9,0.3c-0.2,0.4-0.4,0.8-0.5,1.2c-0.1,1.4-0.2,2.9-0.2,4.3
				c0,0.4-0.2,0.6-0.6,0.6c-1.3,0-1.1,0.3-1.2-1.2c-0.2-2.8-0.4-5.6-0.6-8.4c-0.1-0.7-0.1-0.7,0.6-0.8c0.5-0.1,1-0.2,1.5-0.3
				c0.6-0.1,0.6-0.1,0.6,0.5c-0.1,0.9-0.1,1.8-0.1,2.7c0,0.3,0,0.5,0.3,0.2c1.4-1,3.2,0.1,3.4,1.7C37.6,12.7,37.3,15.9,37.3,16.7z"
				/>
			<path d="M25.5,13.5c-0.1,0.7-0.1,0.7-0.8,0.6c-0.8-0.1-1.6-0.1-2.4-0.2c-0.4,0-0.5,0.1-0.4,0.4c0.1,0.6,0.3,1.2,0.9,1.5
				c0.7,0.3,1.3,0.3,1.9-0.2c0.4-0.3,0.4-0.3,0.6,0.2c0.3,0.8,0.2,0.9-0.5,1.2c-2.3,0.9-4.9-0.3-5.4-2.6c-0.3-1.3-0.1-2.6,0.8-3.7
				c0.9-1.1,2-1.4,3.3-1.3c1.1,0.2,2,1.3,2.1,2.5C25.6,12.4,25.5,13.2,25.5,13.5z M22.4,12.8c1.2-0.1,1.4-0.3,1-1.2
				c-0.2-0.6-0.8-0.7-1.1-0.2c-0.2,0.2-0.3,0.6-0.4,0.9C21.8,12.7,21.9,12.8,22.4,12.8z"/>
			<path d="M55.5,17.5c-1.9-0.1-3.4-1.2-3.8-2.8c-0.4-2,0.4-3.9,2-4.7c0.7-0.3,1.4-0.5,2.2-0.3c1.1,0.2,1.9,1.3,2,2.5
				c0,0.5-0.1,1-0.1,1.5c0,0.4-0.2,0.5-0.6,0.5c-0.8-0.1-1.5-0.1-2.3-0.2c-0.7-0.1-0.8,0.1-0.7,0.8c0.3,1.4,1.6,1.8,2.8,1.1
				c0.4-0.3,0.4-0.2,0.6,0.2c0.3,0.7,0.2,0.9-0.5,1.1C56.6,17.3,56,17.4,55.5,17.5z M54.8,12.8c1.2,0,1.4-0.3,1-1.3
				c-0.2-0.5-0.8-0.7-1.2-0.2c-0.2,0.2-0.3,0.6-0.4,0.9C54.1,12.8,54.1,12.8,54.8,12.8z"/>
			<path d="M26.2,17c-0.3-0.1-0.4-0.3-0.3-0.6c0.1-0.5,0.2-1.1,0.4-1.6c0.1-0.4,0.2-0.4,0.5-0.2c0.5,0.3,1,0.6,1.5,0.9
				c0.1,0.1,0.5,0.1,0.6-0.1c0.1-0.2-0.1-0.5-0.2-0.6c-0.5-0.3-1-0.6-1.5-0.9c-1-0.7-1.3-1.8-0.9-2.9c0.3-0.9,1.2-1.5,2.1-1.5
				c1,0,1.8,0.3,2.5,0.9c0.2,0.2,0.3,0.4,0,0.7c-0.7,0.7-0.7,0.7-1.6,0.3c-0.2-0.1-0.5-0.2-0.7-0.3c-0.1,0-0.4,0-0.4,0.1
				c-0.1,0.1,0,0.4,0,0.5c0.1,0.2,0.3,0.3,0.5,0.5c0.4,0.3,0.8,0.6,1.2,0.9c0.9,0.8,1.2,1.9,0.7,2.9C30.2,16.9,28.3,17.9,26.2,17z"
				/>
			<path d="M64.2,14.1c0-0.7,0.1-1.5,0.1-2.2c0-0.3,0-0.5-0.4-0.6c-0.1,0-0.3-0.2-0.3-0.3c0-0.3-0.1-0.7,0.3-0.8
				c0.7-0.1,0.7-0.6,0.8-1.1c0-0.1,0-0.3,0-0.4c0-0.3,0.1-0.5,0.5-0.5c1-0.2,1-0.2,1.1,0.9c0,0.1,0,0.1,0,0.2c0,0.9-0.1,0.8,0.8,0.8
				c0.4,0,0.5,0.1,0.5,0.5c0,0.1,0,0.2,0,0.4c0,0.5,0,0.6-0.5,0.6c-0.1,0-0.2,0-0.3,0c-0.5-0.1-0.6,0.1-0.6,0.5c0,0.9,0,1.8,0,2.8
				c0,0.6,0.1,0.7,0.7,0.7c0.5,0,0.6,0.2,0.7,0.6c0.2,1.2,0.1,1.4-1.2,1.4c-1.4,0-2.1-0.6-2.2-2C64.2,15,64.2,14.6,64.2,14.1
				C64.2,14.1,64.2,14.1,64.2,14.1z"/>
			<path d="M19.2,11.3c0,0.1,0,0.3,0,0.4c0,0.6,0,0.6-0.6,0.7c-0.5,0-0.9,0.3-1,0.7c-0.2,0.6-0.4,1.2-0.4,1.8
				C17,15.5,17,16.2,17,16.9c0,0.3-0.1,0.4-0.4,0.5c-0.9,0.1-0.9,0.1-1.1-0.8c-0.3-1.9-0.6-3.8-0.9-5.8c-0.1-0.7-0.1-0.7,0.6-0.9
				c0.4-0.1,0.8-0.2,1.2-0.3c0.3-0.1,0.6-0.1,0.6,0.3c0,0.1,0.1,0.2,0.1,0.3c0.1-0.1,0.2-0.1,0.3-0.2c0.4-0.4,0.8-0.6,1.3-0.6
				c0.3,0,0.4,0.1,0.4,0.4C19.1,10.3,19.1,10.8,19.2,11.3z"/>
			<path d="M58.1,14c0-1.3,0.3-2.5,1.4-3.3c1-0.7,2.1-0.8,3.2-0.5c0.2,0.1,0.6,0.3,0.6,0.5c0,0.3-0.2,0.7-0.4,1c0,0-0.2,0-0.3-0.1
				c-0.7-0.5-1.2-0.4-1.7,0.3c-0.7,1-0.7,3-0.1,4c0.5,0.7,1.2,0.8,1.9,0.4c0.3-0.2,0.5-0.2,0.6,0.2c0,0.1,0,0.1,0,0.2
				c0.2,0.7,0.1,0.8-0.5,0.9c-0.7,0.1-1.5,0.1-2.2,0c-1.5-0.2-2.4-1.4-2.5-2.9C58.1,14.4,58.1,14.2,58.1,14z"/>
			<path d="M51.4,11.2c0,0.1,0,0.2,0,0.3c0,0.7,0,0.7-0.7,0.8c-0.5,0.1-0.8,0.3-0.9,0.7c-0.2,0.6-0.3,1.2-0.4,1.8
				c-0.1,0.7-0.1,1.4-0.1,2c0,0.4-0.2,0.5-0.5,0.5c-0.1,0-0.3,0-0.4,0c-0.3,0-0.5-0.1-0.5-0.4c-0.2-1-0.3-2.1-0.5-3.1
				c-0.2-1-0.3-2.1-0.5-3.1c-0.1-0.4,0-0.6,0.4-0.7c0.5-0.1,1-0.2,1.5-0.4c0.3-0.1,0.4,0,0.5,0.3c0.1,0.5,0.1,0.4,0.5,0.2
				c0.4-0.2,0.8-0.4,1.2-0.5c0.3-0.1,0.4,0,0.5,0.4C51.3,10.4,51.4,10.8,51.4,11.2C51.4,11.2,51.4,11.2,51.4,11.2z"/>
			<path d="M44.4,15.7c0.1-1.7,0.1-3.3,0.2-5c0-0.4,0.1-0.6,0.6-0.6c1.2,0,1.2,0,1.2,1.2c0.1,1.9,0.1,3.7,0.2,5.6
				c0,0.5,0,0.6-0.5,0.6c-0.4,0-0.8,0-1.2,0c-0.4,0-0.5-0.2-0.5-0.5C44.4,16.5,44.4,16.1,44.4,15.7C44.4,15.7,44.4,15.7,44.4,15.7z"
				/>
			<path d="M45.6,9.6c-0.1,0-0.2,0-0.4,0c-0.2,0-0.4-0.1-0.4-0.3c-0.1-0.2,0-0.5,0.2-0.7c0.1-0.2,0.4-0.3,0.6-0.4
				c0.6-0.2,1.2-0.5,1.8-0.7c0,0,0.2,0.1,0.2,0.1C47.7,8.7,46.9,9.7,45.6,9.6z"/>
		</g>
	</g>
</g>
</svg>
