<svg xmlns="http://www.w3.org/2000/svg" width="97" height="23" aria-labelledby="fd-wine-fkw" viewBox="0 0 97 23">
  <title id="fd-wine-fkw">freshdirect wine</title>
    <g fill="none" fill-rule="evenodd">
        <path fill="#000" d="M33.377.338C41.637.336 49.899.37 58.16.32c4.244-.026 7.67 1.34 10.86 4.06 1.668 1.421 4.363 2.31 6.664 2.455 5.845.37 11.73.154 17.597.236 3.474.048 3.641.518 3.682 4.857.026 2.83-1.483 3.366-4.064 3.386-6.49.048-12.99.126-19.462.52-1.64.1-3.544 1.105-4.718 2.243-2.78 2.693-5.995 3.825-9.91 3.81-15.544-.06-31.093-.526-46.631-.1-5.082.139-6.754.14-8.834-.429C1.251 20.787.11 19.831.134 17.69c.045-4.168.03-8.336 0-12.505-.02-2.715 1.51-4.13 4.247-4.52C5.664.48 6.972.357 8.269.352 16.638.327 25.007.34 33.377.338"/>
        <g fill="#FFF">
            <path d="M59.448 16.023l-.255-.964c-.015-.063-.053-.117-.112-.138a.164.164 0 0 0-.164.022l-.169.13c-.16.139-.36.314-.711.314-1.127.002-1.547-1.267-1.567-2.354-.022-1.274.484-2.58 1.487-2.6.313-.008.461.16.593.308l.137.136a.17.17 0 0 0 .164.043c.063-.012.103-.062.129-.121l.389-.974a.193.193 0 0 0-.084-.238l-.105-.06c-.244-.142-.607-.357-1.193-.367-1.143-.018-2.142.34-2.81 1.01-.69.694-1.032 1.695-1.01 2.977.035 2.167 1.22 3.343 3.43 3.397.542.013 1.47-.127 1.766-.311a.185.185 0 0 0 .085-.21M47.815 8.803a.189.189 0 0 0-.177-.177c-.88-.053-1.5.494-1.846.952-.012-.356-.028-.717-.028-.717a.199.199 0 0 0-.075-.145.197.197 0 0 0-.164-.03l-2.02.556a.187.187 0 0 0-.135.212l1.077 6.813a.19.19 0 0 0 .21.16l1-.135a.19.19 0 0 0 .161-.176l.152-2.595c.072-1.473.776-2.132 1.4-2.122.012 0 .028 0 .039-.003.049-.007.25-.007.299.003.055.012.121 0 .167-.039a.202.202 0 0 0 .072-.152l-.132-2.405zM53.932 13.032l.045-.522c.033-.386.073-.786.066-.977-.02-.859-.339-1.644-.872-2.153a2.294 2.294 0 0 0-1.68-.632c-.986.026-1.843.391-2.474 1.057-.716.756-1.093 1.84-1.062 3.047.06 2.346 1.983 3.586 3.76 3.56 1.448-.022 2.163-.672 2.191-.7a.191.191 0 0 0 .05-.196l-.288-.92a.205.205 0 0 0-.142-.127.19.19 0 0 0-.18.058c-.004.004-.495.534-1.092.522-1.188-.024-1.713-.628-1.795-2.052l3.272.212a.195.195 0 0 0 .2-.177m-3.414-1.203c.008-.662.149-1.17.405-1.44a.692.692 0 0 1 .517-.228c.164-.004.281.034.374.124.247.237.315.833.34 1.428-.269.017-1.34.093-1.636.116M40.706 6.168l-1.908-.388a.193.193 0 0 0-.155.04.19.19 0 0 0-.071.147v3.439a1.31 1.31 0 0 0-.373-.164 2.663 2.663 0 0 0-.704-.101c-.887 0-1.567.313-2.028.937-.446.604-.673 1.449-.673 2.512v.707c0 1.175.208 1.982.64 2.472.433.486.978.734 1.621.734.42 0 .778-.09 1.066-.264.167-.1.33-.248.49-.433l.02.418c.004.101.09.18.188.18h1.596a.19.19 0 0 0 .189-.184l.252-9.86a.187.187 0 0 0-.15-.192zm-3.818 6.478c0-.645.092-1.13.281-1.48.16-.299.355-.585.688-.647a.682.682 0 0 1 .448.091l.047.026c.085.047.175.094.223.313.087.342.13.948.13 1.549 0 .598-.043 1.19-.125 1.505-.053.205-.22.556-.357.66a.875.875 0 0 1-.53.178c-.275 0-.462-.104-.588-.332-.143-.255-.217-.723-.217-1.389v-.474zM43.07 9.407a.188.188 0 0 0-.19-.184h-1.415a.19.19 0 0 0-.188.184l-.238 6.8a.21.21 0 0 0 .053.14.199.199 0 0 0 .135.057h1.892c.05 0 .099-.022.137-.057a.199.199 0 0 0 .05-.14l-.237-6.8zM63.546 16.057l-.174-1.452a.189.189 0 0 0-.07-.13.2.2 0 0 0-.145-.035c-.058.01-.24 0-.35-.004l-.134-.005h-.021c-.22-.006-.367-.04-.435-.102-.074-.068-.075-.186-.061-.533v-.016s.018-2.789.022-3.136l1.101.045a.175.175 0 0 0 .14-.057.178.178 0 0 0 .056-.126v-.019l-.07-1.125a.189.189 0 0 0-.19-.177l-1.112.006c-.008-.306-.032-1.757-.032-1.757a.215.215 0 0 0-.07-.144.203.203 0 0 0-.154-.04l-1.129.198a.188.188 0 0 0-.154.17l-.137 1.563c-.203.03-.725.112-.725.112a.191.191 0 0 0-.16.18l-.035.853a.19.19 0 0 0 .183.2s.296.01.496.019l-.133 3.268c-.035.806.11 1.447.424 1.902.326.47.792.722 1.38.745.246.013.507 0 .773-.03.389-.05.654-.107.808-.177a.196.196 0 0 0 .108-.196M25.827 10.098c.65.146 1.385.725 1.392.73.073.06.183.053.253-.018l.825-.844a.195.195 0 0 0 .02-.24c-.032-.046-.81-1.162-2.586-1.162-1.307 0-2.293 1.044-2.293 2.427 0 1.446 1.088 2.035 1.878 2.464.481.26.895.485.895.789 0 .18-.087.274-.254.282-.359.014-1.118-.321-1.935-1.092a.187.187 0 0 0-.186-.043.191.191 0 0 0-.128.139l-.467 2.082a.188.188 0 0 0 .09.205c.748.434 1.68.587 2.306.587 1.171 0 2.434-.987 2.434-2.581 0-1.315-.96-1.968-1.732-2.492-.472-.323-.88-.6-.919-.927a.291.291 0 0 1 .09-.248c.076-.068.186-.089.317-.058M13.672 4.717l-.018-.008c-.415-.226-1.26-.592-2.273-.53-1.761.103-2.712 1.295-2.712 3.368 0 .14.003.284.012.433l.024.417-.811.017a.19.19 0 0 0-.137.067.184.184 0 0 0-.045.146l.141 1.185c.006.053.035.101.077.13.045.032.1.044.15.032 0 0 .595-.128.836-.183l1.708 6.64a.188.188 0 0 0 .24.133l1.047-.333c.08-.026.134-.1.134-.18v-.017s-.55-6.426-.574-6.727l1.157-.311a.19.19 0 0 0 .142-.183v-.024l-.105-.807a.196.196 0 0 0-.076-.13.192.192 0 0 0-.149-.03l-1.1.229.005-.178c.009-1.159.488-1.932 1.219-1.976.137-.01.37.133.54.237l.215.125c.052.03.114.03.17.003a.185.185 0 0 0 .1-.144l.182-1.203a.196.196 0 0 0-.1-.198"/>
            <path d="M16.843 8.803a.19.19 0 0 0-.177-.177c-.88-.053-1.501.494-1.847.952-.015-.356-.028-.717-.028-.717a.19.19 0 0 0-.24-.174l-2.018.555a.187.187 0 0 0-.135.212l1.078 6.813a.19.19 0 0 0 .21.16l.997-.135a.186.186 0 0 0 .162-.176l.153-2.595c.072-1.473.775-2.132 1.402-2.122.01 0 .024 0 .037-.003.048-.007.248-.007.295.003.06.012.125 0 .17-.039a.193.193 0 0 0 .072-.152l-.13-2.405zM22.959 13.032l.045-.522c.034-.386.073-.786.067-.977-.02-.859-.339-1.644-.874-2.153a2.287 2.287 0 0 0-1.676-.632c-.99.026-1.844.391-2.477 1.057-.715.756-1.092 1.84-1.061 3.047.059 2.346 1.98 3.586 3.76 3.56 1.448-.022 2.16-.672 2.192-.7a.195.195 0 0 0 .05-.196l-.29-.92a.199.199 0 0 0-.141-.127.187.187 0 0 0-.18.058c-.004.004-.495.534-1.092.522-1.188-.024-1.713-.628-1.797-2.052l3.274.212a.192.192 0 0 0 .2-.177m-3.416-1.203c.01-.662.15-1.17.405-1.44a.7.7 0 0 1 .517-.228c.165-.004.283.034.376.124.248.237.315.833.338 1.428-.27.017-1.338.093-1.636.116M33.819 9.531c-.413-.431-.974-.7-1.461-.7-.6 0-1.108.218-1.497.63l.168-3.474v-.01a.191.191 0 0 0-.231-.185l-2.313.527a.188.188 0 0 0-.146.199l.714 9.673c.008.101.093.178.192.177l1.311-.034a.19.19 0 0 0 .186-.18l.205-4.556c.03-.734.487-1.52 1.123-1.52.197 0 .344.057.453.17.297.323.242 1.051.208 1.486l-.337 4.461a.19.19 0 0 0 .06.155.199.199 0 0 0 .16.047l1.568-.289a.19.19 0 0 0 .154-.18l.21-4.377c.028-.782-.23-1.498-.727-2.02M9.38 14.607s.944-2.169-2.113-2.854c-3.056-.688-3.713-1.013-3.846-1.547-.131-.535-.962 6.689 5.96 4.4M41.458 8.645s-.492-.976.899-1.377c1.393-.403 1.689-.569 1.733-.82.046-.25.629 3.062-2.632 2.197M64.542 15.636c.094 0 .178-.01.178-.115 0-.087-.094-.1-.167-.1h-.147v.215h.136zm-.016.11h-.12v.33h-.13v-.765h.3c.188 0 .286.064.286.221 0 .138-.09.196-.194.201l.205.343h-.147l-.2-.33zm.04.487a.527.527 0 0 0 .526-.539c0-.3-.232-.538-.527-.538a.524.524 0 0 0-.524.538c0 .302.227.539.524.539zm0-1.208c.369 0 .667.3.667.67 0 .368-.298.669-.668.669a.67.67 0 0 1 0-1.34z"/>
        </g>
    </g>
</svg>
