<?xml version="1.0" encoding="utf-8"?>
<!-- Generator: Adobe Illustrator 18.1.1, SVG Export Plug-In . SVG Version: 6.00 Build 0)  -->
<!DOCTYPE svg PUBLIC "-//W3C//DTD SVG 1.1//EN" "http://www.w3.org/Graphics/SVG/1.1/DTD/svg11.dtd">
<svg version="1.1" id="Layer_1" xmlns="http://www.w3.org/2000/svg" aria-labelledby="foodkick-logo2-fkw" xmlns:xlink="http://www.w3.org/1999/xlink" x="0px" y="0px"
	 viewBox="0 0 345 244" enable-background="new 0 0 345 244" xml:space="preserve">
	 <title id="foodkick-logo2-fkw">foodkick store</title>
<g>
	<g>
		<path fill="#B485B9" d="M260.4,116.5h-12.8c5.8-3.7,9.6-8.5,10.5-13.3c0.8-4.5-0.7-8.8-4.5-12.8c-1.4-1.5-2.5-2.3-3.3-3
			c-1.7-1.4-2.3-1.9-3.5-5.6c0-0.3,0.1-1.2,0.1-1.9c0.3-2.9,0.8-7.7-1.9-11c-0.2-0.3-0.5-0.6-0.8-0.9c0.1,0,0.3-0.1,0.4-0.1
			c3.1-0.8,6.4-2,8.5-5.4c0.4-0.6,0.4-1.4,0-2c-2-3-5.6-4.1-10-3.2c-2.7,0.6-4.6,1.9-6.5,3.3c-1.6-2.2-4.2-3.3-6.5-3.7
			c-0.9-0.1-1.8,0.4-2,1.3c-0.3,1.3-0.2,2.4,0.4,3.4c0.3,0.5,0.9,0.8,1.5,0.9c0.4,0,0.9-0.1,1.2-0.4c1.1,0.1,2.2,1.5,3.1,3.3
			c-7.5,0.7-8.8,6.7-10.3,13c-0.3,1.1-0.5,2.3-0.8,3.6c-0.7,2.9-2.6,4.5-4.8,6.4c-2.4,2-5,4.3-6.1,8.4c-2.2,8.6,2.3,15.6,8.6,19.7
			h-30.5c0.6-1.6,0.7-3.7,0.6-5.7c0-0.5,0.1-49,0-56.8c-0.2-7.9-2.3-9.8-5.7-12.3l-0.5-0.4c-2.6-1.9-4.2-7.1-4.6-11.5
			c-0.3-2.5-0.3-11.5-0.1-19.2c0-0.3-0.1-0.6-0.2-0.9c1.1-0.8,1.7-2.1,1.7-3.6V4.6c0-2.5-2.1-4.6-4.6-4.6h-7.6
			c-2.5,0-4.6,2.1-4.6,4.6v1.5c0,1.4,0.6,2.7,1.7,3.5c-0.2,0.3-0.3,0.6-0.3,1c0.1,7.2,0.2,16.6-0.1,19.3c-0.5,4.4-2.1,9.6-4.6,11.5
			l-0.5,0.4c-3.4,2.5-5.5,4.4-5.7,12.3c-0.2,7.8-0.4,56.7-0.5,57.3c0,2,0.4,3.8,1.1,5.2h-16.6c4.7-4.5,11.6-13.4,11.6-27.9
			c0-1-0.8-1.8-1.8-1.8H84.9c-0.9,0-1.6,0.6-1.8,1.4c-2.3,11,6.5,23,11.3,28.5h-9.7c-1,0-1.8,0.8-1.8,1.8c0,1,0.8,1.8,1.8,1.8h13.8
			c0.3,0,0.5-0.1,0.7-0.2c0.2-0.1,0.4-0.2,0.6-0.4c0.7-0.7,0.7-1.9,0-2.6c-0.2-0.1-14.7-14.5-13.4-26.8h60.7
			c-0.8,18.1-13.5,26-14,26.4c-0.7,0.4-1,1.3-0.8,2.1c0.2,0.8,0.9,1.3,1.8,1.3h26.5c0,0,0.1,0,0.1,0c0.2,0,0.4,0.1,0.6,0.1
			c0,0,0.1,0,0.1,0c1,0,1.8-0.8,1.8-1.7c0.1-1-0.7-1.9-1.7-1.9c-2.7-0.1-3-4.1-3-5.3c0-0.5,0.3-49.4,0.5-57.2
			c0.1-6.5,1.4-7.4,4.2-9.4l0.5-0.4c3.7-2.7,5.6-9,6.1-14c0.3-3.1,0.2-13.3,0.2-17.9h6.5c-0.1,4.6-0.2,14.7,0.2,17.8
			c0.5,5,2.4,11.3,6.1,14l0.5,0.4c2.7,1.9,4,2.9,4.2,9.4c0.2,7.7,0,56.2,0,56.8c0.1,4.5-0.5,5.4-2.4,5.7h-0.5c-0.1,0-0.2,0-0.3,0.1
			c-0.1,0-0.2,0-0.3,0c-1,0-1.8,0.9-1.7,1.9c0,1,0.9,1.8,1.9,1.8c0.3,0,0.6,0,0.9-0.1h42.1c0.7,0,1.3-0.4,1.6-1
			c0.3-0.6,0.3-1.3-0.1-1.9l-0.7-1.1c-0.2-0.3-0.5-0.5-0.9-0.7c-7.2-2.7-13.5-9.3-11.3-17.8c0.8-3,2.7-4.6,4.9-6.5
			c2.3-2,5-4.3,6-8.2c0.3-1.3,0.6-2.5,0.9-3.7c1.6-7.1,2.6-10.3,8.4-10.2c0.3,0,0.6,0,0.8,0c0.1,0,0.1,0,0.2,0c0.1,0,0.1,0,0.2,0
			c2.2,0.2,3.8,0.9,4.8,2.1c1.8,2.2,1.4,5.9,1.1,8.3c-0.2,1.5-0.3,2.5,0,3.3c1.5,4.5,2.6,5.6,4.7,7.3c0.8,0.7,1.8,1.4,3,2.7
			c3,3.1,4.2,6.3,3.6,9.6c-1.1,5.7-7.4,10.5-13,13.2c-0.3,0.1-0.5,0.3-0.7,0.6l-0.7,1c-0.4,0.6-0.5,1.3-0.1,1.9c0.3,0.6,0.9,1,1.6,1
			h18.8c1,0,1.8-0.8,1.8-1.8C262.2,117.3,261.4,116.5,260.4,116.5z M178,6.1c0,0.5-0.4,0.9-1,0.9h-7.6c-0.5,0-0.9-0.4-0.9-0.9V4.6
			c0-0.5,0.4-1,0.9-1h7.6c0.5,0,1,0.4,1,1V6.1z M238.4,63.9c1.8-1.4,3.3-2.5,5.4-3c1.4-0.3,3.7-0.5,5.4,0.8c-1.3,1.4-3,2.1-5.6,2.7
			C241.8,64.9,239.1,64.8,238.4,63.9z"/>
	</g>
</g>
<path fill="#3E1051" d="M0,217.9h13.1v-34.5H30v-11.9H13.1v-25.2h21.5v-11.9H0V217.9z"/>
<path fill="#3E1051" d="M79.6,197.9v-43.4c0-13.4-7-21-19.9-21c-12.9,0-19.9,7.6-19.9,21v43.4c0,13.4,7,21,19.9,21
	C72.6,218.9,79.6,211.2,79.6,197.9z M66.5,198.7c0,6-2.6,8.2-6.8,8.2c-4.2,0-6.8-2.3-6.8-8.2v-45.1c0-6,2.6-8.2,6.8-8.2
	c4.2,0,6.8,2.3,6.8,8.2V198.7z"/>
<path fill="#3E1051" d="M106.9,133.5c-12.9,0-19.9,7.6-19.9,21v43.4c0,13.4,7,21,19.9,21c12.9,0,19.9-7.6,19.9-21v-43.4
	C126.8,141.1,119.8,133.5,106.9,133.5z M113.7,198.7c0,6-2.6,8.2-6.8,8.2c-4.2,0-6.8-2.3-6.8-8.2v-45.1c0-6,2.6-8.2,6.8-8.2
	c4.2,0,6.8,2.3,6.8,8.2V198.7z"/>
<path fill="#3E1051" d="M175.5,155.1c0-13.4-6.4-20.6-19.5-20.6h-20.7v83.5H156c13.1,0,19.5-7.3,19.5-20.6V155.1z M162.4,197.9
	c0,6-2.5,8.1-6.7,8.1h-7.4v-59.6h7.4c4.2,0,6.7,2.1,6.7,8.1V197.9z"/>
<path fill="#732282" d="M214.1,134.4l-17.1,36.4v-36.4h-13.1v83.5h13.1v-25.6l4-7.6l12.7,33.3h13.5l-18.2-46.3l18.2-37.2H214.1z"/>
<path fill="#732282" d="M233.1,217.9h13.1v-83.5h-13.1V217.9z"/>
<path fill="#732282" d="M274.2,133.5c-12.9,0-19.5,7.6-19.5,21v43.4c0,13.4,6.7,21,19.5,21c12.9,0,19.5-7.6,19.5-21v-11.1h-12.4
	v11.9c0,6-2.6,8.1-6.8,8.1c-4.2,0-6.8-2.1-6.8-8.1v-45.1c0-6,2.6-8.2,6.8-8.2c4.2,0,6.8,2.3,6.8,8.2v8.9h12.4v-8.1
	C293.7,141.1,287,133.5,274.2,133.5z"/>
<path fill="#732282" d="M345,134.4h-13.1l-17.1,36.4v-36.4h-13.1v83.5h13.1v-25.6l4-7.6l12.7,33.3H345l-18.2-46.3L345,134.4z"/>
<path fill="#732282" d="M79.2,238.1c0.9-0.4,1.7-1.1,1.7-2.5v0c0-0.7-0.3-1.3-0.7-1.8c-0.6-0.6-1.6-1-2.9-1h-4.7v11h4.9
	c2.4,0,4-1.1,4-3v0C81.6,239.3,80.5,238.5,79.2,238.1z M73.9,233.9h3.3c1.6,0,2.4,0.7,2.4,1.8v0c0,1.3-1,2-2.5,2h-3.2V233.9z
	 M80.3,240.7c0,1.2-1,2-2.7,2h-3.7v-3.9h3.5C79.3,238.8,80.3,239.5,80.3,240.7L80.3,240.7z"/>
<path fill="#732282" d="M92,238.3l-3.7-5.5h-1.5l4.6,6.6v4.3h1.3v-4.4l4.6-6.6h-1.4L92,238.3z"/>
<path fill="#732282" d="M112.7,243.8h1.2V239h5.9v-1.1h-5.9V234h6.6v-1.1h-7.9V243.8z"/>
<path fill="#732282" d="M136,236.1L136,236.1c0-0.9-0.3-1.7-0.8-2.2c-0.7-0.7-1.8-1.1-3.1-1.1h-4.7v11h1.2v-4.3h3.1l3.2,4.3h1.5
	l-3.4-4.5C134.8,239,136,237.9,136,236.1z M128.6,238.4V234h3.4c1.8,0,2.8,0.8,2.8,2.2v0c0,1.4-1.2,2.3-2.8,2.3H128.6z"/>
<path fill="#732282" d="M144.3,238.8h6v-1.1h-6V234h6.7v-1.1h-7.9v11h8v-1.1h-6.8V238.8z"/>
<path fill="#732282" d="M161.9,237.7c-2.4-0.5-3-1.1-3-2.1v0c0-1,0.9-1.8,2.3-1.8c1.1,0,2.1,0.4,3.2,1.2l0.7-1
	c-1.1-0.9-2.3-1.4-3.9-1.4c-2.1,0-3.6,1.3-3.6,3v0c0,1.8,1.2,2.6,3.7,3.2c2.3,0.5,2.9,1.1,2.9,2.1v0c0,1.1-1,1.9-2.4,1.9
	c-1.5,0-2.6-0.5-3.8-1.6l-0.8,0.9c1.3,1.2,2.7,1.8,4.5,1.8c2.2,0,3.7-1.2,3.7-3.1v0C165.4,239.1,164.3,238.3,161.9,237.7z"/>
<path fill="#732282" d="M179.9,237.7h-6.3v-4.9h-1.2v11h1.2v-4.9h6.3v4.9h1.2v-11h-1.2V237.7z"/>
<path fill="#732282" d="M192.5,232.8h-3.8v11h3.8c3.4,0,5.8-2.4,5.8-5.5v0C198.3,235.2,195.9,232.8,192.5,232.8z M197,238.3
	c0,2.4-1.8,4.3-4.5,4.3h-2.6V234h2.6C195.3,234,197,235.9,197,238.3L197,238.3z"/>
<path fill="#732282" d="M205.4,243.8h1.2v-11h-1.2V243.8z"/>
<path fill="#732282" d="M223,236.1L223,236.1c0-0.9-0.3-1.7-0.8-2.2c-0.7-0.7-1.8-1.1-3.1-1.1h-4.7v11h1.2v-4.3h3.1l3.2,4.3h1.5
	l-3.4-4.5C221.7,239,223,237.9,223,236.1z M215.5,238.4V234h3.4c1.8,0,2.8,0.8,2.8,2.2v0c0,1.4-1.2,2.3-2.8,2.3H215.5z"/>
<path fill="#732282" d="M231.2,238.8h6v-1.1h-6V234h6.7v-1.1H230v11h8v-1.1h-6.8V238.8z"/>
<path fill="#732282" d="M249.9,242.9c-2.4,0-4.2-2-4.2-4.5v0c0-2.5,1.8-4.5,4.2-4.5c1.5,0,2.5,0.6,3.4,1.5l0.8-0.9
	c-1.1-1-2.3-1.7-4.3-1.7c-3.2,0-5.5,2.6-5.5,5.7v0c0,3.2,2.3,5.7,5.5,5.7c2,0,3.2-0.8,4.4-1.9l-0.8-0.8
	C252.4,242.3,251.4,242.9,249.9,242.9z"/>
<path fill="#732282" d="M260.1,234h3.7v9.8h1.3V234h3.7v-1.1h-8.6V234z"/>
</svg>
