<?xml version="1.0" encoding="UTF-8" standalone="no"?>
<svg width="152px" height="49px" viewBox="0 0 152 49" version="1.1" aria-labelledby="footer-fk-logo-fkw" xmlns="http://www.w3.org/2000/svg" xmlns:xlink="http://www.w3.org/1999/xlink">
    <!-- Generator: sketchtool 39.1 (31720) - http://www.bohemiancoding.com/sketch -->
    <title id="footer-fk-logo-fkw">foodkick store</title>
    <desc>Created with sketchtool.</desc>
    <defs></defs>
    <g id="Page-1" stroke="none" stroke-width="1"  fill-rule="evenodd">
        <g id="footer---desktop" transform="translate(-111.000000, -130.000000)">
            <g id="Group-6" transform="translate(111.000000, 130.000000)">
                <g id="logo">
                    <g>
                        <path d="M23.2817744,29.17932 C23.2817744,31.7892969 24.4327405,32.7806931 26.2639728,32.7806931 C28.0952052,32.7806931 29.2461713,31.7892969 29.2461713,29.17932 L29.2461713,9.45016615 C29.2461713,6.84060077 28.0952052,5.84920462 26.2639728,5.84920462 C24.4327405,5.84920462 23.2817744,6.84060077 23.2817744,9.45016615 L23.2817744,29.17932 L23.2817744,29.17932 Z M17.5265316,9.81561231 C17.5265316,3.97012 20.6135133,0.629662308 26.2639728,0.629662308 C31.9144324,0.629662308 35.0014141,3.97012 35.0014141,9.81561231 L35.0014141,28.8142854 C35.0014141,34.6593662 31.9144324,37.9998238 26.2639728,37.9998238 C20.6135133,37.9998238 17.5265316,34.6593662 17.5265316,28.8142854 L17.5265316,9.81561231 L17.5265316,9.81561231 Z" id="Fill-2"></path>
                        <path d="M43.9998235,29.17932 C43.9998235,31.7892969 45.1507896,32.7806931 46.9820219,32.7806931 C48.8132543,32.7806931 49.9642204,31.7892969 49.9642204,29.17932 L49.9642204,9.45016615 C49.9642204,6.84060077 48.8132543,5.84920462 46.9820219,5.84920462 C45.1507896,5.84920462 43.9998235,6.84060077 43.9998235,9.45016615 L43.9998235,29.17932 Z M38.2445807,9.81561231 C38.2445807,3.97012 41.3315624,0.629662308 46.9820219,0.629662308 C52.6324815,0.629662308 55.7194632,3.97012 55.7194632,9.81561231 L55.7194632,28.8142854 C55.7194632,34.6593662 52.6324815,37.9998238 46.9820219,37.9998238 C41.3315624,37.9998238 38.2445807,34.6593662 38.2445807,28.8142854 L38.2445807,9.81561231 Z" id="Fill-4"></path>
                        <path d="M65.1886548,6.26642231 L65.1886548,32.3633108 L68.432399,32.3633108 C70.2636313,32.3633108 71.3626183,31.4237685 71.3626183,28.8142031 L71.3626183,9.81553 C71.3626183,7.20596462 70.2636313,6.26642231 68.432399,6.26642231 L65.1886548,6.26642231 Z M59.4338245,1.04729154 L68.5371822,1.04729154 C74.2924251,1.04729154 77.1174486,4.23136462 77.1174486,10.0768569 L77.1174486,28.5532877 C77.1174486,34.39878 74.2924251,37.5824415 68.5371822,37.5824415 L59.4338245,37.5824415 L59.4338245,1.04729154 Z" id="Fill-6"></path>
                        <polygon id="Fill-10" points="102.438454 37.5826885 108.193697 37.5826885 108.193697 1.04753846 102.438454 1.04753846"></polygon>
                        <path d="M129.068385,23.9602304 L129.068385,28.8143265 C129.068385,34.6594073 126.138166,37.999865 120.488119,37.999865 C114.837659,37.999865 111.90744,34.6594073 111.90744,28.8143265 L111.90744,9.81565346 C111.90744,3.97016115 114.837659,0.629703462 120.488119,0.629703462 C126.138166,0.629703462 129.068385,3.97016115 129.068385,9.81565346 L129.068385,13.3647612 L123.627079,13.3647612 L123.627079,9.45020731 C123.627079,6.84064192 122.476113,5.84924577 120.644881,5.84924577 C118.813649,5.84924577 117.662683,6.84064192 117.662683,9.45020731 L117.662683,29.1793612 C117.662683,31.7893381 118.813649,32.7284688 120.644881,32.7284688 C122.476113,32.7284688 123.627079,31.7893381 123.627079,29.1793612 L123.627079,23.9602304 L129.068385,23.9602304 Z" id="Fill-12"></path>
                        <polygon id="Fill-13" points="140.106768 23.0205646 138.327927 26.3610223 138.327927 37.5824415 132.572685 37.5824415 132.572685 1.04729154 138.327927 1.04729154 138.327927 16.9660108 145.862011 1.04729154 151.617254 1.04729154 143.612058 17.3314569 151.617254 37.5824415 145.705249 37.5824415"></polygon>
                        <polygon id="Fill-8" points="88.3131718 23.0205646 86.5343311 26.3610223 86.5343311 37.5824415 80.7790883 37.5824415 80.7790883 1.04729154 86.5343311 1.04729154 86.5343311 16.9660108 94.0684146 1.04729154 99.8236574 1.04729154 91.8184616 17.3314569 99.8236574 37.5824415 93.9116522 37.5824415"></polygon>
                        <path d="M116.461264,48.9175277 L115.91012,48.9175277 L115.91012,44.6083085 L114.291342,44.6083085 L114.291342,44.1070546 L118.080454,44.1070546 L118.080454,44.6083085 L116.461264,44.6083085 L116.461264,48.9175277 Z M109.826501,48.9998354 C108.434616,48.9998354 107.408648,47.9072008 107.408648,46.5190815 C107.408648,45.1445431 108.428016,44.0243354 109.846715,44.0243354 C110.72211,44.0243354 111.245614,44.3334008 111.727864,44.7873277 L111.35576,45.1856969 C110.949003,44.8009085 110.494804,44.5260008 109.840115,44.5260008 C108.772893,44.5260008 107.972992,45.3852931 107.972992,46.5050892 C107.972992,47.6257085 108.779493,48.4985815 109.840115,48.4985815 C110.501405,48.4985815 110.935389,48.2442508 111.397426,47.8043162 L111.755504,48.1545354 C111.252627,48.6631969 110.701483,48.9998354 109.826501,48.9998354 L109.826501,48.9998354 Z M104.562585,44.6017238 L101.620815,44.6017238 L101.620815,46.2441738 L104.252773,46.2441738 L104.252773,46.7392546 L101.620815,46.7392546 L101.620815,48.4228585 L104.596825,48.4228585 L104.596825,48.9175277 L101.076684,48.9175277 L101.076684,44.1070546 L104.562585,44.1070546 L104.562585,44.6017238 Z M96.1984856,44.6083085 L94.7104804,44.6083085 L94.7104804,46.5602354 L96.1914726,46.5602354 C96.9150548,46.5602354 97.4311332,46.1894392 97.4311332,45.5639008 C97.4311332,44.9659354 96.9769347,44.6083085 96.1984856,44.6083085 L96.1984856,44.6083085 Z M97.4864125,48.9175277 L96.0883394,47.04832 L94.7104804,47.04832 L94.7104804,48.9175277 L94.1663499,48.9175277 L94.1663499,44.1070546 L96.2397389,44.1070546 C97.3007728,44.1070546 97.9822768,44.6774469 97.9822768,45.5429123 C97.9822768,46.3470585 97.4311332,46.8149777 96.6737232,46.9516085 L98.1543029,48.9175277 L97.4864125,48.9175277 Z M90.2802924,48.9175277 L90.8248355,48.9175277 L90.8248355,44.1070546 L90.2802924,44.1070546 L90.2802924,48.9175277 Z M84.5894047,44.6083085 L83.4590653,44.6083085 L83.4590653,48.4158623 L84.5894047,48.4158623 C85.8084386,48.4158623 86.5868877,47.5911392 86.5868877,46.5190815 C86.5868877,45.4470238 85.8084386,44.6083085 84.5894047,44.6083085 L84.5894047,44.6083085 Z M84.5894047,48.9175277 L82.9149347,48.9175277 L82.9149347,44.1070546 L84.5894047,44.1070546 C86.1042245,44.1070546 87.1516449,45.1445431 87.1516449,46.5050892 C87.1516449,47.8660469 86.1042245,48.9175277 84.5894047,48.9175277 L84.5894047,48.9175277 Z M76.2937859,46.7524238 L76.2937859,48.9175277 L75.7496554,48.9175277 L75.7496554,44.1070546 L76.2937859,44.1070546 L76.2937859,46.2441738 L79.0771436,46.2441738 L79.0771436,44.1070546 L79.6212742,44.1070546 L79.6212742,48.9175277 L79.0771436,48.9175277 L79.0771436,46.7524238 L76.2937859,46.7524238 Z M71.1404282,46.25117 C72.2150757,46.4849238 72.7109399,46.8767085 72.7109399,47.6187123 C72.7109399,48.45002 72.0220104,48.9858431 71.0645222,48.9858431 C70.2996867,48.9858431 69.6726371,48.7319238 69.0942663,48.2162662 L69.431718,47.8178969 C69.9350078,48.2714123 70.416846,48.4985815 71.0851488,48.4985815 C71.7328251,48.4985815 72.1597963,48.16112 72.1597963,47.6738585 C72.1597963,47.2199315 71.9188773,46.9656008 70.9061097,46.7524238 C69.7972219,46.5120854 69.2869191,46.15487 69.2869191,45.3573085 C69.2869191,44.5877315 69.9552219,44.0379162 70.8718695,44.0379162 C71.574,44.0379162 72.0772898,44.2375123 72.566141,44.6292969 L72.2497285,45.0482431 C71.801718,44.6840315 71.3537076,44.5260008 70.8578433,44.5260008 C70.2307937,44.5260008 69.8314621,44.8696354 69.8314621,45.30957 C69.8314621,45.7700815 70.0793943,46.0244123 71.1404282,46.25117 L71.1404282,46.25117 Z M66.3517493,44.6017238 L63.4099791,44.6017238 L63.4099791,46.2441738 L66.0415248,46.2441738 L66.0415248,46.7392546 L63.4099791,46.7392546 L63.4099791,48.4228585 L66.3859896,48.4228585 L66.3859896,48.9175277 L62.865436,48.9175277 L62.865436,44.1070546 L66.3517493,44.1070546 L66.3517493,44.6017238 Z M57.9876501,44.6083085 L56.4992324,44.6083085 L56.4992324,46.5602354 L57.9806371,46.5602354 C58.7038068,46.5602354 59.2202977,46.1894392 59.2202977,45.5639008 C59.2202977,44.9659354 58.7660992,44.6083085 57.9876501,44.6083085 L57.9876501,44.6083085 Z M59.275577,48.9175277 L57.8770914,47.04832 L56.4992324,47.04832 L56.4992324,48.9175277 L55.9555144,48.9175277 L55.9555144,44.1070546 L58.0289034,44.1070546 C59.0895248,44.1070546 59.7714413,44.6774469 59.7714413,45.5429123 C59.7714413,46.3470585 59.2202977,46.8149777 58.4628877,46.9516085 L59.9438799,48.9175277 L59.275577,48.9175277 Z M52.9716658,44.6083085 L50.0505222,44.6083085 L50.0505222,46.3268931 L52.6618538,46.3268931 L52.6618538,46.8215623 L50.0505222,46.8215623 L50.0505222,48.9175277 L49.5063916,48.9175277 L49.5063916,44.1070546 L52.9716658,44.1070546 L52.9716658,44.6083085 Z M40.7078956,48.9175277 L40.156752,48.9175277 L40.156752,47.0141623 L38.1522559,44.1070546 L38.8135457,44.1070546 L40.4393368,46.5120854 L42.0787415,44.1070546 L42.7123916,44.1070546 L40.7078956,47.0067546 L40.7078956,48.9175277 Z M35.2925796,47.5639777 C35.2925796,47.0347392 34.8519948,46.7318469 34.0112533,46.7318469 L32.4890078,46.7318469 L32.4890078,48.4294431 L34.1077859,48.4294431 C34.8379687,48.4294431 35.2925796,48.1063854 35.2925796,47.5639777 L35.2925796,47.5639777 Z M35.0240209,45.3852931 C35.0240209,44.9042046 34.6453159,44.5947277 33.9563864,44.5947277 L32.4890078,44.5947277 L32.4890078,46.25117 L33.9151332,46.25117 C34.5694099,46.25117 35.0240209,45.9552738 35.0240209,45.3852931 L35.0240209,45.3852931 Z M35.5751645,45.30957 C35.5751645,45.9421046 35.1894465,46.2651623 34.810329,46.4297777 C35.3820992,46.6018008 35.8437232,46.9314431 35.8437232,47.5981354 C35.8437232,48.4294431 35.1481932,48.9175277 34.0941723,48.9175277 L31.9518903,48.9175277 L31.9518903,44.1070546 L34.0042402,44.1070546 C34.9551279,44.1070546 35.5751645,44.5741508 35.5751645,45.30957 L35.5751645,45.30957 Z" id="Fill-14"></path>
                        <path d="M120.839225,45.1188631 C121.000938,45.1188631 121.145737,45.10734 121.145737,44.9139169 C121.145737,44.7583554 121.003826,44.7295477 120.87099,44.7295477 L120.611095,44.7295477 L120.611095,45.1188631 L120.839225,45.1188631 Z M120.611095,45.8250631 L120.420092,45.8250631 L120.420092,44.5682246 L120.899867,44.5682246 C121.197716,44.5682246 121.34499,44.6776938 121.34499,44.92544 C121.34499,45.1505515 121.203491,45.2480862 121.018264,45.2715438 L121.376755,45.8250631 L121.163063,45.8250631 L120.830562,45.2801862 L120.611095,45.2801862 L120.611095,45.8250631 Z M120.842525,46.1044977 C121.336327,46.1044977 121.72617,45.7180631 121.72617,45.1937631 C121.72617,44.6776938 121.336327,44.2883785 120.842525,44.2883785 C120.342536,44.2883785 119.95228,44.6776938 119.95228,45.1937631 C119.95228,45.7180631 120.342536,46.1044977 120.842525,46.1044977 L120.842525,46.1044977 Z M119.732813,45.1937631 C119.732813,44.5682246 120.241465,44.10689 120.842525,44.10689 C121.437397,44.10689 121.94605,44.5682246 121.94605,45.1937631 C121.94605,45.8250631 121.437397,46.2859862 120.842525,46.2859862 C120.241465,46.2859862 119.732813,45.8250631 119.732813,45.1937631 L119.732813,45.1937631 Z" id="Fill-16"></path>
                        <polygon id="Fill-1" points="0 1.047415 0 37.582565 5.75483029 37.582565 5.75483029 22.4984458 13.1845431 22.4984458 13.1845431 17.2797265 5.75483029 17.2797265 5.75483029 6.26654577 15.2249295 6.26654577 15.2249295 1.047415"></polygon>
                    </g>
                </g>
            </g>
        </g>
    </g>
</svg>
