<svg xmlns="http://www.w3.org/2000/svg" width="22" height="26" viewBox="0 0 22 26">
    <path fill="#FFF" fill-rule="evenodd" d="M17.687 10.487c.25.25.554.375.912.375.359 0 .663-.125.913-.375s.375-.554.375-.912a1.24 1.24 0 0 0-.375-.912 1.242 1.242 0 0 0-.913-.375c-.358 0-.662.125-.912.375a1.24 1.24 0 0 0-.375.912c0 .358.125.662.375.912m-1.35-3.175a3.082 3.082 0 0 1 2.262-.937c.884 0 1.638.312 2.263.937s.937 1.38.937 2.263c0 .884-.312 1.638-.937 2.263a3.083 3.083 0 0 1-2.263.937 3.082 3.082 0 0 1-2.262-.937 3.083 3.083 0 0 1-.937-2.263c0-.883.312-1.638.937-2.263m-2.25 9.575c.25.25.554.375.912.375.359 0 .663-.125.913-.375s.375-.553.375-.912c0-.358-.125-.663-.375-.913a1.242 1.242 0 0 0-.913-.375c-.358 0-.662.125-.912.375s-.375.555-.375.913c0 .359.125.662.375.912m-1.35-3.174a3.083 3.083 0 0 1 2.262-.938c.883 0 1.638.313 2.263.938s.938 1.378.938 2.262c0 .883-.313 1.637-.938 2.262a3.085 3.085 0 0 1-2.263.938 3.083 3.083 0 0 1-2.262-.938 3.083 3.083 0 0 1-.938-2.262c0-.884.313-1.637.938-2.262m-2.25 9.575c.25.25.554.375.913.375.358 0 .662-.125.912-.375s.375-.555.375-.913a1.24 1.24 0 0 0-.375-.912 1.241 1.241 0 0 0-.912-.375c-.359 0-.663.125-.913.375a1.24 1.24 0 0 0-.375.912c0 .358.125.663.375.913m1.825-14.625a1.241 1.241 0 0 0-.912-.375c-.359 0-.663.125-.913.375a1.24 1.24 0 0 0-.375.912c0 .358.125.662.375.912s.554.375.913.375c.358 0 .662-.125.912-.375s.375-.554.375-.912a1.24 1.24 0 0 0-.375-.912M9.137 20.112a3.083 3.083 0 0 1 2.263-.937c.883 0 1.638.312 2.263.937s.937 1.38.937 2.263-.312 1.637-.937 2.262a3.085 3.085 0 0 1-2.263.938 3.084 3.084 0 0 1-2.263-.938 3.082 3.082 0 0 1-.937-2.262c0-.883.312-1.638.937-2.263m-2.25-3.225c.25.25.554.375.912.375.359 0 .663-.125.913-.375s.375-.553.375-.912c0-.358-.125-.663-.375-.913a1.242 1.242 0 0 0-.913-.375c-.358 0-.662.125-.912.375s-.375.555-.375.913c0 .359.125.662.375.912m3.5-10.349a3.518 3.518 0 0 0-.331-1.313 4.264 4.264 0 0 0-.7-1.069 6.486 6.486 0 0 0-.943-.837 7.34 7.34 0 0 0-.995-.625 11.081 11.081 0 0 0-.931-.419 10.353 10.353 0 0 0-.662-.244c-.125-.037-.217-.065-.276-.081L6.038 0c1.765.542 3.187 1.292 4.261 2.25l2.5-1.875 1.2 1.6-2.412 1.813c.5.858.767 1.774.8 2.75a3.127 3.127 0 0 1 1.594 1.149c.412.559.619 1.188.619 1.888 0 .884-.312 1.638-.937 2.263a3.084 3.084 0 0 1-2.263.937 3.083 3.083 0 0 1-2.263-.937A3.083 3.083 0 0 1 8.2 9.575c0-.7.204-1.327.612-1.881a3.177 3.177 0 0 1 1.575-1.156m-.325 7.175c.625.625.938 1.378.938 2.262 0 .883-.313 1.637-.938 2.262a3.084 3.084 0 0 1-2.263.938 3.08 3.08 0 0 1-2.261-.938 3.083 3.083 0 0 1-.938-2.262c0-.884.313-1.637.938-2.262a3.08 3.08 0 0 1 2.261-.938c.884 0 1.638.313 2.263.938m-6.774-3.226c.25.25.553.375.912.375.358 0 .662-.125.912-.375s.375-.554.375-.912a1.24 1.24 0 0 0-.375-.912 1.241 1.241 0 0 0-.912-.375 1.24 1.24 0 0 0-.912.375 1.24 1.24 0 0 0-.375.912c0 .358.125.662.375.912m3.174-3.175c.625.625.938 1.38.938 2.263 0 .884-.313 1.638-.938 2.263a3.082 3.082 0 0 1-2.262.937 3.083 3.083 0 0 1-2.263-.937A3.083 3.083 0 0 1 1 9.575c0-.883.312-1.638.937-2.263A3.083 3.083 0 0 1 4.2 6.375c.883 0 1.637.312 2.262.937"/>
</svg>
