<svg width="43" height="33" viewBox="0 0 43 33" aria-labelledby="live-chat-fkw" xmlns="http://www.w3.org/2000/svg"><title id="live-chat-fkw">Live chat</title><g fill="#FEFEFE" fill-rule="evenodd"><path d="M36.565 3.117c1.935 0 3.51 1.525 3.51 3.4V20.29c0 1.875-1.575 3.4-3.51 3.4h-3.697c-.476 0-.921.224-1.195.6a1.38 1.38 0 0 0-.183 1.292l.809 2.198-6.495-3.834a1.5 1.5 0 0 0-.757-.207l-18.54-.049h-.003c-1.935 0-3.51-1.525-3.51-3.4V6.517c0-1.875 1.575-3.4 3.51-3.4h30.06zm-1.504 29.37c.33 0 .656-.107.924-.318a1.39 1.39 0 0 0 .454-1.574l-1.497-4.071h1.623c3.548 0 6.435-2.797 6.435-6.234V6.517C43 3.079 40.113.283 36.565.283H6.504C2.956.283.068 3.08.068 6.517V20.29c0 3.436 2.885 6.231 6.432 6.234l18.13.047 9.67 5.71c.235.138.499.206.761.206z"/><path d="M7.844 9.205H9.93v7.332h3.746v1.583H7.844zM15.747 18.12h2.098V9.207h-2.098zM19.775 9.205h2.202l2.188 6.845 2.188-6.845h1.957l-3.064 8.915h-2.394zM30.188 9.205h5.998v1.571H32.26v2.083h3.141v1.471h-3.14v2.22h4.131v1.57h-6.204z"/></g></svg>
