<?xml version="1.0" encoding="utf-8"?>
<!-- Generator: Adobe Illustrator 18.1.1, SVG Export Plug-In . SVG Version: 6.00 Build 0)  -->
<!DOCTYPE svg PUBLIC "-//W3C//DTD SVG 1.1//EN" "http://www.w3.org/Graphics/SVG/1.1/DTD/svg11.dtd">
<svg version="1.1" id="Layer_1" xmlns="http://www.w3.org/2000/svg" aria-labelledby="google-plus-fkw" xmlns:xlink="http://www.w3.org/1999/xlink" x="0px" y="0px"
	 viewBox="0 0 42.1 40.5" enable-background="new 0 0 42.1 40.5" xml:space="preserve">
	 <title id="google-plus-fkw">google plus</title>
<g>
	<path fill="#FFFFFF" d="M25.6,0H15c-1.4,0-2.9,0.2-4.5,0.5C8.9,0.9,7.4,1.7,5.9,2.9C3.7,5.1,2.6,7.4,2.6,10c0,2.2,0.8,4.1,2.3,5.7
		c1.5,1.7,3.6,2.6,6.4,2.7c0.5,0,1.1,0,1.7-0.1c-0.1,0.3-0.2,0.6-0.3,0.9c-0.1,0.3-0.2,0.7-0.2,1.2c0,0.8,0.2,1.5,0.5,2
		c0.3,0.6,0.6,1.1,1,1.6c-1.2,0-2.8,0.2-4.6,0.5c-1.9,0.3-3.7,1-5.4,2c-1.5,0.9-2.6,2-3.1,3.2C0.3,30.8,0,31.9,0,32.9
		c0,2,0.9,3.8,2.8,5.2c1.8,1.6,4.6,2.3,8.3,2.4c4.4-0.1,7.8-1.1,10.1-3.2c2.3-2,3.4-4.3,3.4-6.8c0-1.8-0.4-3.3-1.2-4.4
		c-0.8-1.1-1.8-2.1-2.9-3l-1.8-1.5c-0.3-0.3-0.5-0.6-0.8-0.9c-0.3-0.4-0.5-0.8-0.5-1.4c0-0.6,0.2-1.1,0.5-1.5
		c0.3-0.4,0.6-0.8,0.9-1.1c0.5-0.5,1.1-1,1.6-1.4c0.4-0.5,0.9-1,1.2-1.5c0.8-1.1,1.2-2.7,1.2-4.6c0-1-0.1-1.9-0.3-2.7
		c-0.3-0.8-0.6-1.5-1-2c-0.4-0.6-0.8-1.1-1.2-1.5c-0.4-0.4-0.8-0.7-1.1-0.9h3.2L25.6,0z M19.8,29c0.9,1,1.3,2.2,1.3,3.5
		c0,1.7-0.6,3-1.9,4.1c-1.3,1.1-3.2,1.6-5.7,1.7c-2.8,0-4.9-0.7-6.5-1.9c-1.7-1.2-2.5-2.7-2.5-4.6c0-1,0.2-1.8,0.6-2.4
		c0.3-0.6,0.7-1.2,1.2-1.6c0.5-0.4,1-0.7,1.5-1c0.5-0.2,0.9-0.4,1.1-0.5c1.1-0.3,2.3-0.6,3.3-0.8c1.1-0.1,1.8-0.1,2.1-0.1
		c0.5,0,0.8,0,1.2,0.1C17.4,26.9,18.9,28,19.8,29z M18.1,13.3c-0.1,0.7-0.4,1.4-0.9,2.1c-0.9,1-2.1,1.5-3.5,1.5
		c-1.1,0-2.1-0.3-2.9-1c-0.9-0.7-1.5-1.5-2.1-2.5c-1.1-2.1-1.7-4.1-1.7-6C7,6,7.4,4.7,8.2,3.5c0.9-1.1,2.1-1.7,3.6-1.7
		c1.1,0,2,0.4,2.9,1c0.8,0.6,1.5,1.5,2,2.5c1.1,2.1,1.6,4.2,1.6,6.3C18.2,12,18.2,12.6,18.1,13.3z"/>
	<polygon fill="#FFFFFF" points="42,16.6 42,16.5 36.4,16.5 36.4,10.9 33.2,10.9 33.2,16.5 27.6,16.5 27.6,19.7 27.7,19.7
		27.7,19.8 33.2,19.8 33.2,25.4 36.4,25.4 36.4,19.8 42.1,19.8 42.1,16.6 	"/>
</g>
</svg>
