<?xml version="1.0" encoding="UTF-8" standalone="no"?>
<svg width="26px" height="28px" viewBox="0 0 26 28" aria-labelledby="home-icon-fkw" version="1.1" xmlns="http://www.w3.org/2000/svg" xmlns:xlink="http://www.w3.org/1999/xlink">
    <!-- Generator: sketchtool 39.1 (31720) - http://www.bohemiancoding.com/sketch -->
    <title id="home-icon-fkw">home</title>
    <desc>Created with sketchtool.</desc>
    <defs></defs>
    <g id="Symbols" stroke="none" stroke-width="1" fill-rule="evenodd">
        <g id="tab-line" transform="translate(-55.000000, -10.000000)">
            <g id="nav-blue">
                <g id="Group-6">
                    <g id="Group-7" transform="translate(55.000000, 10.000000)">
                        <g id="Page-1">
                            <g id="home-icon---active">
                                <path d="M0.854651696,11.6946775 C0.610513837,11.6946775 0.368084431,11.5914792 0.199118481,11.3911832 C-0.103619297,11.0324464 -0.0557826278,10.4979846 0.306067606,10.19771 L12.3518535,0.197478896 C12.6691131,-0.0658545344 13.1310786,-0.0658545344 13.4483383,0.197648351 L25.4941241,10.19771 C25.8559744,10.4979846 25.903811,11.0324464 25.6009024,11.3911832 C25.2979938,11.7500893 24.7593187,11.7973674 24.3976393,11.4970927 L12.9000959,1.95218782 L1.4025524,11.4970927 C1.24264125,11.6299456 1.04804852,11.6946775 0.854651696,11.6946775 M5.98889307,12.2188025 C5.74390099,12.2188025 5.5007882,12.114757 5.33199309,11.9136136 C5.03010954,11.5538602 5.07931297,11.0197373 5.44201743,10.7203099 L12.0002539,5.30587632 C12.3627876,5.00661838 12.9014626,5.05559094 13.2031753,5.41500549 C13.5050589,5.77475895 13.4558555,6.30888184 13.093151,6.60830924 L6.53491448,12.0227428 C6.37534502,12.1544095 6.18143566,12.2188025 5.98889307,12.2188025 M23.1065618,27.7724204 L16.8426916,27.7724204 C16.3708171,27.7724204 15.9884654,27.3931796 15.9884654,26.9251443 L15.9884654,20.4504293 C15.9884654,20.3282521 15.9891488,20.2065832 15.9898322,20.0857617 C15.9961534,19.0151435 16.0016205,18.0905958 15.5046317,17.2626375 C14.9066733,16.2662407 13.9690746,15.6946682 12.9320439,15.6946682 C11.3278071,15.6946682 10.0826869,16.7940938 9.90432445,18.3681634 C9.83342367,18.99447 9.84504115,19.5402853 9.85734201,20.1181276 C9.86229652,20.3490951 9.86708019,20.5815877 9.86708019,20.8211974 L9.86708019,26.9251443 C9.86708019,27.3931796 9.48472852,27.7724204 9.01285395,27.7724204 L2.7489838,27.7724204 C2.27728007,27.7724204 1.89475756,27.3931796 1.89475756,26.9251443 L1.89475756,12.8851005 C1.89475756,12.4172346 2.27728007,12.0378243 2.7489838,12.0378243 C3.22085837,12.0378243 3.60321004,12.4172346 3.60321004,12.8851005 L3.60321004,26.0778681 L8.15862771,26.0778681 L8.15862771,20.8211974 C8.15862771,20.5937884 8.15401489,20.3731577 8.14923122,20.1540521 C8.13624699,19.5460467 8.12292106,18.9173678 8.20663523,18.1790514 C8.48084185,15.7577056 10.4682846,14.0001159 12.9320439,14.0001159 C14.5620784,14.0001159 16.0726921,14.8958563 16.9727049,16.3960434 C17.7128065,17.6289997 17.7052893,18.882799 17.6982846,20.0955901 C17.6974304,20.2133615 17.6969179,20.3314717 17.6969179,20.4504293 L17.6969179,26.0778681 L22.2523356,26.0778681 L22.2523356,12.8851005 C22.2523356,12.4172346 22.6346872,12.0378243 23.1065618,12.0378243 C23.5782655,12.0378243 23.960788,12.4172346 23.960788,12.8851005 L23.960788,26.9251443 C23.960788,27.3931796 23.5782655,27.7724204 23.1065618,27.7724204" id="Fill-1"></path>
                            </g>
                        </g>
                    </g>
                </g>
            </g>
        </g>
    </g>
</svg>
