<?xml version="1.0" encoding="UTF-8" standalone="no"?>
<svg width="22px" height="28px" viewBox="0 0 22 28" aria-labelledby="past-order-fkw" version="1.1" xmlns="http://www.w3.org/2000/svg" xmlns:xlink="http://www.w3.org/1999/xlink">
    <!-- Generator: sketchtool 41 (35326) - http://www.bohemiancoding.com/sketch -->
    <title id="past-order-fkw">Past orders</title>
    <desc>Created with sketchtool.</desc>
    <defs></defs>
    <g id="Symbols" stroke="none" stroke-width="1" fill="none" fill-rule="evenodd">
        <g id="past-order-blue" transform="translate(-42.000000, -3.000000)" fill="#FFFFFF">
            <g id="Group-10">
                <g id="Group" transform="translate(42.000000, 3.000000)">
                    <g id="icon---past-order">
                        <g id="Group-3" transform="translate(5.076923, 0.009423)">
                            <path d="M0.776994872,7.2457 C1.24012308,7.28339231 1.64402051,6.98239231 1.69366154,6.56831538 C1.69366154,6.52146923 2.24535385,2.05277692 5.61586667,2.05277692 C8.99596923,2.05277692 9.75468718,6.55916154 9.76484103,6.59685385 C9.82407179,6.9727 10.1788923,7.25485385 10.5923795,7.25485385 C10.6318667,7.25485385 10.6713538,7.25485385 10.710841,7.2457 C11.1643795,7.18916154 11.4893026,6.80362308 11.4204821,6.38039231 C11.3911487,6.14508462 10.4547385,0.528930769 5.61586667,0.528930769 C1.73314872,0.528930769 0.264789744,4.37677692 0.0380205128,6.40839231 C-0.0116205128,6.83162308 0.32345641,7.20800769 0.776994872,7.2457" id="Fill-1"></path>
                        </g>
                        <g id="Group-6" transform="translate(0.000000, 8.086346)">
                            <path d="M14.1814256,17.0046154 C13.3634769,17.2867692 12.506041,17.4186923 11.6683487,17.4186923 C10.5745538,17.4186923 9.49034872,17.1833846 8.46537436,16.7224615 C6.66193846,15.904 5.30188718,14.4646923 4.63173333,12.6678462 C4.55332308,12.4422308 4.56291282,12.1880769 4.67122051,11.9716154 C4.77952821,11.7556923 4.9769641,11.5860769 5.21332308,11.5015385 C5.44968205,11.4261538 5.70634872,11.4358462 5.93255385,11.5392308 C6.15932308,11.6426154 6.33701538,11.8305385 6.42557949,12.047 C6.91804103,13.3829231 7.93342564,14.4458462 9.27373333,15.0575385 C10.614041,15.6686923 12.1218872,15.7349231 13.5112718,15.2643077 C14.9108103,14.7936923 16.0243487,13.825 16.6651692,12.5456154 C17.2958359,11.2662308 17.3742462,9.82692308 16.8817846,8.50069231 C15.8568103,5.754 12.6837333,4.31469231 9.79609231,5.29253846 C9.55916923,5.37761538 9.30306667,5.35876923 9.07629744,5.25538462 C8.85009231,5.15146154 8.6724,4.97269231 8.5838359,4.74707692 C8.50486154,4.52146154 8.51501538,4.26730769 8.62332308,4.05084615 C8.73163077,3.83492308 8.91891282,3.66530769 9.15527179,3.58992308 C11.0376821,2.95023077 13.0678872,3.04446154 14.8713231,3.86292308 C16.674759,4.68138462 18.0348103,6.12069231 18.7049641,7.91753846 C20.0746051,11.6146154 18.0444,15.6875385 14.1814256,17.0046154 M3.68573333,11.9904615 C3.61691282,12.0093077 3.53793846,12.019 3.46911795,12.019 C3.29142564,12.019 3.11429744,11.9716154 2.95634872,11.8779231 C2.74932308,11.7556923 2.59193846,11.5392308 2.53270769,11.3039231 C2.47347692,11.0686154 2.52311795,10.815 2.65116923,10.6076923 L3.93224615,8.66976923 C4.06029744,8.47215385 4.28706667,8.32192308 4.53357949,8.26538462 C4.77952821,8.20884615 5.04578462,8.25623077 5.2624,8.37846154 L7.29260513,9.60130769 C7.73598974,9.86461538 7.87419487,10.4477692 7.59834872,10.871 C7.39132308,11.116 7.17470769,11.2382308 6.95752821,11.2850769 C6.66193846,11.3507692 6.35675897,11.2850769 6.15932308,11.0971538 L5.04578462,10.4386154 L4.28706667,11.5860769 C4.14886154,11.7928462 3.93224615,11.9344615 3.68573333,11.9904615 M21.2078872,0.523384615 C20.9517846,0.382307692 20.6364513,0.382307692 20.3803487,0.504538462 L18.2813231,1.52976923 L16.1817333,0.504538462 C15.9357846,0.382307692 15.6401949,0.382307692 15.3835282,0.504538462 L13.3042462,1.52976923 L11.2052205,0.504538462 C10.9587077,0.382307692 10.6631179,0.382307692 10.4070154,0.504538462 L8.31757949,1.52976923 L6.21855385,0.504538462 C5.97204103,0.382307692 5.67645128,0.382307692 5.42034872,0.504538462 L3.33091282,1.52976923 L1.23188718,0.504538462 C0.975784615,0.382307692 0.660451282,0.382307692 0.404348718,0.523384615 C0.147682051,0.664461538 -0.000112820519,0.908923077 -0.000112820519,1.18192308 L-0.000112820519,18.6226923 C-0.000112820519,19.0459231 0.374451282,19.3846154 0.837579487,19.3846154 L20.7746564,19.3846154 C21.2377846,19.3846154 21.6123487,19.0459231 21.6123487,18.6226923 L21.6123487,1.17223077 C21.6123487,0.908923077 21.4645538,0.655307692 21.2078872,0.523384615" id="Fill-4"></path>
                        </g>
                    </g>
                </g>
            </g>
        </g>
    </g>
</svg>