<?xml version="1.0" encoding="utf-8"?>
<!-- Generator: Adobe Illustrator 20.1.0, SVG Export Plug-In . SVG Version: 6.00 Build 0)  -->
<svg version="1.0" id="Layer_1" xmlns="http://www.w3.org/2000/svg" aria-labelledby="fd-wine-spirits-fkw" xmlns:xlink="http://www.w3.org/1999/xlink" x="0px" y="0px"
	 viewBox="0 0 29.5 24" enable-background="new 0 0 29.5 24" xml:space="preserve">
	 <title id="fd-wine-spirits-fkw">fresh direct wine and spirits</title>
<path fill="#A1A1A1" d="M29.5,24H0V0h29.5V24z M0.6,23.4h28.3V0.6H0.6V23.4z"/>
<g>
	<g>
		<g>
			<path fill="#3E3F49" d="M2.9,9.4h1l0.4,2.7l0.5-2.7h1l0.5,2.7l0.4-2.7h1L7,14.2H6l-0.6-3l-0.6,3H3.7L2.9,9.4z"/>
			<path fill="#3E3F49" d="M8.2,9.4h1.1v4.8H8.2V9.4z"/>
			<path fill="#3E3F49" d="M10,9.4h1l1.3,2.7V9.4h1v4.8h-1L11,11.6v2.6h-1V9.4z"/>
			<path fill="#3E3F49" d="M14.1,9.4H17v1h-1.8v0.8h1.7v1h-1.7v0.9H17v1.1h-2.9V9.4z"/>
			<path fill="#3E3F49" d="M17.4,12.6l1-0.1c0,0.2,0.1,0.4,0.1,0.5c0.1,0.2,0.3,0.3,0.5,0.3s0.3,0,0.4-0.1s0.1-0.2,0.1-0.3
				s0-0.2-0.1-0.3s-0.3-0.2-0.6-0.3c-0.5-0.1-0.8-0.3-1-0.6c-0.2-0.2-0.3-0.6-0.3-0.9c0-0.2,0.1-0.5,0.2-0.7s0.3-0.4,0.5-0.5
				s0.5-0.2,0.9-0.2s0.8,0.1,1,0.3s0.4,0.6,0.4,1.1l-1,0.1c0-0.2-0.1-0.4-0.2-0.5s-0.2-0.1-0.4-0.1c-0.1,0-0.2,0-0.3,0.1
				c-0.1,0.1-0.1,0.2-0.1,0.3s0,0.1,0.1,0.2c0.1,0.1,0.4,0.2,0.6,0.3c0.3,0.1,0.6,0.2,0.8,0.3c0.2,0.1,0.3,0.3,0.4,0.5
				c0.1,0.2,0.1,0.5,0.1,0.8s-0.1,0.5-0.2,0.8c-0.1,0.3-0.3,0.5-0.5,0.6s-0.5,0.2-0.8,0.2c-0.6,0-1-0.2-1.2-0.5
				C17.6,13.5,17.4,13.1,17.4,12.6z"/>
		</g>
	</g>
	<g>
		<path fill="#E4A132" d="M25.2,13.6c-0.2,0.2-0.4,0.4-0.6,0.5s-0.5,0.2-0.8,0.2c-0.5,0-0.9-0.2-1.2-0.5c-0.3-0.3-0.4-0.6-0.4-0.9
			c0-0.3,0.1-0.6,0.3-0.8s0.5-0.4,0.9-0.6c-0.2-0.2-0.4-0.4-0.4-0.6c-0.1-0.2-0.1-0.3-0.1-0.4c0-0.3,0.1-0.5,0.3-0.7
			c0.2-0.2,0.5-0.3,0.9-0.3c0.3,0,0.6,0.1,0.8,0.3s0.3,0.4,0.3,0.7c0,0.5-0.3,0.8-0.9,1.2l0.9,1.1c0.1-0.2,0.2-0.4,0.2-0.7l0.6,0.1
			c-0.1,0.4-0.3,0.8-0.4,1c0.2,0.3,0.5,0.5,0.8,0.7L26,14.3C25.7,14.1,25.5,13.9,25.2,13.6z M24.9,13.2l-1.1-1.3
			c-0.3,0.2-0.9,0.5-0.9,1c0,0.2,0,0.4,0.1,0.6c0.1,0.2,0.5,0.3,0.8,0.3c0.2,0,0.4-0.1,0.6-0.2S24.7,13.4,24.9,13.2z M24,11.3
			c0.3-0.1,0.6-0.5,0.6-1c0-0.2-0.2-0.6-0.6-0.6c-0.4,0-0.6,0.4-0.6,0.6C23.4,10.8,24,11.3,24,11.3z"/>
	</g>
	<g>
		<path fill="#3E3F49" d="M3,18.9l0.6-0.1c0,0.3,0,0.5,0.1,0.7C3.9,19.7,4,19.9,4.2,20s0.4,0.2,0.7,0.2c0.2,0,0.4,0,0.6-0.1
			s0.3-0.2,0.4-0.3C6,19.7,6,19.4,6,19.2c0-0.2,0-0.3-0.1-0.5c-0.1-0.1-0.2-0.2-0.4-0.3c-0.1-0.1-0.4-0.1-0.8-0.3
			C4.2,18,4,17.9,3.8,17.8s-0.4-0.3-0.5-0.5s-0.2-0.4-0.2-0.7c0-0.3,0-0.5,0.2-0.8c0.1-0.2,0.3-0.4,0.6-0.5s0.5-0.2,0.8-0.2
			s0.6,0.1,0.9,0.2c0.2,0.1,0.4,0.3,0.6,0.6c0.1,0.2,0.2,0.5,0.2,0.9l-0.6,0.1c0-0.3-0.1-0.6-0.3-0.8c-0.2-0.2-0.4-0.3-0.8-0.3
			S4.1,15.9,3.9,16c-0.2,0.2-0.2,0.4-0.2,0.6s0.1,0.4,0.2,0.5c0.1,0.1,0.4,0.3,0.9,0.4s0.8,0.2,1,0.4C6,18,6.2,18.2,6.4,18.5
			c0.1,0.2,0.2,0.5,0.2,0.8s-0.1,0.6-0.2,0.8c-0.1,0.3-0.3,0.5-0.6,0.6s-0.5,0.2-0.9,0.2s-0.7-0.1-1-0.2S3.4,20.3,3.3,20
			C3.1,19.6,3,19.3,3,18.9z"/>
		<path fill="#3E3F49" d="M22.9,18.9l0.6-0.1c0,0.3,0,0.5,0.1,0.7c0.1,0.2,0.3,0.4,0.5,0.5c0.2,0.1,0.4,0.2,0.7,0.2
			c0.2,0,0.4,0,0.6-0.1c0.2-0.1,0.3-0.2,0.4-0.3c0.1-0.1,0.1-0.4,0.1-0.6c0-0.2,0-0.3-0.1-0.5c-0.1-0.1-0.2-0.2-0.4-0.3
			c-0.1-0.1-0.4-0.1-0.8-0.3c-0.5-0.2-0.7-0.2-0.9-0.3c-0.2-0.1-0.4-0.3-0.5-0.5S23,16.9,23,16.6c0-0.3,0-0.5,0.2-0.8
			c0.1-0.2,0.3-0.4,0.6-0.5s0.5-0.2,0.8-0.2c0.3,0,0.6,0.1,0.9,0.2c0.2,0.1,0.4,0.3,0.6,0.6c0.1,0.2,0.2,0.5,0.2,0.9l-0.6,0.1
			c0-0.3-0.1-0.6-0.3-0.8c-0.2-0.2-0.4-0.3-0.8-0.3c-0.4,0-0.6,0.1-0.8,0.2c-0.2,0.2-0.2,0.4-0.2,0.6s0.1,0.4,0.2,0.5
			s0.4,0.3,0.9,0.4s0.8,0.2,1,0.4c0.2,0.2,0.4,0.3,0.6,0.6c0.1,0.2,0.2,0.5,0.2,0.8s-0.1,0.6-0.2,0.8c-0.1,0.3-0.3,0.5-0.6,0.6
			s-0.5,0.2-0.9,0.2c-0.4,0-0.7-0.1-1-0.2c-0.3-0.1-0.5-0.4-0.6-0.7C23,19.6,22.9,19.3,22.9,18.9z"/>
		<path fill="#3E3F49" d="M7.3,20.7v-5.5H9c0.3,0,0.5,0,0.7,0.1c0.2,0.1,0.4,0.2,0.5,0.3c0.2,0.2,0.2,0.3,0.3,0.5
			c0.1,0.2,0.1,0.5,0.1,0.7c0,0.5-0.1,0.9-0.4,1.2S9.7,18.5,9,18.5H7.9v2.2H7.3z M7.9,17.8H9c0.4,0,0.6-0.1,0.8-0.3
			c0.2-0.2,0.2-0.4,0.2-0.7c0-0.2,0-0.4-0.1-0.6c-0.1-0.2-0.2-0.3-0.4-0.3c-0.1,0-0.3,0-0.5,0H7.9V17.8z"/>
		<path fill="#3E3F49" d="M11.5,20.7v-5.5h0.6v5.5H11.5z"/>
		<path fill="#3E3F49" d="M13.1,20.7v-5.5h2c0.4,0,0.7,0,0.9,0.1c0.2,0.1,0.4,0.3,0.5,0.5c0.1,0.2,0.2,0.5,0.2,0.8
			c0,0.4-0.1,0.7-0.3,1c-0.2,0.3-0.5,0.4-0.9,0.5c0.2,0.1,0.3,0.2,0.4,0.3c0.2,0.2,0.3,0.4,0.5,0.7l0.8,1.5h-0.7l-0.6-1.1
			c-0.2-0.3-0.3-0.6-0.4-0.8s-0.2-0.3-0.3-0.4s-0.2-0.1-0.3-0.1s-0.2,0-0.3,0h-0.7v2.4h-0.8V20.7z M13.7,17.6H15
			c0.3,0,0.5,0,0.6-0.1c0.1-0.1,0.2-0.2,0.3-0.3C16,17,16,16.9,16,16.7c0-0.3-0.1-0.5-0.2-0.6c-0.2-0.2-0.4-0.3-0.7-0.3h-1.4
			C13.7,15.8,13.7,17.6,13.7,17.6z"/>
		<path fill="#3E3F49" d="M17.7,20.7v-5.5h0.6v5.5H17.7z"/>
		<path fill="#3E3F49" d="M20.4,20.7v-4.8H19v-0.6h3.5v0.6H21v4.8H20.4z"/>
	</g>
</g>
<g>
	<path fill="#585861" d="M5.1,4C5.2,3.6,6,3.8,6,3.8V3.3C4.3,2.7,4.1,3.6,4,4.2c0,0.1,0,0.3,0,0.5L3.6,4.8l0,0.6l0.6-0.1
		C4.4,6.4,4.8,8,4.8,8l0.4,0c0,0-0.1-1.6-0.2-2.8L5.7,5l0-0.5L5,4.6C5,4.3,5.1,4.1,5.1,4z"/>
	<path fill="#585861" d="M6.2,5L5.6,5.2L6,8l0.5,0c0,0-0.1-1,0-1.3C6.5,6.3,6.7,6,7.2,5.9l0-1.1c0,0-0.7,0.1-0.9,0.5
		C6.3,5.3,6.2,5,6.2,5z"/>
	<path fill="#585861" d="M9.7,6.6c0,0,0.1-1.8-1.2-1.7C7.4,4.9,6.7,7.5,8.6,8c0.5,0.1,1-0.2,1-0.2l0-0.5c0,0-1.4,0.6-1.3-0.7
		L9.7,6.6z M8.7,5.5c0.5,0,0.4,0.6,0.4,0.6l-0.8,0C8.3,6.1,8.3,5.5,8.7,5.5z"/>
	<path fill="#585861" d="M22.3,6.6c0,0,0.1-1.8-1.2-1.7c-1.2,0.1-1.9,2.6,0.1,3.1c0.5,0.1,1-0.2,1-0.2l0-0.5c0,0-1.4,0.6-1.3-0.7
		L22.3,6.6z M21.3,5.5c0.5,0,0.4,0.6,0.4,0.6l-0.8,0C20.9,6.1,20.9,5.5,21.3,5.5z"/>
	<path fill="#585861" d="M11.1,7.3c0.1-0.2-0.3-0.4-0.7-0.7C10,6.3,9.7,5.2,10.6,4.9c0.9-0.3,1.3,0.5,1.3,0.5l-0.4,0.3
		c0,0-0.6-0.4-0.7-0.2c-0.1,0.3,0.2,0.3,0.8,0.7C12.1,6.6,11.8,8,11,8c-0.5,0-1-0.1-1-0.1l0-1C10.1,6.9,10.8,7.5,11.1,7.3z"/>
	<path fill="#585861" d="M12.2,7.9L12,3.8l1-0.1l-0.1,1.5c0,0,0.2-0.4,0.7-0.3c0.4,0,0.7,0.2,0.8,0.8c0,0.6,0,2.3,0,2.3l-0.7,0
		c0,0,0.2-2.3,0.1-2.4c-0.1-0.1-0.8,0-0.8,0.4c0,0.4,0,2,0,2L12.2,7.9z"/>
	<path fill="#585861" d="M16.1,3.7l0,1.4c0,0-1.1-0.1-1.4,0.6c-0.2,0.6-0.3,1.9,0.4,2.2c0.5,0.2,0.9,0.1,1,0v0.2l0.7,0L17,3.7
		L16.1,3.7z M16.1,7.2c0,0.3-0.5,0.5-0.6,0.1c-0.1-0.4,0-1.2,0.1-1.4c0.1-0.2,0.5-0.2,0.5,0C16.2,6.1,16.1,6.9,16.1,7.2z"/>
	<polygon fill="#585861" points="18,5.2 17.2,5.2 17.2,8 18,8 	"/>
	<path fill="#585861" d="M19,4.9l-0.9,0.2L18.4,8h0.7c0,0-0.1-1.5,0-1.7c0.1-0.3,0.8-0.3,0.8-0.3v-1c0,0-0.7,0-0.8,0.4L19,4.9z"/>
	<path fill="#585861" d="M24.4,5.7l0-0.6c-1-0.2-1.8,0.3-1.8,1.4c-0.1,1,0.4,1.9,2,1.6l0-0.6c0,0-1.2,0.4-1.2-0.8
		C23.3,5.3,24.4,5.7,24.4,5.7z"/>
	<path fill="#585861" d="M26.1,5.6V5.1l-0.5,0c0-0.4,0-0.7,0-0.7h-0.6c0,0,0,0.3-0.1,0.7l-0.4,0l0,0.6l0.4,0c0,0.8-0.1,1.6,0,1.9
		c0.2,0.5,0.8,0.5,1.1,0.4l0-0.7c0,0-0.5,0.1-0.5-0.1c0-0.1,0-0.8,0-1.5L26.1,5.6z"/>
	<path fill="#585861" d="M4.3,7.3c0-0.7-0.3-1-0.9-1.1C2.8,6.1,2,5.8,1.9,5.6c0,0,0,1,0.3,1.4c0.3,0.4,0.6,0.5,1.2,0.5
		C4.1,7.4,4.3,7.3,4.3,7.3z"/>
	<path fill="#585861" d="M17.3,4.9c0-0.3,0.1-0.4,0.4-0.5c0.3,0,0.6-0.2,0.6-0.3c0,0,0,0.4-0.1,0.6C18,4.9,17.9,5,17.6,5
		C17.3,5,17.3,4.9,17.3,4.9z"/>
	<g>
		<path fill="#585861" d="M26.3,7.7c0-0.2,0.2-0.4,0.4-0.4c0.2,0,0.4,0.2,0.4,0.4c0,0.2-0.2,0.4-0.4,0.4C26.5,8,26.3,7.9,26.3,7.7z
			 M27,7.7c0-0.2-0.1-0.3-0.3-0.3c-0.2,0-0.3,0.1-0.3,0.3c0,0.2,0.1,0.3,0.3,0.3C26.9,7.9,27,7.8,27,7.7z M26.9,7.8L26.9,7.8
			l-0.2-0.2h-0.1v0.2h-0.1V7.5h0.2c0.1,0,0.1,0,0.1,0.1c0,0.1,0,0.1-0.1,0.1L26.9,7.8z M26.7,7.6C26.8,7.6,26.8,7.6,26.7,7.6
			C26.8,7.5,26.8,7.5,26.7,7.6l-0.1-0.1v0.1H26.7z"/>
	</g>
</g>
</svg>
