<?xml version="1.0" encoding="UTF-8"?>
<svg width="24px" height="25px" viewBox="0 0 24 25" version="1.1" xmlns="http://www.w3.org/2000/svg" xmlns:xlink="http://www.w3.org/1999/xlink">
    <!-- Generator: Sketch 46.2 (44496) - http://www.bohemiancoding.com/sketch -->
    <title>info_alert_icon</title>
    <desc>Created with Sketch.</desc>
    <defs></defs>
    <g id="Symbols" stroke="none" stroke-width="1" fill="none" fill-rule="evenodd">
        <g id="info_alert_icon" fill="#A6A8B1">
            <g id="info_icon">
                <path d="M11.9997588,1.63145092 C6.24691904,1.63145092 1.56667538,6.50720733 1.56667538,12.5002513 C1.56667538,18.4927927 6.24691904,23.3680465 11.9997588,23.3680465 C17.753081,23.3680465 22.4333246,18.4927927 22.4333246,12.5002513 C22.4333246,6.50720733 17.753081,1.63145092 11.9997588,1.63145092 M11.9997588,25 C5.38324521,25 0,19.3924529 0,12.5002513 C2.67840942e-16,5.60754709 5.38276271,0 11.9997588,0 C18.6167548,0 24,5.60754709 24,12.4997487 C24,19.3924529 18.6167548,25 12.0002412,25" id="Shape"></path>
                <path d="M11.9997279,19.7916667 C11.765409,19.7916667 11.540695,19.7073177 11.3750575,19.5571894 C11.20942,19.407061 11.1164384,19.2034612 11.1165828,18.9912131 L11.1165828,12.5787121 C11.1165828,12.1367699 11.5121021,11.7785049 12,11.7785049 C12.4878979,11.7785049 12.8834172,12.1367699 12.8834172,12.5787121 L12.8834172,18.9912131 C12.8834172,19.4333355 12.4878248,19.7916667 11.9997279,19.7916667 M13.6616272,8.05545912 C13.659881,8.88530866 12.9159164,9.55681528 11.999774,9.55545707 C11.083808,9.55658894 10.340119,8.88514852 10.3383728,8.05545912 C10.340119,7.22576973 11.083808,6.5543293 11.999774,6.55546118 C12.9159164,6.55410297 13.659881,7.22560958 13.6616272,8.05545912" id="Shape"></path>
            </g>
        </g>
    </g>
</svg>