<?xml version="1.0" encoding="UTF-8" standalone="no"?>
<svg viewBox="0 0 51 51" version="1.1" aria-labelledby="information-icon-fkw" xmlns="http://www.w3.org/2000/svg" xmlns:xlink="http://www.w3.org/1999/xlink">
    <!-- Generator: sketchtool 39.1 (31720) - http://www.bohemiancoding.com/sketch -->
    <title id="information-icon-fkw">information</title>
    <desc>Created with sketchtool.</desc>
    <defs></defs>
    <g id="Symbols" stroke="none" stroke-width="1" fill-rule="evenodd">
        <g id="MVP--PDP-notification1" transform="translate(-193.000000, -206.000000)">
            <g id="Group">
                <g transform="translate(170.000000, 194.000000)">
                    <g id="info" transform="translate(23.000000, 12.000000)">
                        <g transform="translate(0.673913, 0.000000)">
                            <g id="Group-3" transform="translate(0.000000, 0.066234)">
                                <path d="M24.8703247,3.50516234 C12.9469481,3.50516234 3.24662338,13.2058117 3.24662338,25.129513 C3.24662338,37.0528896 12.9469481,46.7532143 24.8703247,46.7532143 C36.794026,46.7532143 46.4943506,37.0528896 46.4943506,25.129513 C46.4943506,13.2058117 36.794026,3.50516234 24.8703247,3.50516234 M24.8703247,49.9999675 C11.1566883,49.9999675 -0.000129870124,38.8431494 -0.000129870124,25.129513 C-0.000129870124,11.4155519 11.1566883,0.258409091 24.8703247,0.258409091 C38.5842857,0.258409091 49.7411039,11.4155519 49.7411039,25.129513 C49.7411039,38.8431494 38.5842857,49.9999675 24.8703247,49.9999675" id="Fill-1"></path>
                            </g>
                            <path d="M24.870487,39.0085714 C23.9740584,39.0085714 23.2471104,38.2819481 23.2471104,37.3851948 L23.2471104,24.3754545 C23.2471104,23.4787013 23.9740584,22.7520779 24.870487,22.7520779 C25.7669156,22.7520779 26.4938636,23.4787013 26.4938636,24.3754545 L26.4938636,37.3851948 C26.4938636,38.2819481 25.7669156,39.0085714 24.870487,39.0085714" id="Fill-4"></path>
                            <path d="M28.5461039,15.1981169 C28.5461039,17.2214935 26.9006494,18.8614286 24.8704545,18.8614286 C22.8405844,18.8614286 21.1951299,17.2214935 21.1951299,15.1981169 C21.1951299,13.1750649 22.8405844,11.5348052 24.8704545,11.5348052 C26.9006494,11.5348052 28.5461039,13.1750649 28.5461039,15.1981169" id="Fill-6"></path>
                        </g>
                    </g>
                </g>
            </g>
        </g>
    </g>
</svg>
