<?xml version="1.0" encoding="utf-8"?>
<!-- Generator: Adobe Illustrator 18.1.1, SVG Export Plug-In . SVG Version: 6.00 Build 0)  -->
<!DOCTYPE svg PUBLIC "-//W3C//DTD SVG 1.1//EN" "http://www.w3.org/Graphics/SVG/1.1/DTD/svg11.dtd">
<svg version="1.1" id="Layer_1" aria-labelledby="minus-indicator-icon-fkw" xmlns="http://www.w3.org/2000/svg" xmlns:xlink="http://www.w3.org/1999/xlink" x="0px" y="0px"
	 viewBox="0 0 45 45" enable-background="new 0 0 45 45" xml:space="preserve">
   <title id="minus-indicator-icon-fkw">minus indicator</title>
<g id="icon-minus">
	<path fill="#FFFFFF" d="M31.1,21H13.9c-0.8,0-1.5,0.7-1.5,1.5s0.7,1.5,1.5,1.5H31c0.8,0,1.5-0.7,1.5-1.5S31.9,21,31.1,21z"/>
	<path fill="#FFFFFF" d="M22.5,0C10.1,0,0,10.1,0,22.5S10.1,45,22.5,45S45,34.9,45,22.5S34.9,0,22.5,0z M22.5,42.1
		c-10.8,0-19.6-8.8-19.6-19.6S11.7,2.9,22.5,2.9s19.6,8.8,19.6,19.6S33.3,42.1,22.5,42.1z"/>
</g>
</svg>
