<?xml version="1.0" encoding="UTF-8" standalone="no"?>
<svg width="21px" height="22px" aria-labelledby="no-Alcohol-indicator-fkw" viewBox="0 0 21 22" version="1.1" xmlns="http://www.w3.org/2000/svg" xmlns:xlink="http://www.w3.org/1999/xlink">
    <!-- Generator: Sketch 40.1 (33804) - http://www.bohemiancoding.com/sketch -->
    <title id="no-Alcohol-indicator-fkw">no Alcohol</title>
    <desc>Created with Sketch.</desc>
    <defs></defs>
    <g id="Symbols" stroke="none" stroke-width="1" fill="none" fill-rule="evenodd">
        <g id="Delivery-Time" transform="translate(-1088.000000, -350.000000)" fill="#BB3C3B">
            <g id="Group-5">
                <g id="Address" transform="translate(719.454545, 84.000000)">
                    <g id="Page-1" transform="translate(369.000000, 266.000000)">
                        <g id="no-Alcohol" transform="translate(0.000000, 0.059514)">
                            <path d="M5.07524667,7.30107217 C5.44758432,6.8231374 6.57680508,5.66502462 7.64290896,5.66502462 C8.09641545,5.66502462 8.33446739,5.95985959 8.75018167,6.52465607 C9.03719465,6.91442685 9.39122062,7.39470571 9.92498684,7.69761478 L10.9060258,6.67871515 C10.452779,6.61347119 10.1888829,6.28633982 9.79511672,5.7512352 C9.33979205,5.13265478 8.77316868,4.36275005 7.64290896,4.36275005 C6.47342846,4.36275005 5.42459731,5.11885067 4.76018174,5.73977518 C4.75109083,5.68507965 4.7412207,5.63194685 4.73238953,5.57660018 C4.5025194,4.13433109 4.42161031,2.8286706 4.39316876,2.08363932 L13.967714,2.08363932 C13.954727,2.46038735 13.9283634,2.98259946 13.8765452,3.59349646 L15.2665452,2.14979487 C15.2800517,1.74218292 15.2795322,1.48276983 15.2792725,1.42859521 L15.2753764,0.781364744 L3.08057138,0.781364744 L3.07888306,1.43080907 C3.07823371,1.73957838 3.09355839,8.659605 5.7394025,12.0448678 L6.65161028,11.0973328 C5.99810379,10.2017586 5.46524666,8.91576241 5.07524667,7.30107217" id="Fill-1"></path>
                            <path d="M11.2720388,11.6559955 C10.6671037,12.2663716 9.98827256,12.5787873 9.20035049,12.6086094 C9.05281803,12.6030096 8.9103505,12.5842569 8.77022063,12.5587323 L13.1084024,8.05299249 C12.6484024,9.66729205 12.0274933,10.8937742 11.2720388,11.6559955 M19.7251555,0.259269845 C19.5233373,0.0570266036 19.2230776,0.0187397311 18.9806101,0.138288537 C18.9212594,0.197802485 15.131779,4.16440061 15.131779,4.16440061 L11.4626881,7.97524669 C11.4626881,7.97524669 0.158142854,19.6549567 0.0906103881,19.7273631 C-0.0564025964,19.9771394 -0.0251038957,20.3033592 0.188922075,20.517974 C0.315805189,20.6449458 0.481909083,20.7084968 0.647883106,20.7084968 C0.814246739,20.7084968 0.980480503,20.6446853 1.10723375,20.5175833 L7.75203883,13.6161792 C8.06567519,13.7409371 8.39242843,13.8277989 8.73216868,13.8733785 L8.73216868,19.924788 L5.33074017,19.924788 C4.97203888,19.924788 4.68138953,20.216237 4.68138953,20.5759252 C4.68138953,20.9356135 4.97203888,21.2270625 5.33074017,21.2270625 L13.0274933,21.2270625 C13.3860647,21.2270625 13.6768439,20.9356135 13.6768439,20.5759252 C13.6768439,20.216237 13.3860647,19.924788 13.0274933,19.924788 L10.03087,19.924788 L10.03087,13.8082647 C10.8321686,13.6282904 11.556844,13.2159903 12.1932076,12.5739689 C13.6786621,11.0753113 14.4493114,8.52767157 14.8491816,6.24491447 L19.7255451,1.18023842 C19.9790516,0.925773972 19.9787919,0.513473842 19.7251555,0.259269845" id="Fill-3"></path>
                        </g>
                    </g>
                </g>
            </g>
        </g>
    </g>
</svg>