<?xml version="1.0" encoding="UTF-8" standalone="no"?>
<svg width="30px" height="30px" aria-labelledby="order-toggle-indicator-fkw" viewBox="0 0 30 30" version="1.1" xmlns="http://www.w3.org/2000/svg" xmlns:xlink="http://www.w3.org/1999/xlink">
    <!-- Generator: sketchtool 39.1 (31720) - http://www.bohemiancoding.com/sketch -->
    <title id="order-toggle-indicator-fkw">order toggle</title>
    <desc>Created with sketchtool.</desc>
    <g id="Symbols" stroke="none" stroke-width="1" fill="none" fill-rule="evenodd">
        <g id="m---PLP--L3" transform="translate(-220.000000, -149.000000)">
            <g id="order---toggle-">
                <g transform="translate(219.000000, 148.000000)">
                    <g>
                        <path d="M15.5939959,13.9192338 L11.660412,9.98590952 C11.4452711,9.77047214 11.0956088,9.77047214 10.8803126,9.98590952 L6.946884,13.9192338 C6.73127706,14.1345158 6.73127706,14.4838443 6.946884,14.6992817 C7.05453213,14.8069227 7.19573293,14.8608209 7.33693373,14.8608209 C7.47797919,14.8608209 7.61933532,14.8069227 7.72682812,14.6992817 L10.7187627,11.7075446 L10.7187627,21.2661609 C10.7187627,21.5707555 10.9657476,21.8177241 11.2703623,21.8177241 C11.5751323,21.8177241 11.8221172,21.5707555 11.8221172,21.2661609 L11.8221172,11.7075446 L14.8138965,14.6992817 C14.9215446,14.8069227 15.0629008,14.8608209 15.2039462,14.8608209 C15.345147,14.8608209 15.4863478,14.8069227 15.5939959,14.6992817 C15.8094475,14.4838443 15.8094475,14.1345158 15.5939959,13.9192338" id="Fill-1" fill="#402665"></path>
                        <path d="M15.3913782,17.7228717 L19.3249621,21.6561959 C19.540103,21.8716333 19.8897653,21.8716333 20.1050615,21.6561959 L24.0384901,17.7228717 C24.254097,17.5075896 24.254097,17.1582611 24.0384901,16.9428237 C23.930842,16.8351827 23.7896412,16.7812845 23.6484404,16.7812845 C23.5073949,16.7812845 23.3660388,16.8351827 23.258546,16.9428237 L20.2666114,19.9345608 L20.2666114,10.3759445 C20.2666114,10.0713499 20.0196265,9.82438133 19.7150118,9.82438133 C19.4102418,9.82438133 19.1632569,10.0713499 19.1632569,10.3759445 L19.1632569,19.9345608 L16.1714776,16.9428237 C16.0638295,16.8351827 15.9224734,16.7812845 15.7814279,16.7812845 C15.6402271,16.7812845 15.4990263,16.8351827 15.3913782,16.9428237 C15.1759266,17.1582611 15.1759266,17.5075896 15.3913782,17.7228717" id="Fill-3" fill="#402665"></path>
                    </g>
                </g>
            </g>
        </g>
    </g>
</svg>
