<?xml version="1.0" encoding="utf-8"?>
<!-- Generator: Adobe Illustrator 20.1.0, SVG Export Plug-In . SVG Version: 6.00 Build 0)  -->
<!DOCTYPE svg PUBLIC "-//W3C//DTD SVG 1.1//EN" "http://www.w3.org/Graphics/SVG/1.1/DTD/svg11.dtd">
<svg version="1.1" id="Layer_1" aria-labelledby="icon-past-order-indicator-fkw" xmlns="http://www.w3.org/2000/svg" xmlns:xlink="http://www.w3.org/1999/xlink" x="0px" y="0px"
	 viewBox="0 0 29.5 38.1" style="enable-background:new 0 0 29.5 38.1;" xml:space="preserve">
<style type="text/css">
	.st0{fill:#FFFFFF;}
</style>
<title id="icon-past-order-indicator-fkw">past order indicator</title>
<desc>Created with Sketch.</desc>
<g id="Symbols">
	<g id="icon---past-order">
		<g>
			<g id="Group-3" transform="translate(6.923077, 0.013327)">
				<path id="past-order-Fill-1" class="st0" d="M1.1,9.5c0.6,0.1,1.2-0.4,1.2-1c0-0.1,0.8-6.4,5.3-6.4c4.6,0,5.6,6.4,5.7,6.4
					c0.1,0.5,0.6,0.9,1.1,0.9c0.1,0,0.1,0,0.2,0c0.6-0.1,1.1-0.6,1-1.2c0-0.3-1.3-8.3-7.9-8.3C2.4,0,0.4,5.4,0.1,8.3
					C0,8.9,0.4,9.4,1.1,9.5"/>
			</g>
			<g id="Group-6" transform="translate(0.000000, 11.436404)">
				<path id="past-order-Fill-4" class="st0" d="M19.3,23.3c-1.1,0.4-2.3,0.6-3.4,0.6c-1.5,0-3-0.3-4.4-1c-2.5-1.2-4.3-3.2-5.2-5.7
					c-0.1-0.3-0.1-0.7,0.1-1c0.1-0.3,0.4-0.5,0.7-0.7c0.3-0.1,0.7-0.1,1,0.1c0.3,0.1,0.6,0.4,0.7,0.7c0.7,1.9,2.1,3.4,3.9,4.3
					c1.8,0.9,3.9,1,5.8,0.3c1.9-0.7,3.4-2,4.3-3.8c0.9-1.8,1-3.8,0.3-5.7c-1.4-3.9-5.7-5.9-9.7-4.5c-0.3,0.1-0.7,0.1-1-0.1
					c-0.3-0.1-0.6-0.4-0.7-0.7c-0.1-0.3-0.1-0.7,0.1-1c0.1-0.3,0.4-0.5,0.7-0.7c2.6-0.9,5.3-0.8,7.8,0.4s4.3,3.2,5.2,5.7
					C27.4,15.7,24.6,21.4,19.3,23.3 M5,16.2c-0.1,0-0.2,0-0.3,0c-0.2,0-0.5-0.1-0.7-0.2c-0.3-0.2-0.5-0.5-0.6-0.8
					c-0.1-0.3,0-0.7,0.2-1l1.7-2.7c0.2-0.3,0.5-0.5,0.8-0.6c0.3-0.1,0.7,0,1,0.2l2.8,1.7c0.6,0.4,0.8,1.2,0.4,1.8
					c-0.3,0.3-0.6,0.5-0.9,0.6c-0.4,0.1-0.8,0-1.1-0.3L6.9,14l-1,1.6C5.7,15.9,5.4,16.1,5,16.2 M28.9,0c-0.3-0.2-0.8-0.2-1.1,0
					l-2.9,1.4L22.1,0c-0.3-0.2-0.7-0.2-1.1,0l-2.8,1.4L15.3,0c-0.3-0.2-0.7-0.2-1.1,0l-2.8,1.4L8.5,0C8.1-0.2,7.7-0.2,7.4,0L4.5,1.4
					L1.7,0C1.3-0.2,0.9-0.2,0.6,0C0.2,0.2,0,0.5,0,0.9v24.7c0,0.6,0.5,1.1,1.1,1.1h27.2c0.6,0,1.1-0.5,1.1-1.1V0.9
					C29.5,0.5,29.3,0.2,28.9,0"/>
			</g>
		</g>
	</g>
</g>
</svg>
