<?xml version="1.0" encoding="UTF-8"?>
<svg width="15px" height="15px" aria-labelledby="phone-icon-fkw" viewBox="0 0 15 15" version="1.1" xmlns="http://www.w3.org/2000/svg" xmlns:xlink="http://www.w3.org/1999/xlink">
    <!-- Generator: Sketch 46.2 (44496) - http://www.bohemiancoding.com/sketch -->
    <title id="phone-icon-fkw">Phone</title>
    <desc>Created with Sketch.</desc>
    <defs></defs>
    <g id="Help-Page" stroke="none" stroke-width="1" fill="none" fill-rule="evenodd">
        <g id="Help2---D" transform="translate(-905.000000, -265.000000)" fill="#732282">
            <g id="Button-Module" transform="translate(30.000000, 198.000000)">
                <g id="Phone-Button" transform="translate(801.000000, 48.000000)">
                    <g id="Button-Elements" transform="translate(74.000000, 19.000000)">
                        <path d="M3.62449877,15 C1.89182427,15 0.577670176,13.2170759 0.092186499,11.5513393 C-0.142184931,10.7393973 0.0587048661,10.2873884 0.828782423,9.95256696 C1.37285896,9.70982143 2.10108447,9.375 2.7372355,9.08203125 C3.18923754,8.88113839 3.61612836,8.68861607 3.90909265,8.5546875 C4.11835286,8.46261161 4.33598347,8.37053571 4.58709572,8.37053571 C5.03909776,8.37053571 5.34043246,8.671875 5.4827294,8.81417411 L6.22769573,9.55915179 C6.66295696,9.29966518 7.39118247,8.81417411 8.10266717,8.10267857 C8.81415187,7.39118304 9.29963555,6.67131696 9.5591182,6.23604911 L8.81415187,5.48270089 C8.25333452,4.93024554 8.29518656,4.48660714 8.54629881,3.91741071 C8.68022534,3.61607143 8.87274473,3.19754464 9.08200494,2.74553571 C9.37496922,2.109375 9.70978555,1.38113839 9.95252739,0.837053571 C10.0697131,0.560825893 10.3124549,0 10.9988284,0 C11.1829774,0 11.3754968,0.0502232143 11.5512754,0.100446429 C13.225357,0.5859375 15.0166244,1.90848214 14.9998836,3.65792411 C14.9831427,5.39899554 13.6187662,8.50446429 11.0574213,11.0658482 C8.50444677,13.6188616 5.39902532,14.9832589 3.64961,15 L3.62449877,15 Z M1.37285896,11.1662946 L1.37285896,11.1830357 C1.73278651,12.4051339 2.67027223,13.6607143 3.62449877,13.6607143 L3.63286918,13.6607143 C4.8716896,13.6523437 7.69251717,12.5390625 10.1199356,10.1199777 C12.5389835,7.70089286 13.6522478,4.87165179 13.6689886,3.64118304 C13.6773591,2.68694196 12.405057,1.74107143 11.174607,1.38113839 L11.1662366,1.38113839 C10.9234947,1.93359375 10.5886784,2.66183036 10.2957141,3.30636161 C10.0864539,3.75 9.90230494,4.16015625 9.76837841,4.46149554 C9.760008,4.48660714 9.75163759,4.50334821 9.74326719,4.52008929 C9.74326719,4.52845982 9.75163759,4.53683036 9.760008,4.54520089 L11.1913478,5.9765625 L10.990458,6.40345982 C10.9653468,6.45368304 10.3291958,7.75948661 9.0485233,9.04854911 C7.75948044,10.3376116 6.45369675,10.9654018 6.4034743,10.9905134 L5.97658348,11.1997768 L4.53687327,9.76004464 C4.52850286,9.75167411 4.52850286,9.74330357 4.52013245,9.74330357 C4.50339164,9.75167411 4.47828041,9.76004464 4.45316919,9.76841518 C4.1602049,9.90234375 3.75005489,10.0948661 3.29805285,10.2957589 C2.65353142,10.5970982 1.9253059,10.9235491 1.37285896,11.1662946 Z" id="Phone"></path>
                    </g>
                </g>
            </g>
        </g>
    </g>
</svg>