<svg version="1.0" id="Layer_1" aria-labelledby="phone-icon-indicator-fkw" xmlns="http://www.w3.org/2000/svg" xmlns:xlink="http://www.w3.org/1999/xlink" x="0px" y="0px"
	 viewBox="0 0 24 24" enable-background="new 0 0 24 24" xml:space="preserve">
	 <title id="phone-icon-indicator-fkw">phone</title>
<g>
	<path d="M23.2,17.4c-1-1-2-2-3-3c-0.5-0.5-1.1-0.8-1.8-0.8c-0.6,0-1.3,0.3-1.8,0.8l-0.1,0.1c-0.5,0.5-1.1,1.1-1.6,1.6
		c-0.1-0.1-0.2-0.1-0.3-0.2c-0.2-0.1-0.5-0.2-0.7-0.4c-1.6-1-3.1-2.3-4.5-4.1c-0.7-0.8-1.2-1.6-1.5-2.4c0.5-0.5,0.9-0.9,1.4-1.4
		c0.1-0.1,0.2-0.2,0.3-0.3c1.1-1.1,1.1-2.5,0-3.7c-0.3-0.3-0.7-0.7-1-1C8.4,2.6,8.3,2.4,8.1,2.3C8,2.1,7.8,2,7.7,1.8
		c-0.3-0.3-0.7-0.7-1-1C6.1,0.3,5.5,0,4.8,0S3.6,0.3,3,0.8C2.8,1,2.5,1.3,2.3,1.5C1.9,1.9,1.5,2.3,1.2,2.6C0.5,3.3,0.1,4.1,0,5.1
		c-0.1,1.6,0.3,3,0.7,4C1.6,11.5,3,13.7,4.8,16c2.4,2.8,5.2,5,8.4,6.6c1.8,0.9,3.3,1.3,4.8,1.4c0.1,0,0.2,0,0.3,0
		c1.3,0,2.3-0.4,3.1-1.3c0.3-0.4,0.7-0.7,1.1-1.1c0.2-0.2,0.4-0.4,0.6-0.6C24.3,19.9,24.3,18.5,23.2,17.4z M22.2,20.1
		c-0.2,0.2-0.4,0.4-0.6,0.6c-0.4,0.4-0.8,0.8-1.1,1.2c-0.6,0.6-1.3,0.9-2.3,0.9c-1.3-0.1-2.7-0.5-4.3-1.3c-3.1-1.5-5.8-3.6-8-6.3
		C4.1,13,2.8,10.9,2,8.7C1.5,7.3,1.3,6.2,1.4,5.2c0-0.6,0.3-1.2,0.7-1.6c0.4-0.4,0.8-0.8,1.1-1.1C3.5,2.3,3.7,2,4,1.8
		c0.2-0.2,0.5-0.4,0.9-0.4c0.4,0,0.7,0.2,0.9,0.4c0.3,0.3,0.7,0.7,1,1C6.9,2.9,7,3.1,7.2,3.3c0.1,0.1,0.3,0.3,0.4,0.4
		c0.3,0.3,0.7,0.7,1,1c0.6,0.6,0.6,1.2,0,1.8C8.5,6.6,8.4,6.7,8.3,6.8c-0.5,0.5-1,1-1.5,1.5C6.6,8.5,6.3,9,6.6,9.5
		c0.4,0.9,0.9,1.8,1.8,2.8c1.5,1.9,3.1,3.3,4.8,4.4c0.3,0.2,0.5,0.3,0.8,0.4c0.2,0.1,0.3,0.1,0.4,0.2c0.2,0.1,0.4,0.1,0.5,0.1l0,0
		c0.3,0,0.5-0.1,0.8-0.4c0.6-0.6,1.1-1.2,1.7-1.7l0.1-0.1c0.2-0.2,0.5-0.4,0.9-0.4s0.7,0.2,0.9,0.4c1,1,2,2,3,3
		C22.8,18.9,22.8,19.5,22.2,20.1z"/>
</g>
</svg>
