<?xml version="1.0" encoding="UTF-8" standalone="no"?>
<svg width="21px" height="33px" viewBox="0 0 21 33" version="1.1" aria-labelledby="fkw-picks-icon" xmlns="http://www.w3.org/2000/svg" xmlns:xlink="http://www.w3.org/1999/xlink">
    <!-- Generator: sketchtool 39.1 (31720) - http://www.bohemiancoding.com/sketch -->
    <title id="fkw-picks-icon">picks</title>
    <desc>Created with sketchtool.</desc>
    <defs></defs>
    <g id="Symbols" stroke="none" stroke-width="1" fill-rule="evenodd">
        <g id="tab-line" transform="translate(-216.000000, -9.000000)">
            <g id="nav-blue">
                <g id="Group-6">
                    <g id="Group-9" transform="translate(216.000000, 8.491803)">
                        <g id="Page-1">
                            <g id="picks-icon">
                                <path d="M16.3450412,21.7249017 L18.5871,30.0816705 C18.6525706,30.3245011 18.5895706,30.5869149 18.4215706,30.7657741 C18.2980412,30.8989392 18.1251,30.9746606 17.9484529,30.9746606 C17.8903941,30.9746606 17.8323353,30.9655218 17.7755118,30.9498554 L15.4136294,30.2722795 L15.3395118,30.2500853 L15.2839235,30.3075291 L13.4099824,32.2149247 C13.2876882,32.3415622 13.1233941,32.4107559 12.9479824,32.4107559 C12.8923941,32.4107559 12.8355706,32.4029226 12.7824529,32.3885617 C12.5576294,32.3258957 12.3822176,32.1483421 12.3155118,31.9133447 L10.9097471,27.0110378 L10.7886882,26.5854313 L10.6503353,27.0045101 L8.97774706,32.1091759 C8.89621765,32.3572287 8.69239412,32.5347823 8.44533529,32.5739485 C8.41445294,32.5778651 8.38233529,32.5804762 8.35145294,32.5804762 C8.13774706,32.5804762 7.93515882,32.4708108 7.81162941,32.2867295 L6.3651,30.1482531 L6.30457059,30.0581708 L6.20821765,30.0960315 L3.94021765,30.9733551 C3.86733529,31.002077 3.79074706,31.0164379 3.71292353,31.0164379 C3.54492353,31.0164379 3.38557059,30.9498554 3.26204118,30.8310511 C3.07921765,30.652192 3.00633529,30.3832505 3.07180588,30.12867 L5.11621765,22.2797567 L6.39474706,22.6518359 L4.76415882,28.9197389 L4.69374706,29.1886804 L4.94204118,29.0933759 L6.3231,28.558104 C6.39721765,28.5293821 6.47380588,28.5150211 6.55162941,28.5150211 C6.76533529,28.5150211 6.96668824,28.6246866 7.09145294,28.8087679 L7.99074706,30.1404199 L8.14392353,30.367584 L8.23039412,30.1038647 L10.2031588,24.0840145 C10.2970412,23.8007121 10.5490412,23.6153253 10.8430412,23.6127142 C11.1321,23.6179364 11.3816294,23.8189897 11.4656294,24.1101254 L13.2061588,30.1835027 L13.2716294,30.4093613 L13.4322176,30.2461687 L14.6897471,28.9641273 C14.8108059,28.8401009 14.9788059,28.7696017 15.1505118,28.7696017 C15.2085706,28.7696017 15.2666294,28.7774349 15.3234529,28.7931014 L16.7588647,29.2043469 L16.9911,29.272235 L16.9256294,29.0267933 L15.0689824,22.1074253 L16.3450412,21.7249017" id="Fill-4"></path>
                                <path d="M18.2171294,11.760199 L18.2171294,11.760199 C18.2072471,12.2647296 18.1578353,12.7603865 18.0614824,13.2382961 C18.0009529,13.537465 17.9206588,13.8290279 17.8292471,14.1155201 C17.6760706,14.5934298 17.4821294,15.0535921 17.2474235,15.4871334 L17.2474235,15.4896688 C17.1980118,15.5809406 17.1424235,15.6684095 17.0893059,15.757146 L17.0880706,15.757146 C16.8348353,16.1868844 16.5445412,16.5887341 16.2196588,16.9601599 C16.0269529,17.1807335 15.8243647,17.3898982 15.6094235,17.5876539 C15.2462471,17.9210498 14.8546588,18.218951 14.4371294,18.4788223 L14.4358941,18.4813576 C14.3494235,18.5358672 14.2654235,18.5929121 14.1764824,18.6436187 L14.1740118,18.642351 C13.7503059,18.8832073 13.3031294,19.080963 12.8361882,19.2394211 C12.5570118,19.3332283 12.2728941,19.4156265 11.9813647,19.4777421 C11.5156588,19.57662 11.0338941,19.6273265 10.5422471,19.6374679 L10.5397765,19.6400032 C10.4878941,19.6412709 10.4384824,19.6476092 10.3866,19.6476092 C10.3347176,19.6476092 10.2840706,19.6412709 10.2334235,19.6400032 L10.2309529,19.6374679 C9.73930588,19.6273265 9.25630588,19.57662 8.7906,19.4777421 C8.49907059,19.4156265 8.21495294,19.3332283 7.93701176,19.2394211 C7.47007059,19.080963 7.02165882,18.8832073 6.59918824,18.642351 L6.59548235,18.6436187 C6.50777647,18.5929121 6.42377647,18.5358672 6.33607059,18.4813576 L6.33607059,18.4788223 C5.91730588,18.218951 5.52571765,17.9210498 5.16377647,17.5876539 C4.94883529,17.3898982 4.74501176,17.1807335 4.55230588,16.9601599 C4.22742353,16.5887341 3.93836471,16.1868844 3.68389412,15.757146 L3.68265882,15.757146 C3.62954118,15.6684095 3.57395294,15.5822083 3.52454118,15.4909364 L3.52454118,15.4884011 C3.29107059,15.0535921 3.09712941,14.5934298 2.94395294,14.1155201 C2.85130588,13.8290279 2.77101176,13.537465 2.71048235,13.2382961 C2.61412941,12.7603865 2.56471765,12.2647296 2.55483529,11.760199 L2.55483529,11.760199 C2.5536,11.7082248 2.54742353,11.6562505 2.54742353,11.6030086 C2.54742353,11.5497667 2.55483529,11.4977924 2.55483529,11.4445505 L2.55483529,11.4420152 C2.56471765,10.9362169 2.61412941,10.4418277 2.71048235,9.96391805 C2.77101176,9.66474916 2.85130588,9.37318627 2.94395294,9.08669403 C3.09712941,8.60878442 3.28983529,8.14988977 3.52454118,7.71508076 L3.52454118,7.71634842 C3.57395294,7.62507656 3.63077647,7.53760769 3.68389412,7.44760349 L3.68389412,7.44506816 C3.93836471,7.01532981 4.22742353,6.61348008 4.55230588,6.2420543 C4.74501176,6.02148063 4.94883529,5.81231595 5.16377647,5.61456025 C5.52571765,5.28116441 5.91730588,4.98326319 6.33607059,4.72339192 L6.33607059,4.72339192 L6.33607059,4.72592725 C6.42377647,4.67141766 6.50901176,4.61310508 6.59918824,4.56239849 L6.59671765,4.56113083 L6.59918824,4.55986316 C7.02165882,4.31900686 7.47007059,4.12125115 7.93701176,3.96279306 C8.21495294,3.86898587 8.49907059,3.78658766 8.7906,3.72447208 C9.25630588,3.62559423 9.73930588,3.57488764 10.2309529,3.56474632 L10.2334235,3.56474632 L10.2309529,3.56728165 C10.2482471,3.56728165 10.2643059,3.56601399 10.2803647,3.56474632 L10.4916,3.56474632 C10.5088941,3.56601399 10.5249529,3.56728165 10.5410118,3.56728165 L10.5397765,3.56474632 L10.5410118,3.56474632 C11.0338941,3.57488764 11.5156588,3.62559423 11.9813647,3.72447208 C12.2728941,3.78658766 12.5570118,3.86898587 12.8361882,3.96279306 C13.3018941,4.12125115 13.7503059,4.31900686 14.1740118,4.55986316 L14.1764824,4.56113083 L14.1740118,4.56239849 C14.2629529,4.61310508 14.3494235,4.67141766 14.4371294,4.72592725 L14.4358941,4.72339192 L14.4371294,4.72339192 C14.8546588,4.98326319 15.2462471,5.28116441 15.6094235,5.61456025 C15.8243647,5.81231595 16.0269529,6.02148063 16.2196588,6.2420543 C16.5445412,6.61348008 16.8348353,7.01532981 17.0880706,7.44506816 L17.0880706,7.44760349 C17.1411882,7.53760769 17.1980118,7.62507656 17.2474235,7.71761609 L17.2486588,7.71508076 C17.4821294,8.14988977 17.6760706,8.60878442 17.8292471,9.08669403 C17.9206588,9.37318627 18.0009529,9.66474916 18.0614824,9.96391805 C18.1578353,10.4418277 18.2072471,10.9362169 18.2171294,11.4420152 L18.2171294,11.4445505 C18.2183647,11.4977924 18.2245412,11.5497667 18.2245412,11.6030086 C18.2245412,11.6562505 18.2183647,11.7082248 18.2171294,11.760199 M20.7729529,11.6004733 C20.7729529,11.3241223 20.6593059,11.0591804 20.4591882,10.8728337 L18.7717765,9.29585872 L19.4647765,7.06350107 C19.5463059,6.79855913 19.5154235,6.5120669 19.3807765,6.27121059 C19.2461294,6.03162195 19.0188353,5.86048721 18.7544824,5.80217463 L16.5247765,5.30144705 L16.0368353,3.01331215 C15.9787765,2.74203189 15.8132471,2.50878157 15.5785412,2.37060612 C15.3450706,2.23116299 15.0634235,2.20073904 14.8077176,2.28440491 L12.6323647,2.99556484 L11.0956588,1.26393478 C10.9140706,1.05984075 10.6571294,0.941947927 10.3866,0.941947927 C10.1160706,0.941947927 9.85912941,1.05984075 9.67630588,1.26393478 L8.1396,2.99556484 L5.96424706,2.28440491 C5.70730588,2.20073904 5.42689412,2.23243066 5.19342353,2.37060612 C4.95995294,2.50878157 4.79318824,2.74203189 4.73512941,3.01331215 L4.24718824,5.30144705 L2.01748235,5.80217463 C1.75312941,5.86175487 1.52707059,6.03162195 1.39118824,6.27121059 C1.25654118,6.5120669 1.22689412,6.79855913 1.30842353,7.06350107 L2.00018824,9.29585872 L0.312776471,10.8728337 C0.113894118,11.0591804 0.000247058822,11.3241223 0.000247058822,11.6004733 C0.000247058822,11.8780918 0.113894118,12.1430338 0.312776471,12.3293805 L2.00018824,13.9063555 L1.30842353,16.1387131 C1.22689412,16.403655 1.25654118,16.6901473 1.39118824,16.9297359 C1.52707059,17.1705922 1.75312941,17.3404593 2.01748235,17.4000396 L4.24718824,17.9007671 L4.73512941,20.188902 C4.79318824,20.4601823 4.95871765,20.6934326 5.19342353,20.8316081 C5.42689412,20.9697835 5.70730588,21.0014751 5.96424706,20.9165416 L8.1396,20.2066493 L9.67630588,21.9382794 C9.85912941,22.1423734 10.1160706,22.2589986 10.3866,22.2589986 C10.6558941,22.2589986 10.9140706,22.1423734 11.0956588,21.9382794 L12.6323647,20.2066493 L14.8077176,20.9165416 C15.0646588,21.0002075 15.3450706,20.9710512 15.5785412,20.8316081 C15.8132471,20.6934326 15.9787765,20.4601823 16.0368353,20.188902 L16.5247765,17.9007671 L18.7544824,17.4000396 C19.0188353,17.3404593 19.2461294,17.1705922 19.3807765,16.9297359 C19.5154235,16.6901473 19.5463059,16.403655 19.4647765,16.1387131 L18.7717765,13.9063555 L20.4591882,12.3293805 C20.6593059,12.1430338 20.7729529,11.8780918 20.7729529,11.6004733" id="Fill-6"></path>
                            </g>
                        </g>
                    </g>
                </g>
            </g>
        </g>
    </g>
</svg>
