<svg version="1.0" id="Layer_1" aria-labelledby="pin-point-location-fkw" xmlns="http://www.w3.org/2000/svg" xmlns:xlink="http://www.w3.org/1999/xlink" x="0px" y="0px"
	 viewBox="0 0 24 24" enable-background="new 0 0 24 24" xml:space="preserve">
	 <title id="pin-point-location-fkw">pin point location</title>
<g>
	<g>
		<path d="M12,24c-0.2,0-0.4-0.1-0.5-0.2c-0.4-0.4-8.8-9.4-8.8-14.4C2.7,4.2,6.9,0,12,0c5.2,0,9.3,4.2,9.3,9.3
			c0,5-8.5,14.1-8.8,14.4C12.4,23.9,12.2,24,12,24z M12,1.4c-4.4,0-8,3.6-8,8c0,3.5,5.4,10.1,8,13c2.6-2.9,8-9.5,8-13
			C20,4.9,16.4,1.4,12,1.4z"/>
	</g>
	<g>
		<path d="M12,12.3c-2.2,0-4-1.8-4-4c0-2.2,1.8-4,4-4c2.2,0,4,1.8,4,4C16,10.5,14.2,12.3,12,12.3z M12,5.7
			c-1.4,0-2.6,1.2-2.6,2.6c0,1.4,1.2,2.6,2.6,2.6c1.4,0,2.6-1.2,2.6-2.6C14.6,6.9,13.4,5.7,12,5.7z"/>
	</g>
</g>
</svg>
