<?xml version="1.0" encoding="UTF-8"?>
<svg width="11px" height="16px" viewBox="0 0 11 16" version="1.1" aria-labelledby="receipt-icon-fkw" xmlns="http://www.w3.org/2000/svg" xmlns:xlink="http://www.w3.org/1999/xlink">
    <!-- Generator: Sketch 46.2 (44496) - http://www.bohemiancoding.com/sketch -->
    <title id="receipt-icon-fkw">receipt indicator</title>
    <desc>Created with Sketch.</desc>
    <defs></defs>
    <g id="Symbols" stroke="none" stroke-width="1" fill="none" fill-rule="evenodd">
        <g id="Credit-Module/Redeemed/7/Large" transform="translate(-505.000000, -45.000000)" fill="#732282">
            <g id="Group-2-Copy" transform="translate(505.000000, 45.000000)">
                <path d="M6.21047397,8.94707458 C6.21047397,8.69333233 6.15668126,8.49249677 6.04924781,8.34471776 C5.94181436,8.19693876 5.74882924,8.05005901 5.4704444,7.90377878 C4.86504856,7.67086948 4.41875147,7.40678569 4.13109727,7.11122768 C3.84359502,6.81566967 3.69999586,6.39331547 3.69999586,5.84401521 C3.69999586,5.34552335 3.84526655,4.93575885 4.13580793,4.61487157 C4.42634931,4.2939843 4.81976543,4.10513892 5.31605631,4.04833543 L5.31605631,3.10380876 L5.97433312,3.10380876 L5.97433312,4.06647058 C6.44935004,4.14395714 6.82255591,4.35438485 7.09349487,4.69775371 C7.36428187,5.0409727 7.49982732,5.49180359 7.49982732,6.04994661 L6.22415008,6.04994661 C6.22415008,5.7187178 6.16655846,5.46422616 6.05152717,5.2864717 C5.93649588,5.10901699 5.77754908,5.02013976 5.57483872,5.02013976 C5.36301095,5.02013976 5.21090221,5.09552804 5.11851248,5.24630459 C5.02627471,5.39693126 4.98007985,5.59761695 4.98007985,5.84851153 C4.98007985,6.08127096 5.0315932,6.26786818 5.13446794,6.40815332 C5.23749465,6.54858834 5.4356463,6.70086367 5.72922682,6.86482942 C6.31638785,7.07990333 6.75675862,7.34248834 7.05018718,7.65303408 C7.34391966,7.96357982 7.49070991,8.39177923 7.49070991,8.93793207 C7.49070991,9.45156153 7.34756662,9.86252506 7.0617359,10.1717219 C6.77575322,10.4804691 6.38446449,10.6633194 5.88817362,10.7201229 L5.88817362,11.6066471 L5.2253381,11.6066471 L5.2253381,10.7244693 C4.71689069,10.6678157 4.300833,10.4753733 3.97701308,10.1469922 C3.65304121,9.81861101 3.49713354,9.33660565 3.50929009,8.70067632 L3.51840749,8.67834461 L4.76232577,8.67834461 C4.76232577,9.06937445 4.83404937,9.34859584 4.97795245,9.51570901 C5.12155162,9.68282219 5.31453674,9.76645372 5.55675586,9.76645372 C5.78074017,9.76645372 5.94561328,9.6919647 6.05152717,9.54253705 C6.15744105,9.39340915 6.21047397,9.19482174 6.21047397,8.94707458 M1.44191797,0 C0.646880051,0 0,0.638027615 0,1.42218559 L0,14.0772243 L0,16 L1.66377488,14.9980703 L2.13362527,14.7152519 L3.17179406,15.4563951 L3.80666952,15.9094741 L4.44595173,15.4622403 L5.49992402,14.7246942 L6.55404827,15.4622403 L7.19333048,15.9094741 L7.82820594,15.4563951 L8.86637473,14.7152519 L9.33607316,14.9980703 L11,16 L11,14.0772243 L11,1.42218559 C11,0.638027615 10.3531199,0 9.55793007,0 L1.44191797,0 Z M9.55793007,1.07881672 C9.75030737,1.07881672 9.90606308,1.23244094 9.90606308,1.42218559 L9.90606308,14.0772243 L8.81501333,13.4203121 L7.18694829,14.5823107 L5.49992402,13.4020271 L3.81305171,14.5823107 L2.18498667,13.4203121 L1.09378497,14.0772243 L1.09378497,1.42218559 C1.09378497,1.23244094 1.24969263,1.07881672 1.44191797,1.07881672 L9.55793007,1.07881672" id="Fill-1"></path>
            </g>
        </g>
    </g>
</svg>