<svg width="48" height="26" viewBox="0 0 48 26" aria-labelledby="scooter-delivery-vehicle-fkw" xmlns="http://www.w3.org/2000/svg"><title id="scooter-delivery-vehicle-fkw">scotter as delivery vehicle</title><g fill="#FFF" fill-rule="evenodd"><path d="M5.36 3H.64C.257 3 0 3.388 0 3.75c0 .406.293.75.64.75h4.72c.383 0 .64-.388.64-.75S5.743 3 5.36 3M7.49.5H3.7c-.419 0-.7.388-.7.751l.002.034c.018.394.331.715.698.715h3.79c.367 0 .68-.32.697-.704l.003-.045C8.19.888 7.909.5 7.49.5M5.995 6.208c-.018-.342-.265-.708-.637-.708H2.686c-.373 0-.621.37-.636.705l-.003.044c0 .363.257.751.64.751h2.671c.382 0 .64-.388.64-.751l-.003-.04zM20.145 16.846h-3.982l2.467-3.177a5.724 5.724 0 0 0-.95-.8c-.087-.059-.176-.112-.265-.165l-3.45 4.443a.778.778 0 0 0-.083.814c.13.263.404.433.698.433h5.548a5.87 5.87 0 0 0 .064-.837 5.673 5.673 0 0 0-.047-.71"/><path d="M21.097 18.142c-.302 3.413-3.126 5.988-6.569 5.988-3.637 0-6.596-2.949-6.596-6.573 0-3.624 2.959-6.572 6.596-6.572a6.58 6.58 0 0 1 4.495 1.764 6.532 6.532 0 0 1 2.083 4.346c.013.178.019.325.019.462 0 .184-.01.375-.028.585zm1.614-1.077a8.106 8.106 0 0 0-2.674-5.558 8.174 8.174 0 0 0-5.509-2.119c-4.52 0-8.199 3.665-8.199 8.17 0 4.504 3.678 8.168 8.2 8.168 4.262 0 7.852-3.315 8.172-7.546.018-.231.026-.435.026-.623 0-.15-.005-.312-.016-.492z"/><path d="M26.673 16.152L23.776 7.45l9.809-.084-6.912 8.786zm9.213-6.836l.117-.055c.381-.171.775-.316 1.171-.432l.17-.05-2.403-6.892a.777.777 0 0 0-.734-.52h-2.693a.776.776 0 0 0-.776.774c0 .427.348.774.776.774h2.14l1.01 2.894-11.402.097-.382-1.146h1.669a.776.776 0 0 0 .777-.774.776.776 0 0 0-.777-.774h-4.195a.776.776 0 0 0-.777.774c0 .427.349.774.777.774h.89l.702 2.109-2.4 3.09.14.091c.346.237.675.496.978.77l.102.097 1.769-2.277 2.732 8.206h-1.64c.005.055.011.108.014.163.012.2.018.379.018.548 0 .212-.01.438-.028.692-.004.049-.01.097-.015.145h2.888c.24 0 .463-.108.612-.296l8.198-10.421.572 1.64zM38.486 12.059a5.666 5.666 0 0 0-1.454.548l1.794 5.147a.777.777 0 0 0 1.468-.508l-1.808-5.187z"/><path d="M39.749 24.13v.232l-.005-.233h-.02c-3.624-.014-6.572-2.962-6.572-6.572a6.599 6.599 0 0 1 4.787-6.32 6.628 6.628 0 0 1 1.783-.251h.027c3.637 0 6.596 2.948 6.596 6.571 0 3.624-2.96 6.572-6.596 6.572zm0 .667H39.729l.01-.426h.01v.426zm0-15.408h-.052c-.68 0-1.36.091-2.072.28l-.002-.003-.186.054a8.184 8.184 0 0 0-5.887 7.837c0 4.49 3.666 8.154 8.177 8.169h.022c4.52 0 8.199-3.664 8.199-8.169 0-4.504-3.678-8.168-8.2-8.168z"/><path d="M39.729 24.986h.044v-.615h-.023zM8.592 7.043h8.24v-2.4h-8.24v2.4zm3.205-3.87h4.257v-1.78h-4.257v1.78zm5.656.078V.697a.699.699 0 0 0-.7-.697h-5.655a.694.694 0 0 0-.7.697L10.4 3.25H7.893c-.385 0-.7.312-.7.696V7.74a.694.694 0 0 0 .7.697h9.639c.385 0 .699-.314.699-.697V3.947a.699.699 0 0 0-.7-.696h-.078z"/></g></svg>
