<svg version="1.0" id="Layer_1" aria-labelledby="search-indicator-fkw" xmlns="http://www.w3.org/2000/svg" xmlns:xlink="http://www.w3.org/1999/xlink" x="0px" y="0px"
	 viewBox="0 0 24 24" enable-background="new 0 0 24 24" xml:space="preserve">
	 <title id="search-indicator-fkw">search indicator</title>
<g>
	<g id="_x34__4_">
		<g>
			<path d="M0.2,23.8c0.3,0.3,0.8,0.3,1.1,0l6.2-6.1c1.7,1.4,3.9,2.2,6.4,2.2c5.6,0,10.1-4.4,10.1-9.9S19.5,0,13.9,0
				C8.3,0,3.8,4.4,3.8,9.9c0,2.6,1,4.9,2.6,6.7l-6.2,6.1C-0.1,23-0.1,23.5,0.2,23.8z M5.4,9.9c0-4.6,3.8-8.4,8.5-8.4
				c4.7,0,8.5,3.8,8.5,8.4s-3.8,8.4-8.5,8.4C9.2,18.3,5.4,14.6,5.4,9.9z"/>
		</g>
	</g>
</g>
<path d="M8.7,10.3c0,0.4-0.3,0.8-0.8,0.8c-0.4,0-0.8-0.3-0.8-0.8c0-0.8,0.1-1.6,0.4-2.4c0.3-0.8,0.7-1.5,1.2-2.1
	c0.9-1.1,2-1.8,3.3-2.1c1.3-0.4,2.6-0.4,3.9,0c0.4,0.1,0.7,0.6,0.5,1c-0.1,0.4-0.6,0.7-1,0.5c-1-0.3-2-0.3-3,0
	C11.4,5.4,10.6,6,9.9,6.8C9.5,7.3,9.2,7.8,9,8.4C8.7,9,8.7,9.6,8.7,10.3L8.7,10.3z"/>
</svg>
