<?xml version="1.0" encoding="UTF-8" standalone="no"?>
<svg width="32px" height="32px" viewBox="0 0 32 28" version="1.1" aria-labelledby="browse-indicator-fkw" xmlns="http://www.w3.org/2000/svg" xmlns:xlink="http://www.w3.org/1999/xlink">
    <!-- Generator: sketchtool 39.1 (31720) - http://www.bohemiancoding.com/sketch -->
    <title id="browse-indicator-fkw">browse menu indicator</title>
    <desc>Created with sketchtool.</desc>
    <defs></defs>
    <g id="Symbols" stroke="none" stroke-width="1">
        <g id="d---Search---not-logged-in-Copy-9" transform="translate(-8.000000, -50.000000)">
            <g id="nav">
                <g>
                    <g id="shop" transform="translate(8.000000, 48.000000)">
                        <g id="Group-2" transform="translate(0.000000, 2.000000)">
                            <path d="M3.28366248,26.1924596 C5.16481149,26.1924596 6.32244165,25.0682226 6.32244165,23.6545781 C6.32244165,22.0071813 5.33177738,21.4840215 3.40610413,21.2391382 C2.18168761,21.0610413 1.92567325,20.7938959 1.92567325,20.2262118 C1.92567325,19.691921 2.32639138,19.3245961 3.11669659,19.3245961 C3.9070018,19.3245961 4.32998205,19.6585278 4.44129264,20.3820467 L6.09982047,20.3820467 C5.9551167,18.8014363 4.90879713,18 3.11669659,18 C1.35798923,18 0.222621185,19.0129264 0.222621185,20.3709156 C0.222621185,21.9070018 1.05745063,22.5192101 3.09443447,22.7863555 C4.26319569,22.9644524 4.59712747,23.1870736 4.59712747,23.821544 C4.59712747,24.4448833 4.07396768,24.8789946 3.28366248,24.8789946 C2.1037702,24.8789946 1.8032316,24.2890485 1.72531418,23.5766607 L0,23.5766607 C0.100179533,25.1684022 1.10197487,26.1924596 3.28366248,26.1924596 L3.28366248,26.1924596 Z M7.62477558,26.070018 L9.42800718,26.070018 L9.42800718,22.7863555 L12.6226212,22.7863555 L12.6226212,26.070018 L14.4258528,26.070018 L14.4258528,18.1113106 L12.6226212,18.1113106 L12.6226212,21.3615799 L9.42800718,21.3615799 L9.42800718,18.1113106 L7.62477558,18.1113106 L7.62477558,26.070018 Z M19.8355476,24.756553 C18.5332136,24.756553 17.5982047,23.7547576 17.5982047,22.129623 L17.5982047,22.0405745 C17.5982047,20.437702 18.4330341,19.4247756 19.8132855,19.4247756 C21.2046679,19.4247756 22.0283662,20.4822262 22.0283662,22.0294434 L22.0283662,22.1184919 C22.0283662,23.7213645 21.1824057,24.756553 19.8355476,24.756553 L19.8355476,24.756553 Z M19.8021544,26.1924596 C22.2843806,26.1924596 23.9095153,24.4671454 23.9095153,22.0962298 L23.9095153,22.0071813 C23.9095153,19.6140036 22.2064632,18 19.8132855,18 C17.4535009,18 15.7170557,19.6807899 15.7170557,22.0517056 L15.7170557,22.140754 C15.7170557,24.4671454 17.3087971,26.1924596 19.8021544,26.1924596 L19.8021544,26.1924596 Z M25.2118492,26.070018 L27.0039497,26.070018 L27.0039497,23.1759425 L28.0168761,23.1759425 C29.8312388,23.1759425 31,22.3745063 31,20.6937163 L31,20.6491921 C31,18.9684022 29.8980251,18.1113106 27.9612208,18.1113106 L25.2118492,18.1113106 L25.2118492,26.070018 Z M27.0039497,21.9181329 L27.0039497,19.4804309 L27.9166966,19.4804309 C28.7737882,19.4804309 29.2635548,19.8143627 29.2635548,20.6603232 L29.2635548,20.7048474 C29.2635548,21.4951526 28.7960503,21.9181329 27.9166966,21.9181329 L27.0039497,21.9181329 Z" id="SHOP"></path>
                            <rect id="Rectangle-195-Copy" x="0" y="0" width="31" height="4"></rect>
                            <rect id="Rectangle-195-Copy-2" x="0" y="9" width="31" height="4"></rect>
                        </g>
                    </g>
                </g>
            </g>
        </g>
    </g>
</svg>
