<?xml version="1.0" encoding="UTF-8" standalone="no"?>
<svg width="15px" height="15px" viewBox="0 0 15 15" version="1.1" aria-labelledby="snap-chat-icon-indicator-fkw" xmlns="http://www.w3.org/2000/svg" xmlns:xlink="http://www.w3.org/1999/xlink">
    <!-- Generator: sketchtool 39.1 (31720) - http://www.bohemiancoding.com/sketch -->
    <title id="snap-chat-icon-indicator-fkw">snap chat indicator</title>
    <desc>Created with sketchtool.</desc>
    <defs></defs>
    <g id="Page-1" stroke="none" stroke-width="1" fill="none" fill-rule="evenodd" opacity="0.788654384">
        <g id="footer---desktop" transform="translate(-832.000000, -399.000000)" fill="#FFFFFF">
            <g id="snap-ghost" transform="translate(832.000000, 399.000000)">
                <path d="M7.59555372,14.0389779 C7.55703074,14.0389779 7.51922821,14.037876 7.4813833,14.0360537 L7.48129854,14.0360537 C7.4571846,14.0379184 7.43196878,14.0389779 7.40675297,14.0389779 C6.52165676,14.0389779 5.95355933,13.6373896 5.40423603,13.2489813 C5.02489697,12.9809732 4.66695957,12.7279251 4.24519861,12.6577023 C4.03940368,12.6236292 3.83458347,12.6063383 3.63662875,12.6063383 C3.28000511,12.6063383 2.9986475,12.6613893 2.79323398,12.7015651 C2.6684263,12.7259757 2.56073994,12.7469535 2.4789051,12.7469535 C2.39342561,12.7469535 2.30078399,12.7284761 2.26052344,12.5909122 C2.22551796,12.471741 2.20021739,12.3562992 2.17589155,12.2446291 C2.11312748,11.9572536 2.06858661,11.7804887 1.94814402,11.7620112 C0.544364898,11.5451976 0.142564696,11.2495157 0.0529743964,11.0397371 C0.0403029208,11.0097324 0.0330984029,10.9796853 0.0313608427,10.9499349 C0.0268262344,10.869329 0.083911444,10.7981738 0.163542557,10.7851633 C2.32150757,10.4298111 3.28924384,8.22421148 3.32941963,8.13055275 C3.33052149,8.12796759 3.33166574,8.1254672 3.33285237,8.12288205 C3.46494932,7.85521302 3.49080083,7.62288851 3.40998309,7.43243496 C3.26190906,7.08343964 2.7789097,6.93002578 2.45919862,6.8286116 C2.38096603,6.80386196 2.30680188,6.78046847 2.24831814,6.75737163 C1.61033689,6.50512874 1.55723536,6.24627465 1.58232403,6.11430484 C1.62508496,5.8894815 1.92551336,5.73280442 2.16851751,5.73280442 C2.23513811,5.73280442 2.29379137,5.74462831 2.34312112,5.76764039 C2.63011521,5.90211059 2.88879979,5.97021448 3.11197032,5.97021448 C3.42032369,5.97021448 3.55492104,5.84061792 3.57136429,5.82362373 C3.56352408,5.67758391 3.55381917,5.52506003 3.54390236,5.3676625 C3.47961264,4.34741801 3.39998152,3.07967713 3.72274393,2.35604688 C4.69014116,0.18693605 6.74164883,0.01843509 7.34733689,0.01843509 C7.36284779,0.01843509 7.61288694,0.0157651804 7.61288694,0.0157651804 L7.64874001,0.0156380418 C8.2558266,0.0156380418 10.3117841,0.184435659 11.2797323,2.35473311 C11.6025794,3.07874478 11.5227364,4.34754515 11.458362,5.36702681 L11.455692,5.41135579 C11.4467923,5.55332717 11.4381469,5.69131488 11.4309424,5.82341183 C11.4463685,5.83913463 11.5701591,5.95834821 11.8497368,5.96902785 L11.8500334,5.96902785 C12.062482,5.96089099 12.3066727,5.89316852 12.5746384,5.76764039 C12.6531677,5.7309821 12.7403847,5.72326903 12.7997584,5.72326903 C12.8904506,5.72326903 12.9823718,5.74081415 13.0586973,5.77264117 L13.0633166,5.77454825 C13.2800879,5.85133993 13.4220593,6.0032705 13.4251106,6.16202417 C13.4279076,6.31149673 13.313822,6.53623531 12.7540309,6.75737163 C12.6960134,6.78017181 12.6218492,6.80373482 12.54332,6.8286116 C12.2232699,6.9301953 11.7403976,7.08343964 11.5924084,7.43239258 C11.5115482,7.62271899 11.5374421,7.85491637 11.6694543,8.12271253 C11.670641,8.12529769 11.6719971,8.12779808 11.6730142,8.13055275 C11.7131476,8.22412672 12.6800363,10.4290906 14.8389337,10.7848667 C14.9186495,10.7980043 14.9755652,10.8690748 14.9712001,10.9497654 C14.9693778,10.979982 14.9620462,11.0104528 14.9491204,11.0400337 C14.860081,11.2483291 14.4586199,11.5436295 13.0543322,11.7606127 C12.9396108,11.7782425 12.8951547,11.9277151 12.8266694,12.2411964 C12.8017926,12.3552821 12.7765768,12.4673335 12.741868,12.5851909 C12.7119904,12.6874527 12.6482517,12.7352992 12.5410315,12.7352992 L12.5235711,12.7352992 C12.4491527,12.7352992 12.3433734,12.721992 12.209327,12.6956743 C11.9715779,12.649184 11.7050107,12.6063383 11.3658898,12.6063383 C11.1678504,12.6063383 10.962903,12.6236292 10.7569809,12.6577023 C10.3356862,12.7279251 9.97796066,12.9804647 9.59934205,13.2481337 C9.04891688,13.6373896 8.48090421,14.0389779 7.59555372,14.0389779" id="Fill-1"></path>
            </g>
        </g>
    </g>
</svg>