<?xml version="1.0" encoding="utf-8"?>
<!-- Generator: Adobe Illustrator 19.2.0, SVG Export Plug-In . SVG Version: 6.00 Build 0)  -->
<!DOCTYPE svg PUBLIC "-//W3C//DTD SVG 1.1//EN" "http://www.w3.org/Graphics/SVG/1.1/DTD/svg11.dtd">
<svg version="1.1" id="Layer_1" aria-labelledby="product-rating-star-fkw" xmlns="http://www.w3.org/2000/svg" xmlns:xlink="http://www.w3.org/1999/xlink" x="0px" y="0px"
	 viewBox="0 0 18.8 18" style="enable-background:new 0 0 18.8 18;" xml:space="preserve">
   <title id="product-rating-star-fkw">product rating star</title>
<g id="star">
	<path class="st0" d="M18.1,6.4L14,5.8c-0.8-0.1-1.7-0.8-2.1-1.5L10,0.5c-0.4-0.7-0.9-0.7-1.3,0L6.9,4.3C6.6,5,5.6,5.7,4.8,5.8
		L0.7,6.4c-0.8,0.1-1,0.7-0.4,1.2l3,2.9c0.6,0.6,0.9,1.7,0.8,2.4l-0.7,4.1c-0.1,0.8,0.3,1.1,1,0.7l3.7-1.9c0.7-0.4,1.9-0.4,2.6,0
		l3.7,1.9c0.7,0.4,1.2,0,1-0.7L14.7,13c-0.1-0.8,0.2-1.9,0.8-2.4l3-2.9C19.1,7.1,18.9,6.5,18.1,6.4z"/>
</g>
</svg>
