<?xml version="1.0" encoding="utf-8"?>
<!-- Generator: Adobe Illustrator 19.2.0, SVG Export Plug-In . SVG Version: 6.00 Build 0)  -->
<!DOCTYPE svg PUBLIC "-//W3C//DTD SVG 1.1//EN" "http://www.w3.org/Graphics/SVG/1.1/DTD/svg11.dtd">
<svg version="1.1" id="Layer_1" aria-labelledby="empty-ratings-fkw" xmlns="http://www.w3.org/2000/svg" xmlns:xlink="http://www.w3.org/1999/xlink" x="0px" y="0px"
	 viewBox="0 0 18.8 18" style="enable-background:new 0 0 18.8 18;" xml:space="preserve">
   <title id="empty-ratings-fkw">empty ratings</title>
<g id="star_empty">
	<path class="st0" d="M18.1,6.4L14,5.8c-0.8-0.1-1.7-0.8-2.1-1.5L10,0.5C9.9,0.2,9.6,0,9.4,0S8.9,0.2,8.8,0.5L6.9,4.3
		C6.6,5,5.6,5.7,4.8,5.8L0.7,6.4c-0.8,0.1-1,0.7-0.4,1.2l3,2.9c0.6,0.6,0.9,1.7,0.8,2.4l-0.7,4.1C3.3,17.7,3.5,18,3.9,18
		c0.2,0,0.3-0.1,0.5-0.2l3.7-1.9c0.4-0.2,0.8-0.3,1.3-0.3s0.9,0.1,1.3,0.3l3.7,1.9c0.2,0.1,0.4,0.2,0.5,0.2c0.4,0,0.6-0.3,0.5-0.9
		L14.7,13c-0.1-0.8,0.2-1.9,0.8-2.4l3-2.9C19.1,7.1,18.9,6.5,18.1,6.4z M13.7,13.1l0.6,3.6L11.2,15c-0.5-0.3-1.1-0.4-1.8-0.4
		c-0.6,0-1.3,0.1-1.8,0.4l-3.2,1.7l0.6-3.6C5.3,12,4.8,10.6,4,9.8L1.5,7.3L5,6.8c1.1-0.2,2.3-1,2.8-2.1l1.6-3.2L11,4.7
		c0.5,1,1.7,1.9,2.8,2.1l3.5,0.5l-2.5,2.5C14,10.5,13.5,12,13.7,13.1z"/>
</g>
</svg>
