<svg xmlns="http://www.w3.org/2000/svg" width="17" height="21" aria-labelledby="trash-delete-icon-indicator-fkw" viewBox="0 0 17 21">
  <title id="trash-delete-icon-indicator-fkw">trash indicator</title>
    <path fill="#575860" fill-rule="evenodd" d="M11.021 3.221a.662.662 0 0 1-.625-.446c-.333-.963-1.025-1.452-2.057-1.452-1.033 0-1.725.489-2.058 1.452a.662.662 0 0 1-1.25-.431C5.543.854 6.75 0 8.338 0c1.588 0 2.794.854 3.308 2.344a.662.662 0 0 1-.626.877m4.994 2.382H.662a.662.662 0 1 1 0-1.323h15.353a.662.662 0 1 1 0 1.323M8.34 18.165a.662.662 0 0 1-.662-.662V7.85A.662.662 0 1 1 9 7.85v9.653a.662.662 0 0 1-.661.662m-2.733 0a.662.662 0 0 1-.661-.635l-.39-9.653a.662.662 0 0 1 1.322-.054l.39 9.653a.662.662 0 0 1-.661.689m5.465 0h-.027a.662.662 0 0 1-.634-.689l.39-9.653a.662.662 0 0 1 1.322.054l-.39 9.653a.662.662 0 0 1-.66.635m2.533 2.613H3.072a.662.662 0 0 1-.66-.607L1.4 7.905a.662.662 0 1 1 1.319-.11l.963 11.66h9.315l.963-11.66a.662.662 0 1 1 1.32.11L14.263 20.17a.662.662 0 0 1-.66.607"/>
</svg>
