<svg xmlns="http://www.w3.org/2000/svg" width="16" height="24" aria-labelledby="removing-trash-indicator-fkw" viewBox="0 0 16 24">
  <title id="removing-trash-indicator-fkw">removing a product indicator</title>
    <path fill="#B93D3F" fill-rule="evenodd" d="M11.116 5.254a.662.662 0 0 1-.39-.661c.089-1.016-.345-1.744-1.288-2.164-.944-.42-1.775-.255-2.47.49A.662.662 0 0 1 6 2.016C7.076.864 8.525.574 9.976 1.22c1.451.647 2.205 1.917 2.069 3.487a.662.662 0 0 1-.929.547zm3.606 4.081L.696 3.09a.662.662 0 1 1 .538-1.209L15.26 8.126a.662.662 0 1 1-.538 1.209zM7.34 21.165a.662.662 0 0 1-.662-.662V10.85a.662.662 0 1 1 1.323 0v9.653a.662.662 0 0 1-.661.662m-2.733 0a.662.662 0 0 1-.661-.635l-.39-9.653a.662.662 0 0 1 1.322-.054l.39 9.653a.662.662 0 0 1-.661.689m5.465 0h-.027a.662.662 0 0 1-.634-.689l.39-9.653a.662.662 0 0 1 1.322.054l-.39 9.653a.662.662 0 0 1-.66.635m2.533 2.613H2.072a.662.662 0 0 1-.66-.607L.4 10.905a.662.662 0 1 1 1.319-.11l.963 11.66h9.315l.963-11.66a.662.662 0 1 1 1.32.11L13.263 23.17a.662.662 0 0 1-.66.607"/>
</svg>
