<?xml version="1.0" encoding="UTF-8"?>
<svg width="16px" height="20px" viewBox="0 0 16 20" version="1.1" xmlns="http://www.w3.org/2000/svg" xmlns:xlink="http://www.w3.org/1999/xlink">
    <!-- Generator: Sketch 46.2 (44496) - http://www.bohemiancoding.com/sketch -->
    <title>trash_can</title>
    <desc>Created with Sketch.</desc>
    <defs></defs>
    <g id="mobile" stroke="none" stroke-width="1" fill="none" fill-rule="evenodd">
        <g id="trash_can" fill="#B93D3F">
            <path d="M10.5738932,3.10076433 C10.3105553,3.10076433 10.0644854,2.93515924 9.9738281,2.67146497 C9.65500385,1.74420382 8.99081841,1.27388535 8.00006349,1.27388535 C7.00930856,1.27388535 6.34512312,1.74420382 6.0261719,2.67146497 C5.91177101,3.00407643 5.55015752,3.18050955 5.21889011,3.06585987 C4.88749573,2.95095541 4.71151389,2.58853503 4.82591479,2.25592357 C5.31907025,0.822165605 6.47603025,0 8.00006349,0 C9.52422369,0 10.6810567,0.822292994 11.1740852,2.25592357 C11.2884861,2.58853503 11.1125043,2.9510828 10.7809829,3.06585987 C10.7124186,3.08955414 10.6425845,3.10076433 10.5738932,3.10076433 M15.3651449,5.39363057 L0.634855134,5.39363057 C0.284161158,5.39363057 0,5.10853503 0,4.7566879 C0,4.40484076 0.284161158,4.11974522 0.634855134,4.11974522 L15.3651449,4.11974522 C15.7158388,4.11974522 16,4.40484076 16,4.7566879 C16,5.10853503 15.7158388,5.39363057 15.3651449,5.39363057 M8.00006349,17.4847134 C7.64936951,17.4847134 7.36520835,17.1996178 7.36520835,16.8477707 L7.36520835,7.55630573 C7.36520835,7.2044586 7.64936951,6.91936306 8.00006349,6.91936306 C8.35063049,6.91936306 8.63491862,7.2044586 8.63491862,7.55630573 L8.63491862,16.8477707 C8.63491862,17.1996178 8.35063049,17.4847134 8.00006349,17.4847134 M5.37798481,17.4847134 C5.03922611,17.4847134 4.75785832,17.2163057 4.74401847,16.8735032 L4.36945395,7.58203822 C4.35536016,7.23057325 4.62783998,6.93401274 4.97815305,6.91974522 C5.32948188,6.90458599 5.62405466,7.17910828 5.63814845,7.53044586 L6.01283995,16.8220382 C6.02693373,17.1735032 5.75445391,17.4700637 5.40414084,17.4842038 C5.39537984,17.484586 5.38661884,17.4847134 5.37798481,17.4847134 M10.6220152,17.4847134 C10.6133812,17.4847134 10.6046202,17.484586 10.5958592,17.4842038 C10.2455461,17.4700637 9.97306627,17.1735032 9.98716005,16.8220382 L10.3618516,7.53044586 C10.3759453,7.17898089 10.6712799,6.90280255 11.021847,6.91974522 C11.37216,6.93401274 11.6446398,7.23057325 11.6305461,7.58203822 L11.2559815,16.8735032 C11.2421417,17.2163057 10.9607739,17.4847134 10.6220152,17.4847134 M13.0527485,20 L2.94737845,20 C2.61699983,20 2.34185362,19.7458599 2.31468182,19.4155414 L1.34208375,7.60878981 C1.31313436,7.25821656 1.57291708,6.95044586 1.92246832,6.92140127 C2.27151167,6.89375796 2.57852761,7.15324841 2.60735004,7.50369427 L3.53195305,18.7261146 L12.4681739,18.7261146 L13.39265,7.50369427 C13.4214724,7.15324841 13.7265838,6.89363057 14.0775317,6.92140127 C14.4270829,6.95044586 14.6868656,7.25821656 14.6580432,7.60878981 L13.6854452,19.4155414 C13.6582734,19.7458599 13.3831271,20 13.0527485,20" id="Fill-1"></path>
        </g>
    </g>
</svg>