<svg fill="#575860" version="1.0" id="Capa_1" aria-labelledby="trash-icon-fkw-standard" xmlns="http://www.w3.org/2000/svg" xmlns:xlink="http://www.w3.org/1999/xlink" x="0px" y="0px"
	 viewBox="0 0 66.1 66.1" enable-background="new 0 0 66.1 66.1" xml:space="preserve">
   <title id="trash-icon-fkw-standard">trash icon</title>
<path d="M49.9,66.1H19.1c-0.9,0-1.6-0.6-1.8-1.4L8.7,20.3c-0.2-1,0.4-1.9,1.4-2.1c1-0.2,1.9,0.4,2.1,1.4l8.4,42.9h27.8l5.6-42.8
	c0.1-1,1-1.7,2-1.5c1,0.1,1.7,1,1.5,2l-5.8,44.4C51.6,65.5,50.8,66.1,49.9,66.1z"/>
<path d="M59.6,15.2h-53c-1,0-1.8-0.8-1.8-1.8s0.8-1.8,1.8-1.8h53c1,0,1.8,0.8,1.8,1.8C61.4,14.4,60.6,15.2,59.6,15.2z"/>
<g>
	<path d="M25.9,8.7V8.5c0-3.1,2.5-5.7,5.7-5.7h2.8c3.1,0,5.7,2.6,5.7,5.7v0.1h2.8V8.5c0-4.7-3.8-8.5-8.5-8.5h-2.8
		C26.8,0,23,3.8,23,8.5v0.1H25.9z"/>
</g>
<g>
	<path d="M24.6,56.6c-1,0-1.8-0.8-1.8-1.8V23.1c0-1,0.8-1.8,1.8-1.8c1,0,1.8,0.8,1.8,1.8v31.7C26.4,55.8,25.6,56.6,24.6,56.6z"/>
	<path d="M33.1,56.6c-1,0-1.8-0.8-1.8-1.8V23.1c0-1,0.8-1.8,1.8-1.8c1,0,1.8,0.8,1.8,1.8v31.7C34.9,55.8,34.1,56.6,33.1,56.6z"/>
	<path d="M41.6,56.6c-1,0-1.8-0.8-1.8-1.8V23.1c0-1,0.8-1.8,1.8-1.8c1,0,1.8,0.8,1.8,1.8v31.7C43.4,55.8,42.6,56.6,41.6,56.6z"/>
</g>
</svg>
