<?xml version="1.0" encoding="UTF-8" standalone="no"?>
<svg width="15px" height="12px" viewBox="0 0 15 12" version="1.1" aria-labelledby="twitter-icon-indicator-fkw" xmlns="http://www.w3.org/2000/svg" xmlns:xlink="http://www.w3.org/1999/xlink">
    <!-- Generator: sketchtool 39.1 (31720) - http://www.bohemiancoding.com/sketch -->
    <title id="twitter-icon-indicator-fkw">twitter</title>
    <desc>Created with sketchtool.</desc>
    <defs></defs>
    <g id="Page-1" stroke="none" stroke-width="1" fill="none" fill-rule="evenodd" opacity="0.788654384">
        <g id="footer---desktop" transform="translate(-832.000000, -371.000000)" fill="#FFFFFF">
            <g id="Twitter_Logo_White_On_Image" transform="translate(832.000000, 371.000000)">
                <g id="Group">
                    <g id="Logo__x2014__FIXED" transform="translate(0.058036, 0.020922)">
                        <path d="M4.63459286,11.7607494 C10.194925,11.7607494 13.2374821,7.24360496 13.2374821,3.33298251 C13.2374821,3.20590172 13.2374821,3.07882093 13.2315857,2.95174014 C13.8212286,2.53583938 14.3342179,2.01018702 14.7410714,1.41521788 C14.1986,1.65205025 13.6148536,1.80801304 13.001625,1.88310623 C13.6266464,1.51919307 14.1042571,0.935776718 14.3342179,0.242608779 C13.7504714,0.583416349 13.1018643,0.826025127 12.4119821,0.958882316 C11.8577179,0.381242366 11.0734929,0.023105598 10.2067179,0.023105598 C8.53802857,0.023105598 7.18185,1.35167748 7.18185,2.98639854 C7.18185,3.21745452 7.21133214,3.4427341 7.25850357,3.66223728 C4.746625,3.54093289 2.517775,2.35677099 1.02597857,0.56608715 C0.766535714,1.00509351 0.619125,1.51341667 0.619125,2.05639822 C0.619125,3.08459733 1.1557,3.99149205 1.96351071,4.5229208 C1.46821071,4.5055916 1.00239286,4.37273441 0.595539286,4.15323123 L0.595539286,4.19366603 C0.595539286,5.6262131 1.63920714,6.8277042 3.01897143,7.09919497 C2.765425,7.16851177 2.50008571,7.20317017 2.22295357,7.20317017 C2.02837143,7.20317017 1.83968571,7.18584097 1.65689643,7.15118257 C2.04016429,8.32956807 3.16048571,9.18447519 4.48128571,9.20758079 C3.44351429,10.0047239 2.14040357,10.4783887 0.725260714,10.4783887 C0.483507143,10.4783887 0.241753571,10.4668359 0.00589642857,10.4379539 C1.33848929,11.2697554 2.930525,11.7607494 4.63459286,11.7607494" id="Shape"></path>
                    </g>
                </g>
            </g>
        </g>
    </g>
</svg>