<svg xmlns="http://www.w3.org/2000/svg" width="30" height="30" viewBox="0 0 30 30">
    <path fill="#852796" fill-rule="nonzero" d="M29.724 26.653L16.783 1.116A1.892 1.892 0 0 0 15.05 0c-.694 0-1.387.372-1.734 1.116L.26 26.9c-.347.62-.347 1.487 0 2.107.347.62 1.04.992 1.733.992H27.99c1.04 0 1.965-.992 1.965-2.107.115-.372 0-.868-.231-1.24zM15 27.693c-1.473 0-2.679-1.04-2.679-2.308 0-1.27 1.206-2.308 2.679-2.308 1.473 0 2.679 1.038 2.679 2.308 0 1.269-1.206 2.307-2.679 2.307zm1.473-9.367c-.134.645-.803 1.29-1.473 1.29s-1.34-.645-1.473-1.29c-.536-2.836-.938-6.06-1.206-8.638 0-.644.402-1.289 1.072-1.418 1.205-.258 1.875-.258 3.08 0 .804.13 1.206.774 1.206 1.418-.268 2.579-.67 5.802-1.206 8.638z"/>
</svg>
