<?xml version="1.0" encoding="utf-8"?>
<!-- Generator: Adobe Illustrator 19.2.1, SVG Export Plug-In . SVG Version: 6.00 Build 0)  -->
<!DOCTYPE svg PUBLIC "-//W3C//DTD SVG 1.1//EN" "http://www.w3.org/Graphics/SVG/1.1/DTD/svg11.dtd">
<svg version="1.1" id="Layer_1" aria-labelledby="fd-wine-spirits-logo-indicator-fkw" xmlns="http://www.w3.org/2000/svg" xmlns:xlink="http://www.w3.org/1999/xlink" x="0px" y="0px"
	 viewBox="0 0 624.2 50.7" style="enable-background:new 0 0 624.2 50.7;" xml:space="preserve">
	 <title id="fd-wine-spirits-logo-indicator-fkw">wine spirits label</title>
<style type="text/css">
	.st0{opacity:0.9;}
	.st1{fill:#575860;}
	.st2{fill:#F6A623;}
	.st3{fill:none;}
	.st4{fill:#5F5F5F;}
	.st5{fill:#FFFFFF;}
</style>
<g id="wines__x26__spirits" transform="translate(244.567773, 3.433128)" class="st0">
	<path id="Fill-7" class="st1" d="M231.5,7.8l-5.2,3.1c-1-1.7-1.9-2.8-2.8-3.3c-0.9-0.6-2.1-0.9-3.6-0.9c-1.8,0-3.3,0.5-4.4,1.5
		c-1.2,1-1.8,2.3-1.8,3.8c0,2.1,1.5,3.8,4.6,5.1l4.3,1.8c3.5,1.4,6,3.1,7.6,5.2c1.6,2,2.4,4.5,2.4,7.5c0,3.9-1.3,7.2-3.9,9.8
		c-2.6,2.6-5.9,3.9-9.8,3.9c-3.7,0-6.8-1.1-9.2-3.3c-2.4-2.2-3.9-5.3-4.4-9.3l6.5-1.4c0.3,2.5,0.8,4.3,1.5,5.2
		c1.3,1.9,3.3,2.8,5.8,2.8c2,0,3.7-0.7,5-2c1.3-1.3,2-3.1,2-5.1c0-0.8-0.1-1.6-0.3-2.3c-0.2-0.7-0.6-1.3-1.1-1.9
		c-0.5-0.6-1.1-1.1-1.9-1.6s-1.7-1-2.8-1.5l-4.1-1.7c-5.8-2.5-8.8-6.1-8.8-10.9c0-3.2,1.2-5.9,3.7-8.1c2.5-2.2,5.5-3.3,9.1-3.3
		C224.9,0.6,228.8,3,231.5,7.8"/>
	<path id="Fill-9" class="st1" d="M244.4,20.9h2.4c5.9,0,8.9-2.3,8.9-6.9c0-4.4-3-6.6-9.1-6.6h-2.1V20.9z M244.4,26.9v17.4H238V1.5
		h7.3c3.6,0,6.3,0.2,8.1,0.7c1.8,0.5,3.5,1.4,4.9,2.8c2.4,2.4,3.7,5.4,3.7,9.1c0,3.9-1.3,7-3.9,9.3c-2.6,2.3-6.1,3.4-10.6,3.4H244.4
		z"/>
	<polygon id="Fill-11" class="st1" points="266.7,44.3 273.2,44.3 273.2,1.5 266.7,1.5 	"/>
	<path id="Fill-13" class="st1" d="M288.5,21.1h2c6.1,0,9.1-2.3,9.1-7c0-4.4-3-6.6-8.9-6.6h-2.3V21.1z M296.5,26.1l13.2,18.3h-7.9
		l-12.2-17.5h-1.2v17.5H282V1.5h7.5c5.6,0,9.7,1.1,12.2,3.2c2.8,2.4,4.1,5.5,4.1,9.4c0,3-0.9,5.6-2.6,7.8
		C301.6,24,299.3,25.4,296.5,26.1L296.5,26.1z"/>
	<polygon id="Fill-14" class="st1" points="313.5,44.3 320,44.3 320,1.5 313.5,1.5 	"/>
	<polygon id="Fill-15" class="st1" points="341.1,7.5 341.1,44.3 334.7,44.3 334.7,7.5 324.9,7.5 324.9,1.5 350.9,1.5 350.9,7.5
		"/>
	<path id="Fill-16" class="st1" d="M378.5,7.8l-5.2,3.1c-1-1.7-1.9-2.8-2.8-3.3c-0.9-0.6-2.1-0.9-3.6-0.9c-1.8,0-3.3,0.5-4.4,1.5
		c-1.2,1-1.8,2.3-1.8,3.8c0,2.1,1.5,3.8,4.6,5.1l4.3,1.8c3.5,1.4,6,3.1,7.6,5.2c1.6,2,2.4,4.5,2.4,7.5c0,3.9-1.3,7.2-3.9,9.8
		c-2.6,2.6-5.9,3.9-9.8,3.9c-3.7,0-6.8-1.1-9.2-3.3c-2.4-2.2-3.9-5.3-4.4-9.3l6.5-1.4c0.3,2.5,0.8,4.3,1.5,5.2
		c1.3,1.9,3.3,2.8,5.8,2.8c2,0,3.7-0.7,5-2c1.3-1.3,2-3.1,2-5.1c0-0.8-0.1-1.6-0.3-2.3c-0.2-0.7-0.6-1.3-1.1-1.9
		c-0.5-0.6-1.1-1.1-1.9-1.6s-1.7-1-2.8-1.5l-4.1-1.7c-5.8-2.5-8.8-6.1-8.8-10.9c0-3.2,1.2-5.9,3.7-8.1c2.4-2.2,5.5-3.3,9.1-3.3
		C371.9,0.6,375.7,3,378.5,7.8"/>
	<polygon id="Fill-1" class="st1" points="36.4,0.4 33.4,30.8 33.3,30.8 28.8,0.4 18.5,0.4 14.4,30.8 14.3,30.8 10.8,0.4 -0.2,0.4
		7.3,44.4 19.8,44.4 23.6,14.8 23.7,14.8 27.5,44.4 40,44.4 47.5,0.4 	"/>
	<polygon id="Fill-2" class="st1" points="48.5,44.4 59.9,44.4 59.9,0.4 48.5,0.4 	"/>
	<polygon id="Fill-3" class="st1" points="82.6,0.4 82.6,27.5 82.5,27.5 75.1,0.4 62.4,0.4 62.4,44.4 73.1,44.4 73.1,17.2
		73.2,17.2 80.8,44.4 93.3,44.4 93.3,0.4 	"/>
	<polygon id="Fill-4" class="st1" points="96.2,0.4 96.2,44.4 122.7,44.4 122.7,35 107.6,35 107.6,26.3 121.2,26.3 121.2,17.3
		107.6,17.3 107.6,9.8 122.1,9.8 122.1,0.4 	"/>
	<path id="Fill-5" class="st1" d="M142.6,13.1v-1c0-2.6-1-4.7-3.2-4.7c-2.5,0-3.6,1.9-3.6,3.9c0,8.7,18.6,4.4,18.6,20.5
		c0,9.4-5.5,13.5-15.5,13.5c-9.4,0-14.7-3.3-14.7-12.4v-1.5h11v1c0,3.8,1.5,5.1,3.7,5.1c2.3,0,3.7-1.8,3.7-4.2
		c0-8.7-17.9-4.4-17.9-19.9c0-8.9,4.7-13.7,14.3-13.7c9.9,0,14.1,4.1,14.1,13.5H142.6L142.6,13.1z"/>
	<path id="Fill-17" class="st2" d="M183.1,9.1c0.1-1.8-0.4-3.3-1.5-4.4c-1-1.1-2.4-1.7-4.1-1.8c-1.8-0.1-3.3,0.5-4.4,1.6
		c-1.2,1.1-1.8,2.6-1.9,4.3c-0.1,1.5,0.3,2.8,1,3.9c0.7,1.2,2.3,2.6,4.8,4.2c1.9-0.6,3.4-1.5,4.4-2.8
		C182.5,12.9,183.1,11.2,183.1,9.1L183.1,9.1z M187.7,34.9l-13.3-14.1c-0.6,0.3-1.2,0.6-1.8,1.1c-0.6,0.5-1.2,1.1-1.9,1.9
		c-0.6,0.7-1.1,1.6-1.4,2.7c-0.4,1.1-0.6,2.3-0.7,3.6c-0.1,2.8,0.6,5.2,2.2,7c1.6,1.8,3.9,2.8,6.9,2.9c1.8,0.1,3.6-0.3,5.4-1.1
		C184.9,37.9,186.5,36.6,187.7,34.9L187.7,34.9z M197.2,17.9l-0.1,2.8c-0.1,1.9-0.4,4-1,6.3c-0.6,2.3-1.5,4.5-2.7,6.6l10.3,10.9
		l-6.9,0l-6.4-6.8c-2.3,2.7-4.7,4.5-7.1,5.5s-4.8,1.5-7.2,1.4c-4-0.2-7.3-1.5-9.9-3.9c-2.6-2.5-3.8-5.6-3.6-9.4
		c0.1-1.8,0.4-3.3,0.9-4.6s1.2-2.4,1.9-3.3c0.7-0.9,1.6-1.7,2.6-2.5c1-0.8,2.1-1.4,3.1-2c-2.1-1.5-3.5-3-4.4-4.4
		c-0.9-1.5-1.3-3.3-1.2-5.4c0.1-1.3,0.4-2.5,0.9-3.7c0.6-1.2,1.4-2.2,2.4-3.1c1-0.9,2.3-1.6,3.9-2.1c1.6-0.5,3.3-0.7,5.2-0.7
		c3.3,0.1,6,1.1,8,2.9c2,1.8,2.9,4,2.8,6.6c0,0.9-0.2,1.8-0.5,2.9c-0.3,1.1-0.7,2-1.3,2.8c-0.7,0.9-1.6,1.8-2.7,2.6
		c-1.2,0.8-2.7,1.5-4.5,2.1l10.3,11c0.3-0.8,0.5-1.6,0.7-2.5c0.2-0.9,0.3-1.9,0.3-2.9c0.1-1.1,0.1-2.3,0.2-3.6
		c0-1.3,0.1-2.3,0.1-3.2L197.2,17.9z"/>
</g>
<path id="bottle" d="M77.9,0c19.4,0,38.7,0.1,58.1,0c10-0.1,18,3.2,25.5,9.5c3.9,3.3,10.2,5.4,15.6,5.8c13.7,0.9,27.5,0.4,41.3,0.6
	c8.1,0.1,8.5,1.2,8.6,11.4c0.1,6.7-3.5,7.9-9.5,8c-15.2,0.1-30.5,0.3-45.6,1.2c-3.8,0.2-8.3,2.6-11.1,5.3c-6.5,6.3-14.1,9-23.2,9
	c-36.4-0.1-72.9-1.2-109.3-0.2c-11.9,0.3-15.8,0.3-20.7-1c-4.9-1.3-7.6-3.6-7.5-8.6C0.1,31,0,21.2,0,11.4c0-6.4,3.5-9.7,10-10.6
	c3-0.4,6.1-0.7,9.1-0.7C38.7,0,58.3,0,77.9,0"/>
<g id="bubbles">
	<path class="st3" d="M218.4,15.9c-13.8-0.2-27.6,0.3-41.3-0.6c-5.4-0.3-11.7-2.4-15.6-5.8c-3.5-3-7.1-5.2-10.9-6.8
		c-0.7,1.2-2.3,1.6-3.5,0.9c-0.9-0.5-1.4-1.5-1.3-2.5c-2.3-0.6-4.6-0.9-7.1-1.1c-0.1,0-0.2,0.1-0.2,0.1c-0.4,0.1-0.8,0-1.1-0.1
		c-0.4,0-0.9,0-1.3,0c-0.4,0-0.9,0-1.3,0c-0.1,1-0.8,1.9-1.8,2c-1.2,0.2-2.4-0.6-2.6-1.8c0-0.1,0-0.1,0-0.2c-1.1,0-2.2,0-3.2,0
		c0.1,0.7-0.2,1.5-0.8,2c-0.9,0.8-2.3,0.7-3.1-0.3c-0.4-0.5-0.6-1.1-0.5-1.7c-1.5,0-3,0-4.5,0c0.8,0.2,1.4,0.9,1.6,1.8
		c0.2,1.2-0.6,2.4-1.8,2.6c-1.2,0.2-2.4-0.6-2.6-1.8c-0.2-1.1,0.5-2.2,1.6-2.5c-1.5,0-3,0-4.6,0c0,0.1-0.1,0.3-0.1,0.4
		c-0.4,1.2-1.7,1.7-2.9,1.3c-0.8-0.3-1.3-1-1.4-1.7c-2.9,0-5.9,0-8.8,0c0,0.1,0.1,0.2,0.1,0.3c0.2,1.2-0.6,2.4-1.8,2.6
		c-1.2,0.2-2.4-0.6-2.6-1.8c-0.1-0.4,0-0.8,0.1-1.1c-1.3,0-2.6,0-3.8,0c0.8,0.2,1.4,0.9,1.6,1.8C93,3,92.1,4.2,90.9,4.4
		c-1.2,0.2-2.4-0.6-2.6-1.8C88.2,1.4,88.9,0.3,90,0c-0.7,0-1.4,0-2.1,0c-0.6,0.4-1.4,0.4-2,0c-2.7,0-5.4,0-8,0c-1,0-2,0-3,0
		c0.5,0.9,0.3,2.1-0.6,2.8c-0.9,0.8-2.3,0.7-3.1-0.3C70.7,1.8,70.6,0.8,71,0c-0.5,0-1.1,0-1.6,0c0,0-0.1,0.1-0.1,0.1
		c-0.9,0.7-2.1,0.7-2.9-0.1c-5.7,0-11.3,0-17,0c-0.1,0.3-0.3,0.6-0.6,0.8c-0.9,0.8-2.3,0.7-3.1-0.3c-0.1-0.2-0.2-0.3-0.3-0.5
		c-0.8,0-1.6,0-2.4,0c0.3,0.2,0.5,0.5,0.7,0.8c0.8,1.3,0.3,3-1,3.8c-1.3,0.8-3,0.3-3.8-1c-0.7-1.2-0.4-2.8,0.8-3.6
		c-0.8,0-1.5,0-2.3,0c-0.2,0.2-0.3,0.3-0.5,0.4c-1.1,0.6-2.4,0.4-3.3-0.4c-3.4,0-6.9,0-10.3,0c0,0-0.1,0-0.1,0.1
		c-0.9,0.5-2,0.5-2.8-0.1c-0.4,0-0.9,0-1.3,0c-0.2,0-0.5,0-0.7,0c0.4,0.2,0.8,0.6,1.1,1c0.8,1.3,0.3,3-1,3.7c-1.3,0.8-3,0.3-3.7-1
		C14,2.6,14.3,1,15.5,0.2c-1.1,0.1-2.1,0.2-3.2,0.3c-0.5,0.2-1,0.3-1.4,0.2c-0.3,0-0.7,0.1-1,0.1C7.2,1.2,5,2,3.4,3.3
		C3.2,3.9,2.8,4.4,2.2,4.8C2.1,4.9,1.9,4.9,1.8,5C1.4,5.6,1,6.2,0.7,6.9c1.2-0.5,2.6,0,3.3,1.2c0.8,1.3,0.3,3-1,3.7
		c-1,0.6-2.2,0.4-3.1-0.3c0,1.6,0,3.3,0,4.9c0.5,0,1,0.1,1.4,0.4c1.5,0.9,2,2.8,1.2,4.3c-0.6,1-1.5,1.5-2.5,1.6c0,5.5,0,11,0,16.5
		c0.9-1.3,2.7-1.6,4.1-0.8c1.5,0.9,2,2.8,1.2,4.3c-0.9,1.5-2.8,2-4.3,1.2c-0.3-0.1-0.5-0.3-0.7-0.5c0.8,3.3,3.3,5,7.3,6
		c0.3,0.1,0.6,0.2,0.9,0.2c0.6-0.1,1.3,0.1,1.9,0.4c2.9,0.5,6,0.6,11.2,0.5c0-0.6,0.1-1.2,0.4-1.8c0.9-1.5,2.8-2,4.3-1.2
		c1,0.6,1.6,1.7,1.6,2.8c0.1,0,0.3,0,0.4,0c0.7,0,1.3,0,2,0c-0.1-0.7,0-1.3,0.4-1.9c0.9-1.5,2.8-2,4.3-1.2c1.1,0.6,1.6,1.8,1.6,3
		c5.8-0.1,11.6-0.2,17.4-0.2c0-0.1,0.1-0.3,0.1-0.4c0.4-1.2,1.7-1.7,2.9-1.3c0.8,0.3,1.3,0.9,1.4,1.7c0.4,0,0.8,0,1.1,0
		c0.6-0.7,1.6-1.1,2.5-0.7c0.4,0.1,0.7,0.4,1,0.7c1.1,0,2.3,0,3.4,0c-0.1-0.3-0.2-0.6-0.2-1c0-1.5,1.2-2.8,2.8-2.8
		c1.5,0,2.8,1.2,2.8,2.8c0,0.4-0.1,0.7-0.2,1c0.6,0,1.3,0,1.9,0c0.5-0.6,1.3-1,2.1-1c0.9,0,1.6,0.4,2.1,1c0.7,0,1.5,0,2.2,0
		c0.2-0.2,0.3-0.3,0.6-0.4c1.1-0.7,2.5-0.4,3.4,0.5c3,0,6,0.1,9,0.1c-0.6-0.2-1.2-0.6-1.6-1.3c-0.8-1.3-0.3-3,1-3.8
		c1.3-0.8,3-0.3,3.8,1c0.8,1.3,0.3,3-1,3.8c-0.2,0.1-0.4,0.2-0.6,0.3c1.2,0,2.3,0,3.5,0c0.1-0.8,0.6-1.6,1.3-2c1.3-0.8,3-0.3,3.8,1
		c0.2,0.3,0.3,0.7,0.3,1c0.5,0,0.9,0,1.4,0c-0.1-0.1-0.2-0.3-0.3-0.5c-0.8-1.3-0.3-3,1-3.8c1.3-0.8,3-0.3,3.8,1
		c0.6,1.1,0.4,2.4-0.4,3.3c1.3,0,2.7,0,4,0c-0.1-0.1-0.1-0.2-0.2-0.3c-0.8-1.3-0.3-3,1-3.8c1.3-0.8,3-0.3,3.8,1
		c0.6,1,0.4,2.2-0.2,3.1c1.2,0,2.3,0,3.5,0c-0.3-0.2-0.5-0.5-0.7-0.8c-0.8-1.3-0.3-3,1-3.8c1.3-0.8,3-0.3,3.8,1
		c0.7,1.2,0.3,2.8-0.8,3.6c3.3,0,6.5,0,9.8,0.1c0-0.5,0.1-1,0.4-1.5c0.8-1.3,2.4-1.8,3.8-1c0.9,0.5,1.4,1.5,1.4,2.6
		c1.1,0,2.2-0.1,3.3-0.2c-0.5-0.8-0.6-2-0.1-2.9c0.8-1.3,2.4-1.8,3.8-1c1.1,0.6,1.5,1.8,1.3,3c0.8-0.2,1.6-0.5,2.3-0.7
		c0.1-0.2,0.1-0.4,0.2-0.6c0.7-1.3,2.3-1.7,3.6-1.1c2.6-1.4,5-3.1,7.3-5.4c2.8-2.7,7.2-5,11.1-5.3c15.2-0.9,30.4-1.1,45.6-1.2
		c6,0,9.6-1.3,9.5-8C226.9,17.1,226.5,16,218.4,15.9z M173.9,23c0.8-1.3,2.4-1.8,3.8-1c1.3,0.8,1.8,2.5,1,3.8
		c-0.8,1.3-2.4,1.8-3.8,1C173.6,26,173.1,24.3,173.9,23z M163.6,17c0.8-1.3,2.4-1.8,3.8-1c1.3,0.8,1.8,2.5,1,3.8
		c-0.8,1.3-2.4,1.8-3.8,1C163.3,20.1,162.9,18.4,163.6,17z M164.3,27c-0.8,1.3-2.4,1.8-3.8,1c-1.3-0.8-1.8-2.5-1-3.8
		c0.8-1.3,2.4-1.8,3.8-1C164.6,24,165,25.7,164.3,27z M154.1,11.5c0.8-1.3,2.4-1.8,3.8-1c1.3,0.8,1.8,2.5,1,3.8
		c-0.8,1.3-2.4,1.8-3.8,1C153.8,14.5,153.3,12.8,154.1,11.5z M154.8,20.3c-0.8,1.3-2.4,1.8-3.8,1c-1.3-0.8-1.8-2.5-1-3.8
		c0.8-1.3,2.4-1.8,3.8-1C155.1,17.3,155.6,19,154.8,20.3z M147.5,9.7c0.8-1.3,2.4-1.8,3.8-1c1.3,0.8,1.8,2.5,1,3.8
		c-0.8,1.3-2.4,1.8-3.8,1C147.2,12.7,146.8,11,147.5,9.7z M146.4,14.9c1.3,0.8,1.8,2.5,1,3.8c-0.8,1.3-2.4,1.8-3.8,1
		c-1.3-0.8-1.8-2.5-1-3.8C143.4,14.6,145,14.2,146.4,14.9z M137.7,21.2c0.8-1.3,2.4-1.8,3.8-1c1.3,0.8,1.8,2.5,1,3.8s-2.4,1.8-3.8,1
		C137.4,24.2,137,22.5,137.7,21.2z M135.2,18c-1.3-0.8-1.8-2.5-1-3.8c0.8-1.3,2.4-1.8,3.8-1c1.3,0.8,1.8,2.5,1,3.8
		C138.2,18.3,136.5,18.8,135.2,18z M140.2,29.1c0.8-1.3,2.4-1.8,3.8-1c1.3,0.8,1.8,2.5,1,3.8c-0.8,1.3-2.4,1.8-3.8,1
		C139.9,32.1,139.5,30.4,140.2,29.1z M144,12c-0.8,1.3-2.4,1.8-3.8,1c-1.3-0.8-1.8-2.5-1-3.8c0.8-1.3,2.4-1.8,3.8-1
		C144.3,9,144.8,10.7,144,12z M139.4,0.6c1.2-0.2,2.4,0.6,2.6,1.8c0.2,1.2-0.6,2.4-1.8,2.6c-1.2,0.2-2.4-0.6-2.6-1.8
		C137.4,2,138.2,0.8,139.4,0.6z M134.5,3.7c1.2-0.2,2.4,0.6,2.6,1.8c0.2,1.2-0.6,2.4-1.8,2.6c-1.2,0.2-2.4-0.6-2.6-1.8
		C132.5,5.1,133.3,3.9,134.5,3.7z M132.3,15.4c0.8,1.3,0.3,3-1,3.8c-1.3,0.8-3,0.3-3.8-1c-0.8-1.3-0.3-3,1-3.8
		C129.9,13.7,131.6,14.1,132.3,15.4z M127.7,34.1c1.3-0.8,3-0.3,3.8,1c0.8,1.3,0.3,3-1,3.8c-1.3,0.8-3,0.3-3.8-1
		C126,36.6,126.4,34.9,127.7,34.1z M125.9,30.9c-0.8-1.3-0.3-3,1-3.8c1.3-0.8,3-0.3,3.8,1c0.8,1.3,0.3,3-1,3.8
		C128.3,32.7,126.7,32.3,125.9,30.9z M127.7,7.3c1.3-0.8,3-0.3,3.8,1c0.8,1.3,0.3,3-1,3.8c-1.3,0.8-3,0.3-3.8-1
		C125.9,9.8,126.3,8.1,127.7,7.3z M128.7,21.5c0.8,1.3,0.3,3-1,3.8c-1.3,0.8-3,0.3-3.8-1c-0.8-1.3-0.3-3,1-3.8
		C126.2,19.7,127.9,20.2,128.7,21.5z M121.5,12.1c1.3-0.8,3-0.3,3.8,1c0.8,1.3,0.3,3-1,3.8c-1.3,0.8-3,0.3-3.8-1
		C119.7,14.6,120.2,12.9,121.5,12.1z M115.8,7.8c1.3-0.8,3-0.3,3.8,1c0.8,1.3,0.3,3-1,3.8c-1.3,0.8-3,0.3-3.8-1
		C114,10.3,114.5,8.6,115.8,7.8z M112.1,14.3c1.3-0.8,3-0.3,3.8,1c0.8,1.3,0.3,3-1,3.8c-1.3,0.8-3,0.3-3.8-1
		C110.4,16.8,110.8,15.1,112.1,14.3z M111.1,20.2c0.8,1.3,0.3,3-1,3.8c-1.3,0.8-3,0.3-3.8-1c-0.8-1.3-0.3-3,1-3.8
		C108.6,18.4,110.3,18.8,111.1,20.2z M109.5,31.9c-1.3,0.8-3,0.3-3.8-1c-0.8-1.3-0.3-3,1-3.8c1.3-0.8,3-0.3,3.8,1
		C111.3,29.5,110.8,31.2,109.5,31.9z M106.4,4.4c1.2-0.2,2.4,0.6,2.6,1.8c0.2,1.2-0.6,2.4-1.8,2.6c-1.2,0.2-2.4-0.6-2.6-1.8
		C104.3,5.7,105.2,4.6,106.4,4.4z M103.7,12.8c1.3-0.8,3-0.3,3.8,1c0.8,1.3,0.3,3-1,3.8c-1.3,0.8-3,0.3-3.8-1
		C101.9,15.3,102.4,13.6,103.7,12.8z M103.2,24.7c-1.3,0.8-3,0.3-3.8-1c-0.8-1.3-0.3-3,1-3.8c1.3-0.8,3-0.3,3.8,1
		C105,22.3,104.6,23.9,103.2,24.7z M100.4,4.8c1.2-0.2,2.4,0.6,2.6,1.8c0.2,1.2-0.6,2.4-1.8,2.6c-1.2,0.2-2.4-0.6-2.6-1.8
		C98.3,6.1,99.1,5,100.4,4.8z M98.7,10.2c0.2,1.2-0.6,2.4-1.8,2.6c-1.2,0.2-2.4-0.6-2.6-1.8c-0.2-1.2,0.6-2.4,1.8-2.6
		C97.3,8.2,98.5,9,98.7,10.2z M92.5,22.6c-0.8-1.3-0.3-3,1-3.8c1.3-0.8,3-0.3,3.8,1c0.8,1.3,0.3,3-1,3.8
		C94.9,24.4,93.2,23.9,92.5,22.6z M93.8,29.7c-1.3,0.8-3,0.3-3.8-1c-0.8-1.3-0.3-3,1-3.8c1.3-0.8,3-0.3,3.8,1
		C95.6,27.3,95.1,29,93.8,29.7z M94.4,3.5c1.2-0.2,2.4,0.6,2.6,1.8c0.2,1.2-0.6,2.4-1.8,2.6c-1.2,0.2-2.4-0.6-2.6-1.8
		C92.4,4.8,93.2,3.7,94.4,3.5z M93.8,13.3c0.2,1.2-0.6,2.4-1.8,2.6c-1.2,0.2-2.4-0.6-2.6-1.8c-0.2-1.2,0.6-2.4,1.8-2.6
		C92.5,11.3,93.6,12.1,93.8,13.3z M88.8,5.4c1.2-0.2,2.4,0.6,2.6,1.8c0.2,1.2-0.6,2.4-1.8,2.6C88.4,10,87.2,9.2,87,8
		C86.8,6.8,87.6,5.6,88.8,5.4z M88.3,12c0.2,1.2-0.6,2.4-1.8,2.6c-1.2,0.2-2.4-0.6-2.6-1.8c-0.2-1.2,0.6-2.4,1.8-2.6
		C87,9.9,88.1,10.7,88.3,12z M82.2,0.8c0.9-0.8,2.3-0.7,3.1,0.3C86.1,2,86,3.4,85,4.2c-0.9,0.8-2.3,0.7-3.1-0.3
		C81.1,3,81.2,1.5,82.2,0.8z M83.3,6.6c0.8,1,0.6,2.4-0.3,3.1c-0.9,0.8-2.3,0.7-3.1-0.3c-0.8-1-0.6-2.4,0.3-3.1
		C81.1,5.5,82.5,5.7,83.3,6.6z M82.5,21.5c-0.4,1.2-1.7,1.7-2.9,1.3c-1.1-0.4-1.7-1.7-1.3-2.9c0.4-1.2,1.7-1.7,2.9-1.3
		C82.4,19,83,20.3,82.5,21.5z M76.8,1.3c0.9-0.8,2.3-0.7,3.1,0.3c0.8,1,0.6,2.4-0.3,3.1c-0.9,0.8-2.3,0.7-3.1-0.3
		C75.7,3.4,75.9,2,76.8,1.3z M73.4,5.1c0.9-0.8,2.3-0.7,3.1,0.3c0.8,1,0.6,2.4-0.3,3.1c-0.9,0.8-2.3,0.7-3.1-0.3
		C72.3,7.3,72.5,5.9,73.4,5.1z M73.5,10.4c1.1,0.4,1.7,1.7,1.3,2.9c-0.4,1.2-1.7,1.7-2.9,1.3c-1.1-0.4-1.7-1.7-1.3-2.9
		C71,10.6,72.3,10,73.5,10.4z M66.6,7.9c0.4-1.2,1.7-1.7,2.9-1.3c1.1,0.4,1.7,1.7,1.3,2.9c-0.4,1.2-1.7,1.7-2.9,1.3
		C66.8,10.3,66.2,9,66.6,7.9z M65.8,10.9c-0.4,1.2-1.7,1.7-2.9,1.3c-1.1-0.4-1.7-1.7-1.3-2.9c0.4-1.2,1.7-1.7,2.9-1.3
		C65.6,8.5,66.2,9.8,65.8,10.9z M50.5,23.7c0.4-1.2,1.7-1.7,2.9-1.3c1.1,0.4,1.7,1.7,1.3,2.9c-0.4,1.2-1.7,1.7-2.9,1.3
		C50.7,26.1,50.1,24.9,50.5,23.7z M50,13.8c0.8-1.3,2.4-1.8,3.8-1c1.3,0.8,1.8,2.5,1,3.8c-0.8,1.3-2.4,1.8-3.8,1
		C49.7,16.8,49.2,15.1,50,13.8z M54.9,31c-1.1-0.4-1.7-1.7-1.3-2.9c0.4-1.2,1.7-1.7,2.9-1.3c1.1,0.4,1.7,1.7,1.3,2.9
		C57.3,30.9,56.1,31.5,54.9,31z M56.6,35.5c-0.4,1.2-1.7,1.7-2.9,1.3c-1.2-0.4-1.7-1.7-1.3-2.9c0.4-1.2,1.7-1.7,2.9-1.3
		C56.5,33.1,57,34.4,56.6,35.5z M56.7,15.2c0.8-1.3,2.4-1.8,3.8-1c1.3,0.8,1.8,2.5,1,3.8c-0.8,1.3-2.4,1.8-3.8,1
		C56.4,18.2,56,16.5,56.7,15.2z M57.6,23.6c0.4-1.2,1.7-1.7,2.9-1.3c1.1,0.4,1.7,1.7,1.3,2.9c-0.4,1.2-1.7,1.7-2.9,1.3
		C57.8,26.1,57.2,24.8,57.6,23.6z M59.8,2.2c0.8-1.3,2.4-1.8,3.8-1c1.3,0.8,1.8,2.5,1,3.8c-0.8,1.3-2.4,1.8-3.8,1
		C59.5,5.2,59,3.5,59.8,2.2z M58.6,7.5c1.3,0.8,1.8,2.5,1,3.8c-0.8,1.3-2.4,1.8-3.8,1c-1.3-0.8-1.8-2.5-1-3.8
		C55.6,7.2,57.3,6.7,58.6,7.5z M51.5,1.8c0.8-1.3,2.4-1.8,3.8-1c1.3,0.8,1.8,2.5,1,3.8c-0.8,1.3-2.4,1.8-3.8,1
		C51.2,4.8,50.7,3.1,51.5,1.8z M46.4,6.8c0.8-1.3,2.4-1.8,3.8-1c1.3,0.8,1.8,2.5,1,3.8c-0.8,1.3-2.4,1.8-3.8,1
		C46.1,9.8,45.6,8.1,46.4,6.8z M46.9,24.7c1.1,0.4,1.7,1.7,1.3,2.9c-0.4,1.2-1.7,1.7-2.9,1.3c-1.1-0.4-1.7-1.7-1.3-2.9
		C44.4,24.9,45.7,24.3,46.9,24.7z M40.8,7c1.3-0.8,3-0.3,3.8,1c0.8,1.3,0.3,3-1,3.8c-1.3,0.8-3,0.3-3.8-1C39,9.4,39.5,7.7,40.8,7z
		 M41.6,31.9c-1,0.2-2-0.5-2.2-1.6c-0.2-1.1,0.5-2.1,1.6-2.2c1.1-0.2,2,0.5,2.2,1.6C43.3,30.7,42.6,31.7,41.6,31.9z M24,1.6
		c1.3-0.8,3-0.3,3.7,1c0.8,1.3,0.3,3-1,3.7c-1.3,0.8-3,0.3-3.7-1C22.3,4,22.7,2.4,24,1.6z M26,21.5c0.8,1.3,0.3,3-1,3.8
		c-1.3,0.8-3,0.3-3.8-1c-0.8-1.3-0.3-3,1-3.8C23.6,19.7,25.3,20.2,26,21.5z M19.1,13.9c1.3-0.8,3-0.3,3.8,1c0.8,1.3,0.3,3-1,3.8
		c-1.3,0.8-3,0.3-3.8-1C17.3,16.4,17.8,14.7,19.1,13.9z M18,19.7c0.8,1.3,0.3,3-1,3.8c-1.3,0.8-3,0.3-3.8-1c-0.8-1.3-0.3-3,1-3.8
		C15.6,18,17.3,18.4,18,19.7z M12.1,6.6c1.3-0.8,3-0.3,3.7,1c0.8,1.3,0.3,3-1,3.7c-1.3,0.8-3,0.3-3.7-1C10.3,9,10.8,7.3,12.1,6.6z
		 M12.3,23.2c1.5,0.9,2,2.8,1.2,4.3c-0.9,1.5-2.8,2-4.3,1.2c-1.5-0.9-2-2.8-1.2-4.3C8.9,22.8,10.8,22.3,12.3,23.2z M6.5,2.3
		c1.3-0.8,3-0.3,3.7,1c0.7,1.3,0.3,3-1,3.7c-1.3,0.8-3,0.3-3.7-1C4.7,4.7,5.2,3.1,6.5,2.3z M1.7,29.8c-1.5-0.9-2-2.8-1.2-4.3
		c0.9-1.5,2.8-2,4.3-1.2c1.5,0.9,2,2.8,1.2,4.3C5.2,30.1,3.3,30.7,1.7,29.8z M4.5,36.9c-1.5-0.9-2-2.8-1.2-4.3
		c0.9-1.5,2.8-2,4.3-1.2c1.5,0.9,2,2.8,1.2,4.3C7.9,37.3,6,37.8,4.5,36.9z M12.9,45.5c-0.9,1.5-2.8,2-4.3,1.2
		c-1.5-0.9-2-2.8-1.2-4.3c0.9-1.5,2.8-2,4.3-1.2S13.8,44,12.9,45.5z M12.1,36.3c-1.5-0.9-2-2.8-1.2-4.3c0.9-1.5,2.8-2,4.3-1.2
		c1.5,0.9,2,2.8,1.2,4.3C15.5,36.7,13.6,37.2,12.1,36.3z M21.1,41.5c-0.9,1.5-2.8,2-4.3,1.2c-1.5-0.9-2-2.8-1.2-4.3
		c0.9-1.5,2.8-2,4.3-1.2C21.4,38.1,22,40,21.1,41.5z M20.9,35.5c-1.5-0.9-2-2.8-1.2-4.3c0.9-1.5,2.8-2,4.3-1.2
		c1.5,0.9,2,2.8,1.2,4.3C24.3,35.9,22.4,36.4,20.9,35.5z M28.6,43.6c-0.9,1.5-2.8,2-4.3,1.2c-1.5-0.9-2-2.8-1.2-4.3
		c0.9-1.5,2.8-2,4.3-1.2C28.9,40.2,29.4,42.1,28.6,43.6z M29,19.3c-1.3,0.8-3,0.3-3.8-1c-0.8-1.3-0.3-3,1-3.8c1.3-0.8,3-0.3,3.8,1
		S30.3,18.6,29,19.3z M27.6,12.2c-0.8-1.3-0.3-3,1-3.8c1.3-0.8,3-0.3,3.8,1c0.8,1.3,0.3,3-1,3.8C30.1,13.9,28.4,13.5,27.6,12.2z
		 M37.1,43.5c-0.9,1.5-2.8,2-4.3,1.2c-1.5-0.9-2-2.8-1.2-4.3c0.9-1.5,2.8-2,4.3-1.2C37.5,40.1,38,42,37.1,43.5z M36.1,16.8
		c-0.8-1.3-0.3-3,1-3.8c1.3-0.8,3-0.3,3.8,1c0.8,1.3,0.3,3-1,3.8S36.9,18.2,36.1,16.8z M41.8,38c-1.2,0.2-2.4-0.6-2.6-1.8
		c-0.2-1.2,0.6-2.4,1.8-2.6c1.2-0.2,2.4,0.6,2.6,1.8C43.8,36.7,43,37.8,41.8,38z M44.8,34.5c-1.1-0.4-1.7-1.7-1.3-2.9
		c0.4-1.2,1.7-1.7,2.9-1.3c1.1,0.4,1.7,1.7,1.3,2.9S45.9,34.9,44.8,34.5z M49.6,43.9c-0.4,1-1.5,1.6-2.6,1.2c-1-0.4-1.6-1.6-1.2-2.6
		c0.4-1,1.5-1.6,2.6-1.2C49.5,41.7,50,42.8,49.6,43.9z M48.5,30.1c0.4-1.2,1.7-1.7,2.9-1.3c1.1,0.4,1.7,1.7,1.3,2.9
		c-0.4,1.2-1.7,1.7-2.9,1.3C48.6,32.5,48,31.3,48.5,30.1z M50.7,39.5c0.7-0.6,1.8-0.5,2.4,0.2c0.6,0.7,0.5,1.8-0.2,2.4
		c-0.7,0.6-1.8,0.5-2.4-0.2C49.9,41.2,50,40.1,50.7,39.5z M55.1,46.8c-0.4,1.2-1.7,1.7-2.9,1.3c-1.1-0.4-1.7-1.7-1.3-2.9
		c0.4-1.2,1.7-1.7,2.9-1.3C54.9,44.4,55.5,45.6,55.1,46.8z M56.3,43.6c-1.1-0.4-1.7-1.7-1.3-2.9s1.7-1.7,2.9-1.3
		c1.1,0.4,1.7,1.7,1.3,2.9C58.7,43.5,57.4,44,56.3,43.6z M62.2,46.7c-0.4,1.2-1.7,1.7-2.9,1.3c-1.1-0.4-1.7-1.7-1.3-2.9
		c0.4-1.2,1.7-1.7,2.9-1.3C62.1,44.3,62.6,45.6,62.2,46.7z M62.8,30.7c-0.4,1.2-1.7,1.7-2.9,1.3c-1.1-0.4-1.7-1.7-1.3-2.9
		c0.4-1.2,1.7-1.7,2.9-1.3C62.7,28.3,63.2,29.6,62.8,30.7z M63.3,15.2c-0.2-1.2,0.6-2.4,1.8-2.6c1.2-0.2,2.4,0.6,2.6,1.8
		c0.2,1.2-0.6,2.4-1.8,2.6C64.6,17.3,63.5,16.5,63.3,15.2z M69.3,26.2c-0.8,1.3-2.4,1.8-3.8,1c-1.3-0.8-1.8-2.5-1-3.8
		c0.8-1.3,2.4-1.8,3.8-1C69.6,23.1,70,24.8,69.3,26.2z M70.7,20.4c-1.1-0.4-1.7-1.7-1.3-2.9c0.4-1.2,1.7-1.7,2.9-1.3
		c1.1,0.4,1.7,1.7,1.3,2.9C73.1,20.3,71.9,20.8,70.7,20.4z M71,23.4c-0.2-1.2,0.6-2.4,1.8-2.6c1.2-0.2,2.4,0.6,2.6,1.8
		c0.2,1.2-0.6,2.4-1.8,2.6C72.4,25.4,71.2,24.6,71,23.4z M73.6,40c-0.8-1.3-0.3-3,1-3.8c1.3-0.8,3-0.3,3.8,1c0.8,1.3,0.3,3-1,3.8
		C76,41.8,74.3,41.3,73.6,40z M79.1,47.9c-1.3,0.8-3,0.3-3.8-1c-0.8-1.3-0.3-3,1-3.8c1.3-0.8,3-0.3,3.8,1
		C80.8,45.5,80.4,47.1,79.1,47.9z M81.8,34c-1.3,0.8-3,0.3-3.8-1c-0.8-1.3-0.3-3,1-3.8c1.3-0.8,3-0.3,3.8,1
		C83.6,31.5,83.1,33.2,81.8,34z M82.9,28.1c-0.8-1.3-0.3-3,1-3.8c1.3-0.8,3-0.3,3.8,1c0.8,1.3,0.3,3-1,3.8
		C85.4,29.9,83.7,29.5,82.9,28.1z M86.1,34.7c-0.8-1.3-0.3-3,1-3.8c1.3-0.8,3-0.3,3.8,1c0.8,1.3,0.3,3-1,3.8
		C88.5,36.5,86.8,36,86.1,34.7z M91.5,43.1c-1.3,0.8-3,0.3-3.8-1c-0.8-1.3-0.3-3,1-3.8c1.3-0.8,3-0.3,3.8,1
		C93.3,40.6,92.8,42.3,91.5,43.1z M93.5,36.8c-0.8-1.3-0.3-3,1-3.8c1.3-0.8,3-0.3,3.8,1c0.8,1.3,0.3,3-1,3.8
		C95.9,38.6,94.2,38.1,93.5,36.8z M99.2,44.3c-1.3,0.8-3,0.3-3.8-1c-0.8-1.3-0.3-3,1-3.8c1.3-0.8,3-0.3,3.8,1
		C100.9,41.9,100.5,43.6,99.2,44.3z M100.3,35.6c-0.8-1.3-0.3-3,1-3.8c1.3-0.8,3-0.3,3.8,1c0.8,1.3,0.3,3-1,3.8
		C102.8,37.4,101.1,36.9,100.3,35.6z M107,43.7c-1.3,0.8-3,0.3-3.8-1c-0.8-1.3-0.3-3,1-3.8c1.3-0.8,3-0.3,3.8,1
		C108.8,41.3,108.3,42.9,107,43.7z M108.6,37.9c-1.2,0-2.1-1-2.1-2.1s0.9-2.1,2.1-2.1c1.2,0,2.1,1,2.1,2.1S109.7,37.9,108.6,37.9z
		 M113.5,44.5c-1.3,0.8-3,0.3-3.8-1c-0.8-1.3-0.3-3,1-3.8c1.3-0.8,3-0.3,3.8,1C115.3,42.1,114.8,43.8,113.5,44.5z M115.5,36.9
		c-1.3,0.8-3,0.3-3.8-1c-0.8-1.3-0.3-3,1-3.8c1.3-0.8,3-0.3,3.8,1S116.9,36.2,115.5,36.9z M115.7,28.3c-1.3,0.8-3,0.3-3.8-1
		c-0.8-1.3-0.3-3,1-3.8c1.3-0.8,3-0.3,3.8,1C117.5,25.8,117.1,27.5,115.7,28.3z M116.9,22.7c-0.8-1.3-0.3-3,1-3.8
		c1.3-0.8,3-0.3,3.8,1c0.8,1.3,0.3,3-1,3.8C119.4,24.5,117.7,24,116.9,22.7z M119.8,25.9c1.3-0.8,3-0.3,3.8,1c0.8,1.3,0.3,3-1,3.8
		c-1.3,0.8-3,0.3-3.8-1C118.1,28.4,118.5,26.7,119.8,25.9z M119.5,36.4c-0.8-1.3-0.3-3,1-3.8c1.3-0.8,3-0.3,3.8,1
		c0.8,1.3,0.3,3-1,3.8C122,38.2,120.3,37.8,119.5,36.4z M125.8,43.8c-1.3,0.8-3,0.3-3.8-1c-0.8-1.3-0.3-3,1-3.8c1.3-0.8,3-0.3,3.8,1
		C127.6,41.3,127.2,43,125.8,43.8z M130.4,50c-1.3,0.8-3,0.3-3.8-1c-0.8-1.3-0.3-3,1-3.8c1.3-0.8,3-0.3,3.8,1
		C132.2,47.5,131.8,49.2,130.4,50z M134.3,44.6c-1.3,0.8-3,0.3-3.8-1c-0.8-1.3-0.3-3,1-3.8c1.3-0.8,3-0.3,3.8,1
		C136.1,42.1,135.7,43.8,134.3,44.6z M134.6,32.2c-1.3-0.8-1.8-2.5-1-3.8c0.8-1.3,2.4-1.8,3.8-1c1.3,0.8,1.8,2.5,1,3.8
		C137.6,32.5,135.9,33,134.6,32.2z M141.9,45c-0.8,1.3-2.4,1.8-3.8,1c-1.3-0.8-1.8-2.5-1-3.8c0.8-1.3,2.4-1.8,3.8-1
		C142.2,41.9,142.6,43.6,141.9,45z M145.8,39.4c-0.8,1.3-2.4,1.8-3.8,1c-1.3-0.8-1.8-2.5-1-3.8c0.8-1.3,2.4-1.8,3.8-1
		C146.1,36.4,146.5,38.1,145.8,39.4z M145.5,26.5c-1.3-0.8-1.8-2.5-1-3.8c0.8-1.3,2.4-1.8,3.8-1c1.3,0.8,1.8,2.5,1,3.8
		C148.5,26.8,146.8,27.2,145.5,26.5z M148.3,33.8c-1.3-0.8-1.8-2.5-1-3.8c0.8-1.3,2.4-1.8,3.8-1c1.3,0.8,1.8,2.5,1,3.8
		C151.3,34.1,149.6,34.5,148.3,33.8z M156.5,39.3c-0.8,1.3-2.4,1.8-3.8,1c-1.3-0.8-1.8-2.5-1-3.8c0.8-1.3,2.4-1.8,3.8-1
		C156.8,36.2,157.3,37.9,156.5,39.3z M156.7,27.8c-0.8,1.3-2.4,1.8-3.8,1c-1.3-0.8-1.8-2.5-1-3.8c0.8-1.3,2.4-1.8,3.8-1
		C157,24.8,157.5,26.5,156.7,27.8z M157.1,18c0.8-1.3,2.4-1.8,3.8-1c1.3,0.8,1.8,2.5,1,3.8c-0.8,1.3-2.4,1.8-3.8,1
		C156.8,21,156.4,19.3,157.1,18z M160,39.9c-1.2,0-2.1-1-2.1-2.1c0-1.2,0.9-2.1,2.1-2.1c1.2,0,2.1,1,2.1,2.1
		C162.1,38.9,161.2,39.9,160,39.9z M167.9,35.5c-0.8,1.3-2.4,1.8-3.8,1c-1.3-0.8-1.8-2.5-1-3.8c0.8-1.3,2.4-1.8,3.8-1
		C168.2,32.5,168.6,34.2,167.9,35.5z M167.2,27.5c-1.3-0.8-1.8-2.5-1-3.8c0.8-1.3,2.4-1.8,3.8-1c1.3,0.8,1.8,2.5,1,3.8
		C170.2,27.8,168.5,28.3,167.2,27.5z M175,32c-0.8,1.3-2.4,1.8-3.8,1c-1.3-0.8-1.8-2.5-1-3.8c0.8-1.3,2.4-1.8,3.8-1
		C175.3,29,175.8,30.7,175,32z M181.6,33.9c-0.8,1.3-2.4,1.8-3.8,1c-1.3-0.8-1.8-2.5-1-3.8c0.8-1.3,2.4-1.8,3.8-1
		C181.9,30.8,182.3,32.5,181.6,33.9z M189,33.8c-0.8,1.3-2.4,1.8-3.8,1c-1.3-0.8-1.8-2.5-1-3.8c0.8-1.3,2.4-1.8,3.8-1
		C189.4,30.8,189.8,32.5,189,33.8z M188.2,27.2c-1.2,0.7-2.8,0.3-3.5-1c-0.7-1.2-0.3-2.8,0.9-3.6c1.2-0.7,2.8-0.3,3.5,1
		C189.9,24.9,189.4,26.5,188.2,27.2z M189.7,21.8c-1.1,0-2-0.9-2-2c0-1.1,0.9-2,2-2c1.1,0,2,0.9,2,2
		C191.7,20.9,190.8,21.8,189.7,21.8z M192.7,19.9c-0.7-1.2-0.3-2.8,0.9-3.6c1.2-0.7,2.8-0.3,3.5,1c0.7,1.2,0.3,2.8-0.9,3.6
		C195,21.6,193.4,21.2,192.7,19.9z M199.9,27.2c-1.2,0.7-2.8,0.3-3.5-1c-0.7-1.2-0.3-2.8,0.9-3.6c1.2-0.7,2.8-0.3,3.5,1
		C201.5,24.9,201.1,26.5,199.9,27.2z M199.9,20.4c-0.7-1.2-0.3-2.8,0.9-3.6c1.2-0.7,2.8-0.3,3.5,1c0.7,1.2,0.3,2.8-0.9,3.6
		C202.2,22.1,200.7,21.7,199.9,20.4z M205.9,27.3c-1.2,0.7-2.8,0.3-3.5-1c-0.7-1.2-0.3-2.8,0.9-3.6c1.2-0.7,2.8-0.3,3.5,1
		C207.5,25,207.1,26.6,205.9,27.3z M210.2,22.8c-1.2,0.7-2.8,0.3-3.5-1c-0.7-1.2-0.3-2.8,0.9-3.6c1.2-0.7,2.8-0.3,3.5,1
		C211.9,20.5,211.5,22,210.2,22.8z M215.1,23c-1.2-0.7-1.7-2.3-0.9-3.6c0.7-1.2,2.3-1.7,3.5-1c1.2,0.7,1.7,2.3,0.9,3.6
		C217.9,23.3,216.3,23.7,215.1,23z M220.8,32c-1.3,0.8-3,0.3-3.8-1c-0.8-1.3-0.3-3,1-3.8c1.3-0.8,3-0.3,3.8,1
		C222.5,29.6,222.1,31.3,220.8,32z M224.4,25.4c-1.2,0.7-2.8,0.3-3.5-1c-0.7-1.2-0.3-2.8,0.9-3.6c1.2-0.7,2.8-0.3,3.5,1
		C226.1,23,225.7,24.6,224.4,25.4z"/>
	<path class="st4" d="M25.2,34.3c0.9-1.5,0.4-3.5-1.2-4.3c-1.5-0.9-3.4-0.4-4.3,1.2c-0.9,1.5-0.4,3.5,1.2,4.3
		C22.4,36.4,24.3,35.9,25.2,34.3z"/>
	<path class="st4" d="M41.1,33.6c-1.2,0.2-2,1.4-1.8,2.6c0.2,1.2,1.3,2,2.6,1.8c1.2-0.2,2-1.4,1.8-2.6
		C43.4,34.2,42.3,33.4,41.1,33.6z"/>
	<path class="st4" d="M52.6,31.7c0.4-1.2-0.2-2.4-1.3-2.9c-1.1-0.4-2.4,0.2-2.9,1.3c-0.4,1.2,0.2,2.4,1.3,2.9
		C50.9,33.4,52.2,32.8,52.6,31.7z"/>
	<path class="st4" d="M52.8,42.2c0.7-0.6,0.8-1.7,0.2-2.4c-0.6-0.7-1.7-0.8-2.4-0.2c-0.7,0.6-0.8,1.7-0.2,2.4
		C51.1,42.7,52.1,42.8,52.8,42.2z"/>
	<path class="st4" d="M48.4,41.3c-1-0.4-2.2,0.1-2.6,1.2c-0.4,1,0.1,2.2,1.2,2.6c1,0.4,2.2-0.1,2.6-1.2C50,42.8,49.5,41.7,48.4,41.3
		z"/>
	<path class="st4" d="M40.9,14.1c-0.8-1.3-2.4-1.8-3.8-1c-1.3,0.8-1.8,2.5-1,3.8c0.8,1.3,2.4,1.8,3.8,1S41.7,15.4,40.9,14.1z"/>
	<path class="st4" d="M26.2,14.5c-1.3,0.8-1.8,2.5-1,3.8c0.8,1.3,2.4,1.8,3.8,1c1.3-0.8,1.8-2.5,1-3.8S27.5,13.7,26.2,14.5z"/>
	<path class="st4" d="M27.4,39.3c-1.5-0.9-3.4-0.4-4.3,1.2c-0.9,1.5-0.4,3.5,1.2,4.3c1.5,0.9,3.4,0.4,4.3-1.2
		C29.4,42.1,28.9,40.2,27.4,39.3z"/>
	<path class="st4" d="M32.4,9.4c-0.8-1.3-2.4-1.8-3.8-1c-1.3,0.8-1.8,2.5-1,3.8c0.8,1.3,2.4,1.8,3.8,1C32.7,12.4,33.2,10.7,32.4,9.4
		z"/>
	<path class="st4" d="M36,39.2c-1.5-0.9-3.4-0.4-4.3,1.2c-0.9,1.5-0.4,3.5,1.2,4.3c1.5,0.9,3.4,0.4,4.3-1.2C38,42,37.5,40.1,36,39.2
		z"/>
	<path class="st4" d="M47.7,33.2c0.4-1.2-0.2-2.4-1.3-2.9c-1.2-0.4-2.4,0.2-2.9,1.3c-0.4,1.2,0.2,2.4,1.3,2.9
		C45.9,34.9,47.2,34.3,47.7,33.2z"/>
	<path class="st4" d="M68.3,22.4c-1.3-0.8-3-0.3-3.8,1c-0.8,1.3-0.3,3,1,3.8c1.3,0.8,3,0.3,3.8-1C70,24.8,69.6,23.1,68.3,22.4z"/>
	<ellipse transform="matrix(0.986 -0.1665 0.1665 0.986 -2.8136 12.5147)" class="st4" cx="73.2" cy="23" rx="2.2" ry="2.2"/>
	<path class="st4" d="M73.6,19.1c0.4-1.2-0.2-2.4-1.3-2.9c-1.1-0.4-2.4,0.2-2.9,1.3c-0.4,1.2,0.2,2.4,1.3,2.9
		C71.9,20.8,73.1,20.3,73.6,19.1z"/>
	<path class="st4" d="M53.8,43.9c-1.1-0.4-2.4,0.2-2.9,1.3c-0.4,1.2,0.2,2.4,1.3,2.9c1.1,0.4,2.4-0.2,2.9-1.3
		C55.5,45.6,54.9,44.4,53.8,43.9z"/>
	<path class="st4" d="M77.3,41c1.3-0.8,1.8-2.5,1-3.8c-0.8-1.3-2.4-1.8-3.8-1c-1.3,0.8-1.8,2.5-1,3.8C74.3,41.3,76,41.8,77.3,41z"/>
	<path class="st4" d="M65.8,17.1c1.2-0.2,2-1.4,1.8-2.6c-0.2-1.2-1.3-2-2.6-1.8c-1.2,0.2-2,1.4-1.8,2.6
		C63.5,16.5,64.6,17.3,65.8,17.1z"/>
	<path class="st4" d="M59.1,42.3c0.4-1.2-0.2-2.4-1.3-2.9c-1.1-0.4-2.4,0.2-2.9,1.3s0.2,2.4,1.3,2.9S58.7,43.5,59.1,42.3z"/>
	<path class="st4" d="M60.9,43.8c-1.1-0.4-2.4,0.2-2.9,1.3c-0.4,1.2,0.2,2.4,1.3,2.9c1.1,0.4,2.4-0.2,2.9-1.3
		C62.6,45.6,62.1,44.3,60.9,43.8z"/>
	<path class="st4" d="M61.5,27.8c-1.1-0.4-2.4,0.2-2.9,1.3c-0.4,1.2,0.2,2.4,1.3,2.9c1.1,0.4,2.4-0.2,2.9-1.3
		C63.2,29.6,62.7,28.3,61.5,27.8z"/>
	<path class="st4" d="M43.5,11.8c1.3-0.8,1.8-2.5,1-3.8c-0.8-1.3-2.4-1.8-3.8-1c-1.3,0.8-1.8,2.5-1,3.8
		C40.5,12.1,42.2,12.5,43.5,11.8z"/>
	<path class="st4" d="M21.3,24.3c0.8,1.3,2.4,1.8,3.8,1c1.3-0.8,1.8-2.5,1-3.8c-0.8-1.3-2.4-1.8-3.8-1
		C20.9,21.2,20.5,22.9,21.3,24.3z"/>
	<path class="st4" d="M76.3,43.1c-1.3,0.8-1.8,2.5-1,3.8c0.8,1.3,2.4,1.8,3.8,1c1.3-0.8,1.8-2.5,1-3.8
		C79.3,42.8,77.6,42.3,76.3,43.1z"/>
	<path class="st4" d="M40.9,28.1c-1,0.2-1.8,1.2-1.6,2.2c0.2,1.1,1.2,1.8,2.2,1.6c1.1-0.2,1.8-1.2,1.6-2.2
		C43,28.6,42,27.9,40.9,28.1z"/>
	<path class="st4" d="M26.7,6.3c1.3-0.8,1.7-2.4,1-3.7c-0.8-1.3-2.4-1.8-3.7-1c-1.3,0.8-1.7,2.4-1,3.7C23.8,6.7,25.4,7.1,26.7,6.3z"
		/>
	<path class="st4" d="M47.4,10.6c1.3,0.8,3,0.3,3.8-1c0.8-1.3,0.3-3-1-3.8c-1.3-0.8-3-0.3-3.8,1C45.6,8.1,46.1,9.8,47.4,10.6z"/>
	<path class="st4" d="M44,26c-0.4,1.2,0.2,2.4,1.3,2.9c1.1,0.4,2.4-0.2,2.9-1.3c0.4-1.2-0.2-2.4-1.3-2.9C45.7,24.3,44.4,24.9,44,26z
		"/>
	<path class="st4" d="M52.5,5.6c1.3,0.8,3,0.3,3.8-1c0.8-1.3,0.3-3-1-3.8c-1.3-0.8-3-0.3-3.8,1C50.7,3.1,51.2,4.8,52.5,5.6z"/>
	<path class="st4" d="M59,26.5c1.1,0.4,2.4-0.2,2.9-1.3c0.4-1.2-0.2-2.4-1.3-2.9c-1.1-0.4-2.4,0.2-2.9,1.3
		C57.2,24.8,57.8,26.1,59,26.5z"/>
	<path class="st4" d="M60.8,6c1.3,0.8,3,0.3,3.8-1c0.8-1.3,0.3-3-1-3.8c-1.3-0.8-3-0.3-3.8,1C59,3.5,59.5,5.2,60.8,6z"/>
	<path class="st4" d="M54.8,8.5c-0.8,1.3-0.3,3,1,3.8c1.3,0.8,3,0.3,3.8-1c0.8-1.3,0.3-3-1-3.8C57.3,6.7,55.6,7.2,54.8,8.5z"/>
	<path class="st4" d="M8.8,35.8c0.9-1.5,0.4-3.5-1.2-4.3c-1.5-0.9-3.4-0.4-4.3,1.2c-0.9,1.5-0.4,3.5,1.2,4.3
		C6,37.8,7.9,37.3,8.8,35.8z"/>
	<path class="st4" d="M19.9,37.2c-1.5-0.9-3.4-0.4-4.3,1.2c-0.9,1.5-0.4,3.5,1.2,4.3c1.5,0.9,3.4,0.4,4.3-1.2
		C22,40,21.4,38.1,19.9,37.2z"/>
	<path class="st4" d="M11.7,41.2c-1.5-0.9-3.4-0.4-4.3,1.2c-0.9,1.5-0.4,3.5,1.2,4.3c1.5,0.9,3.4,0.4,4.3-1.2
		C13.8,44,13.3,42.1,11.7,41.2z"/>
	<path class="st4" d="M21.9,18.7c1.3-0.8,1.8-2.5,1-3.8c-0.8-1.3-2.4-1.8-3.8-1c-1.3,0.8-1.8,2.5-1,3.8C18.9,19,20.5,19.5,21.9,18.7
		z"/>
	<path class="st4" d="M16.4,35.2c0.9-1.5,0.4-3.5-1.2-4.3c-1.5-0.9-3.4-0.4-4.3,1.2c-0.9,1.5-0.4,3.5,1.2,4.3
		C13.6,37.2,15.5,36.7,16.4,35.2z"/>
	<path class="st4" d="M6.1,28.6c0.9-1.5,0.4-3.5-1.2-4.3c-1.5-0.9-3.4-0.4-4.3,1.2c-0.9,1.5-0.4,3.5,1.2,4.3
		C3.3,30.7,5.2,30.1,6.1,28.6z"/>
	<path class="st4" d="M14.3,18.7c-1.3,0.8-1.8,2.5-1,3.8c0.8,1.3,2.4,1.8,3.8,1c1.3-0.8,1.8-2.5,1-3.8C17.3,18.4,15.6,18,14.3,18.7z
		"/>
	<path class="st4" d="M9.2,7.1c1.3-0.8,1.7-2.4,1-3.7C9.4,2,7.8,1.6,6.5,2.3c-1.3,0.8-1.7,2.4-1,3.7C6.2,7.4,7.9,7.8,9.2,7.1z"/>
	<path class="st4" d="M14.8,11.3c1.3-0.8,1.7-2.4,1-3.7c-0.8-1.3-2.4-1.8-3.7-1c-1.3,0.8-1.7,2.4-1,3.7
		C11.8,11.6,13.5,12.1,14.8,11.3z"/>
	<path class="st4" d="M8,24.4c-0.9,1.5-0.4,3.5,1.2,4.3c1.5,0.9,3.4,0.4,4.3-1.2c0.9-1.5,0.4-3.5-1.2-4.3C10.8,22.3,8.9,22.8,8,24.4
		z"/>
	<path class="st4" d="M203.3,22.8c-1.2,0.7-1.7,2.3-0.9,3.6c0.7,1.2,2.3,1.7,3.5,1c1.2-0.7,1.7-2.3,0.9-3.6
		C206.1,22.5,204.5,22.1,203.3,22.8z"/>
	<path class="st4" d="M79.1,29.1c-1.3,0.8-1.8,2.5-1,3.8c0.8,1.3,2.4,1.8,3.8,1c1.3-0.8,1.8-2.5,1-3.8
		C82.1,28.8,80.4,28.4,79.1,29.1z"/>
	<path class="st4" d="M174,28.3c-1.3-0.8-3-0.3-3.8,1c-0.8,1.3-0.3,3,1,3.8c1.3,0.8,3,0.3,3.8-1C175.8,30.7,175.3,29,174,28.3z"/>
	<path class="st4" d="M180.6,30.1c-1.3-0.8-3-0.3-3.8,1c-0.8,1.3-0.3,3,1,3.8c1.3,0.8,3,0.3,3.8-1C182.3,32.5,181.9,30.8,180.6,30.1
		z"/>
	<path class="st4" d="M188,30c-1.3-0.8-3-0.3-3.8,1c-0.8,1.3-0.3,3,1,3.8c1.3,0.8,3,0.3,3.8-1C189.8,32.5,189.4,30.8,188,30z"/>
	<path class="st4" d="M185.6,22.7c-1.2,0.7-1.7,2.3-0.9,3.6c0.7,1.2,2.3,1.7,3.5,1c1.2-0.7,1.7-2.3,0.9-3.6
		C188.4,22.4,186.9,22,185.6,22.7z"/>
	<path class="st4" d="M166.9,31.7c-1.3-0.8-3-0.3-3.8,1c-0.8,1.3-0.3,3,1,3.8c1.3,0.8,3,0.3,3.8-1C168.6,34.2,168.2,32.5,166.9,31.7
		z"/>
	<path class="st4" d="M155.7,24c-1.3-0.8-3-0.3-3.8,1c-0.8,1.3-0.3,3,1,3.8c1.3,0.8,3,0.3,3.8-1C157.5,26.5,157,24.8,155.7,24z"/>
	<ellipse class="st4" cx="160" cy="37.8" rx="2.1" ry="2.1"/>
	<path class="st4" d="M155.5,35.5c-1.3-0.8-3-0.3-3.8,1c-0.8,1.3-0.3,3,1,3.8c1.3,0.8,3,0.3,3.8-1C157.3,37.9,156.8,36.2,155.5,35.5
		z"/>
	<path class="st4" d="M161.9,20.8c0.8-1.3,0.3-3-1-3.8c-1.3-0.8-3-0.3-3.8,1c-0.8,1.3-0.3,3,1,3.8C159.5,22.5,161.1,22.1,161.9,20.8
		z"/>
	<path class="st4" d="M197.2,17.3c-0.7-1.2-2.3-1.7-3.5-1c-1.2,0.7-1.7,2.3-0.9,3.6c0.7,1.2,2.3,1.7,3.5,1
		C197.5,20.2,197.9,18.6,197.2,17.3z"/>
	<ellipse class="st4" cx="189.7" cy="19.8" rx="2" ry="2"/>
	<path class="st4" d="M218.6,22.1c0.7-1.2,0.3-2.8-0.9-3.6c-1.2-0.7-2.8-0.3-3.5,1c-0.7,1.2-0.3,2.8,0.9,3.6
		C216.3,23.7,217.9,23.3,218.6,22.1z"/>
	<path class="st4" d="M225.4,21.8c-0.7-1.2-2.3-1.7-3.5-1c-1.2,0.7-1.7,2.3-0.9,3.6c0.7,1.2,2.3,1.7,3.5,1
		C225.7,24.6,226.1,23,225.4,21.8z"/>
	<path class="st4" d="M207.6,18.3c-1.2,0.7-1.7,2.3-0.9,3.6c0.7,1.2,2.3,1.7,3.5,1c1.2-0.7,1.7-2.3,0.9-3.6
		C210.5,18,208.9,17.5,207.6,18.3z"/>
	<path class="st4" d="M218,27.2c-1.3,0.8-1.8,2.5-1,3.8c0.8,1.3,2.4,1.8,3.8,1c1.3-0.8,1.8-2.5,1-3.8C221,26.9,219.3,26.5,218,27.2z
		"/>
	<path class="st4" d="M57.7,19c1.3,0.8,3,0.3,3.8-1c0.8-1.3,0.3-3-1-3.8c-1.3-0.8-3-0.3-3.8,1C56,16.5,56.4,18.2,57.7,19z"/>
	<path class="st4" d="M152.1,32.7c0.8-1.3,0.3-3-1-3.8c-1.3-0.8-3-0.3-3.8,1c-0.8,1.3-0.3,3,1,3.8C149.6,34.5,151.3,34.1,152.1,32.7
		z"/>
	<path class="st4" d="M197.3,22.7c-1.2,0.7-1.7,2.3-0.9,3.6c0.7,1.2,2.3,1.7,3.5,1c1.2-0.7,1.7-2.3,0.9-3.6
		C200.1,22.4,198.5,22,197.3,22.7z"/>
	<path class="st4" d="M204.4,17.8c-0.7-1.2-2.3-1.7-3.5-1c-1.2,0.7-1.7,2.3-0.9,3.6c0.7,1.2,2.3,1.7,3.5,1
		C204.7,20.7,205.1,19.1,204.4,17.8z"/>
	<path class="st4" d="M171,26.5c0.8-1.3,0.3-3-1-3.8c-1.3-0.8-3-0.3-3.8,1c-0.8,1.3-0.3,3,1,3.8C168.5,28.3,170.2,27.8,171,26.5z"/>
	<path class="st4" d="M105.1,32.8c-0.8-1.3-2.4-1.8-3.8-1c-1.3,0.8-1.8,2.5-1,3.8c0.8,1.3,2.4,1.8,3.8,1
		C105.4,35.8,105.8,34.1,105.1,32.8z"/>
	<path class="st4" d="M104.2,38.9c-1.3,0.8-1.8,2.5-1,3.8c0.8,1.3,2.4,1.8,3.8,1c1.3-0.8,1.8-2.5,1-3.8
		C107.3,38.6,105.6,38.1,104.2,38.9z"/>
	<path class="st4" d="M110.8,39.7c-1.3,0.8-1.8,2.5-1,3.8c0.8,1.3,2.4,1.8,3.8,1c1.3-0.8,1.8-2.5,1-3.8
		C113.8,39.4,112.1,38.9,110.8,39.7z"/>
	<path class="st4" d="M96.4,39.5c-1.3,0.8-1.8,2.5-1,3.8c0.8,1.3,2.4,1.8,3.8,1c1.3-0.8,1.8-2.5,1-3.8
		C99.4,39.2,97.7,38.8,96.4,39.5z"/>
	<path class="st4" d="M112.8,32.1c-1.3,0.8-1.8,2.5-1,3.8c0.8,1.3,2.4,1.8,3.8,1c1.3-0.8,1.8-2.5,1-3.8S114.1,31.4,112.8,32.1z"/>
	<path class="st4" d="M113,23.5c-1.3,0.8-1.8,2.5-1,3.8c0.8,1.3,2.4,1.8,3.8,1c1.3-0.8,1.8-2.5,1-3.8C116,23.2,114.3,22.7,113,23.5z
		"/>
	<path class="st4" d="M149.3,25.4c0.8-1.3,0.3-3-1-3.8c-1.3-0.8-3-0.3-3.8,1c-0.8,1.3-0.3,3,1,3.8C146.8,27.2,148.5,26.8,149.3,25.4
		z"/>
	<path class="st4" d="M89.8,35.7c1.3-0.8,1.8-2.5,1-3.8c-0.8-1.3-2.4-1.8-3.8-1c-1.3,0.8-1.8,2.5-1,3.8C86.8,36,88.5,36.5,89.8,35.7
		z"/>
	<path class="st4" d="M97.3,37.8c1.3-0.8,1.8-2.5,1-3.8c-0.8-1.3-2.4-1.8-3.8-1c-1.3,0.8-1.8,2.5-1,3.8
		C94.2,38.1,95.9,38.6,97.3,37.8z"/>
	<path class="st4" d="M88.7,38.3c-1.3,0.8-1.8,2.5-1,3.8c0.8,1.3,2.4,1.8,3.8,1c1.3-0.8,1.8-2.5,1-3.8C91.8,38,90.1,37.5,88.7,38.3z
		"/>
	<path class="st4" d="M87.7,25.4c-0.8-1.3-2.4-1.8-3.8-1c-1.3,0.8-1.8,2.5-1,3.8c0.8,1.3,2.4,1.8,3.8,1C88,28.4,88.4,26.7,87.7,25.4
		z"/>
	<path class="st4" d="M140.9,41.2c-1.3-0.8-3-0.3-3.8,1c-0.8,1.3-0.3,3,1,3.8c1.3,0.8,3,0.3,3.8-1C142.6,43.6,142.2,41.9,140.9,41.2
		z"/>
	<path class="st4" d="M138.4,31.2c0.8-1.3,0.3-3-1-3.8c-1.3-0.8-3-0.3-3.8,1c-0.8,1.3-0.3,3,1,3.8C135.9,33,137.6,32.5,138.4,31.2z"
		/>
	<path class="st4" d="M131.6,39.8c-1.3,0.8-1.8,2.5-1,3.8c0.8,1.3,2.4,1.8,3.8,1c1.3-0.8,1.8-2.5,1-3.8
		C134.6,39.5,132.9,39,131.6,39.8z"/>
	<path class="st4" d="M144.8,35.7c-1.3-0.8-3-0.3-3.8,1c-0.8,1.3-0.3,3,1,3.8c1.3,0.8,3,0.3,3.8-1C146.5,38.1,146.1,36.4,144.8,35.7
		z"/>
	<path class="st4" d="M120.7,23.7c1.3-0.8,1.8-2.5,1-3.8c-0.8-1.3-2.4-1.8-3.8-1c-1.3,0.8-1.8,2.5-1,3.8
		C117.7,24,119.4,24.5,120.7,23.7z"/>
	<path class="st4" d="M122.6,30.7c1.3-0.8,1.8-2.5,1-3.8c-0.8-1.3-2.4-1.8-3.8-1c-1.3,0.8-1.8,2.5-1,3.8
		C119.6,31,121.3,31.5,122.6,30.7z"/>
	<path class="st4" d="M124.3,33.7c-0.8-1.3-2.4-1.8-3.8-1c-1.3,0.8-1.8,2.5-1,3.8s2.4,1.8,3.8,1C124.6,36.7,125,35,124.3,33.7z"/>
	<path class="st4" d="M127.7,45.1c-1.3,0.8-1.8,2.5-1,3.8c0.8,1.3,2.4,1.8,3.8,1c1.3-0.8,1.8-2.5,1-3.8
		C130.7,44.8,129,44.4,127.7,45.1z"/>
	<path class="st4" d="M126.8,40c-0.8-1.3-2.4-1.8-3.8-1c-1.3,0.8-1.8,2.5-1,3.8c0.8,1.3,2.4,1.8,3.8,1C127.2,43,127.6,41.3,126.8,40
		z"/>
	<ellipse class="st4" cx="108.6" cy="35.8" rx="2.1" ry="2.1"/>
	<path class="st4" d="M75.4,49.1c-0.9,0-1.6,0.4-2.1,1c1.4,0,2.8,0,4.2,0C77.1,49.5,76.3,49.1,75.4,49.1z"/>
	<path class="st4" d="M61.9,49.4c-0.9-0.3-1.9,0-2.5,0.7c1.2,0,2.3,0,3.5,0C62.6,49.8,62.3,49.5,61.9,49.4z"/>
	<path class="st4" d="M68.9,46.3c-1.5,0-2.8,1.2-2.8,2.8c0,0.3,0.1,0.7,0.2,1c1.7,0,3.4,0,5.1,0c0.1-0.3,0.2-0.6,0.2-1
		C71.6,47.6,70.4,46.3,68.9,46.3z"/>
	<path class="st4" d="M99,48.3c-0.8,0.4-1.2,1.2-1.3,2c1.8,0,3.6,0,5.4,0.1c0-0.4-0.2-0.7-0.3-1C102.1,48,100.4,47.6,99,48.3z"/>
	<path class="st4" d="M95.9,46.2c-0.8-1.3-2.4-1.8-3.8-1c-1.3,0.8-1.8,2.5-1,3.8c0.4,0.6,0.9,1.1,1.6,1.3c0.5,0,1,0,1.5,0
		c0.2-0.1,0.4-0.1,0.6-0.3C96.2,49.3,96.6,47.6,95.9,46.2z"/>
	<path class="st4" d="M80.4,49.7c-0.2,0.1-0.4,0.3-0.6,0.4c1.3,0,2.6,0,3.9,0C82.9,49.3,81.5,49.1,80.4,49.7z"/>
	<path class="st4" d="M56.9,48.4c-1.1-0.4-2.4,0.2-2.9,1.3c0,0.1-0.1,0.3-0.1,0.4c1.5,0,2.9,0,4.4,0C58.1,49.3,57.6,48.7,56.9,48.4z
		"/>
	<path class="st4" d="M0.9,44c1.5,0.9,3.4,0.4,4.3-1.2c0.9-1.5,0.4-3.5-1.2-4.3C2.7,37.7,0.9,38,0,39.3c0,0.5,0,1,0,1.6
		c0,1,0.1,1.8,0.3,2.6C0.4,43.6,0.6,43.8,0.9,44z"/>
	<path class="st4" d="M26.2,47.7c-1.5-0.9-3.4-0.4-4.3,1.2c-0.3,0.6-0.5,1.2-0.4,1.8c1.8,0,3.9-0.1,6.3-0.1
		C27.8,49.4,27.3,48.3,26.2,47.7z"/>
	<path class="st4" d="M34.9,47.3c-1.5-0.9-3.4-0.4-4.3,1.2c-0.4,0.6-0.5,1.3-0.4,1.9c2.1-0.1,4.2-0.1,6.3-0.1
		C36.6,49.1,36,48,34.9,47.3z"/>
	<path class="st4" d="M155.1,15.3c1.3,0.8,3,0.3,3.8-1c0.8-1.3,0.3-3-1-3.8c-1.3-0.8-3-0.3-3.8,1C153.3,12.8,153.8,14.5,155.1,15.3z
		"/>
	<path class="st4" d="M149.8,48.2c-0.1,0.2-0.2,0.4-0.2,0.6c1.3-0.5,2.6-1,3.8-1.7C152.2,46.5,150.6,47,149.8,48.2z"/>
	<path class="st4" d="M174.9,26.8c1.3,0.8,3,0.3,3.8-1c0.8-1.3,0.3-3-1-3.8c-1.3-0.8-3-0.3-3.8,1C173.1,24.3,173.6,26,174.9,26.8z"
		/>
	<path class="st4" d="M109,47.2c-0.8-1.3-2.4-1.8-3.8-1c-1.3,0.8-1.8,2.5-1,3.8c0.1,0.2,0.2,0.3,0.3,0.5c1.3,0,2.7,0,4,0
		C109.4,49.6,109.6,48.3,109,47.2z"/>
	<path class="st4" d="M159.5,24.2c-0.8,1.3-0.3,3,1,3.8c1.3,0.8,3,0.3,3.8-1c0.8-1.3,0.3-3-1-3.8C162,22.5,160.3,22.9,159.5,24.2z"
		/>
	<path class="st4" d="M164.6,20.8c1.3,0.8,3,0.3,3.8-1c0.8-1.3,0.3-3-1-3.8c-1.3-0.8-3-0.3-3.8,1C162.9,18.4,163.3,20.1,164.6,20.8z
		"/>
	<path class="st4" d="M117.2,47.4c-0.8-1.3-2.4-1.8-3.8-1c-1.3,0.8-1.8,2.5-1,3.8c0.1,0.1,0.1,0.2,0.2,0.3c1.4,0,2.9,0,4.3,0
		C117.6,49.7,117.8,48.5,117.2,47.4z"/>
	<path class="st4" d="M124.5,47c-0.8-1.3-2.4-1.8-3.8-1c-1.3,0.8-1.8,2.5-1,3.8c0.2,0.3,0.4,0.6,0.7,0.8c1.1,0,2.2,0,3.3,0
		C124.8,49.8,125.2,48.2,124.5,47z"/>
	<path class="st4" d="M137.6,48.1c-1.3-0.8-3-0.3-3.8,1c-0.3,0.5-0.4,1-0.4,1.5c1.4,0,2.7,0,4.1,0c0.5,0,1,0,1.4,0
		C139,49.7,138.5,48.7,137.6,48.1z"/>
	<path class="st4" d="M145.9,46.6c-1.3-0.8-3-0.3-3.8,1c-0.5,0.9-0.5,2,0.1,2.9c1.7-0.2,3.4-0.5,5-0.9
		C147.5,48.4,147,47.2,145.9,46.6z"/>
	<path class="st4" d="M8.4,49.7c0.6,0.2,1.2,0.3,1.9,0.4C9.7,49.8,9,49.6,8.4,49.7z"/>
	<path class="st4" d="M115.4,2.6c0.2,1.2,1.3,2,2.6,1.8c1.2-0.2,2-1.4,1.8-2.6c-0.1-0.9-0.8-1.5-1.6-1.8c-0.4,0-0.8,0-1.2,0
		C115.9,0.4,115.2,1.4,115.4,2.6z"/>
	<path class="st4" d="M94.9,1.1c0.2,1.2,1.3,2,2.6,1.8c1.2-0.2,2-1.4,1.8-2.6c0-0.1-0.1-0.2-0.1-0.3c-1.4,0-2.8,0-4.2,0
		C94.9,0.4,94.8,0.8,94.9,1.1z"/>
	<path class="st4" d="M109.4,1.8c1.1,0.4,2.4-0.2,2.9-1.3c0.1-0.1,0.1-0.3,0.1-0.4c-1.5,0-2.9,0-4.4,0
		C108.1,0.8,108.6,1.5,109.4,1.8z"/>
	<path class="st4" d="M87.9,0c-0.7,0-1.3,0-2,0C86.5,0.5,87.3,0.5,87.9,0z"/>
	<path class="st4" d="M88.4,2.6c0.2,1.2,1.3,2,2.6,1.8c1.2-0.2,2-1.4,1.8-2.6C92.6,0.9,92,0.3,91.2,0c-0.4,0-0.8,0-1.2,0
		C88.9,0.3,88.2,1.4,88.4,2.6z"/>
	<path class="st4" d="M52.5,34c-0.4,1.2,0.2,2.4,1.3,2.9c1.1,0.4,2.4-0.2,2.9-1.3c0.4-1.2-0.2-2.4-1.3-2.9
		C54.2,32.2,52.9,32.8,52.5,34z"/>
	<path class="st4" d="M138.5,0.1c0.1,0,0.2,0,0.2-0.1c-0.5,0-0.9,0-1.4-0.1C137.7,0.2,138.1,0.2,138.5,0.1z"/>
	<path class="st4" d="M71.3,2.5c0.8,1,2.2,1.1,3.1,0.3C75.2,2.1,75.4,1,75,0c-1.3,0-2.6,0-3.9,0C70.6,0.8,70.7,1.8,71.3,2.5z"/>
	<path class="st4" d="M147.1,3.6c1.2,0.7,2.8,0.3,3.5-0.9c-1.6-0.6-3.1-1.2-4.8-1.6C145.7,2.1,146.2,3.1,147.1,3.6z"/>
	<path class="st4" d="M132.9,2.1c1-0.2,1.8-1,1.8-2c-1.5,0-2.9,0-4.4,0c0,0.1,0,0.1,0,0.2C130.5,1.4,131.7,2.3,132.9,2.1z"/>
	<path class="st4" d="M48.8,0.9c0.3-0.2,0.5-0.5,0.6-0.8c-1.3,0-2.7,0-4,0c0.1,0.2,0.2,0.4,0.3,0.5C46.5,1.5,47.9,1.6,48.8,0.9z"/>
	<path class="st4" d="M12.4,0.5c-0.5,0.1-1,0.1-1.4,0.2C11.4,0.8,11.9,0.7,12.4,0.5z"/>
	<path class="st4" d="M3.4,3.3C2.8,3.8,2.2,4.4,1.8,5c0.1-0.1,0.3-0.1,0.4-0.2C2.8,4.4,3.2,3.9,3.4,3.3z"/>
	<path class="st4" d="M3.1,11.8c1.3-0.8,1.7-2.4,1-3.7C3.4,6.9,2,6.4,0.7,6.9C0.2,8.2,0,9.7,0,11.4c0,0,0,0.1,0,0.1
		C0.8,12.2,2.1,12.4,3.1,11.8z"/>
	<path class="st4" d="M14.7,3.9c0.7,1.3,2.4,1.8,3.7,1c1.3-0.8,1.7-2.4,1-3.7c-0.3-0.5-0.6-0.8-1.1-1c-0.9,0-1.9,0.1-2.8,0.1
		C14.3,1,14,2.6,14.7,3.9z"/>
	<path class="st4" d="M69.3,0.1C69.4,0.1,69.4,0.1,69.3,0.1C68.4,0,67.4,0,66.4,0C67.2,0.8,68.5,0.8,69.3,0.1z"/>
	<path class="st4" d="M2.6,21.2c0.9-1.5,0.4-3.5-1.2-4.3C1,16.6,0.5,16.5,0,16.4c0,2.1,0,4.2,0,6.3C1.1,22.7,2,22.1,2.6,21.2z"/>
	<path class="st4" d="M38.9,3.7c0.8,1.3,2.4,1.8,3.8,1c1.3-0.8,1.8-2.5,1-3.8c-0.2-0.3-0.4-0.6-0.7-0.8c-1.1,0-2.2,0-3.3,0
		C38.5,0.9,38.2,2.4,38.9,3.7z"/>
	<path class="st4" d="M36.8,0.5c0.2-0.1,0.4-0.3,0.5-0.4c-1.3,0-2.5,0-3.8,0C34.4,0.9,35.8,1.1,36.8,0.5z"/>
	<path class="st4" d="M23.2,0.1C23.2,0.1,23.2,0.1,23.2,0.1c-0.9-0.1-1.8-0.1-2.8-0.1C21.2,0.6,22.3,0.7,23.2,0.1z"/>
	<path class="st4" d="M123.1,1.7c0.8,1,2.2,1.1,3.1,0.3c0.6-0.5,0.9-1.2,0.8-2c-1.5,0-2.9,0-4.4,0C122.6,0.6,122.8,1.2,123.1,1.7z"
		/>

		<ellipse transform="matrix(0.9864 -0.1643 0.1643 0.9864 -3.743918e-02 14.7609)" class="st4" cx="89.2" cy="7.6" rx="2.2" ry="2.2"/>
	<ellipse transform="matrix(0.9861 -0.1664 0.1664 0.9861 -0.9987 15.4372)" class="st4" cx="91.6" cy="13.7" rx="2.2" ry="2.2"/>
	<path class="st4" d="M79.9,9.5c0.8,1,2.2,1.1,3.1,0.3c0.9-0.8,1.1-2.2,0.3-3.1c-0.8-1-2.2-1.1-3.1-0.3C79.2,7.1,79.1,8.5,79.9,9.5z
		"/>
	<path class="st4" d="M95.2,7.9c1.2-0.2,2-1.4,1.8-2.6c-0.2-1.2-1.4-2-2.6-1.8c-1.2,0.2-2,1.4-1.8,2.6C92.8,7.3,94,8.1,95.2,7.9z"/>
	<path class="st4" d="M84,12.7c0.2,1.2,1.3,2,2.6,1.8c1.2-0.2,2-1.4,1.8-2.6c-0.2-1.2-1.3-2-2.6-1.8C84.6,10.3,83.8,11.5,84,12.7z"
		/>
	<path class="st4" d="M85,4.2C86,3.4,86.1,2,85.3,1.1c-0.8-1-2.2-1.1-3.1-0.3c-0.9,0.8-1.1,2.2-0.3,3.1C82.7,4.9,84.1,5,85,4.2z"/>
	<ellipse transform="matrix(0.9864 -0.1643 0.1643 0.9864 0.2258 16.6429)" class="st4" cx="100.7" cy="7" rx="2.2" ry="2.2"/>
	<path class="st4" d="M96.1,8.4c-1.2,0.2-2,1.4-1.8,2.6c0.2,1.2,1.3,2,2.6,1.8c1.2-0.2,2-1.4,1.8-2.6C98.5,9,97.3,8.2,96.1,8.4z"/>
	<path class="st4" d="M97.2,19.8c-0.8-1.3-2.4-1.8-3.8-1c-1.3,0.8-1.8,2.5-1,3.8c0.8,1.3,2.4,1.8,3.8,1C97.5,22.8,98,21.1,97.2,19.8
		z"/>
	<path class="st4" d="M91,24.9c-1.3,0.8-1.8,2.5-1,3.8c0.8,1.3,2.4,1.8,3.8,1c1.3-0.8,1.8-2.5,1-3.8C94,24.6,92.4,24.2,91,24.9z"/>
	<path class="st4" d="M76.3,8.6c0.9-0.8,1.1-2.2,0.3-3.1c-0.8-1-2.2-1.1-3.1-0.3c-0.9,0.8-1.1,2.2-0.3,3.1
		C73.9,9.2,75.3,9.4,76.3,8.6z"/>
	<path class="st4" d="M51,17.5c1.3,0.8,3,0.3,3.8-1c0.8-1.3,0.3-3-1-3.8c-1.3-0.8-3-0.3-3.8,1C49.2,15.1,49.7,16.8,51,17.5z"/>
	<path class="st4" d="M51.8,26.6c1.1,0.4,2.4-0.2,2.9-1.3c0.4-1.2-0.2-2.4-1.3-2.9c-1.1-0.4-2.4,0.2-2.9,1.3
		C50.1,24.9,50.7,26.1,51.8,26.6z"/>
	<path class="st4" d="M61.6,9.4c-0.4,1.2,0.2,2.4,1.3,2.9c1.1,0.4,2.4-0.2,2.9-1.3s-0.2-2.4-1.3-2.9C63.3,7.6,62.1,8.2,61.6,9.4z"/>
	<path class="st4" d="M57.8,29.7c0.4-1.2-0.2-2.4-1.3-2.9c-1.1-0.4-2.4,0.2-2.9,1.3c-0.4,1.2,0.2,2.4,1.3,2.9
		C56.1,31.5,57.3,30.9,57.8,29.7z"/>
	<path class="st4" d="M78.4,19.9c-0.4,1.2,0.2,2.4,1.3,2.9c1.1,0.4,2.4-0.2,2.9-1.3c0.4-1.2-0.2-2.4-1.3-2.9
		C80.1,18.2,78.8,18.8,78.4,19.9z"/>
	<path class="st4" d="M67.9,10.7c1.1,0.4,2.4-0.2,2.9-1.3c0.4-1.2-0.2-2.4-1.3-2.9c-1.1-0.4-2.4,0.2-2.9,1.3
		C66.2,9,66.8,10.3,67.9,10.7z"/>
	<path class="st4" d="M100.5,19.9c-1.3,0.8-1.8,2.5-1,3.8c0.8,1.3,2.4,1.8,3.8,1c1.3-0.8,1.8-2.5,1-3.8
		C103.5,19.6,101.8,19.1,100.5,19.9z"/>
	<path class="st4" d="M79.7,4.7c0.9-0.8,1.1-2.2,0.3-3.1c-0.8-1-2.2-1.1-3.1-0.3c-0.9,0.8-1.1,2.2-0.3,3.1
		C77.3,5.4,78.7,5.5,79.7,4.7z"/>
	<path class="st4" d="M71.9,14.6c1.1,0.4,2.4-0.2,2.9-1.3c0.4-1.2-0.2-2.4-1.3-2.9c-1.1-0.4-2.4,0.2-2.9,1.3
		C70.2,12.9,70.8,14.2,71.9,14.6z"/>
	<path class="st4" d="M124.2,16.9c1.3-0.8,1.8-2.5,1-3.8c-0.8-1.3-2.4-1.8-3.8-1c-1.3,0.8-1.8,2.5-1,3.8
		C121.2,17.2,122.9,17.7,124.2,16.9z"/>
	<path class="st4" d="M139.2,9.3c-0.8,1.3-0.3,3,1,3.8c1.3,0.8,3,0.3,3.8-1c0.8-1.3,0.3-3-1-3.8C141.7,7.5,140,7.9,139.2,9.3z"/>
	<ellipse transform="matrix(0.9864 -0.1643 0.1643 0.9864 1.4335 22.9985)" class="st4" cx="139.8" cy="2.8" rx="2.2" ry="2.2"/>
	<ellipse transform="matrix(0.9864 -0.1643 0.1643 0.9864 0.8607 22.246)" class="st4" cx="134.9" cy="5.9" rx="2.2" ry="2.2"/>
	<path class="st4" d="M141.2,32.8c1.3,0.8,3,0.3,3.8-1c0.8-1.3,0.3-3-1-3.8c-1.3-0.8-3-0.3-3.8,1C139.5,30.4,139.9,32.1,141.2,32.8z
		"/>
	<path class="st4" d="M130.5,38.9c1.3-0.8,1.8-2.5,1-3.8c-0.8-1.3-2.4-1.8-3.8-1c-1.3,0.8-1.8,2.5-1,3.8
		C127.5,39.2,129.2,39.7,130.5,38.9z"/>
	<path class="st4" d="M128.6,14.4c-1.3,0.8-1.8,2.5-1,3.8c0.8,1.3,2.4,1.8,3.8,1c1.3-0.8,1.8-2.5,1-3.8
		C131.6,14.1,129.9,13.7,128.6,14.4z"/>
	<path class="st4" d="M138.9,17c0.8-1.3,0.3-3-1-3.8c-1.3-0.8-3-0.3-3.8,1c-0.8,1.3-0.3,3,1,3.8C136.5,18.8,138.2,18.3,138.9,17z"/>
	<path class="st4" d="M148.5,13.4c1.3,0.8,3,0.3,3.8-1c0.8-1.3,0.3-3-1-3.8c-1.3-0.8-3-0.3-3.8,1C146.8,11,147.2,12.7,148.5,13.4z"
		/>
	<path class="st4" d="M142.6,15.9c-0.8,1.3-0.3,3,1,3.8c1.3,0.8,3,0.3,3.8-1c0.8-1.3,0.3-3-1-3.8C145,14.2,143.4,14.6,142.6,15.9z"
		/>
	<path class="st4" d="M138.7,25c1.3,0.8,3,0.3,3.8-1s0.3-3-1-3.8c-1.3-0.8-3-0.3-3.8,1C137,22.5,137.4,24.2,138.7,25z"/>
	<path class="st4" d="M114.9,19.2c1.3-0.8,1.8-2.5,1-3.8c-0.8-1.3-2.4-1.8-3.8-1c-1.3,0.8-1.8,2.5-1,3.8
		C111.9,19.5,113.6,19.9,114.9,19.2z"/>
	<path class="st4" d="M129.7,31.9c1.3-0.8,1.8-2.5,1-3.8c-0.8-1.3-2.4-1.8-3.8-1c-1.3,0.8-1.8,2.5-1,3.8
		C126.7,32.3,128.3,32.7,129.7,31.9z"/>
	<path class="st4" d="M106.7,27.1c-1.3,0.8-1.8,2.5-1,3.8c0.8,1.3,2.4,1.8,3.8,1c1.3-0.8,1.8-2.5,1-3.8
		C109.7,26.8,108,26.3,106.7,27.1z"/>
	<path class="st4" d="M107.1,8.8c1.2-0.2,2-1.4,1.8-2.6c-0.2-1.2-1.3-2-2.6-1.8c-1.2,0.2-2,1.4-1.8,2.6C104.8,8.2,105.9,9,107.1,8.8
		z"/>
	<path class="st4" d="M102.7,16.6c0.8,1.3,2.4,1.8,3.8,1c1.3-0.8,1.8-2.5,1-3.8c-0.8-1.3-2.4-1.8-3.8-1
		C102.4,13.6,101.9,15.3,102.7,16.6z"/>
	<path class="st4" d="M107.3,19.1c-1.3,0.8-1.8,2.5-1,3.8c0.8,1.3,2.4,1.8,3.8,1c1.3-0.8,1.8-2.5,1-3.8
		C110.3,18.8,108.6,18.4,107.3,19.1z"/>
	<path class="st4" d="M130.4,12.1c1.3-0.8,1.8-2.5,1-3.8c-0.8-1.3-2.4-1.8-3.8-1c-1.3,0.8-1.8,2.5-1,3.8
		C127.4,12.4,129.1,12.9,130.4,12.1z"/>
	<path class="st4" d="M118.6,12.6c1.3-0.8,1.8-2.5,1-3.8c-0.8-1.3-2.4-1.8-3.8-1c-1.3,0.8-1.8,2.5-1,3.8
		C115.6,12.9,117.2,13.4,118.6,12.6z"/>
	<path class="st4" d="M123.9,24.3c0.8,1.3,2.4,1.8,3.8,1c1.3-0.8,1.8-2.5,1-3.8c-0.8-1.3-2.4-1.8-3.8-1
		C123.6,21.3,123.1,23,123.9,24.3z"/>
	<path class="st4" d="M153.8,16.5c-1.3-0.8-3-0.3-3.8,1c-0.8,1.3-0.3,3,1,3.8c1.3,0.8,3,0.3,3.8-1C155.6,19,155.1,17.3,153.8,16.5z"
		/>
</g>
<g id="fd_logo">
	<path id="Fill-490" class="st5" d="M139,36.9l-0.6-2.3c0-0.1-0.1-0.3-0.3-0.3c-0.1,0-0.3,0-0.4,0.1l-0.4,0.3
		c-0.4,0.3-0.8,0.7-1.7,0.7c-2.6,0-3.6-3-3.7-5.5c-0.1-3,1.1-6.1,3.5-6.1c0.7,0,1.1,0.4,1.4,0.7l0.3,0.3c0.1,0.1,0.2,0.1,0.4,0.1
		c0.1,0,0.2-0.1,0.3-0.3l0.9-2.3c0.1-0.2,0-0.4-0.2-0.6l-0.2-0.1c-0.6-0.3-1.4-0.8-2.8-0.9c-2.7,0-5,0.8-6.6,2.4
		c-1.6,1.6-2.4,4-2.4,7c0.1,5.1,2.9,7.9,8,8c1.3,0,3.4-0.3,4.1-0.7C139,37.3,139.1,37.1,139,36.9"/>
	<path id="Fill-492" class="st5" d="M111.8,19.9c0-0.2-0.2-0.4-0.4-0.4c-2.1-0.1-3.5,1.2-4.3,2.2c0-0.8-0.1-1.7-0.1-1.7
		c0-0.1-0.1-0.3-0.2-0.3c-0.1-0.1-0.2-0.1-0.4-0.1l-4.7,1.3c-0.2,0.1-0.4,0.3-0.3,0.5l2.5,16c0,0.2,0.3,0.4,0.5,0.4l2.3-0.3
		c0.2,0,0.4-0.2,0.4-0.4l0.4-6.1c0.2-3.5,1.8-5,3.3-5c0,0,0.1,0,0.1,0c0.1,0,0.6,0,0.7,0c0.1,0,0.3,0,0.4-0.1
		c0.1-0.1,0.2-0.2,0.2-0.4L111.8,19.9z"/>
	<path id="Fill-494" class="st5" d="M126.1,29.9l0.1-1.2c0.1-0.9,0.2-1.8,0.2-2.3c0-2-0.8-3.9-2-5.1c-1.1-1-2.4-1.5-3.9-1.5
		c-2.3,0.1-4.3,0.9-5.8,2.5c-1.7,1.8-2.6,4.3-2.5,7.2c0.1,5.5,4.6,8.4,8.8,8.4c3.4-0.1,5.1-1.6,5.1-1.6c0.1-0.1,0.2-0.3,0.1-0.5
		l-0.7-2.2c-0.1-0.1-0.2-0.3-0.3-0.3c-0.2,0-0.3,0-0.4,0.1c0,0-1.2,1.3-2.6,1.2c-2.8-0.1-4-1.5-4.2-4.8c0.9,0.1,7.7,0.5,7.7,0.5
		C125.9,30.3,126.1,30.1,126.1,29.9 M118.1,27.1c0-1.6,0.4-2.7,1-3.4c0.3-0.3,0.7-0.5,1.2-0.5c0.4,0,0.7,0.1,0.9,0.3
		c0.6,0.6,0.7,2,0.8,3.4C121.3,26.8,118.8,27,118.1,27.1"/>
	<path id="Fill-496" class="st5" d="M95.1,13.8l-4.5-0.9c-0.1,0-0.3,0-0.4,0.1c-0.1,0.1-0.2,0.2-0.2,0.3v8.1
		c-0.3-0.2-0.6-0.3-0.9-0.4c-0.6-0.2-1.1-0.2-1.7-0.2c-2.1,0-3.7,0.7-4.8,2.2c-1,1.4-1.6,3.4-1.6,5.9v1.7c0,2.8,0.5,4.7,1.5,5.8
		c1,1.1,2.3,1.7,3.8,1.7c1,0,1.8-0.2,2.5-0.6c0.4-0.2,0.8-0.6,1.1-1c0,0.5,0,1,0,1c0,0.2,0.2,0.4,0.4,0.4h3.7c0.2,0,0.4-0.2,0.4-0.4
		l0.6-23.2C95.5,14,95.3,13.8,95.1,13.8L95.1,13.8z M86.1,29c0-1.5,0.2-2.7,0.7-3.5c0.4-0.7,0.8-1.4,1.6-1.5c0.3-0.1,0.7,0,1.1,0.2
		c0,0,0.1,0.1,0.1,0.1c0.2,0.1,0.4,0.2,0.5,0.7c0.2,0.8,0.3,2.2,0.3,3.6c0,1.4-0.1,2.8-0.3,3.5c-0.1,0.5-0.5,1.3-0.8,1.6
		c-0.4,0.3-0.8,0.4-1.2,0.4c-0.6,0-1.1-0.2-1.4-0.8c-0.3-0.6-0.5-1.7-0.5-3.3V29z"/>
	<path id="Fill-498" class="st5" d="M100.6,21.4c0-0.2-0.2-0.4-0.4-0.4h-3.3c-0.2,0-0.4,0.2-0.4,0.4l-0.6,16c0,0.1,0,0.2,0.1,0.3
		c0.1,0.1,0.2,0.1,0.3,0.1h4.4c0.1,0,0.2-0.1,0.3-0.1c0.1-0.1,0.1-0.2,0.1-0.3L100.6,21.4z"/>
	<path id="Fill-500" class="st5" d="M148.7,37l-0.4-3.4c0-0.1-0.1-0.2-0.2-0.3c-0.1-0.1-0.2-0.1-0.3-0.1c-0.1,0-0.6,0-0.8,0l-0.3,0
		h0c-0.5,0-0.9-0.1-1-0.2c-0.2-0.2-0.2-0.4-0.1-1.3c0,0,0,0,0,0c0,0,0-6.6,0-7.4c0.7,0,2.6,0.1,2.6,0.1c0.1,0,0.2,0,0.3-0.1
		c0.1-0.1,0.1-0.2,0.1-0.3v0l-0.2-2.6c0-0.2-0.2-0.4-0.4-0.4c0,0-2,0-2.6,0c0-0.7-0.1-4.1-0.1-4.1c0-0.1-0.1-0.3-0.2-0.3
		c-0.1-0.1-0.2-0.1-0.4-0.1l-2.6,0.5c-0.2,0-0.3,0.2-0.4,0.4c0,0-0.3,3.1-0.3,3.7c-0.5,0.1-1.7,0.3-1.7,0.3c-0.2,0-0.4,0.2-0.4,0.4
		l-0.1,2c0,0.3,0.2,0.5,0.4,0.5c0,0,0.7,0,1.2,0c0,0.8-0.3,7.7-0.3,7.7c-0.1,1.9,0.3,3.4,1,4.5c0.8,1.1,1.9,1.7,3.2,1.8
		c0.6,0,1.2,0,1.8-0.1c0.9-0.1,1.5-0.3,1.9-0.4C148.6,37.4,148.7,37.2,148.7,37"/>
	<path id="Fill-502" class="st5" d="M60.2,23c1.5,0.3,3.2,1.7,3.3,1.7c0.2,0.1,0.4,0.1,0.6,0l1.9-2c0.1-0.2,0.2-0.4,0-0.6
		C66,22,64.2,19.4,60,19.4c-3.1,0-5.4,2.5-5.4,5.7c0,3.4,2.5,4.8,4.4,5.8c1.1,0.6,2.1,1.1,2.1,1.9c0,0.4-0.2,0.6-0.6,0.7
		c-0.8,0-2.6-0.8-4.5-2.6c-0.1-0.1-0.3-0.2-0.4-0.1c-0.1,0-0.3,0.2-0.3,0.3L54.2,36c0,0.2,0,0.4,0.2,0.5c1.8,1,3.9,1.4,5.4,1.4
		c2.7,0,5.7-2.3,5.7-6.1c0-3.1-2.2-4.6-4.1-5.9c-1.1-0.8-2.1-1.4-2.2-2.2c0-0.2,0.1-0.4,0.2-0.6C59.7,23,59.9,22.9,60.2,23"/>
	<path id="Fill-504" class="st5" d="M31.7,10.3L31.7,10.3c-1-0.6-3-1.4-5.4-1.3c-4.1,0.2-6.4,3-6.4,7.9c0,0.3,0,0.7,0,1
		c0,0,0,0.6,0.1,1c-0.6,0-1.9,0-1.9,0c-0.1,0-0.2,0.1-0.3,0.2c-0.1,0.1-0.1,0.2-0.1,0.3c0,0,0,0,0,0.1l0.3,2.8
		c0,0.1,0.1,0.2,0.2,0.3c0.1,0.1,0.2,0.1,0.4,0.1c0,0,1.4-0.3,2-0.4c0.2,0.8,4,15.6,4,15.6c0,0.1,0.1,0.2,0.2,0.3
		c0.1,0.1,0.2,0.1,0.4,0l2.5-0.8c0.2-0.1,0.3-0.2,0.3-0.4c0,0,0,0,0,0c0,0-1.3-15.1-1.3-15.8c0.6-0.2,2.7-0.7,2.7-0.7
		c0.2-0.1,0.3-0.2,0.3-0.4c0,0,0,0,0-0.1L29.4,18c0-0.1-0.1-0.2-0.2-0.3c-0.1-0.1-0.2-0.1-0.3-0.1c0,0-1.8,0.4-2.6,0.5
		c0-0.2,0-0.4,0-0.4c0-2.7,1.1-4.5,2.9-4.6c0.3,0,0.9,0.3,1.3,0.6l0.5,0.3c0.1,0.1,0.3,0.1,0.4,0c0.1-0.1,0.2-0.2,0.2-0.3l0.4-2.8
		C32,10.6,31.9,10.4,31.7,10.3"/>
	<path id="Fill-506" class="st5" d="M39.2,19.9c0-0.2-0.2-0.4-0.4-0.4c-2.1-0.1-3.5,1.2-4.3,2.2c0-0.8-0.1-1.7-0.1-1.7
		c0-0.1-0.1-0.3-0.2-0.3c-0.1-0.1-0.2-0.1-0.4-0.1L29,21c-0.2,0.1-0.4,0.3-0.3,0.5l2.5,16c0,0.2,0.3,0.4,0.5,0.4l2.3-0.3
		c0.2,0,0.4-0.2,0.4-0.4l0.4-6.1c0.2-3.5,1.8-5,3.3-5c0,0,0.1,0,0.1,0c0.1,0,0.6,0,0.7,0c0.1,0,0.3,0,0.4-0.1
		c0.1-0.1,0.2-0.2,0.2-0.4L39.2,19.9z"/>
	<path id="Fill-508" class="st5" d="M53.5,29.9l0.1-1.2c0.1-0.9,0.2-1.8,0.2-2.3c0-2-0.8-3.9-2.1-5.1c-1.1-1-2.4-1.5-3.9-1.5
		c-2.3,0.1-4.3,0.9-5.8,2.5c-1.7,1.8-2.6,4.3-2.5,7.2c0.1,5.5,4.6,8.4,8.8,8.4c3.4-0.1,5.1-1.6,5.1-1.6c0.1-0.1,0.2-0.3,0.1-0.5
		l-0.7-2.2c0-0.1-0.2-0.3-0.3-0.3c-0.2,0-0.3,0-0.4,0.1c0,0-1.2,1.3-2.6,1.2c-2.8-0.1-4-1.5-4.2-4.8c0.9,0.1,7.7,0.5,7.7,0.5
		C53.3,30.3,53.5,30.1,53.5,29.9 M45.5,27.1c0-1.6,0.4-2.7,1-3.4c0.3-0.3,0.7-0.5,1.2-0.5c0.4,0,0.7,0.1,0.9,0.3
		c0.6,0.6,0.7,2,0.8,3.4C48.7,26.8,46.2,27,45.5,27.1"/>
	<path id="Fill-510" class="st5" d="M79,21.7c-1-1-2.3-1.6-3.4-1.6c-1.4,0-2.6,0.5-3.5,1.5c0.1-1.8,0.4-8.2,0.4-8.2v0
		c0-0.1-0.1-0.3-0.2-0.3c-0.1-0.1-0.2-0.1-0.4-0.1l-5.4,1.2c-0.2,0-0.4,0.2-0.3,0.5l1.7,22.7c0,0.2,0.2,0.4,0.4,0.4l3.1-0.1
		c0.2,0,0.4-0.2,0.4-0.4l0.5-10.7c0.1-1.7,1.1-3.6,2.6-3.6c0.5,0,0.8,0.1,1.1,0.4c0.7,0.8,0.6,2.5,0.5,3.5l-0.8,10.5
		c0,0.1,0,0.3,0.1,0.4c0.1,0.1,0.2,0.1,0.4,0.1l3.7-0.7c0.2,0,0.4-0.2,0.4-0.4l0.5-10.3C80.7,24.6,80.1,22.9,79,21.7"/>
	<path id="Fill-512" class="st5" d="M21.7,33.6c0,0,2.2-5.1-5-6.7c-7.2-1.6-8.7-2.4-9-3.6C7.4,22,5.4,39,21.7,33.6"/>
	<path id="Fill-514" class="st5" d="M96.9,19.6c0,0-1.2-2.3,2.1-3.2c3.3-0.9,4-1.3,4.1-1.9C103.1,13.8,104.5,21.6,96.9,19.6"/>
	<path id="Fill-516" class="st5" d="M151,36c0.2,0,0.4,0,0.4-0.3c0-0.2-0.2-0.2-0.4-0.2h-0.3V36H151z M150.9,36.3h-0.3v0.8h-0.3
		v-1.8h0.7c0.4,0,0.7,0.2,0.7,0.5c0,0.3-0.2,0.5-0.5,0.5l0.5,0.8h-0.3L150.9,36.3z M151,37.4c0.7,0,1.2-0.6,1.2-1.3
		c0-0.7-0.5-1.3-1.2-1.3c-0.7,0-1.2,0.6-1.2,1.3C149.8,36.9,150.3,37.4,151,37.4L151,37.4z M151,34.6c0.9,0,1.6,0.7,1.6,1.6
		c0,0.9-0.7,1.6-1.6,1.6c-0.9,0-1.6-0.7-1.6-1.6C149.5,35.3,150.2,34.6,151,34.6L151,34.6z"/>
</g>
</svg>
