<svg version="1.0" id="Layer_1" aria-labelledby="write-message-indicator-fkw" xmlns="http://www.w3.org/2000/svg" xmlns:xlink="http://www.w3.org/1999/xlink" x="0px" y="0px"
	 viewBox="0 0 24 24" enable-background="new 0 0 24 24" xml:space="preserve">
	 <title id="write-message-indicator-fkw">write a message</title>
<g>
	<g>
		<g>
			<path d="M16.1,22.3L16.1,22.3c0,0.1-0.1,0.1-0.1,0.1H1.9c-0.1,0-0.1-0.1-0.1-0.1V1.7c0-0.1,0.1-0.1,0.1-0.1H16
				c0.1,0,0.1,0.1,0.1,0.1v1.4l1.5-1.5C17.6,0.7,16.9,0,16,0H1.9C1,0,0.2,0.8,0.2,1.7v20.6C0.2,23.2,1,24,1.9,24H16
				c0.9,0,1.7-0.8,1.7-1.7V15l-1.5,1.5V22.3z"/>
			<path d="M22.9,3.2c-1.3-1.3-3.3-1.3-4.6,0c-0.7,0.7-9.2,9.2-9.6,9.6c-0.1,0.1-0.2,0.2-0.2,0.4l-1,4.4c-0.1,0.3,0,0.5,0.2,0.7
				c0.2,0.2,0.5,0.3,0.7,0.2l4.4-1c0.1,0,0.3-0.1,0.4-0.2l9.6-9.6C24.1,6.4,24.1,4.4,22.9,3.2z M9.3,16.6l0.4-1.9l1.5,1.5L9.3,16.6z
				 M21.8,6.6l-9,9l-2.4-2.4l9-9c0.7-0.7,1.8-0.7,2.4,0.1C22.4,4.9,22.4,5.9,21.8,6.6z"/>
		</g>
	</g>
</g>
</svg>
