<?xml version="1.0" encoding="utf-8"?>
<!-- Generator: Adobe Illustrator 19.2.0, SVG Export Plug-In . SVG Version: 6.00 Build 0)  -->
<!DOCTYPE svg PUBLIC "-//W3C//DTD SVG 1.1//EN" "http://www.w3.org/Graphics/SVG/1.1/DTD/svg11.dtd">
<svg version="1.1" id="Layer_1" aria-labelledby="fresh-direct-store-locator-fkw" xmlns="http://www.w3.org/2000/svg" xmlns:xlink="http://www.w3.org/1999/xlink" x="0px" y="0px"
	 viewBox="0 0 177.8 36.2" enable-background="new 0 0 177.8 36.2" xml:space="preserve">
	 <title id="fresh-direct-store-locator-fkw">fresh direct store</title>
<g>
	<g>
		<path fill="#69A96F" d="M160.9,32c0-0.2-0.2-0.3-0.3-0.4c-0.2-0.1-0.3,0-0.5,0.1l-0.5,0.4c-0.5,0.4-1,0.9-2,0.9
			c-3.2,0-4.4-3.7-4.5-6.8c-0.1-3.7,1.4-7.5,4.3-7.6c0.9,0,1.3,0.5,1.7,0.9l0.4,0.4c0.1,0.1,0.3,0.2,0.5,0.1c0.2,0,0.3-0.2,0.4-0.4
			l1.1-2.8c0.1-0.3,0-0.6-0.2-0.7l-0.3-0.2c-0.7-0.4-1.7-1-3.4-1.1c-3.3-0.1-6.2,1-8.1,2.9c-2,2-3,4.9-2.9,8.6
			c0.1,6.3,3.5,9.7,9.9,9.9c1.6,0,4.2-0.4,5.1-0.9c0.2-0.1,0.3-0.4,0.2-0.6L160.9,32z M127.7,13.3c-2.5-0.2-4.3,1.4-5.3,2.8
			c0-1-0.1-2.1-0.1-2.1c0-0.2-0.1-0.3-0.2-0.4c-0.1-0.1-0.3-0.1-0.5-0.1l-5.8,1.6c-0.3,0.1-0.4,0.3-0.4,0.6l3.1,19.8
			c0,0.3,0.3,0.5,0.6,0.5l2.9-0.4c0.3,0,0.5-0.2,0.5-0.5l0.4-7.5c0.2-4.3,2.2-6.2,4-6.2c0,0,0.1,0,0.1,0c0.1,0,0.7,0,0.9,0
			c0.2,0,0.4,0,0.5-0.1c0.1-0.1,0.2-0.3,0.2-0.4l-0.4-7C128.2,13.5,128,13.3,127.7,13.3z M138.8,13.6c-2.8,0.1-5.3,1.1-7.1,3.1
			c-2.1,2.2-3.1,5.3-3.1,8.9c0.2,6.8,5.7,10.4,10.8,10.3c4.2-0.1,6.2-2,6.3-2c0.1-0.1,0.2-0.4,0.1-0.6l-0.8-2.7
			c-0.1-0.2-0.2-0.3-0.4-0.4c-0.2,0-0.4,0-0.5,0.2c0,0-1.4,1.6-3.1,1.5c-3.4-0.1-4.9-1.8-5.2-6c1.1,0.1,9.4,0.6,9.4,0.6
			c0.3,0,0.6-0.2,0.6-0.5l0.1-1.5c0.1-1.1,0.2-2.3,0.2-2.8c-0.1-2.5-1-4.8-2.5-6.3C142.3,14.2,140.7,13.6,138.8,13.6z M136,22.6
			c0-1.9,0.4-3.4,1.2-4.2c0.4-0.4,0.9-0.6,1.5-0.7c0.5,0,0.8,0.1,1.1,0.4c0.7,0.7,0.9,2.4,1,4.1C139.9,22.3,136.8,22.5,136,22.6z
			 M107.8,6.1L102.3,5c-0.2,0-0.3,0-0.4,0.1c-0.1,0.1-0.2,0.3-0.2,0.4v10c-0.3-0.2-0.7-0.4-1.1-0.5c-0.7-0.2-1.4-0.3-2-0.3
			c-2.5,0-4.5,0.9-5.8,2.7c-1.3,1.8-1.9,4.2-1.9,7.3v2.1c0,3.4,0.6,5.8,1.8,7.2c1.2,1.4,2.8,2.1,4.7,2.1c1.2,0,2.2-0.3,3.1-0.8
			c0.5-0.3,0.9-0.7,1.4-1.3c0,0.6,0.1,1.2,0.1,1.2c0,0.3,0.3,0.5,0.5,0.5h4.6c0.3,0,0.5-0.2,0.5-0.5l0.7-28.6
			C108.2,6.4,108,6.2,107.8,6.1z M101.7,28.9c-0.2,0.6-0.6,1.6-1,1.9c-0.5,0.3-1,0.5-1.5,0.5c-0.8,0-1.3-0.3-1.7-1
			c-0.4-0.7-0.6-2.1-0.6-4V25c0-1.9,0.3-3.3,0.8-4.3c0.5-0.9,1-1.7,2-1.9c0.4-0.1,0.9,0,1.3,0.3c0,0,0.1,0.1,0.1,0.1
			c0.2,0.1,0.5,0.3,0.6,0.9c0.2,1,0.4,2.8,0.4,4.5C102,26.3,101.9,28,101.7,28.9z M114,15H110c-0.3,0-0.5,0.2-0.5,0.5l-0.7,19.8
			c0,0.2,0.1,0.3,0.2,0.4c0.1,0.1,0.2,0.2,0.4,0.2h5.4c0.1,0,0.3-0.1,0.4-0.2c0.1-0.1,0.2-0.3,0.1-0.4l-0.7-19.8
			C114.6,15.3,114.3,15,114,15z M172.7,30.3c-0.1-0.1-0.3-0.1-0.4-0.1c-0.2,0-0.7,0-1,0l-0.4,0h-0.1c-0.6,0-1.1-0.1-1.3-0.3
			c-0.2-0.2-0.2-0.5-0.2-1.5c0,0,0,0,0,0c0,0,0.1-8.1,0.1-9.1c0.8,0,3.2,0.1,3.2,0.1c0.2,0,0.3-0.1,0.4-0.2c0.1-0.1,0.2-0.2,0.2-0.4
			v-0.1l-0.2-3.3c0-0.3-0.3-0.5-0.5-0.5c0,0-2.4,0-3.2,0c0-0.9-0.1-5.1-0.1-5.1c0-0.2-0.1-0.3-0.2-0.4c-0.1-0.1-0.3-0.1-0.4-0.1
			l-3.2,0.6c-0.2,0-0.4,0.2-0.4,0.5c0,0-0.3,3.8-0.4,4.5c-0.6,0.1-2.1,0.3-2.1,0.3c-0.3,0-0.4,0.3-0.5,0.5l-0.1,2.5
			c0,0.3,0.2,0.6,0.5,0.6c0,0,0.9,0,1.4,0.1c0,1-0.4,9.5-0.4,9.5c-0.1,2.3,0.3,4.2,1.2,5.5c0.9,1.4,2.3,2.1,4,2.2
			c0.7,0,1.5,0,2.2-0.1c1.1-0.1,1.9-0.3,2.3-0.5c0.2-0.1,0.3-0.3,0.3-0.6l-0.5-4.2C172.9,30.5,172.8,30.4,172.7,30.3z M64.7,13.1
			c-3.8,0-6.6,3-6.6,7.1c0,4.2,3.1,5.9,5.4,7.2c1.4,0.8,2.6,1.4,2.6,2.3c0,0.5-0.3,0.8-0.7,0.8c-1,0-3.2-0.9-5.6-3.2
			c-0.1-0.1-0.3-0.2-0.5-0.1c-0.2,0.1-0.3,0.2-0.4,0.4l-1.3,6.1c-0.1,0.2,0.1,0.5,0.3,0.6c2.2,1.3,4.8,1.7,6.6,1.7
			c3.4,0,7-2.9,7-7.5c0-3.8-2.8-5.7-5-7.2c-1.4-0.9-2.5-1.7-2.6-2.7c0-0.3,0.1-0.5,0.3-0.7c0.2-0.2,0.5-0.3,0.9-0.2
			c1.9,0.4,4,2.1,4,2.1c0.2,0.2,0.5,0.2,0.7,0l2.4-2.5c0.2-0.2,0.2-0.5,0.1-0.7C72.1,16.3,69.8,13.1,64.7,13.1z M23.8,15.3
			c0.7-0.2,3.3-0.9,3.3-0.9c0.2-0.1,0.4-0.3,0.4-0.5c0,0,0,0,0-0.1l-0.3-2.3c0-0.2-0.1-0.3-0.2-0.4c-0.1-0.1-0.3-0.1-0.4-0.1
			c0,0-2.2,0.5-3.2,0.7c0-0.2,0-0.5,0-0.5c0-3.4,1.4-5.6,3.5-5.7c0.4,0,1.1,0.4,1.6,0.7l0.6,0.4c0.2,0.1,0.3,0.1,0.5,0
			c0.2-0.1,0.3-0.2,0.3-0.4l0.5-3.5c0-0.2-0.1-0.5-0.3-0.6l0,0c-1.2-0.7-3.6-1.7-6.5-1.5c-5.1,0.3-7.8,3.8-7.8,9.8
			c0,0.4,0,0.8,0,1.3c0,0,0,0.7,0.1,1.2c-0.7,0-2.3,0-2.3,0c-0.2,0-0.3,0.1-0.4,0.2c-0.1,0.1-0.1,0.2-0.1,0.4c0,0,0,0,0,0.1l0.4,3.4
			c0,0.2,0.1,0.3,0.2,0.4c0.1,0.1,0.3,0.1,0.4,0.1c0,0,1.7-0.4,2.4-0.5c0.2,1,4.9,19.3,4.9,19.3c0,0.1,0.1,0.3,0.3,0.3
			c0.1,0.1,0.3,0.1,0.4,0l3-1c0.2-0.1,0.4-0.3,0.4-0.5c0,0,0,0,0,0C25.4,34.8,23.8,16.1,23.8,15.3z M38.7,13.3
			c-2.5-0.2-4.3,1.4-5.3,2.8c0-1-0.1-2.1-0.1-2.1c0-0.2-0.1-0.3-0.2-0.4c-0.1-0.1-0.3-0.1-0.5-0.1l-5.8,1.6
			c-0.3,0.1-0.4,0.3-0.4,0.6l3.1,19.8c0,0.3,0.3,0.5,0.6,0.5l2.9-0.4c0.3,0,0.5-0.2,0.5-0.5l0.4-7.5c0.2-4.3,2.2-6.2,4-6.2
			c0,0,0.1,0,0.1,0c0.1,0,0.7,0,0.9,0c0.2,0,0.4,0,0.5-0.1c0.1-0.1,0.2-0.3,0.2-0.4l-0.4-7C39.2,13.5,39,13.3,38.7,13.3z M49.8,13.6
			c-2.8,0.1-5.3,1.1-7.1,3.1c-2.1,2.2-3.1,5.3-3.1,8.9c0.2,6.8,5.7,10.4,10.8,10.3c4.2-0.1,6.2-2,6.3-2c0.2-0.1,0.2-0.4,0.1-0.6
			L56,30.6c-0.1-0.2-0.2-0.3-0.4-0.4c-0.2,0-0.4,0-0.5,0.2c0,0-1.4,1.6-3.1,1.5c-3.4-0.1-4.9-1.8-5.2-6c1.1,0.1,9.4,0.6,9.4,0.6
			c0.3,0,0.6-0.2,0.6-0.5l0.1-1.5c0.1-1.1,0.2-2.3,0.2-2.8c-0.1-2.5-1-4.8-2.5-6.3C53.3,14.2,51.6,13.6,49.8,13.6z M47,22.6
			c0-1.9,0.4-3.4,1.2-4.2c0.4-0.4,0.9-0.6,1.5-0.7c0.5,0,0.8,0.1,1.1,0.4c0.7,0.7,0.9,2.4,1,4.1C50.9,22.3,47.8,22.5,47,22.6z
			 M83.8,13.9c-1.7,0-3.2,0.6-4.3,1.8C79.6,13.4,80,5.6,80,5.6v0c0-0.2-0.1-0.3-0.2-0.4C79.6,5.1,79.5,5,79.3,5l-6.6,1.5
			c-0.3,0.1-0.4,0.3-0.4,0.6l2.1,28.1c0,0.3,0.3,0.5,0.6,0.5l3.8-0.1c0.3,0,0.5-0.2,0.5-0.5l0.6-13.2c0.1-2.1,1.4-4.4,3.2-4.4
			c0.6,0,1,0.2,1.3,0.5c0.9,0.9,0.7,3.1,0.6,4.3l-1,13c0,0.2,0.1,0.3,0.2,0.5c0.1,0.1,0.3,0.2,0.5,0.1L89,35c0.2,0,0.4-0.3,0.4-0.5
			l0.6-12.7c0.1-2.3-0.7-4.4-2.1-5.9C86.8,14.7,85.2,13.9,83.8,13.9z M11.7,22.4c-8.8-2-10.7-2.9-11.1-4.5
			c-0.4-1.6-2.8,19.4,17.1,12.8C17.7,30.7,20.5,24.4,11.7,22.4z M117.5,7c-0.1,0.7-1,1.2-5,2.4c-4,1.2-2.6,4-2.6,4
			C119.3,15.8,117.6,6.2,117.5,7z M175.9,32.3c-0.8,0-1.5,0.7-1.5,1.7c0,1,0.7,1.7,1.5,1.7c0.8,0,1.5-0.7,1.5-1.7
			C177.4,33,176.7,32.3,175.9,32.3z M175.9,35.4c-0.7,0-1.2-0.6-1.2-1.4c0-0.8,0.5-1.4,1.2-1.4c0.7,0,1.2,0.6,1.2,1.4
			C177.1,34.8,176.6,35.4,175.9,35.4z M176.6,33.6c0-0.4-0.2-0.6-0.6-0.6h-0.6v2h0.3v-0.8h0.3l0.4,0.8h0.3l-0.5-0.9
			C176.4,34.1,176.6,33.9,176.6,33.6z M175.6,33.9v-0.6h0.3c0.2,0,0.4,0,0.4,0.3c0,0.3-0.2,0.3-0.4,0.3H175.6z"/>
	</g>
</g>
</svg>
