<?xml version="1.0" standalone="no"?>
<!DOCTYPE svg PUBLIC "-//W3C//DTD SVG 20010904//EN"
 "http://www.w3.org/TR/2001/REC-SVG-20010904/DTD/svg10.dtd">
<svg version="1.0" xmlns="http://www.w3.org/2000/svg"
 width="260.000000pt" height="260.000000pt" viewBox="0 0 260.000000 260.000000"
 preserveAspectRatio="xMidYMid meet">
<metadata>
Created by potrace 1.11, written by Peter Selinger 2001-2013
</metadata>
<g transform="translate(0.000000,260.000000) scale(0.100000,-0.100000)"
fill="#000000" stroke="none">
<path d="M0 1300 l0 -1300 1300 0 1300 0 0 1300 0 1300 -1300 0 -1300 0 0
-1300z m1390 963 c18 -24 21 -35 15 -78 -4 -27 -8 -142 -9 -255 -1 -239 9
-290 73 -364 68 -78 66 -59 66 -698 l0 -578 189 0 189 0 -19 23 c-55 62 -84
148 -84 251 0 83 20 135 79 205 53 64 59 77 82 192 11 56 27 115 35 130 19 38
54 69 76 69 10 0 18 3 18 8 0 18 -32 51 -53 54 -19 3 -22 9 -22 43 0 33 4 41
22 43 12 2 35 -9 56 -27 31 -28 36 -29 48 -15 21 25 65 44 104 44 41 0 95 -44
95 -78 0 -28 -36 -70 -80 -92 l-39 -20 17 -32 c15 -29 20 -84 22 -229 0 -9 23
-45 52 -80 55 -69 72 -102 88 -172 18 -84 -15 -193 -86 -275 l-36 -42 85 0
c88 0 105 -8 91 -45 -9 -22 -279 -22 -288 0 -6 17 2 45 14 45 20 0 119 103
145 152 24 42 30 65 29 113 0 67 -16 106 -74 175 -61 74 -70 99 -70 198 0 140
-18 172 -99 172 -56 0 -77 -26 -96 -119 -9 -42 -21 -97 -27 -123 -5 -26 -24
-66 -41 -89 -18 -23 -46 -61 -63 -84 -78 -108 -39 -279 86 -373 28 -22 45 -42
45 -56 0 -21 -1 -21 -300 -21 l-300 0 -3 23 c-3 17 3 25 26 33 17 6 33 20 36
32 10 39 6 1069 -5 1116 -6 26 -25 61 -48 87 -65 74 -90 190 -91 417 l0 137
-40 0 -40 0 0 -147 c-1 -228 -25 -335 -94 -411 -26 -28 -39 -54 -46 -92 -11
-55 -14 -1068 -4 -1106 3 -12 17 -27 31 -33 17 -8 23 -18 21 -34 -3 -22 -5
-22 -197 -25 -192 -2 -210 0 -211 30 0 4 21 31 47 60 75 85 132 222 148 361
l7 57 -401 0 -401 0 0 -32 c1 -91 56 -238 143 -377 25 -40 43 -79 40 -87 -4
-11 -30 -14 -115 -14 l-109 0 3 28 c3 26 5 27 70 30 38 2 68 5 68 7 0 3 -13
27 -30 53 -38 62 -83 170 -100 242 -15 60 -19 178 -6 198 5 9 107 12 441 12
504 0 453 15 436 -130 -17 -136 -56 -247 -122 -347 l-21 -33 104 0 103 0 0
578 c0 639 -1 620 66 698 64 74 74 124 73 369 -1 116 -4 230 -8 255 -6 38 -4
50 14 73 20 25 27 27 90 27 63 0 70 -2 90 -27z"/>
<path d="M1247 2224 c-4 -4 -7 -18 -7 -31 0 -22 4 -23 61 -23 60 0 60 0 57 28
-3 25 -7 27 -53 30 -28 2 -54 0 -58 -4z"/>
<path d="M2220 1243 c-19 -7 -60 -44 -60 -55 0 -16 65 -8 98 12 35 22 40 35
16 44 -18 7 -33 7 -54 -1z"/>
</g>
</svg>
