<svg xmlns="http://www.w3.org/2000/svg" xmlns:xlink="http://www.w3.org/1999/xlink" xmlns:a="http://ns.adobe.com/AdobeSVGViewerExtensions/3.0/" version="1.1" width="100%" height="100%"  viewBox="-0.803 0 132 89" enable-background="new -0.803 0 132 89" xml:space="preserve">
<defs>
</defs>
<rect width="100%" height="100%" fill="#732282"></rect>
<path xmlns="http://www.w3.org/2000/svg" fill="#ffffff" d="M86.602,23.168c0.665-0.508,1.193-0.91,1.978-1.074c0.509-0.106,1.365-0.188,1.951,0.276  c-0.464,0.498-1.102,0.75-2.02,0.996C87.85,23.547,86.864,23.485,86.602,23.168 M61.238,1.671c0-0.187,0.156-0.345,0.344-0.345  h2.752c0.188,0,0.344,0.158,0.344,0.345v0.532c0,0.187-0.156,0.345-0.344,0.345h-2.752c-0.188,0-0.344-0.158-0.344-0.345V1.671z   M94.605,42.237h-4.293c1.646-1.166,3.105-2.799,3.464-4.729c0.311-1.658-0.26-3.298-1.644-4.741  c-0.467-0.487-0.877-0.849-1.238-1.166c-0.787-0.696-1.146-1.012-1.228-1.834c-0.003-0.075,0.021-0.324,0.041-0.526  c0.106-1.05,0.304-3.007-0.784-4.303c-0.075-0.089-0.154-0.174-0.234-0.252c0.057-0.011,0.111-0.024,0.167-0.041  c1.135-0.307,2.308-0.71,3.093-1.958c0.136-0.221,0.133-0.504-0.011-0.719c-0.724-1.074-2.042-1.501-3.628-1.17  c-1,0.208-1.672,0.679-2.351,1.193c-0.569-0.797-1.52-1.21-2.355-1.329c-0.327-0.048-0.645,0.16-0.733,0.484  c-0.123,0.467-0.075,0.886,0.15,1.248c0.115,0.191,0.323,0.307,0.546,0.314c0.17-0.004,0.313-0.052,0.433-0.15  c0.402,0.031,0.811,0.535,1.139,1.193c-2.722,0.253-3.209,2.418-3.727,4.699c-0.093,0.416-0.188,0.846-0.304,1.289  c-0.267,1.037-0.955,1.627-1.753,2.312c-0.856,0.737-1.824,1.569-2.203,3.045c-0.607,2.343,0.205,5.252,2.731,7.141H69.203  c0.246-0.6,0.266-1.347,0.243-2.094c0.003-0.177,0.054-17.78-0.004-20.596c-0.059-2.868-0.822-3.564-2.061-4.461l-0.193-0.14  c-0.928-0.678-1.515-2.578-1.685-4.156c-0.096-0.911-0.093-4.161-0.045-6.977c0.004-0.11-0.023-0.219-0.075-0.314V3.495  c0.38-0.303,0.621-0.77,0.621-1.292V1.671C66.005,0.75,65.255,0,64.334,0h-2.752c-0.921,0-1.668,0.75-1.668,1.671v0.532  c0,0.508,0.229,0.965,0.59,1.272c-0.061,0.102-0.092,0.218-0.088,0.338c0.044,2.622,0.061,6.025-0.045,6.994  c-0.17,1.578-0.757,3.478-1.684,4.16l-0.191,0.136c-1.241,0.897-2.005,1.593-2.063,4.461c-0.055,2.817-0.161,20.576-0.164,20.763  c0.007,0.751,0.147,1.399,0.406,1.91h-6.056c1.705-1.613,4.197-4.876,4.197-10.121c0-0.368-0.296-0.665-0.661-0.665H30.85  c-0.31,0-0.579,0.218-0.647,0.525c-0.85,3.976,2.366,8.328,4.116,10.336h-3.52c-0.365,0-0.661,0.297-0.661,0.662  c0,0.365,0.296,0.661,0.661,0.661h5.02c0.136,0,0.259-0.041,0.361-0.109c0.004,0,0.007-0.003,0.007-0.003  c0.021-0.014,0.038-0.028,0.051-0.041c0.024-0.014,0.048-0.034,0.069-0.055c0.255-0.262,0.248-0.682-0.014-0.934  c-0.055-0.055-5.347-5.258-4.876-9.715H53.48c-0.12,2.673-0.969,5.06-2.527,7.1c-1.265,1.653-2.551,2.448-2.565,2.455  c-0.252,0.153-0.375,0.457-0.296,0.743c0.082,0.286,0.341,0.488,0.637,0.488h9.914h0.006c0.041,0,0.086-0.004,0.123-0.014h0.004  c0.041-0.007,0.082-0.021,0.115-0.034c0.065-0.028,0.123-0.061,0.178-0.109c0.014-0.01,0.027-0.024,0.041-0.038  c0.031-0.03,0.059-0.061,0.082-0.099c0.004-0.003,0.004-0.007,0.007-0.01c0.021-0.027,0.034-0.058,0.048-0.092  c0.01-0.017,0.018-0.037,0.02-0.055c0.012-0.023,0.019-0.044,0.021-0.068c0.003-0.013,0.007-0.03,0.007-0.044  c0.007-0.034,0.011-0.068,0.011-0.102c0-0.085-0.018-0.167-0.049-0.246c-0.013-0.031-0.027-0.061-0.047-0.088  c-0.041-0.079-0.104-0.147-0.178-0.202c-0.034-0.023-0.068-0.044-0.106-0.061c-0.036-0.017-0.077-0.031-0.118-0.041  c-0.041-0.01-0.082-0.017-0.127-0.021c-0.014-0.003-0.023-0.003-0.037-0.003c-0.958-0.088-1.043-1.49-1.051-1.91  c0.004-0.18,0.109-17.929,0.164-20.736c0.048-2.353,0.539-2.708,1.514-3.414l0.198-0.143c1.341-0.982,2.025-3.27,2.22-5.088  c0.119-1.128,0.086-4.811,0.062-6.482h2.377c-0.024,1.668-0.058,5.333,0.062,6.465c0.197,1.818,0.883,4.106,2.22,5.088l0.198,0.143  c0.975,0.706,1.466,1.061,1.514,3.414c0.058,2.803,0.003,20.389,0.003,20.586c0.058,1.931-0.279,2.039-1.254,2.08  c-0.365,0.014-0.648,0.321-0.635,0.686c0.014,0.365,0.327,0.644,0.686,0.634c0.03,0,0.058-0.003,0.085-0.003h0.003  c0.031,0.003,0.063,0.007,0.092,0.007h15.458c0.324,0,0.601-0.232,0.655-0.549c0.055-0.318-0.126-0.628-0.43-0.737l-0.255-0.092  c-2.641-1.006-4.895-3.652-4.097-6.759c0.28-1.074,0.979-1.674,1.787-2.37c0.847-0.726,1.8-1.551,2.172-2.99  c0.116-0.454,0.219-0.897,0.314-1.324c0.583-2.584,0.921-3.716,3.072-3.693c0.105,0,0.205,0.007,0.304,0.014h0.075  c0.03,0.007,0.061,0.01,0.092,0.014c0.76,0.055,1.306,0.286,1.664,0.712c0.726,0.866,0.573,2.401,0.48,3.319  c-0.033,0.34-0.062,0.586-0.041,0.784c0.131,1.34,0.809,1.94,1.667,2.7c0.343,0.301,0.73,0.642,1.16,1.092  c1.092,1.138,1.528,2.343,1.299,3.58c-0.337,1.807-2.175,3.738-4.691,4.925l-0.242,0.091c-0.3,0.117-0.474,0.427-0.416,0.741  c0.059,0.313,0.331,0.542,0.651,0.542h6.827c0.364,0,0.661-0.297,0.661-0.665C95.267,42.534,94.97,42.237,94.605,42.237"/>
</svg>
